<svg xmlns="http://www.w3.org/2000/svg" width="1100" height="680" viewBox="0 0 1100 680">
<rect width="1100" height="680" fill="#fcfcfd"/>
<text x="550.0" y="38.0" fill="#222" font-size="28" font-family="Inter, Arial, sans-serif" text-anchor="middle" font-weight="700">Common windows in the time domain</text>
<line x1="90.0" y1="70.0" x2="90.0" y2="590.0" stroke="#333" stroke-width="2"/>
<line x1="90.0" y1="590.0" x2="1060.0" y2="590.0" stroke="#333" stroke-width="2"/>
<line x1="90.0" y1="590.0" x2="1060.0" y2="590.0" stroke="#d9dde3" stroke-width="1" stroke-dasharray="4 6"/>
<text x="78.0" y="595.0" fill="#4b5563" font-size="13" font-family="Inter, Arial, sans-serif" text-anchor="end" font-weight="normal">0.00</text>
<line x1="90.0" y1="486.0" x2="1060.0" y2="486.0" stroke="#d9dde3" stroke-width="1" stroke-dasharray="4 6"/>
<text x="78.0" y="491.0" fill="#4b5563" font-size="13" font-family="Inter, Arial, sans-serif" text-anchor="end" font-weight="normal">0.21</text>
<line x1="90.0" y1="382.0" x2="1060.0" y2="382.0" stroke="#d9dde3" stroke-width="1" stroke-dasharray="4 6"/>
<text x="78.0" y="387.0" fill="#4b5563" font-size="13" font-family="Inter, Arial, sans-serif" text-anchor="end" font-weight="normal">0.42</text>
<line x1="90.0" y1="278.0" x2="1060.0" y2="278.0" stroke="#d9dde3" stroke-width="1" stroke-dasharray="4 6"/>
<text x="78.0" y="283.0" fill="#4b5563" font-size="13" font-family="Inter, Arial, sans-serif" text-anchor="end" font-weight="normal">0.63</text>
<line x1="90.0" y1="174.0" x2="1060.0" y2="174.0" stroke="#d9dde3" stroke-width="1" stroke-dasharray="4 6"/>
<text x="78.0" y="179.0" fill="#4b5563" font-size="13" font-family="Inter, Arial, sans-serif" text-anchor="end" font-weight="normal">0.84</text>
<line x1="90.0" y1="70.0" x2="1060.0" y2="70.0" stroke="#d9dde3" stroke-width="1" stroke-dasharray="4 6"/>
<text x="78.0" y="75.0" fill="#4b5563" font-size="13" font-family="Inter, Arial, sans-serif" text-anchor="end" font-weight="normal">1.05</text>
<line x1="90.0" y1="70.0" x2="90.0" y2="590.0" stroke="#eef1f5" stroke-width="1" stroke-dasharray="4 6"/>
<text x="90.0" y="618.0" fill="#4b5563" font-size="13" font-family="Inter, Arial, sans-serif" text-anchor="middle" font-weight="normal">0.00</text>
<line x1="284.0" y1="70.0" x2="284.0" y2="590.0" stroke="#eef1f5" stroke-width="1" stroke-dasharray="4 6"/>
<text x="284.0" y="618.0" fill="#4b5563" font-size="13" font-family="Inter, Arial, sans-serif" text-anchor="middle" font-weight="normal">0.20</text>
<line x1="478.0" y1="70.0" x2="478.0" y2="590.0" stroke="#eef1f5" stroke-width="1" stroke-dasharray="4 6"/>
<text x="478.0" y="618.0" fill="#4b5563" font-size="13" font-family="Inter, Arial, sans-serif" text-anchor="middle" font-weight="normal">0.40</text>
<line x1="672.0" y1="70.0" x2="672.0" y2="590.0" stroke="#eef1f5" stroke-width="1" stroke-dasharray="4 6"/>
<text x="672.0" y="618.0" fill="#4b5563" font-size="13" font-family="Inter, Arial, sans-serif" text-anchor="middle" font-weight="normal">0.60</text>
<line x1="866.0" y1="70.0" x2="866.0" y2="590.0" stroke="#eef1f5" stroke-width="1" stroke-dasharray="4 6"/>
<text x="866.0" y="618.0" fill="#4b5563" font-size="13" font-family="Inter, Arial, sans-serif" text-anchor="middle" font-weight="normal">0.80</text>
<line x1="1060.0" y1="70.0" x2="1060.0" y2="590.0" stroke="#eef1f5" stroke-width="1" stroke-dasharray="4 6"/>
<text x="1060.0" y="618.0" fill="#4b5563" font-size="13" font-family="Inter, Arial, sans-serif" text-anchor="middle" font-weight="normal">1.00</text>
<polyline fill="none" stroke="#1f77b4" stroke-width="3" points="90.0,94.8 97.6,94.8 105.2,94.8 112.7,94.8 120.3,94.8 127.9,94.8 135.5,94.8 143.0,94.8 150.6,94.8 158.2,94.8 165.8,94.8 173.4,94.8 180.9,94.8 188.5,94.8 196.1,94.8 203.7,94.8 211.2,94.8 218.8,94.8 226.4,94.8 234.0,94.8 241.6,94.8 249.1,94.8 256.7,94.8 264.3,94.8 271.9,94.8 279.5,94.8 287.0,94.8 294.6,94.8 302.2,94.8 309.8,94.8 317.3,94.8 324.9,94.8 332.5,94.8 340.1,94.8 347.7,94.8 355.2,94.8 362.8,94.8 370.4,94.8 378.0,94.8 385.5,94.8 393.1,94.8 400.7,94.8 408.3,94.8 415.9,94.8 423.4,94.8 431.0,94.8 438.6,94.8 446.2,94.8 453.8,94.8 461.3,94.8 468.9,94.8 476.5,94.8 484.1,94.8 491.6,94.8 499.2,94.8 506.8,94.8 514.4,94.8 522.0,94.8 529.5,94.8 537.1,94.8 544.7,94.8 552.3,94.8 559.8,94.8 567.4,94.8 575.0,94.8 582.6,94.8 590.2,94.8 597.7,94.8 605.3,94.8 612.9,94.8 620.5,94.8 628.0,94.8 635.6,94.8 643.2,94.8 650.8,94.8 658.4,94.8 665.9,94.8 673.5,94.8 681.1,94.8 688.7,94.8 696.2,94.8 703.8,94.8 711.4,94.8 719.0,94.8 726.6,94.8 734.1,94.8 741.7,94.8 749.3,94.8 756.9,94.8 764.5,94.8 772.0,94.8 779.6,94.8 787.2,94.8 794.8,94.8 802.3,94.8 809.9,94.8 817.5,94.8 825.1,94.8 832.7,94.8 840.2,94.8 847.8,94.8 855.4,94.8 863.0,94.8 870.5,94.8 878.1,94.8 885.7,94.8 893.3,94.8 900.9,94.8 908.4,94.8 916.0,94.8 923.6,94.8 931.2,94.8 938.8,94.8 946.3,94.8 953.9,94.8 961.5,94.8 969.1,94.8 976.6,94.8 984.2,94.8 991.8,94.8 999.4,94.8 1007.0,94.8 1014.5,94.8 1022.1,94.8 1029.7,94.8 1037.3,94.8 1044.8,94.8 1052.4,94.8 1060.0,94.8"/>
<polyline fill="none" stroke="#ff7f0e" stroke-width="3" points="90.0,590.0 97.6,589.7 105.2,588.8 112.7,587.3 120.3,585.2 127.9,582.6 135.5,579.3 143.0,575.5 150.6,571.2 158.2,566.2 165.8,560.8 173.4,554.8 180.9,548.3 188.5,541.3 196.1,533.8 203.7,525.9 211.2,517.5 218.8,508.7 226.4,499.5 234.0,489.9 241.6,480.0 249.1,469.7 256.7,459.1 264.3,448.3 271.9,437.1 279.5,425.8 287.0,414.3 294.6,402.5 302.2,390.7 309.8,378.7 317.3,366.7 324.9,354.5 332.5,342.4 340.1,330.2 347.7,318.1 355.2,306.0 362.8,294.1 370.4,282.2 378.0,270.5 385.5,259.0 393.1,247.6 400.7,236.5 408.3,225.7 415.9,215.1 423.4,204.8 431.0,194.9 438.6,185.3 446.2,176.1 453.8,167.3 461.3,158.9 468.9,151.0 476.5,143.5 484.1,136.5 491.6,130.0 499.2,124.0 506.8,118.5 514.4,113.6 522.0,109.2 529.5,105.4 537.1,102.2 544.7,99.5 552.3,97.4 559.8,96.0 567.4,95.1 575.0,94.8 582.6,95.1 590.2,96.0 597.7,97.4 605.3,99.5 612.9,102.2 620.5,105.4 628.0,109.2 635.6,113.6 643.2,118.5 650.8,124.0 658.4,130.0 665.9,136.5 673.5,143.5 681.1,151.0 688.7,158.9 696.2,167.3 703.8,176.1 711.4,185.3 719.0,194.9 726.6,204.8 734.1,215.1 741.7,225.7 749.3,236.5 756.9,247.6 764.5,259.0 772.0,270.5 779.6,282.2 787.2,294.1 794.8,306.0 802.3,318.1 809.9,330.2 817.5,342.4 825.1,354.5 832.7,366.7 840.2,378.7 847.8,390.7 855.4,402.5 863.0,414.3 870.5,425.8 878.1,437.1 885.7,448.3 893.3,459.1 900.9,469.7 908.4,480.0 916.0,489.9 923.6,499.5 931.2,508.7 938.8,517.5 946.3,525.9 953.9,533.8 961.5,541.3 969.1,548.3 976.6,554.8 984.2,560.8 991.8,566.2 999.4,571.2 1007.0,575.5 1014.5,579.3 1022.1,582.6 1029.7,585.2 1037.3,587.3 1044.8,588.8 1052.4,589.7 1060.0,590.0"/>
<polyline fill="none" stroke="#2ca02c" stroke-width="3" points="90.0,550.4 97.6,550.1 105.2,549.3 112.7,547.9 120.3,546.0 127.9,543.6 135.5,540.6 143.0,537.1 150.6,533.0 158.2,528.5 165.8,523.5 173.4,518.0 180.9,512.0 188.5,505.5 196.1,498.7 203.7,491.4 211.2,483.7 218.8,475.6 226.4,467.1 234.0,458.3 241.6,449.1 249.1,439.7 256.7,430.0 264.3,420.0 271.9,409.8 279.5,399.3 287.0,388.7 294.6,377.9 302.2,367.0 309.8,356.0 317.3,344.9 324.9,333.7 332.5,322.6 340.1,311.4 347.7,300.2 355.2,289.1 362.8,278.1 370.4,267.2 378.0,256.4 385.5,245.8 393.1,235.4 400.7,225.2 408.3,215.2 415.9,205.5 423.4,196.0 431.0,186.9 438.6,178.1 446.2,169.6 453.8,161.5 461.3,153.8 468.9,146.5 476.5,139.6 484.1,133.2 491.6,127.2 499.2,121.7 506.8,116.6 514.4,112.1 522.0,108.1 529.5,104.6 537.1,101.6 544.7,99.1 552.3,97.2 559.8,95.9 567.4,95.0 575.0,94.8 582.6,95.0 590.2,95.9 597.7,97.2 605.3,99.1 612.9,101.6 620.5,104.6 628.0,108.1 635.6,112.1 643.2,116.6 650.8,121.7 658.4,127.2 665.9,133.2 673.5,139.6 681.1,146.5 688.7,153.8 696.2,161.5 703.8,169.6 711.4,178.1 719.0,186.9 726.6,196.0 734.1,205.5 741.7,215.2 749.3,225.2 756.9,235.4 764.5,245.8 772.0,256.4 779.6,267.2 787.2,278.1 794.8,289.1 802.3,300.2 809.9,311.4 817.5,322.6 825.1,333.7 832.7,344.9 840.2,356.0 847.8,367.0 855.4,377.9 863.0,388.7 870.5,399.3 878.1,409.8 885.7,420.0 893.3,430.0 900.9,439.7 908.4,449.1 916.0,458.3 923.6,467.1 931.2,475.6 938.8,483.7 946.3,491.4 953.9,498.7 961.5,505.5 969.1,512.0 976.6,518.0 984.2,523.5 991.8,528.5 999.4,533.0 1007.0,537.1 1014.5,540.6 1022.1,543.6 1029.7,546.0 1037.3,547.9 1044.8,549.3 1052.4,550.1 1060.0,550.4"/>
<polyline fill="none" stroke="#d62728" stroke-width="3" points="90.0,590.0 97.6,589.9 105.2,589.6 112.7,589.0 120.3,588.3 127.9,587.3 135.5,586.0 143.0,584.5 150.6,582.8 158.2,580.7 165.8,578.4 173.4,575.7 180.9,572.7 188.5,569.4 196.1,565.7 203.7,561.6 211.2,557.1 218.8,552.2 226.4,546.8 234.0,541.0 241.6,534.7 249.1,528.0 256.7,520.7 264.3,513.0 271.9,504.8 279.5,496.0 287.0,486.8 294.6,477.1 302.2,466.9 309.8,456.2 317.3,445.1 324.9,433.6 332.5,421.6 340.1,409.3 347.7,396.6 355.2,383.6 362.8,370.3 370.4,356.8 378.0,343.1 385.5,329.2 393.1,315.3 400.7,301.3 408.3,287.3 415.9,273.4 423.4,259.6 431.0,246.0 438.6,232.6 446.2,219.6 453.8,206.9 461.3,194.6 468.9,182.9 476.5,171.6 484.1,161.0 491.6,150.9 499.2,141.6 506.8,133.0 514.4,125.2 522.0,118.2 529.5,112.1 537.1,106.9 544.7,102.5 552.3,99.1 559.8,96.7 567.4,95.3 575.0,94.8 582.6,95.3 590.2,96.7 597.7,99.1 605.3,102.5 612.9,106.9 620.5,112.1 628.0,118.2 635.6,125.2 643.2,133.0 650.8,141.6 658.4,150.9 665.9,161.0 673.5,171.6 681.1,182.9 688.7,194.6 696.2,206.9 703.8,219.6 711.4,232.6 719.0,246.0 726.6,259.6 734.1,273.4 741.7,287.3 749.3,301.3 756.9,315.3 764.5,329.2 772.0,343.1 779.6,356.8 787.2,370.3 794.8,383.6 802.3,396.6 809.9,409.3 817.5,421.6 825.1,433.6 832.7,445.1 840.2,456.2 847.8,466.9 855.4,477.1 863.0,486.8 870.5,496.0 878.1,504.8 885.7,513.0 893.3,520.7 900.9,528.0 908.4,534.7 916.0,541.0 923.6,546.8 931.2,552.2 938.8,557.1 946.3,561.6 953.9,565.7 961.5,569.4 969.1,572.7 976.6,575.7 984.2,578.4 991.8,580.7 999.4,582.8 1007.0,584.5 1014.5,586.0 1022.1,587.3 1029.7,588.3 1037.3,589.0 1044.8,589.6 1052.4,589.9 1060.0,590.0"/>
<polyline fill="none" stroke="#9467bd" stroke-width="3" points="90.0,589.3 97.6,588.9 105.2,588.3 112.7,587.7 120.3,586.8 127.9,585.8 135.5,584.5 143.0,583.1 150.6,581.4 158.2,579.5 165.8,577.2 173.4,574.7 180.9,571.8 188.5,568.6 196.1,565.0 203.7,561.0 211.2,556.6 218.8,551.7 226.4,546.5 234.0,540.7 241.6,534.5 249.1,527.8 256.7,520.6 264.3,512.8 271.9,504.6 279.5,495.9 287.0,486.7 294.6,477.0 302.2,466.8 309.8,456.1 317.3,445.0 324.9,433.4 332.5,421.4 340.1,409.1 347.7,396.4 355.2,383.4 362.8,370.1 370.4,356.5 378.0,342.8 385.5,329.0 393.1,315.0 400.7,301.0 408.3,287.1 415.9,273.2 423.4,259.4 431.0,245.8 438.6,232.5 446.2,219.4 453.8,206.8 461.3,194.5 468.9,182.8 476.5,171.5 484.1,160.9 491.6,150.9 499.2,141.6 506.8,133.0 514.4,125.2 522.0,118.2 529.5,112.1 537.1,106.8 544.7,102.5 552.3,99.1 559.8,96.7 567.4,95.3 575.0,94.8 582.6,95.3 590.2,96.7 597.7,99.1 605.3,102.5 612.9,106.8 620.5,112.1 628.0,118.2 635.6,125.2 643.2,133.0 650.8,141.6 658.4,150.9 665.9,160.9 673.5,171.5 681.1,182.8 688.7,194.5 696.2,206.8 703.8,219.4 711.4,232.5 719.0,245.8 726.6,259.4 734.1,273.2 741.7,287.1 749.3,301.0 756.9,315.0 764.5,329.0 772.0,342.8 779.6,356.5 787.2,370.1 794.8,383.4 802.3,396.4 809.9,409.1 817.5,421.4 825.1,433.4 832.7,445.0 840.2,456.1 847.8,466.8 855.4,477.0 863.0,486.7 870.5,495.9 878.1,504.6 885.7,512.8 893.3,520.6 900.9,527.8 908.4,534.5 916.0,540.7 923.6,546.5 931.2,551.7 938.8,556.6 946.3,561.0 953.9,565.0 961.5,568.6 969.1,571.8 976.6,574.7 984.2,577.2 991.8,579.5 999.4,581.4 1007.0,583.1 1014.5,584.5 1022.1,585.8 1029.7,586.8 1037.3,587.7 1044.8,588.3 1052.4,588.9 1060.0,589.3"/>
<polyline fill="none" stroke="#8b5cf6" stroke-width="3" points="90.0,590.2 97.6,590.2 105.2,590.3 112.7,590.5 120.3,590.7 127.9,591.0 135.5,591.5 143.0,592.0 150.6,592.6 158.2,593.4 165.8,594.3 173.4,595.4 180.9,596.6 188.5,598.0 196.1,599.6 203.7,601.4 211.2,603.3 218.8,605.4 226.4,607.6 234.0,609.9 241.6,612.3 249.1,614.6 256.7,616.9 264.3,619.1 271.9,621.0 279.5,622.7 287.0,624.0 294.6,624.8 302.2,624.9 309.8,624.4 317.3,622.9 324.9,620.6 332.5,617.1 340.1,612.5 347.7,606.5 355.2,599.2 362.8,590.4 370.4,580.1 378.0,568.2 385.5,554.7 393.1,539.6 400.7,523.0 408.3,504.8 415.9,485.1 423.4,464.2 431.0,442.0 438.6,418.8 446.2,394.8 453.8,370.0 461.3,344.9 468.9,319.6 476.5,294.5 484.1,269.6 491.6,245.5 499.2,222.2 506.8,200.2 514.4,179.7 522.0,160.9 529.5,144.0 537.1,129.4 544.7,117.2 552.3,107.5 559.8,100.4 567.4,96.2 575.0,94.8 582.6,96.2 590.2,100.4 597.7,107.5 605.3,117.2 612.9,129.4 620.5,144.0 628.0,160.9 635.6,179.7 643.2,200.2 650.8,222.2 658.4,245.5 665.9,269.6 673.5,294.5 681.1,319.6 688.7,344.9 696.2,370.0 703.8,394.8 711.4,418.8 719.0,442.0 726.6,464.2 734.1,485.1 741.7,504.8 749.3,523.0 756.9,539.6 764.5,554.7 772.0,568.2 779.6,580.1 787.2,590.4 794.8,599.2 802.3,606.5 809.9,612.5 817.5,617.1 825.1,620.6 832.7,622.9 840.2,624.4 847.8,624.9 855.4,624.8 863.0,624.0 870.5,622.7 878.1,621.0 885.7,619.1 893.3,616.9 900.9,614.6 908.4,612.3 916.0,609.9 923.6,607.6 931.2,605.4 938.8,603.3 946.3,601.4 953.9,599.6 961.5,598.0 969.1,596.6 976.6,595.4 984.2,594.3 991.8,593.4 999.4,592.6 1007.0,592.0 1014.5,591.5 1022.1,591.0 1029.7,590.7 1037.3,590.5 1044.8,590.3 1052.4,590.2 1060.0,590.2"/>
<line x1="880.0" y1="82.0" x2="904.0" y2="82.0" stroke="#1f77b4" stroke-width="4"/>
<text x="912.0" y="87.0" fill="#111827" font-size="15" font-family="Inter, Arial, sans-serif" text-anchor="start" font-weight="normal">rectangular</text>
<line x1="880.0" y1="108.0" x2="904.0" y2="108.0" stroke="#ff7f0e" stroke-width="4"/>
<text x="912.0" y="113.0" fill="#111827" font-size="15" font-family="Inter, Arial, sans-serif" text-anchor="start" font-weight="normal">hann</text>
<line x1="880.0" y1="134.0" x2="904.0" y2="134.0" stroke="#2ca02c" stroke-width="4"/>
<text x="912.0" y="139.0" fill="#111827" font-size="15" font-family="Inter, Arial, sans-serif" text-anchor="start" font-weight="normal">hamming</text>
<line x1="880.0" y1="160.0" x2="904.0" y2="160.0" stroke="#d62728" stroke-width="4"/>
<text x="912.0" y="165.0" fill="#111827" font-size="15" font-family="Inter, Arial, sans-serif" text-anchor="start" font-weight="normal">blackman</text>
<line x1="880.0" y1="186.0" x2="904.0" y2="186.0" stroke="#9467bd" stroke-width="4"/>
<text x="912.0" y="191.0" fill="#111827" font-size="15" font-family="Inter, Arial, sans-serif" text-anchor="start" font-weight="normal">kaiser-8.6</text>
<line x1="880.0" y1="212.0" x2="904.0" y2="212.0" stroke="#8b5cf6" stroke-width="4"/>
<text x="912.0" y="217.0" fill="#111827" font-size="15" font-family="Inter, Arial, sans-serif" text-anchor="start" font-weight="normal">flattop</text>
<text x="575.0" y="652.0" fill="#374151" font-size="16" font-family="Inter, Arial, sans-serif" text-anchor="middle" font-weight="normal">normalized sample index</text>
<text x="28.0" y="330.0" fill="#374151" font-size="16" font-family="Inter, Arial, sans-serif" text-anchor="middle" font-weight="normal">amplitude</text>
</svg>