<svg xmlns="http://www.w3.org/2000/svg" width="1720" height="1420" viewBox="0 0 1720 1420">
<rect width="100%" height="100%" fill="#fcfcfd"/>
<text x="860.0" y="44.0" fill="#111827" font-size="31" font-family="Inter, Arial, sans-serif" text-anchor="middle" font-weight="700">One Nuttall variant wins the first sidelobe. Another wins the far tail.</text>
<text x="860.0" y="82.0" fill="#4b5563" font-size="16" font-family="Inter, Arial, sans-serif"><tspan x="860.0" dy="0" text-anchor="middle">This pass splits the repo&#x27;s old bare `nuttall` label into two explicit coefficient families at length 129. The minimum-4-term-Blackman-Harris</tspan><tspan x="860.0" dy="20.0" text-anchor="middle">variant keeps the lowest first sidelobe. The continuous-derivative variant gives some of that back and buys cleaner far-out decay.</tspan></text>
<line x1="290.0" y1="144.0" x2="318.0" y2="144.0" stroke="#2563eb" stroke-width="3.5" opacity="1.0"/>
<text x="330.0" y="149.0" fill="#111827" font-size="15" font-family="Inter, Arial, sans-serif" text-anchor="start" font-weight="400">Blackman-Harris</text>
<line x1="640.0" y1="144.0" x2="668.0" y2="144.0" stroke="#b45309" stroke-width="3.5" opacity="1.0"/>
<text x="680.0" y="149.0" fill="#111827" font-size="15" font-family="Inter, Arial, sans-serif" text-anchor="start" font-weight="400">Nuttall min-4-term BH</text>
<line x1="990.0" y1="144.0" x2="1018.0" y2="144.0" stroke="#7c3aed" stroke-width="3.5" opacity="1.0"/>
<text x="1030.0" y="149.0" fill="#111827" font-size="15" font-family="Inter, Arial, sans-serif" text-anchor="start" font-weight="400">Nuttall continuous</text>
<rect x="70.0" y="182.0" width="900.0" height="700.0" rx="18.0" fill="#ffffff" stroke="#e5e7eb" stroke-width="1.0"/>
<text x="94.0" y="216.0" fill="#111827" font-size="22" font-family="Inter, Arial, sans-serif" text-anchor="start" font-weight="700">Far-out leakage envelope</text>
<text x="94.0" y="244.0" fill="#4b5563" font-size="15" font-family="Inter, Arial, sans-serif"><tspan x="94.0" dy="0" text-anchor="start">The lines show normalized offset response from 4 to 48 bins away from the tone.</tspan><tspan x="94.0" dy="20.0" text-anchor="start">The shape split is the real point: the minimum-4-term-BH variant keeps the first</tspan><tspan x="94.0" dy="20.0" text-anchor="start">sidelobe lowest, but the continuous variant falls away faster deeper into the</tspan><tspan x="94.0" dy="20.0" text-anchor="start">tail.</tspan></text>
<line x1="183.8" y1="336.0" x2="183.8" y2="804.0" stroke="#d1d5db" stroke-width="1.1" opacity="1.0" stroke-dasharray="5 7"/>
<text x="183.8" y="828.0" fill="#6b7280" font-size="12" font-family="Inter, Arial, sans-serif" text-anchor="middle" font-weight="400">6</text>
<line x1="291.3" y1="336.0" x2="291.3" y2="804.0" stroke="#d1d5db" stroke-width="1.1" opacity="1.0" stroke-dasharray="5 7"/>
<text x="291.3" y="828.0" fill="#6b7280" font-size="12" font-family="Inter, Arial, sans-serif" text-anchor="middle" font-weight="400">12</text>
<line x1="506.2" y1="336.0" x2="506.2" y2="804.0" stroke="#d1d5db" stroke-width="1.1" opacity="1.0" stroke-dasharray="5 7"/>
<text x="506.2" y="828.0" fill="#6b7280" font-size="12" font-family="Inter, Arial, sans-serif" text-anchor="middle" font-weight="400">24</text>
<line x1="936.0" y1="336.0" x2="936.0" y2="804.0" stroke="#d1d5db" stroke-width="1.1" opacity="1.0" stroke-dasharray="5 7"/>
<text x="936.0" y="828.0" fill="#6b7280" font-size="12" font-family="Inter, Arial, sans-serif" text-anchor="middle" font-weight="400">48 bins</text>
<line x1="148.0" y1="813.3" x2="936.0" y2="813.3" stroke="#eef2f7" stroke-width="1.0" opacity="1.0" stroke-dasharray="4 8"/>
<text x="136.0" y="817.3" fill="#6b7280" font-size="12" font-family="Inter, Arial, sans-serif" text-anchor="end" font-weight="400">-245</text>
<line x1="148.0" y1="797.8" x2="936.0" y2="797.8" stroke="#eef2f7" stroke-width="1.0" opacity="1.0" stroke-dasharray="4 8"/>
<text x="136.0" y="801.8" fill="#6b7280" font-size="12" font-family="Inter, Arial, sans-serif" text-anchor="end" font-weight="400">-240</text>
<line x1="148.0" y1="782.3" x2="936.0" y2="782.3" stroke="#eef2f7" stroke-width="1.0" opacity="1.0" stroke-dasharray="4 8"/>
<text x="136.0" y="786.3" fill="#6b7280" font-size="12" font-family="Inter, Arial, sans-serif" text-anchor="end" font-weight="400">-235</text>
<line x1="148.0" y1="766.8" x2="936.0" y2="766.8" stroke="#eef2f7" stroke-width="1.0" opacity="1.0" stroke-dasharray="4 8"/>
<text x="136.0" y="770.8" fill="#6b7280" font-size="12" font-family="Inter, Arial, sans-serif" text-anchor="end" font-weight="400">-230</text>
<line x1="148.0" y1="751.3" x2="936.0" y2="751.3" stroke="#eef2f7" stroke-width="1.0" opacity="1.0" stroke-dasharray="4 8"/>
<text x="136.0" y="755.3" fill="#6b7280" font-size="12" font-family="Inter, Arial, sans-serif" text-anchor="end" font-weight="400">-225</text>
<line x1="148.0" y1="735.8" x2="936.0" y2="735.8" stroke="#eef2f7" stroke-width="1.0" opacity="1.0" stroke-dasharray="4 8"/>
<text x="136.0" y="739.8" fill="#6b7280" font-size="12" font-family="Inter, Arial, sans-serif" text-anchor="end" font-weight="400">-220</text>
<line x1="148.0" y1="720.3" x2="936.0" y2="720.3" stroke="#eef2f7" stroke-width="1.0" opacity="1.0" stroke-dasharray="4 8"/>
<text x="136.0" y="724.3" fill="#6b7280" font-size="12" font-family="Inter, Arial, sans-serif" text-anchor="end" font-weight="400">-215</text>
<line x1="148.0" y1="704.8" x2="936.0" y2="704.8" stroke="#eef2f7" stroke-width="1.0" opacity="1.0" stroke-dasharray="4 8"/>
<text x="136.0" y="708.8" fill="#6b7280" font-size="12" font-family="Inter, Arial, sans-serif" text-anchor="end" font-weight="400">-210</text>
<line x1="148.0" y1="689.3" x2="936.0" y2="689.3" stroke="#eef2f7" stroke-width="1.0" opacity="1.0" stroke-dasharray="4 8"/>
<text x="136.0" y="693.3" fill="#6b7280" font-size="12" font-family="Inter, Arial, sans-serif" text-anchor="end" font-weight="400">-205</text>
<line x1="148.0" y1="673.8" x2="936.0" y2="673.8" stroke="#eef2f7" stroke-width="1.0" opacity="1.0" stroke-dasharray="4 8"/>
<text x="136.0" y="677.8" fill="#6b7280" font-size="12" font-family="Inter, Arial, sans-serif" text-anchor="end" font-weight="400">-200</text>
<line x1="148.0" y1="658.3" x2="936.0" y2="658.3" stroke="#eef2f7" stroke-width="1.0" opacity="1.0" stroke-dasharray="4 8"/>
<text x="136.0" y="662.3" fill="#6b7280" font-size="12" font-family="Inter, Arial, sans-serif" text-anchor="end" font-weight="400">-195</text>
<line x1="148.0" y1="642.8" x2="936.0" y2="642.8" stroke="#eef2f7" stroke-width="1.0" opacity="1.0" stroke-dasharray="4 8"/>
<text x="136.0" y="646.8" fill="#6b7280" font-size="12" font-family="Inter, Arial, sans-serif" text-anchor="end" font-weight="400">-190</text>
<line x1="148.0" y1="627.3" x2="936.0" y2="627.3" stroke="#eef2f7" stroke-width="1.0" opacity="1.0" stroke-dasharray="4 8"/>
<text x="136.0" y="631.3" fill="#6b7280" font-size="12" font-family="Inter, Arial, sans-serif" text-anchor="end" font-weight="400">-185</text>
<line x1="148.0" y1="611.8" x2="936.0" y2="611.8" stroke="#eef2f7" stroke-width="1.0" opacity="1.0" stroke-dasharray="4 8"/>
<text x="136.0" y="615.8" fill="#6b7280" font-size="12" font-family="Inter, Arial, sans-serif" text-anchor="end" font-weight="400">-180</text>
<line x1="148.0" y1="596.3" x2="936.0" y2="596.3" stroke="#eef2f7" stroke-width="1.0" opacity="1.0" stroke-dasharray="4 8"/>
<text x="136.0" y="600.3" fill="#6b7280" font-size="12" font-family="Inter, Arial, sans-serif" text-anchor="end" font-weight="400">-175</text>
<line x1="148.0" y1="580.8" x2="936.0" y2="580.8" stroke="#eef2f7" stroke-width="1.0" opacity="1.0" stroke-dasharray="4 8"/>
<text x="136.0" y="584.8" fill="#6b7280" font-size="12" font-family="Inter, Arial, sans-serif" text-anchor="end" font-weight="400">-170</text>
<line x1="148.0" y1="565.3" x2="936.0" y2="565.3" stroke="#eef2f7" stroke-width="1.0" opacity="1.0" stroke-dasharray="4 8"/>
<text x="136.0" y="569.3" fill="#6b7280" font-size="12" font-family="Inter, Arial, sans-serif" text-anchor="end" font-weight="400">-165</text>
<line x1="148.0" y1="549.8" x2="936.0" y2="549.8" stroke="#eef2f7" stroke-width="1.0" opacity="1.0" stroke-dasharray="4 8"/>
<text x="136.0" y="553.8" fill="#6b7280" font-size="12" font-family="Inter, Arial, sans-serif" text-anchor="end" font-weight="400">-160</text>
<line x1="148.0" y1="534.3" x2="936.0" y2="534.3" stroke="#eef2f7" stroke-width="1.0" opacity="1.0" stroke-dasharray="4 8"/>
<text x="136.0" y="538.3" fill="#6b7280" font-size="12" font-family="Inter, Arial, sans-serif" text-anchor="end" font-weight="400">-155</text>
<line x1="148.0" y1="518.8" x2="936.0" y2="518.8" stroke="#eef2f7" stroke-width="1.0" opacity="1.0" stroke-dasharray="4 8"/>
<text x="136.0" y="522.8" fill="#6b7280" font-size="12" font-family="Inter, Arial, sans-serif" text-anchor="end" font-weight="400">-150</text>
<line x1="148.0" y1="503.3" x2="936.0" y2="503.3" stroke="#eef2f7" stroke-width="1.0" opacity="1.0" stroke-dasharray="4 8"/>
<text x="136.0" y="507.3" fill="#6b7280" font-size="12" font-family="Inter, Arial, sans-serif" text-anchor="end" font-weight="400">-145</text>
<line x1="148.0" y1="487.8" x2="936.0" y2="487.8" stroke="#eef2f7" stroke-width="1.0" opacity="1.0" stroke-dasharray="4 8"/>
<text x="136.0" y="491.8" fill="#6b7280" font-size="12" font-family="Inter, Arial, sans-serif" text-anchor="end" font-weight="400">-140</text>
<line x1="148.0" y1="472.3" x2="936.0" y2="472.3" stroke="#eef2f7" stroke-width="1.0" opacity="1.0" stroke-dasharray="4 8"/>
<text x="136.0" y="476.3" fill="#6b7280" font-size="12" font-family="Inter, Arial, sans-serif" text-anchor="end" font-weight="400">-135</text>
<line x1="148.0" y1="456.8" x2="936.0" y2="456.8" stroke="#eef2f7" stroke-width="1.0" opacity="1.0" stroke-dasharray="4 8"/>
<text x="136.0" y="460.8" fill="#6b7280" font-size="12" font-family="Inter, Arial, sans-serif" text-anchor="end" font-weight="400">-130</text>
<line x1="148.0" y1="441.3" x2="936.0" y2="441.3" stroke="#eef2f7" stroke-width="1.0" opacity="1.0" stroke-dasharray="4 8"/>
<text x="136.0" y="445.3" fill="#6b7280" font-size="12" font-family="Inter, Arial, sans-serif" text-anchor="end" font-weight="400">-125</text>
<line x1="148.0" y1="425.8" x2="936.0" y2="425.8" stroke="#eef2f7" stroke-width="1.0" opacity="1.0" stroke-dasharray="4 8"/>
<text x="136.0" y="429.8" fill="#6b7280" font-size="12" font-family="Inter, Arial, sans-serif" text-anchor="end" font-weight="400">-120</text>
<line x1="148.0" y1="410.3" x2="936.0" y2="410.3" stroke="#eef2f7" stroke-width="1.0" opacity="1.0" stroke-dasharray="4 8"/>
<text x="136.0" y="414.3" fill="#6b7280" font-size="12" font-family="Inter, Arial, sans-serif" text-anchor="end" font-weight="400">-115</text>
<line x1="148.0" y1="394.8" x2="936.0" y2="394.8" stroke="#eef2f7" stroke-width="1.0" opacity="1.0" stroke-dasharray="4 8"/>
<text x="136.0" y="398.8" fill="#6b7280" font-size="12" font-family="Inter, Arial, sans-serif" text-anchor="end" font-weight="400">-110</text>
<line x1="148.0" y1="379.3" x2="936.0" y2="379.3" stroke="#eef2f7" stroke-width="1.0" opacity="1.0" stroke-dasharray="4 8"/>
<text x="136.0" y="383.3" fill="#6b7280" font-size="12" font-family="Inter, Arial, sans-serif" text-anchor="end" font-weight="400">-105</text>
<line x1="148.0" y1="363.8" x2="936.0" y2="363.8" stroke="#eef2f7" stroke-width="1.0" opacity="1.0" stroke-dasharray="4 8"/>
<text x="136.0" y="367.8" fill="#6b7280" font-size="12" font-family="Inter, Arial, sans-serif" text-anchor="end" font-weight="400">-100</text>
<line x1="148.0" y1="348.3" x2="936.0" y2="348.3" stroke="#eef2f7" stroke-width="1.0" opacity="1.0" stroke-dasharray="4 8"/>
<text x="136.0" y="352.3" fill="#6b7280" font-size="12" font-family="Inter, Arial, sans-serif" text-anchor="end" font-weight="400">-95</text>
<line x1="148.0" y1="332.8" x2="936.0" y2="332.8" stroke="#eef2f7" stroke-width="1.0" opacity="1.0" stroke-dasharray="4 8"/>
<text x="136.0" y="336.8" fill="#6b7280" font-size="12" font-family="Inter, Arial, sans-serif" text-anchor="end" font-weight="400">-90</text>
<line x1="148.0" y1="336.0" x2="148.0" y2="804.0" stroke="#334155" stroke-width="2.0" opacity="1.0"/>
<line x1="148.0" y1="804.0" x2="936.0" y2="804.0" stroke="#334155" stroke-width="2.0" opacity="1.0"/>
<text x="148.0" y="310.0" fill="#6b7280" font-size="13" font-family="Inter, Arial, sans-serif" text-anchor="start" font-weight="600">normalized response (dB)</text>
<text x="542.0" y="856.0" fill="#374151" font-size="14" font-family="Inter, Arial, sans-serif" text-anchor="middle" font-weight="400">offset from the tone (bins)</text>
<polyline fill="none" stroke="#2563eb" stroke-width="3.3" stroke-linejoin="round" stroke-linecap="round" points="148.0,357.5 148.9,393.2 149.8,364.8 150.7,365.3 151.6,380.8 152.5,432.6 153.4,371.8 154.3,355.5 155.2,346.9 156.1,342.1 157.0,339.7 157.8,339.1 158.7,340.0 159.6,342.3 160.5,346.0 161.4,351.1 162.3,358.0 163.2,367.3 164.1,380.4 165.0,401.6 165.9,491.6 166.8,412.8 167.7,399.7 168.6,396.6 169.5,399.7 170.4,410.8 171.3,450.7 172.2,419.0 173.1,394.7 174.0,381.8 174.9,373.4 175.8,367.6 176.7,363.6 177.6,361.1 178.4,359.9 179.3,359.8 180.2,361.1 181.1,363.9 182.0,368.5 182.9,376.1 183.8,389.2 184.7,422.6 185.6,409.0 186.5,382.5 187.4,369.4 188.3,360.8 189.2,354.6 190.1,350.1 191.0,346.8 191.9,344.3 192.8,342.8 193.7,341.9 194.6,341.8 195.5,342.3 196.4,343.6 197.2,345.7 198.1,348.8 199.0,353.1 199.9,359.0 200.8,367.5 201.7,381.2 202.6,412.4 203.5,407.5 204.4,379.8 205.3,366.9 206.2,358.7 207.1,353.1 208.0,349.0 208.9,346.1 209.8,344.1 210.7,342.8 211.6,342.3 212.5,342.5 213.4,343.3 214.3,344.8 215.2,347.1 216.1,350.3 216.9,354.6 217.8,360.4 218.7,368.5 219.6,381.0 220.5,405.8 221.4,424.1 222.3,387.5 223.2,373.1 224.1,364.4 225.0,358.5 225.9,354.3 226.8,351.3 227.7,349.2 228.6,348.0 229.5,347.4 230.4,347.6 231.3,348.3 232.2,349.8 233.1,352.0 234.0,355.0 234.9,359.1 235.8,364.5 236.6,372.0 237.5,383.1 238.4,402.9 239.3,469.9 240.2,399.4 241.1,382.4 242.0,372.7 242.9,366.2 243.8,361.7 244.7,358.5 245.6,356.2 246.5,354.8 247.4,354.1 248.3,354.1 249.2,354.7 250.1,356.0 251.0,358.0 251.9,360.8 252.8,364.5 253.7,369.6 254.6,376.3 255.5,386.1 256.4,402.1 257.2,447.2 258.1,415.4 259.0,393.6 259.9,382.3 260.8,375.1 261.7,370.1 262.6,366.5 263.5,364.0 264.4,362.3 265.3,361.4 266.2,361.2 267.1,361.6 268.0,362.7 268.9,364.4 269.8,366.9 270.7,370.3 271.6,374.9 272.5,380.9 273.4,389.4 274.3,402.4 275.2,429.0 276.1,440.0 276.9,406.9 277.8,393.2 278.7,384.8 279.6,379.1 280.5,375.0 281.4,372.2 282.3,370.2 283.2,369.0 284.1,368.5 285.0,368.7 285.9,369.5 286.8,371.0 287.7,373.2 288.6,376.2 289.5,380.2 290.4,385.5 291.3,392.8 292.2,403.4 293.1,421.7 294.0,514.1 294.9,424.2 295.8,405.7 296.6,395.5 297.5,388.8 298.4,384.1 299.3,380.7 300.2,378.4 301.1,376.9 302.0,376.1 302.9,375.9 303.8,376.4 304.7,377.6 305.6,379.4 306.5,382.0 307.4,385.4 308.3,390.0 309.2,396.2 310.1,404.8 311.0,418.0 311.9,445.7 312.8,452.7 313.7,421.3 314.6,407.8 315.4,399.6 316.3,393.9 317.2,389.8 318.1,387.0 319.0,385.0 319.9,383.8 320.8,383.3 321.7,383.4 322.6,384.2 323.5,385.6 324.4,387.7 325.3,390.5 326.2,394.4 327.1,399.5 328.0,406.3 328.9,416.2 329.8,432.4 330.7,479.8 331.6,444.5 332.5,423.1 333.4,412.0 334.3,404.8 335.1,399.7 336.0,396.1 336.9,393.6 337.8,391.8 338.7,390.9 339.6,390.5 340.5,390.8 341.4,391.7 342.3,393.3 343.2,395.5 344.1,398.6 345.0,402.7 345.9,408.1 346.8,415.4 347.7,426.1 348.6,444.6 349.5,560.6 350.4,446.0 351.3,427.8 352.2,417.7 353.1,410.9 354.0,406.2 354.9,402.8 355.7,400.3 356.6,398.7 357.5,397.8 358.4,397.5 359.3,397.9 360.2,398.8 361.1,400.4 362.0,402.7 362.9,405.7 363.8,409.8 364.7,415.2 365.6,422.5 366.5,433.2 367.4,451.7 368.3,570.6 369.2,453.0 370.1,434.8 371.0,424.6 371.9,417.9 372.8,413.1 373.7,409.6 374.5,407.1 375.4,405.4 376.3,404.5 377.2,404.1 378.1,404.3 379.0,405.2 379.9,406.6 380.8,408.7 381.7,411.6 382.6,415.4 383.5,420.5 384.4,427.3 385.3,437.0 386.2,453.0 387.1,498.4 388.0,465.9 388.9,444.1 389.8,432.7 390.7,425.3 391.6,420.1 392.5,416.3 393.4,413.6 394.2,411.6 395.1,410.4 396.0,409.8 396.9,409.8 397.8,410.4 398.7,411.6 399.6,413.4 400.5,415.9 401.4,419.3 402.3,423.7 403.2,429.7 404.1,437.9 405.0,450.6 405.9,476.0 406.8,491.2 407.7,456.0 408.6,441.8 409.5,433.0 410.4,426.9 411.3,422.5 412.2,419.3 413.1,417.0 414.0,415.4 414.8,414.4 415.7,414.1 416.6,414.3 417.5,415.1 418.4,416.6 419.3,418.6 420.2,421.5 421.1,425.3 422.0,430.4 422.9,437.3 423.8,447.3 424.7,464.2 425.6,522.6 426.5,471.3 427.4,451.1 428.3,440.2 429.2,432.9 430.1,427.7 431.0,423.9 431.9,421.0 432.8,419.0 433.6,417.7 434.5,417.0 435.4,416.9 436.3,417.3 437.2,418.4 438.1,420.1 439.0,422.5 439.9,425.8 440.8,430.2 441.7,436.1 442.6,444.5 443.5,457.5 444.4,485.2 445.3,491.0 446.2,459.6 447.1,445.9 448.0,437.3 448.9,431.3 449.8,426.8 450.7,423.6 451.6,421.2 452.5,419.5 453.4,418.6 454.2,418.2 455.1,418.4 456.0,419.2 456.9,420.7 457.8,422.8 458.7,425.8 459.6,429.8 460.5,435.3 461.4,442.9 462.3,454.3 463.2,476.0 464.1,512.4 465.0,464.9 465.9,449.0 466.8,439.5 467.7,432.9 468.6,428.1 469.5,424.6 470.4,422.0 471.3,420.2 472.2,419.1 473.0,418.6 473.9,418.7 474.8,419.4 475.7,420.8 476.6,422.8 477.5,425.7 478.4,429.7 479.3,435.1 480.2,442.5 481.1,453.9 482.0,475.1 482.9,515.2 483.8,465.2 484.7,449.0 485.6,439.4 486.5,432.8 487.4,428.0 488.3,424.4 489.2,421.8 490.1,420.0 491.0,418.9 491.9,418.4 492.8,418.6 493.6,419.3 494.5,420.8 495.4,422.9 496.3,426.0 497.2,430.1 498.1,435.8 499.0,443.7 499.9,456.1 500.8,481.3 501.7,496.4 502.6,460.9 503.5,446.4 504.4,437.5 505.3,431.3 506.2,426.8 507.1,423.4 508.0,421.0 508.9,419.3 509.8,418.4 510.7,418.1 511.6,418.4 512.5,419.3 513.3,420.9 514.2,423.4 515.1,426.7 516.0,431.3 516.9,437.6 517.8,446.7 518.7,461.7 519.6,501.4 520.5,477.9 521.4,454.4 522.3,442.4 523.2,434.6 524.1,429.0 525.0,424.9 525.9,422.0 526.8,419.8 527.7,418.5 528.6,417.8 529.5,417.7 530.4,418.3 531.3,419.5 532.1,421.5 533.0,424.3 533.9,428.1 534.8,433.4 535.7,440.8 536.6,452.1 537.5,473.1 538.4,515.2 539.3,463.7 540.2,447.5 541.1,437.8 542.0,431.2 542.9,426.4 543.8,422.9 544.7,420.4 545.6,418.6 546.5,417.6 547.4,417.2 548.3,417.5 549.2,418.4 550.1,420.0 551.0,422.5 551.9,425.8 552.7,430.4 553.6,436.8 554.5,446.0 555.4,461.3 556.3,503.4 557.2,475.7 558.1,452.9 559.0,441.1 559.9,433.4 560.8,427.9 561.7,423.9 562.6,421.0 563.5,418.9 564.4,417.6 565.3,417.0 566.2,417.0 567.1,417.6 568.0,419.0 568.9,421.1 569.8,424.1 570.7,428.2 571.5,433.8 572.4,441.8 573.3,454.3 574.2,479.7 575.1,493.5 576.0,458.7 576.9,444.3 577.8,435.5 578.7,429.3 579.6,424.8 580.5,421.6 581.4,419.2 582.3,417.7 583.2,416.8 584.1,416.6 585.0,417.1 585.9,418.2 586.8,420.1 587.7,422.8 588.6,426.5 589.5,431.6 590.4,438.7 591.2,449.4 592.1,468.7 593.0,539.0 593.9,465.1 594.8,447.6 595.7,437.5 596.6,430.7 597.5,425.8 598.4,422.2 599.3,419.6 600.2,417.8 601.1,416.8 602.0,416.4 602.9,416.7 603.8,417.6 604.7,419.3 605.6,421.7 606.5,425.2 607.4,429.9 608.3,436.4 609.2,445.9 610.1,461.9 611.0,510.8 611.8,472.3 612.7,450.9 613.6,439.5 614.5,432.0 615.4,426.7 616.3,422.8 617.2,420.0 618.1,418.0 619.0,416.8 619.9,416.3 620.8,416.4 621.7,417.2 622.6,418.7 623.5,420.9 624.4,424.1 625.3,428.5 626.2,434.5 627.1,443.2 628.0,457.1 628.9,489.7 629.8,481.0 630.6,454.3 631.5,441.5 632.4,433.4 633.3,427.6 634.2,423.5 635.1,420.4 636.0,418.3 636.9,416.9 637.8,416.2 638.7,416.2 639.6,416.9 640.5,418.2 641.4,420.3 642.3,423.3 643.2,427.4 644.1,433.0 645.0,441.0 645.9,453.5 646.8,479.2 647.7,492.1 648.6,457.7 649.5,443.4 650.3,434.6 651.2,428.5 652.1,424.1 653.0,420.9 653.9,418.6 654.8,417.1 655.7,416.3 656.6,416.1 657.5,416.6 658.4,417.8 659.3,419.8 660.2,422.6 661.1,426.5 662.0,431.8 662.9,439.3 663.8,450.8 664.7,472.4 665.6,508.6 666.5,461.2 667.4,445.4 668.3,435.9 669.2,429.4 670.0,424.7 670.9,421.3 671.8,418.9 672.7,417.2 673.6,416.3 674.5,416.1 675.4,416.5 676.3,417.6 677.2,419.4 678.1,422.1 679.0,425.8 679.9,430.9 680.8,437.9 681.7,448.6 682.6,467.6 683.5,546.7 684.4,464.9 685.3,447.2 686.2,437.1 687.1,430.3 688.0,425.4 688.9,421.8 689.8,419.2 690.6,417.4 691.5,416.4 692.4,416.1 693.3,416.4 694.2,417.4 695.1,419.1 696.0,421.6 696.9,425.2 697.8,430.0 698.7,436.8 699.6,446.7 700.5,463.9 701.4,530.7 702.3,468.8 703.2,449.1 704.1,438.3 705.0,431.1 705.9,426.0 706.8,422.2 707.7,419.5 708.6,417.7 709.5,416.6 710.3,416.1 711.2,416.4 712.1,417.3 713.0,418.9 713.9,421.3 714.8,424.7 715.7,429.4 716.6,435.8 717.5,445.2 718.4,461.0 719.3,507.1 720.2,472.9 721.1,451.0 722.0,439.5 722.9,431.9 723.8,426.6 724.7,422.7 725.6,419.9 726.5,417.9 727.4,416.7 728.3,416.2 729.2,416.4 730.0,417.2 730.9,418.7 731.8,421.0 732.7,424.3 733.6,428.8 734.5,435.0 735.4,444.0 736.3,458.6 737.2,495.7 738.1,477.3 739.0,452.8 739.9,440.6 740.8,432.8 741.7,427.2 742.6,423.2 743.5,420.2 744.4,418.2 745.3,416.9 746.2,416.3 747.1,416.4 748.0,417.1 748.8,418.6 749.7,420.8 750.6,424.0 751.5,428.3 752.4,434.3 753.3,442.9 754.2,456.7 755.1,488.3 756.0,482.1 756.9,454.6 757.8,441.7 758.7,433.5 759.6,427.8 760.5,423.6 761.4,420.6 762.3,418.5 763.2,417.1 764.1,416.4 765.0,416.5 765.9,417.1 766.8,418.5 767.7,420.7 768.5,423.7 769.4,427.9 770.3,433.7 771.2,442.0 772.1,455.0 773.0,482.9 773.9,487.4 774.8,456.5 775.7,442.8 776.6,434.3 777.5,428.4 778.4,424.1 779.3,420.9 780.2,418.7 781.1,417.3 782.0,416.6 782.9,416.5 783.8,417.1 784.7,418.4 785.6,420.5 786.5,423.5 787.4,427.6 788.2,433.2 789.1,441.2 790.0,453.6 790.9,478.8 791.8,493.6 792.7,458.3 793.6,443.9 794.5,435.1 795.4,429.0 796.3,424.5 797.2,421.3 798.1,419.0 799.0,417.5 799.9,416.7 800.8,416.6 801.7,417.2 802.6,418.4 803.5,420.4 804.4,423.3 805.3,427.3 806.2,432.7 807.1,440.5 808.0,452.3 808.8,475.5 809.7,500.9 810.6,460.1 811.5,445.0 812.4,435.8 813.3,429.5 814.2,425.0 815.1,421.6 816.0,419.3 816.9,417.7 817.8,416.9 818.7,416.7 819.6,417.2 820.5,418.4 821.4,420.3 822.3,423.1 823.2,427.0 824.1,432.3 825.0,439.8 825.9,451.2 826.8,472.8 827.7,510.2 828.5,462.0 829.4,446.0 830.3,436.6 831.2,430.1 832.1,425.4 833.0,422.0 833.9,419.6 834.8,417.9 835.7,417.1 836.6,416.8 837.5,417.3 838.4,418.4 839.3,420.3 840.2,423.0 841.1,426.8 842.0,432.0 842.9,439.3 843.8,450.3 844.7,470.5 845.6,523.2 846.5,463.9 847.3,447.1 848.2,437.3 849.1,430.6 850.0,425.8 850.9,422.3 851.8,419.8 852.7,418.2 853.6,417.2 854.5,417.0 855.4,417.4 856.3,418.4 857.2,420.2 858.1,422.9 859.0,426.6 859.9,431.7 860.8,438.8 861.7,449.4 862.6,468.5 863.5,547.0 864.4,465.7 865.3,448.1 866.2,438.0 867.0,431.1 867.9,426.2 868.8,422.7 869.7,420.1 870.6,418.4 871.5,417.4 872.4,417.1 873.3,417.4 874.2,418.5 875.1,420.2 876.0,422.8 876.9,426.4 877.8,431.4 878.7,438.3 879.6,448.6 880.5,466.7 881.4,576.5 882.3,467.7 883.2,449.1 884.1,438.7 885.0,431.7 885.9,426.7 886.8,423.0 887.6,420.4 888.5,418.6 889.4,417.6 890.3,417.2 891.2,417.5 892.1,418.5 893.0,420.2 893.9,422.7 894.8,426.3 895.7,431.2 896.6,437.9 897.5,447.9 898.4,465.2 899.3,534.4 900.2,469.6 901.1,450.1 902.0,439.3 902.9,432.2 903.8,427.1 904.7,423.3 905.6,420.6 906.5,418.8 907.3,417.7 908.2,417.3 909.1,417.6 910.0,418.5 910.9,420.2 911.8,422.7 912.7,426.2 913.6,430.9 914.5,437.5 915.4,447.3 916.3,463.8 917.2,519.4 918.1,471.6 919.0,451.1 919.9,440.0 920.8,432.7 921.7,427.4 922.6,423.6 923.5,420.9 924.4,419.0 925.3,417.9 926.2,417.5 927.0,417.7 927.9,418.6 928.8,420.2 929.7,422.6 930.6,426.0 931.5,430.7 932.4,437.2 933.3,446.7 934.2,462.6 935.1,510.2 936.0,473.7"/>
<circle cx="183.8" cy="389.2" r="4.8" fill="#2563eb" stroke="#ffffff" stroke-width="2"/>
<circle cx="291.3" cy="392.8" r="4.8" fill="#2563eb" stroke="#ffffff" stroke-width="2"/>
<circle cx="506.2" cy="426.8" r="4.8" fill="#2563eb" stroke="#ffffff" stroke-width="2"/>
<polyline fill="none" stroke="#b45309" stroke-width="3.3" stroke-linejoin="round" stroke-linecap="round" points="148.0,347.6 148.9,393.5 149.8,391.7 150.7,382.1 151.6,393.0 152.5,500.0 153.4,390.3 154.3,372.6 155.2,364.0 156.1,359.8 157.0,358.5 157.8,359.7 158.7,363.1 159.6,369.1 160.5,379.1 161.4,397.0 162.3,474.5 163.2,402.4 164.1,384.9 165.0,376.5 165.9,372.0 166.8,370.3 167.7,370.7 168.6,373.2 169.5,378.4 170.4,387.4 171.3,405.2 172.2,493.2 173.1,401.9 174.0,383.7 174.9,373.3 175.8,366.5 176.7,361.8 177.6,358.5 178.4,356.5 179.3,355.5 180.2,355.4 181.1,356.2 182.0,357.9 182.9,360.8 183.8,365.0 184.7,370.9 185.6,379.7 186.5,394.0 187.4,429.5 188.3,414.4 189.2,389.4 190.1,377.1 191.0,369.3 191.9,363.9 192.8,360.1 193.7,357.3 194.6,355.4 195.5,354.4 196.4,353.9 197.2,354.1 198.1,355.0 199.0,356.4 199.9,358.5 200.8,361.4 201.7,365.1 202.6,369.9 203.5,376.3 204.4,385.1 205.3,398.3 206.2,425.2 207.1,436.2 208.0,403.4 208.9,389.9 209.8,381.6 210.7,376.0 211.6,371.9 212.5,369.0 213.4,366.9 214.3,365.5 215.2,364.7 216.1,364.4 216.9,364.6 217.8,365.2 218.7,366.3 219.6,367.8 220.5,369.9 221.4,372.4 222.3,375.6 223.2,379.6 224.1,384.6 225.0,391.0 225.9,399.7 226.8,412.8 227.7,439.2 228.6,450.8 229.5,417.2 230.4,403.1 231.3,394.3 232.2,388.0 233.1,383.3 234.0,379.6 234.9,376.7 235.8,374.4 236.6,372.7 237.5,371.5 238.4,370.7 239.3,370.3 240.2,370.3 241.1,370.8 242.0,371.7 242.9,373.1 243.8,375.1 244.7,377.8 245.6,381.4 246.5,386.2 247.4,392.8 248.3,402.4 249.2,418.9 250.1,475.9 251.0,425.5 251.9,404.7 252.8,393.3 253.7,385.5 254.6,379.8 255.5,375.4 256.4,372.0 257.2,369.4 258.1,367.5 259.0,366.2 259.9,365.5 260.8,365.3 261.7,365.7 262.6,366.7 263.5,368.3 264.4,370.7 265.3,374.0 266.2,378.6 267.1,384.9 268.0,394.2 268.9,409.8 269.8,456.0 270.7,421.0 271.6,398.9 272.5,387.1 273.4,379.3 274.3,373.6 275.2,369.4 276.1,366.2 276.9,363.9 277.8,362.3 278.7,361.3 279.6,361.0 280.5,361.2 281.4,362.1 282.3,363.7 283.2,366.1 284.1,369.4 285.0,374.0 285.9,380.3 286.8,389.6 287.7,405.3 288.6,451.4 289.5,416.8 290.4,394.8 291.3,383.1 292.2,375.4 293.1,369.9 294.0,365.8 294.9,362.7 295.8,360.6 296.6,359.1 297.5,358.4 298.4,358.3 299.3,358.8 300.2,359.9 301.1,361.9 302.0,364.6 302.9,368.5 303.8,373.7 304.7,381.2 305.6,392.5 306.5,414.2 307.4,450.1 308.3,402.7 309.2,386.8 310.1,377.2 311.0,370.6 311.9,365.9 312.8,362.3 313.7,359.8 314.6,358.0 315.4,357.0 316.3,356.6 317.2,356.9 318.1,357.8 319.0,359.4 319.9,361.9 320.8,365.3 321.7,370.0 322.6,376.6 323.5,386.2 324.4,402.4 325.3,454.8 326.2,411.3 327.1,390.3 328.0,379.0 328.9,371.6 329.8,366.3 330.7,362.4 331.6,359.5 332.5,357.6 333.4,356.3 334.3,355.8 335.1,355.9 336.0,356.6 336.9,358.1 337.8,360.3 338.7,363.5 339.6,367.8 340.5,373.8 341.4,382.4 342.3,396.3 343.2,428.6 344.1,420.6 345.0,393.7 345.9,380.8 346.8,372.7 347.7,366.9 348.6,362.7 349.5,359.7 350.4,357.5 351.3,356.1 352.2,355.4 353.1,355.4 354.0,356.0 354.9,357.3 355.7,359.4 356.6,362.4 357.5,366.5 358.4,372.1 359.3,380.1 360.2,392.6 361.1,418.2 362.0,431.5 362.9,396.9 363.8,382.6 364.7,373.8 365.6,367.7 366.5,363.2 367.4,360.0 368.3,357.7 369.2,356.2 370.1,355.4 371.0,355.3 371.9,355.8 372.8,357.0 373.7,359.0 374.5,361.8 375.4,365.7 376.3,371.1 377.2,378.7 378.1,390.2 379.0,412.3 379.9,445.2 380.8,400.0 381.7,384.3 382.6,374.9 383.5,368.5 384.4,363.9 385.3,360.5 386.2,358.1 387.1,356.5 388.0,355.6 388.9,355.4 389.8,355.8 390.7,357.0 391.6,358.8 392.5,361.6 393.4,365.3 394.2,370.5 395.1,377.8 396.0,388.7 396.9,408.6 397.8,465.8 398.7,402.9 399.6,385.9 400.5,376.1 401.4,369.4 402.3,364.6 403.2,361.1 404.1,358.6 405.0,356.9 405.9,355.9 406.8,355.7 407.7,356.0 408.6,357.1 409.5,358.9 410.4,361.5 411.3,365.2 412.2,370.2 413.1,377.2 414.0,387.6 414.8,406.1 415.7,538.6 416.6,405.7 417.5,387.5 418.4,377.2 419.3,370.3 420.2,365.3 421.1,361.7 422.0,359.1 422.9,357.4 423.8,356.4 424.7,356.0 425.6,356.4 426.5,357.4 427.4,359.1 428.3,361.7 429.2,365.2 430.1,370.1 431.0,376.9 431.9,387.0 432.8,404.3 433.6,475.5 434.5,408.5 435.4,389.0 436.3,378.3 437.2,371.2 438.1,366.1 439.0,362.4 439.9,359.7 440.8,357.9 441.7,356.9 442.6,356.5 443.5,356.8 444.4,357.7 445.3,359.4 446.2,361.9 447.1,365.4 448.0,370.2 448.9,376.8 449.8,386.5 450.7,403.1 451.6,458.2 452.5,411.1 453.4,390.5 454.2,379.4 455.1,372.1 456.0,366.9 456.9,363.1 457.8,360.4 458.7,358.5 459.6,357.4 460.5,357.0 461.4,357.2 462.3,358.1 463.2,359.8 464.1,362.2 465.0,365.7 465.9,370.3 466.8,376.8 467.7,386.3 468.6,402.2 469.5,449.3 470.4,413.6 471.3,391.9 472.2,380.5 473.0,373.0 473.9,367.7 474.8,363.8 475.7,361.1 476.6,359.2 477.5,358.0 478.4,357.5 479.3,357.7 480.2,358.6 481.1,360.2 482.0,362.6 482.9,366.0 483.8,370.6 484.7,377.0 485.6,386.2 486.5,401.5 487.4,443.6 488.3,416.0 489.2,393.2 490.1,381.5 491.0,373.9 491.9,368.5 492.8,364.6 493.6,361.7 494.5,359.8 495.4,358.6 496.3,358.1 497.2,358.3 498.1,359.1 499.0,360.7 499.9,363.0 500.8,366.3 501.7,370.9 502.6,377.1 503.5,386.2 504.4,401.1 505.3,439.6 506.2,418.4 507.1,394.5 508.0,382.5 508.9,374.7 509.8,369.3 510.7,365.3 511.6,362.4 512.5,360.4 513.3,359.2 514.2,358.7 515.1,358.8 516.0,359.6 516.9,361.1 517.8,363.5 518.7,366.7 519.6,371.2 520.5,377.4 521.4,386.3 522.3,400.8 523.2,436.7 524.1,420.7 525.0,395.8 525.9,383.5 526.8,375.6 527.7,370.0 528.6,366.0 529.5,363.1 530.4,361.0 531.3,359.8 532.1,359.2 533.0,359.3 533.9,360.1 534.8,361.6 535.7,363.9 536.6,367.1 537.5,371.6 538.4,377.7 539.3,386.4 540.2,400.6 541.1,434.5 542.0,422.9 542.9,397.0 543.8,384.4 544.7,376.4 545.6,370.8 546.5,366.7 547.4,363.7 548.3,361.7 549.2,360.4 550.1,359.8 551.0,359.9 551.9,360.6 552.7,362.1 553.6,364.4 554.5,367.6 555.4,371.9 556.3,378.0 557.2,386.6 558.1,400.5 559.0,432.7 559.9,425.1 560.8,398.1 561.7,385.3 562.6,377.2 563.5,371.5 564.4,367.4 565.3,364.4 566.2,362.3 567.1,361.0 568.0,360.4 568.9,360.4 569.8,361.2 570.7,362.6 571.5,364.8 572.4,368.0 573.3,372.3 574.2,378.3 575.1,386.8 576.0,400.4 576.9,431.3 577.8,427.2 578.7,399.2 579.6,386.2 580.5,377.9 581.4,372.2 582.3,368.0 583.2,365.0 584.1,362.9 585.0,361.6 585.9,360.9 586.8,361.0 587.7,361.7 588.6,363.1 589.5,365.3 590.4,368.4 591.2,372.7 592.1,378.6 593.0,387.1 593.9,400.5 594.8,430.1 595.7,429.3 596.6,400.2 597.5,387.0 598.4,378.7 599.3,372.9 600.2,368.7 601.1,365.6 602.0,363.5 602.9,362.1 603.8,361.5 604.7,361.5 605.6,362.2 606.5,363.6 607.4,365.8 608.3,368.8 609.2,373.1 610.1,378.9 611.0,387.3 611.8,400.5 612.7,429.2 613.6,431.3 614.5,401.3 615.4,387.8 616.3,379.4 617.2,373.5 618.1,369.3 619.0,366.2 619.9,364.0 620.8,362.7 621.7,362.0 622.6,362.0 623.5,362.7 624.4,364.1 625.3,366.2 626.2,369.3 627.1,373.5 628.0,379.3 628.9,387.6 629.8,400.6 630.6,428.4 631.5,433.3 632.4,402.2 633.3,388.6 634.2,380.1 635.1,374.2 636.0,369.9 636.9,366.8 637.8,364.6 638.7,363.2 639.6,362.5 640.5,362.5 641.4,363.2 642.3,364.5 643.2,366.7 644.1,369.7 645.0,373.9 645.9,379.6 646.8,387.8 647.7,400.7 648.6,427.8 649.5,435.3 650.3,403.2 651.2,389.4 652.1,380.8 653.0,374.8 653.9,370.5 654.8,367.3 655.7,365.1 656.6,363.7 657.5,363.0 658.4,363.0 659.3,363.6 660.2,365.0 661.1,367.1 662.0,370.1 662.9,374.3 663.8,380.0 664.7,388.1 665.6,400.8 666.5,427.2 667.4,437.2 668.3,404.1 669.2,390.1 670.0,381.4 670.9,375.4 671.8,371.0 672.7,367.9 673.6,365.7 674.5,364.2 675.4,363.5 676.3,363.5 677.2,364.1 678.1,365.4 679.0,367.5 679.9,370.5 680.8,374.6 681.7,380.3 682.6,388.3 683.5,400.9 684.4,426.7 685.3,439.1 686.2,404.9 687.1,390.8 688.0,382.0 688.9,376.0 689.8,371.6 690.6,368.4 691.5,366.2 692.4,364.7 693.3,364.0 694.2,363.9 695.1,364.5 696.0,365.8 696.9,367.9 697.8,370.9 698.7,375.0 699.6,380.6 700.5,388.6 701.4,401.0 702.3,426.3 703.2,441.0 704.1,405.8 705.0,391.4 705.9,382.6 706.8,376.5 707.7,372.1 708.6,368.9 709.5,366.6 710.3,365.2 711.2,364.4 712.1,364.4 713.0,365.0 713.9,366.3 714.8,368.3 715.7,371.3 716.6,375.3 717.5,380.9 718.4,388.9 719.3,401.2 720.2,426.0 721.1,442.8 722.0,406.6 722.9,392.1 723.8,383.2 724.7,377.0 725.6,372.6 726.5,369.4 727.4,367.1 728.3,365.6 729.2,364.9 730.0,364.8 730.9,365.4 731.8,366.6 732.7,368.7 733.6,371.6 734.5,375.7 735.4,381.2 736.3,389.1 737.2,401.3 738.1,425.6 739.0,444.7 739.9,407.4 740.8,392.7 741.7,383.7 742.6,377.5 743.5,373.1 744.4,369.8 745.3,367.6 746.2,366.1 747.1,365.3 748.0,365.2 748.8,365.8 749.7,367.0 750.6,369.1 751.5,372.0 752.4,376.0 753.3,381.5 754.2,389.4 755.1,401.4 756.0,425.4 756.9,446.5 757.8,408.1 758.7,393.3 759.6,384.3 760.5,378.0 761.4,373.6 762.3,370.3 763.2,368.0 764.1,366.5 765.0,365.7 765.9,365.6 766.8,366.1 767.7,367.4 768.5,369.4 769.4,372.3 770.3,376.3 771.2,381.8 772.1,389.6 773.0,401.6 773.9,425.1 774.8,448.4 775.7,408.8 776.6,393.9 777.5,384.8 778.4,378.5 779.3,374.0 780.2,370.7 781.1,368.4 782.0,366.9 782.9,366.1 783.8,366.0 784.7,366.5 785.6,367.8 786.5,369.8 787.4,372.6 788.2,376.6 789.1,382.1 790.0,389.8 790.9,401.7 791.8,424.9 792.7,450.2 793.6,409.5 794.5,394.4 795.4,385.3 796.3,379.0 797.2,374.4 798.1,371.1 799.0,368.8 799.9,367.3 800.8,366.5 801.7,366.3 802.6,366.9 803.5,368.1 804.4,370.1 805.3,373.0 806.2,376.9 807.1,382.4 808.0,390.0 808.8,401.8 809.7,424.7 810.6,452.0 811.5,410.2 812.4,394.9 813.3,385.7 814.2,379.4 815.1,374.8 816.0,371.5 816.9,369.2 817.8,367.6 818.7,366.8 819.6,366.7 820.5,367.2 821.4,368.4 822.3,370.4 823.2,373.2 824.1,377.2 825.0,382.6 825.9,390.2 826.8,401.9 827.7,424.5 828.5,453.9 829.4,410.8 830.3,395.4 831.2,386.2 832.1,379.8 833.0,375.2 833.9,371.9 834.8,369.5 835.7,368.0 836.6,367.2 837.5,367.0 838.4,367.5 839.3,368.7 840.2,370.7 841.1,373.5 842.0,377.5 842.9,382.8 843.8,390.4 844.7,402.1 845.6,424.4 846.5,455.8 847.3,411.5 848.2,395.9 849.1,386.6 850.0,380.2 850.9,375.6 851.8,372.3 852.7,369.9 853.6,368.3 854.5,367.5 855.4,367.3 856.3,367.8 857.2,369.0 858.1,371.0 859.0,373.8 859.9,377.7 860.8,383.1 861.7,390.6 862.6,402.2 863.5,424.2 864.4,457.6 865.3,412.1 866.2,396.4 867.0,387.0 867.9,380.6 868.8,376.0 869.7,372.6 870.6,370.2 871.5,368.6 872.4,367.8 873.3,367.6 874.2,368.1 875.1,369.3 876.0,371.2 876.9,374.0 877.8,377.9 878.7,383.3 879.6,390.8 880.5,402.3 881.4,424.0 882.3,459.6 883.2,412.6 884.1,396.8 885.0,387.4 885.9,380.9 886.8,376.3 887.6,372.9 888.5,370.5 889.4,368.9 890.3,368.1 891.2,367.9 892.1,368.4 893.0,369.6 893.9,371.5 894.8,374.3 895.7,378.2 896.6,383.5 897.5,391.0 898.4,402.4 899.3,423.9 900.2,461.5 901.1,413.2 902.0,397.2 902.9,387.8 903.8,381.3 904.7,376.6 905.6,373.2 906.5,370.8 907.3,369.2 908.2,368.4 909.1,368.2 910.0,368.6 910.9,369.8 911.8,371.7 912.7,374.5 913.6,378.4 914.5,383.7 915.4,391.1 916.3,402.4 917.2,423.7 918.1,463.5 919.0,413.7 919.9,397.6 920.8,388.1 921.7,381.6 922.6,376.9 923.5,373.5 924.4,371.1 925.3,369.5 926.2,368.6 927.0,368.4 927.9,368.9 928.8,370.0 929.7,371.9 930.6,374.7 931.5,378.6 932.4,383.8 933.3,391.3 934.2,402.5 935.1,423.6 936.0,465.6"/>
<circle cx="183.8" cy="365.0" r="4.8" fill="#b45309" stroke="#ffffff" stroke-width="2"/>
<circle cx="291.3" cy="383.1" r="4.8" fill="#b45309" stroke="#ffffff" stroke-width="2"/>
<circle cx="506.2" cy="418.4" r="4.8" fill="#b45309" stroke="#ffffff" stroke-width="2"/>
<polyline fill="none" stroke="#7c3aed" stroke-width="3.3" stroke-linejoin="round" stroke-linecap="round" points="148.0,350.5 148.9,372.6 149.8,347.0 150.7,343.1 151.6,346.5 152.5,356.4 153.4,378.1 154.3,412.7 155.2,368.3 156.1,354.6 157.0,347.7 157.8,344.3 158.7,343.1 159.6,343.6 160.5,345.7 161.4,349.2 162.3,354.4 163.2,361.4 164.1,371.0 165.0,385.1 165.9,410.0 166.8,447.7 167.7,405.7 168.6,394.8 169.5,391.2 170.4,392.2 171.3,397.4 172.2,409.3 173.1,442.6 174.0,427.2 174.9,401.3 175.8,388.8 176.7,381.2 177.6,376.4 178.4,373.6 179.3,372.6 180.2,373.2 181.1,375.7 182.0,380.6 182.9,389.3 183.8,406.9 184.7,478.2 185.6,400.7 186.5,382.0 187.4,370.9 188.3,363.2 189.2,357.5 190.1,353.2 191.0,350.0 191.9,347.6 192.8,346.1 193.7,345.3 194.6,345.2 195.5,345.9 196.4,347.3 197.2,349.5 198.1,352.8 199.0,357.5 199.9,364.0 200.8,373.8 201.7,390.8 202.6,456.8 203.5,395.7 204.4,375.9 205.3,365.1 206.2,357.9 207.1,352.7 208.0,349.0 208.9,346.3 209.8,344.5 210.7,343.4 211.6,343.1 212.5,343.4 213.4,344.4 214.3,346.1 215.2,348.6 216.1,352.1 216.9,356.8 217.8,363.4 218.7,372.8 219.6,388.4 220.5,431.8 221.4,402.4 222.3,380.0 223.2,368.6 224.1,361.1 225.0,355.9 225.9,352.2 226.8,349.5 227.7,347.7 228.6,346.7 229.5,346.4 230.4,346.7 231.3,347.7 232.2,349.4 233.1,351.9 234.0,355.4 234.9,360.0 235.8,366.3 236.6,375.2 237.5,389.5 238.4,423.0 239.3,413.1 240.2,387.0 241.1,374.6 242.0,366.7 242.9,361.3 243.8,357.4 244.7,354.7 245.6,352.8 246.5,351.7 247.4,351.3 248.3,351.6 249.2,352.5 250.1,354.2 251.0,356.6 251.9,359.9 252.8,364.4 253.7,370.4 254.6,378.8 255.5,392.0 256.4,419.5 257.2,426.6 258.1,395.0 259.0,381.5 259.9,373.1 260.8,367.4 261.7,363.3 262.6,360.4 263.5,358.5 264.4,357.3 265.3,356.8 266.2,357.0 267.1,357.8 268.0,359.4 268.9,361.6 269.8,364.8 270.7,369.1 271.6,374.8 272.5,382.8 273.4,394.9 274.3,418.4 275.2,443.9 276.1,403.5 276.9,388.7 277.8,379.8 278.7,373.7 279.6,369.4 280.5,366.4 281.4,364.3 282.3,363.0 283.2,362.4 284.1,362.4 285.0,363.2 285.9,364.6 286.8,366.7 287.7,369.8 288.6,373.8 289.5,379.3 290.4,386.8 291.3,398.1 292.2,418.6 293.1,471.2 294.0,412.4 294.9,395.9 295.8,386.4 296.6,380.0 297.5,375.4 298.4,372.2 299.3,370.0 300.2,368.5 301.1,367.8 302.0,367.8 302.9,368.4 303.8,369.7 304.7,371.7 305.6,374.6 306.5,378.5 307.4,383.7 308.3,390.8 309.2,401.3 310.1,419.5 311.0,513.8 311.9,421.7 312.8,403.2 313.7,392.9 314.6,386.1 315.4,381.3 316.3,377.9 317.2,375.5 318.1,373.9 319.0,373.1 319.9,373.0 320.8,373.5 321.7,374.7 322.6,376.5 323.5,379.3 324.4,382.9 325.3,387.9 326.2,394.7 327.1,404.5 328.0,420.8 328.9,470.6 329.8,431.4 330.7,410.4 331.6,399.3 332.5,392.1 333.4,387.0 334.3,383.4 335.1,380.8 336.0,379.1 336.9,378.2 337.8,377.9 338.7,378.3 339.6,379.4 340.5,381.2 341.4,383.7 342.3,387.2 343.2,392.0 344.1,398.4 345.0,407.6 345.9,422.4 346.8,459.1 347.7,442.0 348.6,417.6 349.5,405.5 350.4,397.9 351.3,392.5 352.2,388.7 353.1,386.0 354.0,384.2 354.9,383.1 355.7,382.7 356.6,383.0 357.5,383.9 358.4,385.6 359.3,388.0 360.2,391.3 361.1,395.8 362.0,401.9 362.9,410.6 363.8,424.1 364.7,453.7 365.6,453.9 366.5,424.8 367.4,411.7 368.3,403.5 369.2,397.9 370.1,393.8 371.0,390.9 371.9,389.0 372.8,387.8 373.7,387.3 374.5,387.5 375.4,388.3 376.3,389.8 377.2,392.1 378.1,395.3 379.0,399.5 379.9,405.3 380.8,413.5 381.7,425.9 382.6,450.8 383.5,468.4 384.4,432.1 385.3,417.7 386.2,409.0 387.1,403.0 388.0,398.8 388.9,395.7 389.8,393.6 390.7,392.3 391.6,391.7 392.5,391.8 393.4,392.5 394.2,393.9 395.1,396.0 396.0,399.0 396.9,403.1 397.8,408.6 398.7,416.3 399.6,427.8 400.5,449.3 401.4,489.0 402.3,439.6 403.2,423.7 404.1,414.4 405.0,408.1 405.9,403.6 406.8,400.3 407.7,398.1 408.6,396.6 409.5,395.9 410.4,395.9 411.3,396.5 412.2,397.7 413.1,399.8 414.0,402.6 414.8,406.5 415.7,411.7 416.6,419.0 417.5,429.7 418.4,448.7 419.3,541.2 420.2,447.4 421.1,429.7 422.0,419.7 422.9,413.0 423.8,408.2 424.7,404.8 425.6,402.4 426.5,400.8 427.4,400.0 428.3,399.8 429.2,400.3 430.1,401.5 431.0,403.4 431.9,406.1 432.8,409.8 433.6,414.7 434.5,421.6 435.4,431.6 436.3,448.6 437.2,507.8 438.1,455.7 439.0,435.6 439.9,424.8 440.8,417.7 441.7,412.7 442.6,409.1 443.5,406.6 444.4,404.9 445.3,403.9 446.2,403.6 447.1,404.0 448.0,405.0 448.9,406.8 449.8,409.4 450.7,412.9 451.6,417.6 452.5,424.1 453.4,433.5 454.2,448.8 455.1,489.7 456.0,464.6 456.9,441.6 457.8,429.9 458.7,422.4 459.6,417.1 460.5,413.3 461.4,410.6 462.3,408.8 463.2,407.7 464.1,407.3 465.0,407.6 465.9,408.5 466.8,410.1 467.7,412.5 468.6,415.9 469.5,420.4 470.4,426.6 471.3,435.4 472.2,449.3 473.0,481.3 473.9,474.8 474.8,447.7 475.7,435.0 476.6,427.0 477.5,421.4 478.4,417.4 479.3,414.5 480.2,412.5 481.1,411.3 482.0,410.8 482.9,411.0 483.8,411.8 484.7,413.3 485.6,415.6 486.5,418.8 487.4,423.1 488.3,429.0 489.2,437.2 490.1,450.1 491.0,476.6 491.9,486.9 492.8,453.9 493.6,440.0 494.5,431.4 495.4,425.6 496.3,421.3 497.2,418.3 498.1,416.2 499.0,414.9 499.9,414.3 500.8,414.3 501.7,415.0 502.6,416.4 503.5,418.6 504.4,421.6 505.3,425.7 506.2,431.3 507.1,439.1 508.0,450.9 508.9,473.6 509.8,503.3 510.7,460.3 511.6,445.0 512.5,435.9 513.3,429.7 514.2,425.2 515.1,422.0 516.0,419.8 516.9,418.3 517.8,417.6 518.7,417.5 519.6,418.1 520.5,419.4 521.4,421.4 522.3,424.3 523.2,428.2 524.1,433.5 525.0,440.9 525.9,451.9 526.8,471.7 527.7,532.9 528.6,467.0 529.5,450.1 530.4,440.3 531.3,433.7 532.1,429.0 533.0,425.6 533.9,423.2 534.8,421.7 535.7,420.8 536.6,420.7 537.5,421.2 538.4,422.3 539.3,424.2 540.2,426.9 541.1,430.7 542.0,435.7 542.9,442.7 543.8,452.9 544.7,470.6 545.6,546.9 546.5,474.2 547.4,455.2 548.3,444.6 549.2,437.7 550.1,432.7 551.0,429.1 551.9,426.6 552.7,424.9 553.6,424.0 554.5,423.7 555.4,424.1 556.3,425.1 557.2,426.9 558.1,429.5 559.0,433.0 559.9,437.8 560.8,444.5 561.7,454.0 562.6,469.9 563.5,516.2 564.4,482.1 565.3,460.3 566.2,449.0 567.1,441.6 568.0,436.4 568.9,432.6 569.8,429.9 570.7,428.1 571.5,427.0 572.4,426.7 573.3,426.9 574.2,427.9 575.1,429.5 576.0,432.0 576.9,435.4 577.8,439.9 578.7,446.2 579.6,455.2 580.5,469.6 581.4,504.6 582.3,491.0 583.2,465.6 584.1,453.3 585.0,445.5 585.9,440.0 586.8,436.0 587.7,433.2 588.6,431.2 589.5,430.0 590.4,429.6 591.2,429.7 592.1,430.6 593.0,432.1 593.9,434.4 594.8,437.6 595.7,442.0 596.6,447.9 597.5,456.4 598.4,469.6 599.3,498.0 600.2,501.5 601.1,471.1 602.0,457.7 602.9,449.3 603.8,443.5 604.7,439.4 605.6,436.4 606.5,434.3 607.4,433.0 608.3,432.4 609.2,432.5 610.1,433.2 611.0,434.6 611.8,436.8 612.7,439.8 613.6,444.0 614.5,449.6 615.4,457.6 616.3,469.8 617.2,493.8 618.1,515.1 619.0,476.8 619.9,462.1 620.8,453.2 621.7,447.1 622.6,442.7 623.5,439.5 624.4,437.3 625.3,435.9 626.2,435.2 627.1,435.1 628.0,435.7 628.9,437.0 629.8,439.1 630.6,442.0 631.5,445.9 632.4,451.3 633.3,458.8 634.2,470.1 635.1,491.0 636.0,536.5 636.9,482.8 637.8,466.6 638.7,457.0 639.6,450.6 640.5,445.9 641.4,442.6 642.3,440.2 643.2,438.7 644.1,437.9 645.0,437.7 645.9,438.2 646.8,439.4 647.7,441.3 648.6,444.1 649.5,447.9 650.3,453.0 651.2,460.1 652.1,470.6 653.0,489.1 653.9,797.8 654.8,489.3 655.7,471.1 656.6,460.9 657.5,454.0 658.4,449.2 659.3,445.6 660.2,443.1 661.1,441.5 662.0,440.6 662.9,440.3 663.8,440.7 664.7,441.8 665.6,443.6 666.5,446.2 667.4,449.8 668.3,454.7 669.2,461.4 670.0,471.2 670.9,487.7 671.8,541.6 672.7,496.4 673.6,475.8 674.5,464.7 675.4,457.5 676.3,452.4 677.2,448.7 678.1,446.0 679.0,444.2 679.9,443.2 680.8,442.8 681.7,443.1 682.6,444.1 683.5,445.8 684.4,448.2 685.3,451.7 686.2,456.3 687.1,462.7 688.0,471.9 688.9,486.8 689.8,525.4 690.6,504.4 691.5,480.6 692.4,468.6 693.3,461.0 694.2,455.6 695.1,451.7 696.0,448.9 696.9,446.9 697.8,445.8 698.7,445.3 699.6,445.5 700.5,446.4 701.4,447.9 702.3,450.3 703.2,453.5 704.1,458.0 705.0,464.0 705.9,472.6 706.8,486.3 707.7,517.0 708.6,513.7 709.5,485.6 710.3,472.6 711.2,464.4 712.1,458.7 713.0,454.6 713.9,451.7 714.8,449.6 715.7,448.4 716.6,447.8 717.5,447.9 718.4,448.6 719.3,450.1 720.2,452.3 721.1,455.4 722.0,459.6 722.9,465.4 723.8,473.5 724.7,486.0 725.6,511.6 726.5,525.5 727.4,490.8 728.3,476.6 729.2,467.9 730.0,461.9 730.9,457.6 731.8,454.5 732.7,452.3 733.6,450.9 734.5,450.2 735.4,450.2 736.3,450.9 737.2,452.2 738.1,454.3 739.0,457.2 739.9,461.2 740.8,466.7 741.7,474.4 742.6,486.0 743.5,508.0 744.4,542.4 745.3,496.4 746.2,480.7 747.1,471.4 748.0,465.1 748.8,460.5 749.7,457.3 750.6,454.9 751.5,453.4 752.4,452.7 753.3,452.5 754.2,453.1 755.1,454.3 756.0,456.2 756.9,459.0 757.8,462.9 758.7,468.1 759.6,475.3 760.5,486.1 761.4,505.5 762.3,578.4 763.2,502.4 764.1,484.9 765.0,475.0 765.9,468.3 766.8,463.5 767.7,460.0 768.5,457.6 769.4,456.0 770.3,455.1 771.2,454.8 772.1,455.3 773.0,456.4 773.9,458.2 774.8,460.9 775.7,464.5 776.6,469.5 777.5,476.3 778.4,486.4 779.3,503.6 780.2,569.8 781.1,508.9 782.0,489.3 782.9,478.6 783.8,471.5 784.7,466.5 785.6,462.8 786.5,460.2 787.4,458.5 788.2,457.5 789.1,457.1 790.0,457.5 790.9,458.5 791.8,460.2 792.7,462.7 793.6,466.2 794.5,470.9 795.4,477.4 796.3,486.8 797.2,502.4 798.1,545.7 799.0,516.2 799.9,493.8 800.8,482.3 801.7,474.7 802.6,469.4 803.5,465.6 804.4,462.9 805.3,461.0 806.2,459.9 807.1,459.4 808.0,459.7 808.8,460.6 809.7,462.1 810.6,464.5 811.5,467.8 812.4,472.4 813.3,478.5 814.2,487.3 815.1,501.5 816.0,534.9 816.9,524.8 817.8,498.5 818.7,486.0 819.6,478.0 820.5,472.4 821.4,468.4 822.3,465.5 823.2,463.5 824.1,462.3 825.0,461.7 825.9,461.9 826.8,462.6 827.7,464.1 828.5,466.4 829.4,469.5 830.3,473.8 831.2,479.7 832.1,488.0 833.0,501.0 833.9,528.4 834.8,535.2 835.7,503.5 836.6,489.8 837.5,481.3 838.4,475.5 839.3,471.2 840.2,468.2 841.1,466.0 842.0,464.7 842.9,464.0 843.8,464.1 844.7,464.7 845.6,466.1 846.5,468.2 847.3,471.2 848.2,475.3 849.1,480.9 850.0,488.7 850.9,500.7 851.8,524.0 852.7,549.4 853.6,508.8 854.5,493.8 855.4,484.7 856.3,478.5 857.2,474.1 858.1,470.8 859.0,468.6 859.9,467.1 860.8,466.4 861.7,466.3 862.6,466.9 863.5,468.1 864.4,470.1 865.3,473.0 866.2,476.9 867.0,482.2 867.9,489.6 868.8,500.7 869.7,521.0 870.6,573.5 871.5,514.5 872.4,497.9 873.3,488.2 874.2,481.6 875.1,476.9 876.0,473.6 876.9,471.2 877.8,469.6 878.7,468.7 879.6,468.5 880.5,469.0 881.4,470.2 882.3,472.0 883.2,474.7 884.1,478.5 885.0,483.5 885.9,490.5 886.8,500.9 887.6,518.9 888.5,613.1 889.4,520.8 890.3,502.1 891.2,491.7 892.1,484.8 893.0,479.9 893.9,476.3 894.8,473.8 895.7,472.1 896.6,471.1 897.5,470.8 898.4,471.2 899.3,472.2 900.2,474.0 901.1,476.6 902.0,480.1 902.9,484.9 903.8,491.6 904.7,501.2 905.6,517.4 906.5,567.1 907.3,527.8 908.2,506.6 909.1,495.4 910.0,488.0 910.9,482.9 911.8,479.1 912.7,476.4 913.6,474.6 914.5,473.5 915.4,473.1 916.3,473.4 917.2,474.3 918.1,476.0 919.0,478.4 919.9,481.8 920.8,486.4 921.7,492.7 922.6,501.8 923.5,516.5 924.4,553.1 925.3,535.8 926.2,511.3 927.0,499.2 927.9,491.4 928.8,485.9 929.7,482.0 930.6,479.1 931.5,477.2 932.4,476.0 933.3,475.5 934.2,475.7 935.1,476.5 936.0,478.0"/>
<circle cx="183.8" cy="406.9" r="4.8" fill="#7c3aed" stroke="#ffffff" stroke-width="2"/>
<circle cx="291.3" cy="398.1" r="4.8" fill="#7c3aed" stroke="#ffffff" stroke-width="2"/>
<circle cx="506.2" cy="431.3" r="4.8" fill="#7c3aed" stroke="#ffffff" stroke-width="2"/>
<rect x="970.0" y="182.0" width="620.0" height="700.0" rx="18.0" fill="#ffffff" stroke="#e5e7eb" stroke-width="1.0"/>
<text x="994.0" y="216.0" fill="#111827" font-size="22" font-family="Inter, Arial, sans-serif" text-anchor="start" font-weight="700">Metric split at a glance</text>
<text x="994.0" y="244.0" fill="#4b5563" font-size="15" font-family="Inter, Arial, sans-serif"><tspan x="994.0" dy="0" text-anchor="start">Best values are shaded. The continuous variant does</tspan><tspan x="994.0" dy="20.0" text-anchor="start">not win the first-sidelobe contest. It wins the far</tspan><tspan x="994.0" dy="20.0" text-anchor="start">tail.</tspan></text>
<rect x="1178.0" y="306.0" width="134.0" height="62.0" rx="10.0" fill="#13223a" stroke="#cbd5e1" stroke-width="0.8"/>
<text x="1245.0" y="332.0" fill="#f8fafc" font-size="13" font-family="Inter, Arial, sans-serif" text-anchor="middle" font-weight="700">Blackman-</text>
<text x="1245.0" y="350.0" fill="#e2e8f0" font-size="12" font-family="Inter, Arial, sans-serif" text-anchor="middle" font-weight="600">Harris</text>
<rect x="1312.0" y="306.0" width="134.0" height="62.0" rx="10.0" fill="#0f172a" stroke="#cbd5e1" stroke-width="0.8"/>
<text x="1379.0" y="332.0" fill="#f8fafc" font-size="13" font-family="Inter, Arial, sans-serif" text-anchor="middle" font-weight="700">Nuttall</text>
<text x="1379.0" y="350.0" fill="#e2e8f0" font-size="12" font-family="Inter, Arial, sans-serif" text-anchor="middle" font-weight="600">min-4-term BH</text>
<rect x="1446.0" y="306.0" width="134.0" height="62.0" rx="10.0" fill="#13223a" stroke="#cbd5e1" stroke-width="0.8"/>
<text x="1513.0" y="332.0" fill="#f8fafc" font-size="13" font-family="Inter, Arial, sans-serif" text-anchor="middle" font-weight="700">Nuttall</text>
<text x="1513.0" y="350.0" fill="#e2e8f0" font-size="12" font-family="Inter, Arial, sans-serif" text-anchor="middle" font-weight="600">continuous</text>
<rect x="990.0" y="368.0" width="188.0" height="62.0" rx="10.0" fill="#f8fafc" stroke="#e2e8f0" stroke-width="0.8"/>
<text x="1004.0" y="403.0" fill="#111827" font-size="14" font-family="Inter, Arial, sans-serif" text-anchor="start" font-weight="600">peak sidelobe |dB|</text>
<rect x="1178.0" y="368.0" width="134.0" height="62.0" rx="10.0" fill="#ffffff" stroke="#e2e8f0" stroke-width="0.8"/>
<text x="1245.0" y="403.0" fill="#111827" font-size="14" font-family="Inter, Arial, sans-serif" text-anchor="middle" font-weight="500">92.04</text>
<rect x="1312.0" y="368.0" width="134.0" height="62.0" rx="10.0" fill="#dcfce7" stroke="#e2e8f0" stroke-width="0.8"/>
<text x="1379.0" y="403.0" fill="#14532d" font-size="14" font-family="Inter, Arial, sans-serif" text-anchor="middle" font-weight="700">96.83</text>
<rect x="1446.0" y="368.0" width="134.0" height="62.0" rx="10.0" fill="#ffffff" stroke="#e2e8f0" stroke-width="0.8"/>
<text x="1513.0" y="403.0" fill="#111827" font-size="14" font-family="Inter, Arial, sans-serif" text-anchor="middle" font-weight="500">93.32</text>
<rect x="990.0" y="430.0" width="188.0" height="62.0" rx="10.0" fill="#f8fafc" stroke="#e2e8f0" stroke-width="0.8"/>
<text x="1004.0" y="465.0" fill="#111827" font-size="14" font-family="Inter, Arial, sans-serif" text-anchor="start" font-weight="600">ENBW (bins)</text>
<rect x="1178.0" y="430.0" width="134.0" height="62.0" rx="10.0" fill="#ffffff" stroke="#e2e8f0" stroke-width="0.8"/>
<text x="1245.0" y="465.0" fill="#111827" font-size="14" font-family="Inter, Arial, sans-serif" text-anchor="middle" font-weight="500">2.0200</text>
<rect x="1312.0" y="430.0" width="134.0" height="62.0" rx="10.0" fill="#dcfce7" stroke="#e2e8f0" stroke-width="0.8"/>
<text x="1379.0" y="465.0" fill="#14532d" font-size="14" font-family="Inter, Arial, sans-serif" text-anchor="middle" font-weight="700">1.9915</text>
<rect x="1446.0" y="430.0" width="134.0" height="62.0" rx="10.0" fill="#ffffff" stroke="#e2e8f0" stroke-width="0.8"/>
<text x="1513.0" y="465.0" fill="#111827" font-size="14" font-family="Inter, Arial, sans-serif" text-anchor="middle" font-weight="500">2.0370</text>
<rect x="990.0" y="492.0" width="188.0" height="62.0" rx="10.0" fill="#f8fafc" stroke="#e2e8f0" stroke-width="0.8"/>
<text x="1004.0" y="527.0" fill="#111827" font-size="14" font-family="Inter, Arial, sans-serif" text-anchor="start" font-weight="600">scalloping |dB|</text>
<rect x="1178.0" y="492.0" width="134.0" height="62.0" rx="10.0" fill="#ffffff" stroke="#e2e8f0" stroke-width="0.8"/>
<text x="1245.0" y="527.0" fill="#111827" font-size="14" font-family="Inter, Arial, sans-serif" text-anchor="middle" font-weight="500">0.8128</text>
<rect x="1312.0" y="492.0" width="134.0" height="62.0" rx="10.0" fill="#ffffff" stroke="#e2e8f0" stroke-width="0.8"/>
<text x="1379.0" y="527.0" fill="#111827" font-size="14" font-family="Inter, Arial, sans-serif" text-anchor="middle" font-weight="500">0.8374</text>
<rect x="1446.0" y="492.0" width="134.0" height="62.0" rx="10.0" fill="#dcfce7" stroke="#e2e8f0" stroke-width="0.8"/>
<text x="1513.0" y="527.0" fill="#14532d" font-size="14" font-family="Inter, Arial, sans-serif" text-anchor="middle" font-weight="700">0.7992</text>
<rect x="990.0" y="554.0" width="188.0" height="62.0" rx="10.0" fill="#f8fafc" stroke="#e2e8f0" stroke-width="0.8"/>
<text x="1004.0" y="589.0" fill="#111827" font-size="14" font-family="Inter, Arial, sans-serif" text-anchor="start" font-weight="600">max 6–12 bins (dB)</text>
<rect x="1178.0" y="554.0" width="134.0" height="62.0" rx="10.0" fill="#ffffff" stroke="#e2e8f0" stroke-width="0.8"/>
<text x="1245.0" y="589.0" fill="#111827" font-size="14" font-family="Inter, Arial, sans-serif" text-anchor="middle" font-weight="500">-92.91</text>
<rect x="1312.0" y="554.0" width="134.0" height="62.0" rx="10.0" fill="#dcfce7" stroke="#e2e8f0" stroke-width="0.8"/>
<text x="1379.0" y="589.0" fill="#14532d" font-size="14" font-family="Inter, Arial, sans-serif" text-anchor="middle" font-weight="700">-96.83</text>
<rect x="1446.0" y="554.0" width="134.0" height="62.0" rx="10.0" fill="#ffffff" stroke="#e2e8f0" stroke-width="0.8"/>
<text x="1513.0" y="589.0" fill="#111827" font-size="14" font-family="Inter, Arial, sans-serif" text-anchor="middle" font-weight="500">-93.33</text>
<rect x="990.0" y="616.0" width="188.0" height="62.0" rx="10.0" fill="#f8fafc" stroke="#e2e8f0" stroke-width="0.8"/>
<text x="1004.0" y="651.0" fill="#111827" font-size="14" font-family="Inter, Arial, sans-serif" text-anchor="start" font-weight="600">max 12–24 bins (dB)</text>
<rect x="1178.0" y="616.0" width="134.0" height="62.0" rx="10.0" fill="#dcfce7" stroke="#e2e8f0" stroke-width="0.8"/>
<text x="1245.0" y="651.0" fill="#14532d" font-size="14" font-family="Inter, Arial, sans-serif" text-anchor="middle" font-weight="700">-103.93</text>
<rect x="1312.0" y="616.0" width="134.0" height="62.0" rx="10.0" fill="#ffffff" stroke="#e2e8f0" stroke-width="0.8"/>
<text x="1379.0" y="651.0" fill="#111827" font-size="14" font-family="Inter, Arial, sans-serif" text-anchor="middle" font-weight="500">-97.26</text>
<rect x="1446.0" y="616.0" width="134.0" height="62.0" rx="10.0" fill="#ffffff" stroke="#e2e8f0" stroke-width="0.8"/>
<text x="1513.0" y="651.0" fill="#111827" font-size="14" font-family="Inter, Arial, sans-serif" text-anchor="middle" font-weight="500">-101.30</text>
<rect x="990.0" y="678.0" width="188.0" height="62.0" rx="10.0" fill="#f8fafc" stroke="#e2e8f0" stroke-width="0.8"/>
<text x="1004.0" y="713.0" fill="#111827" font-size="14" font-family="Inter, Arial, sans-serif" text-anchor="start" font-weight="600">max 24–48 bins (dB)</text>
<rect x="1178.0" y="678.0" width="134.0" height="62.0" rx="10.0" fill="#ffffff" stroke="#e2e8f0" stroke-width="0.8"/>
<text x="1245.0" y="713.0" fill="#111827" font-size="14" font-family="Inter, Arial, sans-serif" text-anchor="middle" font-weight="500">-116.88</text>
<rect x="1312.0" y="678.0" width="134.0" height="62.0" rx="10.0" fill="#ffffff" stroke="#e2e8f0" stroke-width="0.8"/>
<text x="1379.0" y="713.0" fill="#111827" font-size="14" font-family="Inter, Arial, sans-serif" text-anchor="middle" font-weight="500">-98.36</text>
<rect x="1446.0" y="678.0" width="134.0" height="62.0" rx="10.0" fill="#dcfce7" stroke="#e2e8f0" stroke-width="0.8"/>
<text x="1513.0" y="713.0" fill="#14532d" font-size="14" font-family="Inter, Arial, sans-serif" text-anchor="middle" font-weight="700">-117.35</text>
<rect x="70.0" y="922.0" width="490.0" height="420.0" rx="18.0" fill="#ffffff" stroke="#e5e7eb" stroke-width="1.0"/>
<rect x="580.0" y="922.0" width="490.0" height="420.0" rx="18.0" fill="#ffffff" stroke="#e5e7eb" stroke-width="1.0"/>
<rect x="1090.0" y="922.0" width="520.0" height="420.0" rx="18.0" fill="#ffffff" stroke="#e5e7eb" stroke-width="1.0"/>
<text x="94.0" y="956.0" fill="#111827" font-size="22" font-family="Inter, Arial, sans-serif" text-anchor="start" font-weight="700">1. First-sidelobe winner</text>
<text x="94.0" y="986.0" fill="#4b5563" font-size="16" font-family="Inter, Arial, sans-serif"><tspan x="94.0" dy="0" text-anchor="start">The old repo `nuttall` is still a legitimate</tspan><tspan x="94.0" dy="20.0" text-anchor="start">window: its peak sidelobe lands at -96.83 dB,</tspan><tspan x="94.0" dy="20.0" text-anchor="start">deeper than Blackman-Harris (-92.04 dB) and deeper</tspan><tspan x="94.0" dy="20.0" text-anchor="start">than the continuous variant (-93.32 dB). If the job</tspan><tspan x="94.0" dy="20.0" text-anchor="start">is mostly “push the first sidelobe down,” the</tspan><tspan x="94.0" dy="20.0" text-anchor="start">minimum-4-term-BH branch still deserves the nod.</tspan></text>
<text x="604.0" y="956.0" fill="#111827" font-size="22" font-family="Inter, Arial, sans-serif" text-anchor="start" font-weight="700">2. Far-tail winner</text>
<text x="604.0" y="986.0" fill="#4b5563" font-size="16" font-family="Inter, Arial, sans-serif"><tspan x="604.0" dy="0" text-anchor="start">The deeper tail flips the story. In the 24–48 bin</tspan><tspan x="604.0" dy="20.0" text-anchor="start">band the minimum-4-term-BH variant only gets down</tspan><tspan x="604.0" dy="20.0" text-anchor="start">to -98.36 dB, while the continuous variant</tspan><tspan x="604.0" dy="20.0" text-anchor="start">reaches -117.35 dB. That is the real naming trap:</tspan><tspan x="604.0" dy="20.0" text-anchor="start">one family member wins the first sidelobe, the</tspan><tspan x="604.0" dy="20.0" text-anchor="start">other wins far-out decay.</tspan></text>
<text x="1114.0" y="956.0" fill="#111827" font-size="22" font-family="Inter, Arial, sans-serif" text-anchor="start" font-weight="700">3. Naming rule for the repo</text>
<text x="1114.0" y="986.0" fill="#4b5563" font-size="16" font-family="Inter, Arial, sans-serif"><tspan x="1114.0" dy="0" text-anchor="start">So the bare name `nuttall` is not good enough once</tspan><tspan x="1114.0" dy="20.0" text-anchor="start">the repo starts teaching sidelobe falloff. Keep</tspan><tspan x="1114.0" dy="20.0" text-anchor="start">`nuttall` as a compatibility alias for the current</tspan><tspan x="1114.0" dy="20.0" text-anchor="start">minimum-4-term-BH implementation, but surface both</tspan><tspan x="1114.0" dy="20.0" text-anchor="start">variants explicitly in the new sidecar and in future</tspan><tspan x="1114.0" dy="20.0" text-anchor="start">weak-spur-at-distance work.</tspan></text>
</svg>