<svg xmlns="http://www.w3.org/2000/svg" width="1100" height="680" viewBox="0 0 1100 680">
<rect width="1100" height="680" fill="#fcfcfd"/>
<text x="550.0" y="38.0" fill="#222" font-size="28" font-family="Inter, Arial, sans-serif" text-anchor="middle" font-weight="700">Amplitude loss versus bin offset</text>
<line x1="90.0" y1="70.0" x2="90.0" y2="590.0" stroke="#333" stroke-width="2"/>
<line x1="90.0" y1="590.0" x2="1060.0" y2="590.0" stroke="#333" stroke-width="2"/>
<line x1="90.0" y1="590.0" x2="1060.0" y2="590.0" stroke="#d9dde3" stroke-width="1" stroke-dasharray="4 6"/>
<text x="78.0" y="595.0" fill="#4b5563" font-size="13" font-family="Inter, Arial, sans-serif" text-anchor="end" font-weight="normal">-4.50</text>
<line x1="90.0" y1="486.0" x2="1060.0" y2="486.0" stroke="#d9dde3" stroke-width="1" stroke-dasharray="4 6"/>
<text x="78.0" y="491.0" fill="#4b5563" font-size="13" font-family="Inter, Arial, sans-serif" text-anchor="end" font-weight="normal">-3.58</text>
<line x1="90.0" y1="382.0" x2="1060.0" y2="382.0" stroke="#d9dde3" stroke-width="1" stroke-dasharray="4 6"/>
<text x="78.0" y="387.0" fill="#4b5563" font-size="13" font-family="Inter, Arial, sans-serif" text-anchor="end" font-weight="normal">-2.66</text>
<line x1="90.0" y1="278.0" x2="1060.0" y2="278.0" stroke="#d9dde3" stroke-width="1" stroke-dasharray="4 6"/>
<text x="78.0" y="283.0" fill="#4b5563" font-size="13" font-family="Inter, Arial, sans-serif" text-anchor="end" font-weight="normal">-1.74</text>
<line x1="90.0" y1="174.0" x2="1060.0" y2="174.0" stroke="#d9dde3" stroke-width="1" stroke-dasharray="4 6"/>
<text x="78.0" y="179.0" fill="#4b5563" font-size="13" font-family="Inter, Arial, sans-serif" text-anchor="end" font-weight="normal">-0.82</text>
<line x1="90.0" y1="70.0" x2="1060.0" y2="70.0" stroke="#d9dde3" stroke-width="1" stroke-dasharray="4 6"/>
<text x="78.0" y="75.0" fill="#4b5563" font-size="13" font-family="Inter, Arial, sans-serif" text-anchor="end" font-weight="normal">0.10</text>
<line x1="90.0" y1="70.0" x2="90.0" y2="590.0" stroke="#eef1f5" stroke-width="1" stroke-dasharray="4 6"/>
<text x="90.0" y="618.0" fill="#4b5563" font-size="13" font-family="Inter, Arial, sans-serif" text-anchor="middle" font-weight="normal">0.00</text>
<line x1="284.0" y1="70.0" x2="284.0" y2="590.0" stroke="#eef1f5" stroke-width="1" stroke-dasharray="4 6"/>
<text x="284.0" y="618.0" fill="#4b5563" font-size="13" font-family="Inter, Arial, sans-serif" text-anchor="middle" font-weight="normal">0.10</text>
<line x1="478.0" y1="70.0" x2="478.0" y2="590.0" stroke="#eef1f5" stroke-width="1" stroke-dasharray="4 6"/>
<text x="478.0" y="618.0" fill="#4b5563" font-size="13" font-family="Inter, Arial, sans-serif" text-anchor="middle" font-weight="normal">0.20</text>
<line x1="672.0" y1="70.0" x2="672.0" y2="590.0" stroke="#eef1f5" stroke-width="1" stroke-dasharray="4 6"/>
<text x="672.0" y="618.0" fill="#4b5563" font-size="13" font-family="Inter, Arial, sans-serif" text-anchor="middle" font-weight="normal">0.30</text>
<line x1="866.0" y1="70.0" x2="866.0" y2="590.0" stroke="#eef1f5" stroke-width="1" stroke-dasharray="4 6"/>
<text x="866.0" y="618.0" fill="#4b5563" font-size="13" font-family="Inter, Arial, sans-serif" text-anchor="middle" font-weight="normal">0.40</text>
<line x1="1060.0" y1="70.0" x2="1060.0" y2="590.0" stroke="#eef1f5" stroke-width="1" stroke-dasharray="4 6"/>
<text x="1060.0" y="618.0" fill="#4b5563" font-size="13" font-family="Inter, Arial, sans-serif" text-anchor="middle" font-weight="normal">0.50</text>
<polyline fill="none" stroke="#1f77b4" stroke-width="3" points="90.0,81.3 94.8,81.3 99.7,81.3 104.5,81.4 109.4,81.5 114.2,81.6 119.1,81.7 124.0,81.8 128.8,82.0 133.7,82.1 138.5,82.3 143.3,82.5 148.2,82.8 153.1,83.0 157.9,83.3 162.8,83.6 167.6,83.9 172.4,84.2 177.3,84.6 182.2,85.0 187.0,85.3 191.8,85.8 196.7,86.2 201.6,86.6 206.4,87.1 211.2,87.6 216.1,88.1 221.0,88.7 225.8,89.2 230.6,89.8 235.5,90.4 240.3,91.0 245.2,91.7 250.1,92.3 254.9,93.0 259.8,93.7 264.6,94.4 269.4,95.2 274.3,95.9 279.1,96.7 284.0,97.5 288.9,98.3 293.7,99.2 298.5,100.0 303.4,100.9 308.2,101.8 313.1,102.8 317.9,103.7 322.8,104.7 327.6,105.7 332.5,106.7 337.4,107.7 342.2,108.8 347.1,109.8 351.9,110.9 356.8,112.0 361.6,113.2 366.4,114.3 371.3,115.5 376.1,116.7 381.0,117.9 385.8,119.2 390.7,120.4 395.6,121.7 400.4,123.0 405.2,124.3 410.1,125.7 415.0,127.0 419.8,128.4 424.6,129.8 429.5,131.3 434.3,132.7 439.2,134.2 444.1,135.7 448.9,137.2 453.8,138.8 458.6,140.3 463.4,141.9 468.3,143.5 473.2,145.1 478.0,146.8 482.9,148.4 487.7,150.1 492.5,151.9 497.4,153.6 502.2,155.3 507.1,157.1 511.9,158.9 516.8,160.8 521.7,162.6 526.5,164.5 531.4,166.4 536.2,168.3 541.0,170.2 545.9,172.2 550.8,174.2 555.6,176.2 560.5,178.2 565.3,180.2 570.1,182.3 575.0,184.4 579.9,186.5 584.7,188.7 589.5,190.8 594.4,193.0 599.2,195.2 604.1,197.5 609.0,199.7 613.8,202.0 618.7,204.3 623.5,206.6 628.4,209.0 633.2,211.4 638.0,213.8 642.9,216.2 647.8,218.6 652.6,221.1 657.4,223.6 662.3,226.1 667.1,228.7 672.0,231.2 676.9,233.8 681.7,236.4 686.5,239.1 691.4,241.7 696.2,244.4 701.1,247.1 706.0,249.9 710.8,252.6 715.6,255.4 720.5,258.2 725.4,261.1 730.2,264.0 735.1,266.8 739.9,269.8 744.8,272.7 749.6,275.7 754.5,278.7 759.3,281.7 764.1,284.7 769.0,287.8 773.8,290.9 778.7,294.0 783.5,297.2 788.4,300.3 793.2,303.5 798.1,306.8 802.9,310.0 807.8,313.3 812.6,316.6 817.5,320.0 822.4,323.3 827.2,326.7 832.1,330.1 836.9,333.6 841.8,337.1 846.6,340.6 851.5,344.1 856.3,347.7 861.2,351.2 866.0,354.9 870.9,358.5 875.7,362.2 880.5,365.9 885.4,369.6 890.2,373.4 895.1,377.2 899.9,381.0 904.8,384.8 909.6,388.7 914.5,392.6 919.4,396.6 924.2,400.5 929.0,404.5 933.9,408.6 938.8,412.6 943.6,416.7 948.5,420.8 953.3,425.0 958.1,429.2 963.0,433.4 967.9,437.6 972.7,441.9 977.6,446.2 982.4,450.6 987.2,455.0 992.1,459.4 997.0,463.8 1001.8,468.3 1006.6,472.8 1011.5,477.4 1016.3,481.9 1021.2,486.5 1026.0,491.2 1030.9,495.9 1035.8,500.6 1040.6,505.3 1045.4,510.1 1050.3,514.9 1055.2,519.8 1060.0,524.7"/>
<polyline fill="none" stroke="#ff7f0e" stroke-width="3" points="90.0,81.3 94.8,81.3 99.7,81.3 104.5,81.3 109.4,81.4 114.2,81.4 119.1,81.4 124.0,81.5 128.8,81.6 133.7,81.6 138.5,81.7 143.3,81.8 148.2,81.9 153.1,82.0 157.9,82.1 162.8,82.2 167.6,82.3 172.4,82.4 177.3,82.6 182.2,82.7 187.0,82.9 191.8,83.0 196.7,83.2 201.6,83.4 206.4,83.5 211.2,83.7 216.1,83.9 221.0,84.1 225.8,84.4 230.6,84.6 235.5,84.8 240.3,85.1 245.2,85.3 250.1,85.5 254.9,85.8 259.8,86.1 264.6,86.4 269.4,86.6 274.3,86.9 279.1,87.2 284.0,87.5 288.9,87.9 293.7,88.2 298.5,88.5 303.4,88.9 308.2,89.2 313.1,89.6 317.9,89.9 322.8,90.3 327.6,90.7 332.5,91.1 337.4,91.5 342.2,91.9 347.1,92.3 351.9,92.7 356.8,93.1 361.6,93.5 366.4,94.0 371.3,94.4 376.1,94.9 381.0,95.4 385.8,95.8 390.7,96.3 395.6,96.8 400.4,97.3 405.2,97.8 410.1,98.3 415.0,98.8 419.8,99.4 424.6,99.9 429.5,100.4 434.3,101.0 439.2,101.5 444.1,102.1 448.9,102.7 453.8,103.3 458.6,103.9 463.4,104.5 468.3,105.1 473.2,105.7 478.0,106.3 482.9,106.9 487.7,107.6 492.5,108.2 497.4,108.9 502.2,109.5 507.1,110.2 511.9,110.9 516.8,111.6 521.7,112.3 526.5,113.0 531.4,113.7 536.2,114.4 541.0,115.1 545.9,115.9 550.8,116.6 555.6,117.3 560.5,118.1 565.3,118.9 570.1,119.6 575.0,120.4 579.9,121.2 584.7,122.0 589.5,122.8 594.4,123.6 599.2,124.5 604.1,125.3 609.0,126.1 613.8,127.0 618.7,127.8 623.5,128.7 628.4,129.6 633.2,130.4 638.0,131.3 642.9,132.2 647.8,133.1 652.6,134.0 657.4,134.9 662.3,135.9 667.1,136.8 672.0,137.7 676.9,138.7 681.7,139.6 686.5,140.6 691.4,141.6 696.2,142.6 701.1,143.6 706.0,144.6 710.8,145.6 715.6,146.6 720.5,147.6 725.4,148.6 730.2,149.7 735.1,150.7 739.9,151.8 744.8,152.8 749.6,153.9 754.5,155.0 759.3,156.1 764.1,157.2 769.0,158.3 773.8,159.4 778.7,160.5 783.5,161.6 788.4,162.8 793.2,163.9 798.1,165.1 802.9,166.2 807.8,167.4 812.6,168.6 817.5,169.8 822.4,171.0 827.2,172.2 832.1,173.4 836.9,174.6 841.8,175.8 846.6,177.1 851.5,178.3 856.3,179.6 861.2,180.8 866.0,182.1 870.9,183.4 875.7,184.6 880.5,185.9 885.4,187.2 890.2,188.6 895.1,189.9 899.9,191.2 904.8,192.5 909.6,193.9 914.5,195.2 919.4,196.6 924.2,198.0 929.0,199.3 933.9,200.7 938.8,202.1 943.6,203.5 948.5,204.9 953.3,206.3 958.1,207.8 963.0,209.2 967.9,210.7 972.7,212.1 977.6,213.6 982.4,215.0 987.2,216.5 992.1,218.0 997.0,219.5 1001.8,221.0 1006.6,222.5 1011.5,224.0 1016.3,225.6 1021.2,227.1 1026.0,228.6 1030.9,230.2 1035.8,231.8 1040.6,233.3 1045.4,234.9 1050.3,236.5 1055.2,238.1 1060.0,239.7"/>
<polyline fill="none" stroke="#2ca02c" stroke-width="3" points="90.0,81.3 94.8,81.3 99.7,81.3 104.5,81.3 109.4,81.4 114.2,81.4 119.1,81.5 124.0,81.5 128.8,81.6 133.7,81.7 138.5,81.8 143.3,81.9 148.2,82.0 153.1,82.1 157.9,82.2 162.8,82.4 167.6,82.5 172.4,82.7 177.3,82.9 182.2,83.0 187.0,83.2 191.8,83.4 196.7,83.6 201.6,83.9 206.4,84.1 211.2,84.3 216.1,84.6 221.0,84.8 225.8,85.1 230.6,85.4 235.5,85.6 240.3,85.9 245.2,86.2 250.1,86.6 254.9,86.9 259.8,87.2 264.6,87.6 269.4,87.9 274.3,88.3 279.1,88.6 284.0,89.0 288.9,89.4 293.7,89.8 298.5,90.2 303.4,90.6 308.2,91.1 313.1,91.5 317.9,92.0 322.8,92.4 327.6,92.9 332.5,93.4 337.4,93.9 342.2,94.4 347.1,94.9 351.9,95.4 356.8,95.9 361.6,96.4 366.4,97.0 371.3,97.5 376.1,98.1 381.0,98.7 385.8,99.3 390.7,99.9 395.6,100.5 400.4,101.1 405.2,101.7 410.1,102.3 415.0,103.0 419.8,103.6 424.6,104.3 429.5,105.0 434.3,105.7 439.2,106.3 444.1,107.0 448.9,107.8 453.8,108.5 458.6,109.2 463.4,110.0 468.3,110.7 473.2,111.5 478.0,112.2 482.9,113.0 487.7,113.8 492.5,114.6 497.4,115.4 502.2,116.2 507.1,117.1 511.9,117.9 516.8,118.8 521.7,119.6 526.5,120.5 531.4,121.4 536.2,122.2 541.0,123.1 545.9,124.1 550.8,125.0 555.6,125.9 560.5,126.8 565.3,127.8 570.1,128.7 575.0,129.7 579.9,130.7 584.7,131.7 589.5,132.7 594.4,133.7 599.2,134.7 604.1,135.7 609.0,136.8 613.8,137.8 618.7,138.9 623.5,139.9 628.4,141.0 633.2,142.1 638.0,143.2 642.9,144.3 647.8,145.4 652.6,146.5 657.4,147.7 662.3,148.8 667.1,150.0 672.0,151.1 676.9,152.3 681.7,153.5 686.5,154.7 691.4,155.9 696.2,157.1 701.1,158.3 706.0,159.6 710.8,160.8 715.6,162.1 720.5,163.3 725.4,164.6 730.2,165.9 735.1,167.2 739.9,168.5 744.8,169.8 749.6,171.1 754.5,172.5 759.3,173.8 764.1,175.2 769.0,176.5 773.8,177.9 778.7,179.3 783.5,180.7 788.4,182.1 793.2,183.5 798.1,185.0 802.9,186.4 807.8,187.8 812.6,189.3 817.5,190.8 822.4,192.2 827.2,193.7 832.1,195.2 836.9,196.7 841.8,198.3 846.6,199.8 851.5,201.3 856.3,202.9 861.2,204.4 866.0,206.0 870.9,207.6 875.7,209.2 880.5,210.8 885.4,212.4 890.2,214.0 895.1,215.6 899.9,217.3 904.8,218.9 909.6,220.6 914.5,222.3 919.4,223.9 924.2,225.6 929.0,227.3 933.9,229.1 938.8,230.8 943.6,232.5 948.5,234.3 953.3,236.0 958.1,237.8 963.0,239.6 967.9,241.4 972.7,243.2 977.6,245.0 982.4,246.8 987.2,248.6 992.1,250.4 997.0,252.3 1001.8,254.2 1006.6,256.0 1011.5,257.9 1016.3,259.8 1021.2,261.7 1026.0,263.6 1030.9,265.5 1035.8,267.5 1040.6,269.4 1045.4,271.4 1050.3,273.3 1055.2,275.3 1060.0,277.3"/>
<polyline fill="none" stroke="#d62728" stroke-width="3" points="90.0,81.3 94.8,81.3 99.7,81.3 104.5,81.3 109.4,81.4 114.2,81.4 119.1,81.4 124.0,81.5 128.8,81.5 133.7,81.6 138.5,81.6 143.3,81.7 148.2,81.7 153.1,81.8 157.9,81.9 162.8,82.0 167.6,82.1 172.4,82.2 177.3,82.3 182.2,82.4 187.0,82.5 191.8,82.6 196.7,82.8 201.6,82.9 206.4,83.1 211.2,83.2 216.1,83.4 221.0,83.5 225.8,83.7 230.6,83.9 235.5,84.0 240.3,84.2 245.2,84.4 250.1,84.6 254.9,84.8 259.8,85.0 264.6,85.2 269.4,85.5 274.3,85.7 279.1,85.9 284.0,86.2 288.9,86.4 293.7,86.7 298.5,86.9 303.4,87.2 308.2,87.4 313.1,87.7 317.9,88.0 322.8,88.3 327.6,88.6 332.5,88.9 337.4,89.2 342.2,89.5 347.1,89.8 351.9,90.2 356.8,90.5 361.6,90.8 366.4,91.2 371.3,91.5 376.1,91.9 381.0,92.2 385.8,92.6 390.7,93.0 395.6,93.4 400.4,93.7 405.2,94.1 410.1,94.5 415.0,94.9 419.8,95.3 424.6,95.8 429.5,96.2 434.3,96.6 439.2,97.0 444.1,97.5 448.9,97.9 453.8,98.4 458.6,98.8 463.4,99.3 468.3,99.8 473.2,100.3 478.0,100.7 482.9,101.2 487.7,101.7 492.5,102.2 497.4,102.7 502.2,103.3 507.1,103.8 511.9,104.3 516.8,104.8 521.7,105.4 526.5,105.9 531.4,106.5 536.2,107.0 541.0,107.6 545.9,108.2 550.8,108.7 555.6,109.3 560.5,109.9 565.3,110.5 570.1,111.1 575.0,111.7 579.9,112.3 584.7,112.9 589.5,113.6 594.4,114.2 599.2,114.8 604.1,115.5 609.0,116.1 613.8,116.8 618.7,117.4 623.5,118.1 628.4,118.8 633.2,119.4 638.0,120.1 642.9,120.8 647.8,121.5 652.6,122.2 657.4,122.9 662.3,123.7 667.1,124.4 672.0,125.1 676.9,125.8 681.7,126.6 686.5,127.3 691.4,128.1 696.2,128.8 701.1,129.6 706.0,130.4 710.8,131.2 715.6,131.9 720.5,132.7 725.4,133.5 730.2,134.3 735.1,135.1 739.9,136.0 744.8,136.8 749.6,137.6 754.5,138.4 759.3,139.3 764.1,140.1 769.0,141.0 773.8,141.8 778.7,142.7 783.5,143.6 788.4,144.5 793.2,145.3 798.1,146.2 802.9,147.1 807.8,148.0 812.6,148.9 817.5,149.9 822.4,150.8 827.2,151.7 832.1,152.6 836.9,153.6 841.8,154.5 846.6,155.5 851.5,156.4 856.3,157.4 861.2,158.4 866.0,159.3 870.9,160.3 875.7,161.3 880.5,162.3 885.4,163.3 890.2,164.3 895.1,165.3 899.9,166.4 904.8,167.4 909.6,168.4 914.5,169.5 919.4,170.5 924.2,171.6 929.0,172.6 933.9,173.7 938.8,174.8 943.6,175.8 948.5,176.9 953.3,178.0 958.1,179.1 963.0,180.2 967.9,181.3 972.7,182.4 977.6,183.6 982.4,184.7 987.2,185.8 992.1,187.0 997.0,188.1 1001.8,189.3 1006.6,190.4 1011.5,191.6 1016.3,192.8 1021.2,193.9 1026.0,195.1 1030.9,196.3 1035.8,197.5 1040.6,198.7 1045.4,199.9 1050.3,201.1 1055.2,202.4 1060.0,203.6"/>
<polyline fill="none" stroke="#9467bd" stroke-width="3" points="90.0,81.3 94.8,81.3 99.7,81.3 104.5,81.3 109.4,81.4 114.2,81.4 119.1,81.4 124.0,81.5 128.8,81.5 133.7,81.6 138.5,81.6 143.3,81.7 148.2,81.7 153.1,81.8 157.9,81.9 162.8,82.0 167.6,82.1 172.4,82.2 177.3,82.3 182.2,82.4 187.0,82.5 191.8,82.7 196.7,82.8 201.6,82.9 206.4,83.1 211.2,83.2 216.1,83.4 221.0,83.5 225.8,83.7 230.6,83.9 235.5,84.1 240.3,84.2 245.2,84.4 250.1,84.6 254.9,84.8 259.8,85.1 264.6,85.3 269.4,85.5 274.3,85.7 279.1,86.0 284.0,86.2 288.9,86.5 293.7,86.7 298.5,87.0 303.4,87.2 308.2,87.5 313.1,87.8 317.9,88.1 322.8,88.4 327.6,88.7 332.5,89.0 337.4,89.3 342.2,89.6 347.1,89.9 351.9,90.2 356.8,90.6 361.6,90.9 366.4,91.3 371.3,91.6 376.1,92.0 381.0,92.3 385.8,92.7 390.7,93.1 395.6,93.5 400.4,93.9 405.2,94.3 410.1,94.7 415.0,95.1 419.8,95.5 424.6,95.9 429.5,96.3 434.3,96.8 439.2,97.2 444.1,97.7 448.9,98.1 453.8,98.6 458.6,99.0 463.4,99.5 468.3,100.0 473.2,100.5 478.0,100.9 482.9,101.4 487.7,101.9 492.5,102.4 497.4,103.0 502.2,103.5 507.1,104.0 511.9,104.5 516.8,105.1 521.7,105.6 526.5,106.2 531.4,106.7 536.2,107.3 541.0,107.8 545.9,108.4 550.8,109.0 555.6,109.6 560.5,110.2 565.3,110.8 570.1,111.4 575.0,112.0 579.9,112.6 584.7,113.2 589.5,113.9 594.4,114.5 599.2,115.2 604.1,115.8 609.0,116.5 613.8,117.1 618.7,117.8 623.5,118.5 628.4,119.1 633.2,119.8 638.0,120.5 642.9,121.2 647.8,121.9 652.6,122.6 657.4,123.4 662.3,124.1 667.1,124.8 672.0,125.5 676.9,126.3 681.7,127.0 686.5,127.8 691.4,128.6 696.2,129.3 701.1,130.1 706.0,130.9 710.8,131.7 715.6,132.5 720.5,133.3 725.4,134.1 730.2,134.9 735.1,135.7 739.9,136.5 744.8,137.3 749.6,138.2 754.5,139.0 759.3,139.9 764.1,140.7 769.0,141.6 773.8,142.4 778.7,143.3 783.5,144.2 788.4,145.1 793.2,146.0 798.1,146.9 802.9,147.8 807.8,148.7 812.6,149.6 817.5,150.5 822.4,151.5 827.2,152.4 832.1,153.3 836.9,154.3 841.8,155.2 846.6,156.2 851.5,157.2 856.3,158.1 861.2,159.1 866.0,160.1 870.9,161.1 875.7,162.1 880.5,163.1 885.4,164.1 890.2,165.1 895.1,166.2 899.9,167.2 904.8,168.2 909.6,169.3 914.5,170.3 919.4,171.4 924.2,172.4 929.0,173.5 933.9,174.6 938.8,175.7 943.6,176.8 948.5,177.9 953.3,179.0 958.1,180.1 963.0,181.2 967.9,182.3 972.7,183.4 977.6,184.5 982.4,185.7 987.2,186.8 992.1,188.0 997.0,189.1 1001.8,190.3 1006.6,191.5 1011.5,192.7 1016.3,193.8 1021.2,195.0 1026.0,196.2 1030.9,197.4 1035.8,198.6 1040.6,199.8 1045.4,201.1 1050.3,202.3 1055.2,203.5 1060.0,204.8"/>
<line x1="880.0" y1="82.0" x2="904.0" y2="82.0" stroke="#1f77b4" stroke-width="4"/>
<text x="912.0" y="87.0" fill="#111827" font-size="15" font-family="Inter, Arial, sans-serif" text-anchor="start" font-weight="normal">rectangular</text>
<line x1="880.0" y1="108.0" x2="904.0" y2="108.0" stroke="#ff7f0e" stroke-width="4"/>
<text x="912.0" y="113.0" fill="#111827" font-size="15" font-family="Inter, Arial, sans-serif" text-anchor="start" font-weight="normal">hann</text>
<line x1="880.0" y1="134.0" x2="904.0" y2="134.0" stroke="#2ca02c" stroke-width="4"/>
<text x="912.0" y="139.0" fill="#111827" font-size="15" font-family="Inter, Arial, sans-serif" text-anchor="start" font-weight="normal">hamming</text>
<line x1="880.0" y1="160.0" x2="904.0" y2="160.0" stroke="#d62728" stroke-width="4"/>
<text x="912.0" y="165.0" fill="#111827" font-size="15" font-family="Inter, Arial, sans-serif" text-anchor="start" font-weight="normal">blackman</text>
<line x1="880.0" y1="186.0" x2="904.0" y2="186.0" stroke="#9467bd" stroke-width="4"/>
<text x="912.0" y="191.0" fill="#111827" font-size="15" font-family="Inter, Arial, sans-serif" text-anchor="start" font-weight="normal">kaiser-8.6</text>
<text x="575.0" y="652.0" fill="#374151" font-size="16" font-family="Inter, Arial, sans-serif" text-anchor="middle" font-weight="normal">fractional bin offset</text>
<text x="28.0" y="330.0" fill="#374151" font-size="16" font-family="Inter, Arial, sans-serif" text-anchor="middle" font-weight="normal">coherent-gain-normalized response (dB)</text>
</svg>