<svg xmlns="http://www.w3.org/2000/svg" width="1280" height="780" viewBox="0 0 1280 780">
<defs>
<clipPath id="chart-plot-clip"><rect x="116.0" y="137.0" width="1120.0" height="533.0" rx="12"/></clipPath>
</defs>
<rect width="1280" height="780" fill="#fcfcfd"/>
<text x="640.0" y="42.0" fill="#222" font-size="28" font-family="Inter, Arial, sans-serif" text-anchor="middle" font-weight="700"><tspan x="640.0" dy="0.0" text-anchor="middle">Window spectra near DC</tspan></text>
<line x1="306.0" y1="87.0" x2="330.0" y2="87.0" stroke="#1f77b4" stroke-width="4"/>
<text x="338.0" y="92.0" fill="#111827" font-size="15" font-family="Inter, Arial, sans-serif" text-anchor="start" font-weight="normal">rectangular</text>
<line x1="465.7" y1="87.0" x2="489.7" y2="87.0" stroke="#ff7f0e" stroke-width="4"/>
<text x="497.7" y="92.0" fill="#111827" font-size="15" font-family="Inter, Arial, sans-serif" text-anchor="start" font-weight="normal">hann</text>
<line x1="564.5" y1="87.0" x2="588.5" y2="87.0" stroke="#2ca02c" stroke-width="4"/>
<text x="596.5" y="92.0" fill="#111827" font-size="15" font-family="Inter, Arial, sans-serif" text-anchor="start" font-weight="normal">hamming</text>
<line x1="689.4" y1="87.0" x2="713.4" y2="87.0" stroke="#d62728" stroke-width="4"/>
<text x="721.4" y="92.0" fill="#111827" font-size="15" font-family="Inter, Arial, sans-serif" text-anchor="start" font-weight="normal">blackman</text>
<line x1="823.0" y1="87.0" x2="847.0" y2="87.0" stroke="#9467bd" stroke-width="4"/>
<text x="855.0" y="92.0" fill="#111827" font-size="15" font-family="Inter, Arial, sans-serif" text-anchor="start" font-weight="normal">kaiser-8.6</text>
<rect x="116.0" y="137.0" width="1120.0" height="533.0" fill="#ffffff" stroke="#e5e7eb" rx="14"/>
<line x1="116.0" y1="137.0" x2="116.0" y2="670.0" stroke="#333" stroke-width="2"/>
<line x1="116.0" y1="670.0" x2="1236.0" y2="670.0" stroke="#333" stroke-width="2"/>
<line x1="116.0" y1="670.0" x2="1236.0" y2="670.0" stroke="#d9dde3" stroke-width="1" stroke-dasharray="4 6"/>
<text x="104.0" y="675.0" fill="#4b5563" font-size="13" font-family="Inter, Arial, sans-serif" text-anchor="end" font-weight="normal">-120.00</text>
<line x1="116.0" y1="563.4" x2="1236.0" y2="563.4" stroke="#d9dde3" stroke-width="1" stroke-dasharray="4 6"/>
<text x="104.0" y="568.4" fill="#4b5563" font-size="13" font-family="Inter, Arial, sans-serif" text-anchor="end" font-weight="normal">-95.00</text>
<line x1="116.0" y1="456.8" x2="1236.0" y2="456.8" stroke="#d9dde3" stroke-width="1" stroke-dasharray="4 6"/>
<text x="104.0" y="461.8" fill="#4b5563" font-size="13" font-family="Inter, Arial, sans-serif" text-anchor="end" font-weight="normal">-70.00</text>
<line x1="116.0" y1="350.2" x2="1236.0" y2="350.2" stroke="#d9dde3" stroke-width="1" stroke-dasharray="4 6"/>
<text x="104.0" y="355.2" fill="#4b5563" font-size="13" font-family="Inter, Arial, sans-serif" text-anchor="end" font-weight="normal">-45.00</text>
<line x1="116.0" y1="243.6" x2="1236.0" y2="243.6" stroke="#d9dde3" stroke-width="1" stroke-dasharray="4 6"/>
<text x="104.0" y="248.6" fill="#4b5563" font-size="13" font-family="Inter, Arial, sans-serif" text-anchor="end" font-weight="normal">-20.00</text>
<line x1="116.0" y1="137.0" x2="1236.0" y2="137.0" stroke="#d9dde3" stroke-width="1" stroke-dasharray="4 6"/>
<text x="104.0" y="142.0" fill="#4b5563" font-size="13" font-family="Inter, Arial, sans-serif" text-anchor="end" font-weight="normal">5.00</text>
<line x1="116.0" y1="137.0" x2="116.0" y2="670.0" stroke="#eef1f5" stroke-width="1" stroke-dasharray="4 6"/>
<text x="116.0" y="700.0" fill="#4b5563" font-size="13" font-family="Inter, Arial, sans-serif" text-anchor="middle" font-weight="normal">0.00</text>
<line x1="340.0" y1="137.0" x2="340.0" y2="670.0" stroke="#eef1f5" stroke-width="1" stroke-dasharray="4 6"/>
<text x="340.0" y="700.0" fill="#4b5563" font-size="13" font-family="Inter, Arial, sans-serif" text-anchor="middle" font-weight="normal">0.20</text>
<line x1="564.0" y1="137.0" x2="564.0" y2="670.0" stroke="#eef1f5" stroke-width="1" stroke-dasharray="4 6"/>
<text x="564.0" y="700.0" fill="#4b5563" font-size="13" font-family="Inter, Arial, sans-serif" text-anchor="middle" font-weight="normal">0.40</text>
<line x1="788.0" y1="137.0" x2="788.0" y2="670.0" stroke="#eef1f5" stroke-width="1" stroke-dasharray="4 6"/>
<text x="788.0" y="700.0" fill="#4b5563" font-size="13" font-family="Inter, Arial, sans-serif" text-anchor="middle" font-weight="normal">0.60</text>
<line x1="1012.0" y1="137.0" x2="1012.0" y2="670.0" stroke="#eef1f5" stroke-width="1" stroke-dasharray="4 6"/>
<text x="1012.0" y="700.0" fill="#4b5563" font-size="13" font-family="Inter, Arial, sans-serif" text-anchor="middle" font-weight="normal">0.80</text>
<line x1="1236.0" y1="137.0" x2="1236.0" y2="670.0" stroke="#eef1f5" stroke-width="1" stroke-dasharray="4 6"/>
<text x="1236.0" y="700.0" fill="#4b5563" font-size="13" font-family="Inter, Arial, sans-serif" text-anchor="middle" font-weight="normal">1.00</text>
<g clip-path="url(#chart-plot-clip)">
<polyline fill="none" stroke="#1f77b4" stroke-width="3" stroke-linejoin="round" stroke-linecap="round" points="116.0,158.3 119.4,158.4 122.8,158.6 126.3,158.9 129.7,159.3 133.1,159.8 136.5,160.5 139.9,161.3 143.3,162.3 146.8,163.4 150.2,164.6 153.6,165.9 157.0,167.5 160.4,169.2 163.9,171.0 167.3,173.1 170.7,175.3 174.1,177.8 177.5,180.5 180.9,183.5 184.4,186.8 187.8,190.4 191.2,194.4 194.6,198.9 198.0,203.9 201.4,209.6 204.9,216.2 208.3,224.0 211.7,233.6 215.1,246.0 218.5,263.7 222.0,296.1 225.4,338.3 228.8,279.7 232.2,259.2 235.6,247.0 239.0,238.6 242.5,232.3 245.9,227.6 249.3,223.9 252.7,221.0 256.1,218.8 259.6,217.1 263.0,216.0 266.4,215.2 269.8,214.9 273.2,214.9 276.6,215.3 280.1,216.0 283.5,217.1 286.9,218.6 290.3,220.4 293.7,222.6 297.2,225.2 300.6,228.3 304.0,231.9 307.4,236.2 310.8,241.3 314.2,247.4 317.7,254.8 321.1,264.3 324.5,276.9 327.9,296.2 331.3,337.2 334.8,338.3 338.2,298.1 341.6,280.0 345.0,268.4 348.4,260.1 351.8,253.9 355.3,248.9 358.7,245.0 362.1,241.9 365.5,239.5 368.9,237.5 372.3,236.1 375.8,235.1 379.2,234.5 382.6,234.3 386.0,234.5 389.4,235.0 392.9,235.9 396.3,237.1 399.7,238.7 403.1,240.7 406.5,243.2 409.9,246.2 413.4,249.7 416.8,254.0 420.2,259.0 423.6,265.2 427.0,272.8 430.5,282.7 433.9,296.3 437.3,318.2 440.7,377.4 444.1,338.3 447.5,307.3 451.0,291.2 454.4,280.4 457.8,272.6 461.2,266.5 464.6,261.7 468.1,257.8 471.5,254.7 474.9,252.3 478.3,250.3 481.7,248.9 485.1,247.8 488.6,247.2 492.0,246.9 495.4,247.0 498.8,247.5 502.2,248.3 505.6,249.5 509.1,251.1 512.5,253.1 515.9,255.6 519.3,258.6 522.7,262.2 526.2,266.5 529.6,271.7 533.0,278.1 536.4,286.1 539.8,296.6 543.2,311.5 546.7,337.2 550.1,517.7 553.5,338.3 556.9,313.0 560.3,298.5 563.8,288.5 567.2,281.1 570.6,275.3 574.0,270.6 577.4,266.9 580.8,263.9 584.3,261.5 587.7,259.6 591.1,258.1 594.5,257.1 597.9,256.5 601.4,256.3 604.8,256.4 608.2,256.9 611.6,257.7 615.0,258.9 618.4,260.6 621.9,262.6 625.3,265.1 628.7,268.2 632.1,271.9 635.5,276.3 638.9,281.7 642.4,288.4 645.8,296.8 649.2,308.1 652.6,324.8 656.0,355.9 659.5,398.8 662.9,338.3 666.3,316.9 669.7,303.7 673.1,294.5 676.5,287.4 680.0,281.9 683.4,277.5 686.8,273.9 690.2,270.9 693.6,268.6 697.1,266.8 700.5,265.4 703.9,264.5 707.3,263.9 710.7,263.7 714.1,263.8 717.6,264.4 721.0,265.3 724.4,266.5 727.8,268.2 731.2,270.3 734.7,272.9 738.1,276.1 741.5,279.9 744.9,284.5 748.3,290.2 751.7,297.2 755.2,306.2 758.6,318.4 762.0,337.2 765.4,377.4 768.8,379.3 772.2,338.3 775.7,319.7 779.1,307.8 782.5,299.1 785.9,292.4 789.3,287.2 792.8,282.9 796.2,279.5 799.6,276.7 803.0,274.4 806.4,272.7 809.8,271.4 813.3,270.5 816.7,270.0 820.1,269.8 823.5,270.1 826.9,270.6 830.4,271.6 833.8,272.9 837.2,274.7 840.6,276.9 844.0,279.6 847.4,282.9 850.9,286.9 854.3,291.7 857.7,297.6 861.1,305.0 864.5,314.6 868.0,328.0 871.4,349.5 874.8,407.6 878.2,369.8 881.6,338.3 885.0,321.9 888.5,310.9 891.9,302.8 895.3,296.5 898.7,291.5 902.1,287.5 905.6,284.2 909.0,281.5 912.4,279.3 915.8,277.7 919.2,276.5 922.6,275.6 926.1,275.2 929.5,275.1 932.9,275.4 936.3,276.1 939.7,277.1 943.1,278.5 946.6,280.3 950.0,282.6 953.4,285.5 956.8,288.9 960.2,293.0 963.7,298.1 967.1,304.3 970.5,312.1 973.9,322.4 977.3,337.2 980.7,362.5 984.2,517.5 987.6,364.0 991.0,338.3 994.4,323.6 997.8,313.5 1001.3,305.9 1004.7,299.9 1008.1,295.2 1011.5,291.3 1014.9,288.1 1018.3,285.6 1021.8,283.6 1025.2,282.0 1028.6,280.9 1032.0,280.1 1035.4,279.7 1038.9,279.7 1042.3,280.1 1045.7,280.8 1049.1,281.9 1052.5,283.4 1055.9,285.3 1059.4,287.8 1062.8,290.7 1066.2,294.3 1069.6,298.6 1073.0,303.9 1076.4,310.4 1079.9,318.7 1083.3,329.9 1086.7,346.3 1090.1,377.2 1093.5,421.5 1097.0,360.0 1100.4,338.3 1103.8,325.1 1107.2,315.7 1110.6,308.5 1114.0,302.9 1117.5,298.3 1120.9,294.6 1124.3,291.6 1127.7,289.2 1131.1,287.3 1134.6,285.8 1138.0,284.7 1141.4,284.1 1144.8,283.8 1148.2,283.8 1151.6,284.3 1155.1,285.1 1158.5,286.2 1161.9,287.8 1165.3,289.9 1168.7,292.4 1172.2,295.5 1175.6,299.2 1179.0,303.7 1182.4,309.3 1185.8,316.2 1189.2,325.0 1192.7,337.2 1196.1,355.8 1199.5,395.5 1202.9,398.5 1206.3,357.1 1209.8,338.3 1213.2,326.2 1216.6,317.5 1220.0,310.8 1223.4,305.4 1226.8,301.1 1230.3,297.5 1233.7,294.7"/>
<polyline fill="none" stroke="#ff7f0e" stroke-width="3" stroke-linejoin="round" stroke-linecap="round" points="116.0,158.3 119.4,158.3 122.8,158.4 126.3,158.5 129.7,158.7 133.1,158.9 136.5,159.2 139.9,159.5 143.3,159.8 146.8,160.2 150.2,160.7 153.6,161.2 157.0,161.7 160.4,162.3 163.9,162.9 167.3,163.6 170.7,164.4 174.1,165.2 177.5,166.0 180.9,166.9 184.4,167.9 187.8,168.9 191.2,170.0 194.6,171.1 198.0,172.3 201.4,173.5 204.9,174.8 208.3,176.2 211.7,177.6 215.1,179.1 218.5,180.7 222.0,182.3 225.4,184.0 228.8,185.8 232.2,187.6 235.6,189.5 239.0,191.6 242.5,193.7 245.9,195.8 249.3,198.1 252.7,200.5 256.1,203.0 259.6,205.6 263.0,208.3 266.4,211.2 269.8,214.1 273.2,217.3 276.6,220.5 280.1,224.0 283.5,227.6 286.9,231.5 290.3,235.6 293.7,240.0 297.2,244.6 300.6,249.7 304.0,255.1 307.4,261.1 310.8,267.7 314.2,275.1 317.7,283.6 321.1,293.7 324.5,306.3 327.9,323.3 331.3,351.0 334.8,670.0 338.2,355.2 341.6,331.8 345.0,319.0 348.4,310.8 351.8,305.0 355.3,300.8 358.7,297.7 362.1,295.5 365.5,294.0 368.9,293.0 372.3,292.6 375.8,292.5 379.2,292.9 382.6,293.6 386.0,294.7 389.4,296.1 392.9,297.8 396.3,299.9 399.7,302.3 403.1,305.1 406.5,308.3 409.9,311.9 413.4,316.0 416.8,320.7 420.2,326.1 423.6,332.4 427.0,339.8 430.5,348.9 433.9,360.4 437.3,376.4 440.7,403.2 444.1,670.0 447.5,405.7 451.0,381.4 454.4,367.9 457.8,358.9 461.2,352.4 464.6,347.5 468.1,343.7 471.5,340.8 474.9,338.7 478.3,337.1 481.7,336.0 485.1,335.4 488.6,335.2 492.0,335.4 495.4,335.9 498.8,336.8 502.2,338.0 505.6,339.6 509.1,341.5 512.5,343.8 515.9,346.5 519.3,349.7 522.7,353.4 526.2,357.7 529.6,362.7 533.0,368.5 536.4,375.6 539.8,384.2 543.2,395.4 546.7,411.1 550.1,437.5 553.5,670.0 556.9,439.3 560.3,414.7 563.8,400.9 567.2,391.5 570.6,384.7 574.0,379.4 577.4,375.4 580.8,372.2 584.3,369.8 587.7,367.9 591.1,366.5 594.5,365.7 597.9,365.2 601.4,365.1 604.8,365.3 608.2,366.0 611.6,366.9 615.0,368.3 618.4,370.0 621.9,372.0 625.3,374.5 628.7,377.5 632.1,380.9 635.5,385.0 638.9,389.8 642.4,395.4 645.8,402.3 649.2,410.7 652.6,421.7 656.0,437.1 659.5,463.3 662.9,670.0 666.3,464.8 669.7,440.0 673.1,426.0 676.5,416.4 680.0,409.4 683.4,404.0 686.8,399.8 690.2,396.4 693.6,393.8 697.1,391.8 700.5,390.3 703.9,389.2 707.3,388.6 710.7,388.3 714.1,388.4 717.6,388.9 721.0,389.7 724.4,390.9 727.8,392.4 731.2,394.4 734.7,396.7 738.1,399.5 741.5,402.9 744.9,406.8 748.3,411.4 751.7,416.9 755.2,423.6 758.6,431.9 762.0,442.8 765.4,458.1 768.8,484.2 772.2,670.0 775.7,485.4 779.1,460.5 782.5,446.3 785.9,436.7 789.3,429.5 792.8,424.0 796.2,419.7 799.6,416.2 803.0,413.5 806.4,411.3 809.8,409.7 813.3,408.5 816.7,407.8 820.1,407.4 823.5,407.4 826.9,407.8 830.4,408.5 833.8,409.6 837.2,411.1 840.6,412.9 844.0,415.1 847.4,417.9 850.9,421.1 854.3,424.9 857.7,429.4 861.1,434.9 864.5,441.5 868.0,449.7 871.4,460.5 874.8,475.7 878.2,501.7 881.6,670.0 885.0,502.7 888.5,477.7 891.9,463.5 895.3,453.7 898.7,446.5 902.1,440.9 905.6,436.5 909.0,433.0 912.4,430.1 915.8,427.9 919.2,426.2 922.6,425.0 926.1,424.1 929.5,423.7 932.9,423.6 936.3,423.9 939.7,424.6 943.1,425.6 946.6,427.0 950.0,428.7 953.4,430.9 956.8,433.5 960.2,436.7 963.7,440.5 967.1,444.9 970.5,450.3 973.9,456.8 977.3,465.0 980.7,475.7 984.2,490.8 987.6,516.8 991.0,670.0 994.4,517.6 997.8,492.6 1001.3,478.3 1004.7,468.5 1008.1,461.2 1011.5,455.6 1014.9,451.1 1018.3,447.5 1021.8,444.6 1025.2,442.3 1028.6,440.6 1032.0,439.3 1035.4,438.4 1038.9,437.9 1042.3,437.8 1045.7,438.0 1049.1,438.6 1052.5,439.5 1055.9,440.8 1059.4,442.6 1062.8,444.7 1066.2,447.3 1069.6,450.4 1073.0,454.1 1076.4,458.5 1079.9,463.8 1083.3,470.3 1086.7,478.4 1090.1,489.0 1093.5,504.1 1097.0,530.0 1100.4,670.0 1103.8,530.8 1107.2,505.7 1110.6,491.4 1114.0,481.5 1117.5,474.2 1120.9,468.5 1124.3,463.9 1127.7,460.3 1131.1,457.4 1134.6,455.1 1138.0,453.2 1141.4,451.9 1144.8,451.0 1148.2,450.4 1151.6,450.3 1155.1,450.5 1158.5,451.0 1161.9,451.9 1165.3,453.2 1168.7,454.8 1172.2,456.9 1175.6,459.5 1179.0,462.5 1182.4,466.2 1185.8,470.6 1189.2,475.8 1192.7,482.3 1196.1,490.4 1199.5,501.0 1202.9,516.0 1206.3,541.9 1209.8,670.0 1213.2,542.6 1216.6,517.4 1220.0,503.0 1223.4,493.2 1226.8,485.8 1230.3,480.0 1233.7,475.5"/>
<polyline fill="none" stroke="#2ca02c" stroke-width="3" stroke-linejoin="round" stroke-linecap="round" points="116.0,158.3 119.4,158.3 122.8,158.4 126.3,158.6 129.7,158.8 133.1,159.0 136.5,159.4 139.9,159.7 143.3,160.2 146.8,160.7 150.2,161.2 153.6,161.8 157.0,162.5 160.4,163.3 163.9,164.0 167.3,164.9 170.7,165.8 174.1,166.8 177.5,167.9 180.9,169.0 184.4,170.2 187.8,171.4 191.2,172.7 194.6,174.1 198.0,175.6 201.4,177.1 204.9,178.7 208.3,180.4 211.7,182.2 215.1,184.0 218.5,186.0 222.0,188.0 225.4,190.1 228.8,192.3 232.2,194.5 235.6,196.9 239.0,199.4 242.5,202.0 245.9,204.7 249.3,207.5 252.7,210.4 256.1,213.5 259.6,216.7 263.0,220.0 266.4,223.5 269.8,227.1 273.2,230.9 276.6,234.9 280.1,239.1 283.5,243.4 286.9,248.1 290.3,253.0 293.7,258.1 297.2,263.6 300.6,269.5 304.0,275.8 307.4,282.6 310.8,290.1 314.2,298.3 317.7,307.4 321.1,317.9 324.5,330.4 327.9,346.0 331.3,367.8 334.8,408.8 338.2,424.4 341.6,383.5 345.0,368.1 348.4,359.9 351.8,355.2 355.3,352.7 358.7,351.8 362.1,352.1 365.5,353.4 368.9,355.8 372.3,359.0 375.8,363.2 379.2,368.4 382.6,374.7 386.0,382.5 389.4,392.0 392.9,404.1 396.3,420.4 399.7,445.7 403.1,512.9 406.5,469.9 409.9,444.3 413.4,433.6 416.8,429.3 420.2,429.5 423.6,433.9 427.0,444.5 430.5,468.7 433.9,531.1 437.3,451.1 440.7,425.2 444.1,408.8 447.5,396.7 451.0,387.2 454.4,379.5 457.8,373.0 461.2,367.5 464.6,362.8 468.1,358.8 471.5,355.4 474.9,352.6 478.3,350.2 481.7,348.3 485.1,346.8 488.6,345.6 492.0,344.9 495.4,344.5 498.8,344.6 502.2,345.0 505.6,345.8 509.1,347.1 512.5,348.8 515.9,351.0 519.3,353.8 522.7,357.3 526.2,361.6 529.6,367.0 533.0,373.9 536.4,382.9 539.8,395.4 543.2,415.2 546.7,463.0 550.1,444.2 553.5,408.8 556.9,391.2 560.3,379.5 563.8,370.9 567.2,364.2 570.6,358.8 574.0,354.4 577.4,350.8 580.8,347.9 584.3,345.5 587.7,343.6 591.1,342.1 594.5,341.1 597.9,340.4 601.4,340.1 604.8,340.1 608.2,340.5 611.6,341.3 615.0,342.5 618.4,344.1 621.9,346.2 625.3,348.7 628.7,351.8 632.1,355.6 635.5,360.2 638.9,365.9 642.4,373.0 645.8,382.2 649.2,395.0 652.6,415.2 656.0,464.0 659.5,443.6 662.9,408.8 666.3,391.4 669.7,380.0 673.1,371.6 676.5,365.0 680.0,359.8 683.4,355.6 686.8,352.2 690.2,349.4 693.6,347.1 697.1,345.3 700.5,344.0 703.9,343.0 707.3,342.5 710.7,342.3 714.1,342.5 717.6,343.0 721.0,343.9 724.4,345.2 727.8,346.9 731.2,349.1 734.7,351.8 738.1,355.0 741.5,359.0 744.9,363.8 748.3,369.7 751.7,377.1 755.2,386.8 758.6,400.3 762.0,422.4 765.4,486.2 768.8,439.0 772.2,408.8 775.7,392.7 779.1,381.8 782.5,373.8 785.9,367.5 789.3,362.5 792.8,358.4 796.2,355.1 799.6,352.4 803.0,350.2 806.4,348.6 809.8,347.3 813.3,346.4 816.7,346.0 820.1,345.9 823.5,346.1 826.9,346.7 830.4,347.7 833.8,349.1 837.2,350.9 840.6,353.2 844.0,356.0 847.4,359.4 850.9,363.5 854.3,368.5 857.7,374.6 861.1,382.4 864.5,392.7 868.0,407.3 871.4,432.4 874.8,566.6 878.2,434.7 881.6,408.8 885.0,394.0 888.5,383.8 891.9,376.2 895.3,370.2 898.7,365.4 902.1,361.4 905.6,358.3 909.0,355.7 912.4,353.6 915.8,352.0 919.2,350.8 922.6,350.1 926.1,349.7 929.5,349.6 932.9,350.0 936.3,350.6 939.7,351.7 943.1,353.2 946.6,355.1 950.0,357.4 953.4,360.4 956.8,363.9 960.2,368.1 963.7,373.3 967.1,379.8 970.5,388.0 973.9,399.0 977.3,415.0 980.7,444.6 984.2,500.1 987.6,431.2 991.0,408.8 994.4,395.3 997.8,385.7 1001.3,378.4 1004.7,372.7 1008.1,368.1 1011.5,364.4 1014.9,361.3 1018.3,358.8 1021.8,356.9 1025.2,355.4 1028.6,354.3 1032.0,353.6 1035.4,353.3 1038.9,353.3 1042.3,353.7 1045.7,354.5 1049.1,355.6 1052.5,357.2 1055.9,359.1 1059.4,361.6 1062.8,364.6 1066.2,368.3 1069.6,372.8 1073.0,378.2 1076.4,385.0 1079.9,393.7 1083.3,405.5 1086.7,423.3 1090.1,459.8 1093.5,474.3 1097.0,428.4 1100.4,408.8 1103.8,396.4 1107.2,387.4 1110.6,380.5 1114.0,375.1 1117.5,370.7 1120.9,367.1 1124.3,364.2 1127.7,361.8 1131.1,359.9 1134.6,358.5 1138.0,357.5 1141.4,356.9 1144.8,356.6 1148.2,356.7 1151.6,357.2 1155.1,358.1 1158.5,359.3 1161.9,360.9 1165.3,363.0 1168.7,365.6 1172.2,368.7 1175.6,372.6 1179.0,377.2 1182.4,382.9 1185.8,390.1 1189.2,399.3 1192.7,412.1 1196.1,432.3 1199.5,480.9 1202.9,461.1 1206.3,426.1 1209.8,408.8 1213.2,397.3 1216.6,388.9 1220.0,382.4 1223.4,377.2 1226.8,373.0 1230.3,369.6 1233.7,366.8"/>
<polyline fill="none" stroke="#d62728" stroke-width="3" stroke-linejoin="round" stroke-linecap="round" points="116.0,158.3 119.4,158.3 122.8,158.4 126.3,158.5 129.7,158.6 133.1,158.8 136.5,159.0 139.9,159.2 143.3,159.5 146.8,159.8 150.2,160.1 153.6,160.5 157.0,160.9 160.4,161.4 163.9,161.9 167.3,162.4 170.7,163.0 174.1,163.6 177.5,164.3 180.9,164.9 184.4,165.7 187.8,166.4 191.2,167.2 194.6,168.1 198.0,169.0 201.4,169.9 204.9,170.9 208.3,171.9 211.7,172.9 215.1,174.0 218.5,175.1 222.0,176.3 225.4,177.5 228.8,178.8 232.2,180.1 235.6,181.5 239.0,182.9 242.5,184.3 245.9,185.8 249.3,187.4 252.7,188.9 256.1,190.6 259.6,192.3 263.0,194.0 266.4,195.8 269.8,197.7 273.2,199.6 276.6,201.6 280.1,203.6 283.5,205.7 286.9,207.8 290.3,210.0 293.7,212.3 297.2,214.7 300.6,217.1 304.0,219.5 307.4,222.1 310.8,224.7 314.2,227.4 317.7,230.2 321.1,233.1 324.5,236.0 327.9,239.0 331.3,242.2 334.8,245.4 338.2,248.7 341.6,252.2 345.0,255.7 348.4,259.4 351.8,263.2 355.3,267.1 358.7,271.2 362.1,275.4 365.5,279.7 368.9,284.3 372.3,289.0 375.8,293.9 379.2,299.0 382.6,304.3 386.0,309.9 389.4,315.8 392.9,322.0 396.3,328.5 399.7,335.4 403.1,342.7 406.5,350.5 409.9,358.9 413.4,368.0 416.8,378.0 420.2,388.9 423.6,401.2 427.0,415.2 430.5,431.5 433.9,451.5 437.3,477.5 440.7,517.0 444.1,670.0 447.5,569.6 451.0,589.5 454.4,516.1 457.8,486.2 461.2,467.1 464.6,453.2 468.1,442.6 471.5,434.2 474.9,427.5 478.3,422.1 481.7,417.7 485.1,414.1 488.6,411.3 492.0,409.2 495.4,407.7 498.8,406.6 502.2,406.2 505.6,406.2 509.1,406.6 512.5,407.6 515.9,409.1 519.3,411.1 522.7,413.8 526.2,417.0 529.6,421.1 533.0,426.1 536.4,432.3 539.8,440.1 543.2,450.6 546.7,465.5 550.1,491.3 553.5,670.0 556.9,491.8 560.3,466.7 563.8,452.3 567.2,442.4 570.6,435.1 574.0,429.4 577.4,424.9 580.8,421.3 584.3,418.4 587.7,416.1 591.1,414.4 594.5,413.1 597.9,412.3 601.4,411.8 604.8,411.8 608.2,412.1 611.6,412.7 615.0,413.8 618.4,415.2 621.9,417.0 625.3,419.2 628.7,421.9 632.1,425.1 635.5,428.9 638.9,433.5 642.4,438.9 645.8,445.5 649.2,453.7 652.6,464.5 656.0,479.7 659.5,505.8 662.9,670.0 666.3,506.8 669.7,481.8 673.1,467.7 676.5,457.9 680.0,450.8 683.4,445.2 686.8,440.8 690.2,437.3 693.6,434.5 697.1,432.4 700.5,430.7 703.9,429.5 707.3,428.7 710.7,428.4 714.1,428.3 717.6,428.7 721.0,429.4 724.4,430.4 727.8,431.9 731.2,433.7 734.7,435.9 738.1,438.6 741.5,441.8 744.9,445.7 748.3,450.2 751.7,455.6 755.2,462.2 758.6,470.4 762.0,481.2 765.4,496.4 768.8,522.4 772.2,670.0 775.7,523.4 779.1,498.4 782.5,484.2 785.9,474.5 789.3,467.2 792.8,461.7 796.2,457.2 799.6,453.7 803.0,450.9 806.4,448.7 809.8,447.0 813.3,445.8 816.7,444.9 820.1,444.5 823.5,444.4 826.9,444.8 830.4,445.4 833.8,446.4 837.2,447.8 840.6,449.6 844.0,451.8 847.4,454.4 850.9,457.6 854.3,461.4 857.7,465.9 861.1,471.2 864.5,477.8 868.0,486.0 871.4,496.7 874.8,511.8 878.2,537.8 881.6,670.0 885.0,538.7 888.5,513.7 891.9,499.4 895.3,489.6 898.7,482.3 902.1,476.7 905.6,472.2 909.0,468.6 912.4,465.8 915.8,463.5 919.2,461.8 922.6,460.5 926.1,459.6 929.5,459.2 932.9,459.0 936.3,459.3 939.7,459.9 943.1,460.9 946.6,462.2 950.0,463.9 953.4,466.1 956.8,468.7 960.2,471.8 963.7,475.5 967.1,480.0 970.5,485.3 973.9,491.8 977.3,499.9 980.7,510.6 984.2,525.7 987.6,551.6 991.0,670.0 994.4,552.4 997.8,527.4 1001.3,513.0 1004.7,503.2 1008.1,495.9 1011.5,490.2 1014.9,485.7 1018.3,482.1 1021.8,479.2 1025.2,476.9 1028.6,475.1 1032.0,473.8 1035.4,472.8 1038.9,472.3 1042.3,472.2 1045.7,472.4 1049.1,472.9 1052.5,473.9 1055.9,475.2 1059.4,476.9 1062.8,479.0 1066.2,481.5 1069.6,484.6 1073.0,488.3 1076.4,492.7 1079.9,498.0 1083.3,504.4 1086.7,512.5 1090.1,523.1 1093.5,538.2 1097.0,564.1 1100.4,670.0 1103.8,564.8 1107.2,539.7 1110.6,525.3 1114.0,515.5 1117.5,508.1 1120.9,502.4 1124.3,497.8 1127.7,494.2 1131.1,491.2 1134.6,488.9 1138.0,487.1 1141.4,485.7 1144.8,484.8 1148.2,484.2 1151.6,484.0 1155.1,484.2 1158.5,484.7 1161.9,485.6 1165.3,486.9 1168.7,488.5 1172.2,490.6 1175.6,493.1 1179.0,496.2 1182.4,499.8 1185.8,504.2 1189.2,509.4 1192.7,515.9 1196.1,523.9 1199.5,534.5 1202.9,549.5 1206.3,575.4 1209.8,670.0 1213.2,576.0 1216.6,550.9 1220.0,536.5 1223.4,526.6 1226.8,519.2 1230.3,513.5 1233.7,508.9"/>
<polyline fill="none" stroke="#9467bd" stroke-width="3" stroke-linejoin="round" stroke-linecap="round" points="116.0,158.3 119.4,158.3 122.8,158.4 126.3,158.5 129.7,158.6 133.1,158.8 136.5,159.0 139.9,159.2 143.3,159.5 146.8,159.8 150.2,160.2 153.6,160.5 157.0,161.0 160.4,161.4 163.9,161.9 167.3,162.5 170.7,163.1 174.1,163.7 177.5,164.3 180.9,165.0 184.4,165.7 187.8,166.5 191.2,167.3 194.6,168.2 198.0,169.1 201.4,170.0 204.9,171.0 208.3,172.0 211.7,173.0 215.1,174.1 218.5,175.3 222.0,176.5 225.4,177.7 228.8,179.0 232.2,180.3 235.6,181.6 239.0,183.0 242.5,184.5 245.9,186.0 249.3,187.5 252.7,189.1 256.1,190.8 259.6,192.5 263.0,194.2 266.4,196.0 269.8,197.9 273.2,199.8 276.6,201.8 280.1,203.8 283.5,205.9 286.9,208.0 290.3,210.2 293.7,212.5 297.2,214.8 300.6,217.2 304.0,219.6 307.4,222.2 310.8,224.8 314.2,227.4 317.7,230.2 321.1,233.0 324.5,235.9 327.9,238.9 331.3,242.0 334.8,245.2 338.2,248.5 341.6,251.9 345.0,255.3 348.4,258.9 351.8,262.7 355.3,266.5 358.7,270.5 362.1,274.6 365.5,278.8 368.9,283.2 372.3,287.8 375.8,292.6 379.2,297.5 382.6,302.7 386.0,308.2 389.4,313.9 392.9,319.9 396.3,326.2 399.7,332.9 403.1,340.1 406.5,347.9 409.9,356.3 413.4,365.6 416.8,376.0 420.2,387.9 423.6,402.1 427.0,420.4 430.5,447.5 433.9,520.8 437.3,471.1 440.7,446.5 444.1,435.6 447.5,430.0 451.0,427.5 454.4,426.9 457.8,428.0 461.2,430.4 464.6,434.2 468.1,439.4 471.5,446.3 474.9,455.4 478.3,468.0 481.7,486.9 485.1,525.5 488.6,536.9 492.0,494.1 495.4,476.3 498.8,465.6 502.2,458.4 505.6,453.5 509.1,450.1 512.5,447.9 515.9,446.7 519.3,446.4 522.7,446.8 526.2,447.9 529.6,449.8 533.0,452.5 536.4,456.0 539.8,460.4 543.2,466.0 546.7,473.2 550.1,482.5 553.5,495.3 556.9,515.0 560.3,559.1 563.8,551.8 567.2,514.5 570.6,497.2 574.0,486.2 577.4,478.6 580.8,472.9 584.3,468.7 587.7,465.5 591.1,463.3 594.5,461.8 597.9,460.9 601.4,460.6 604.8,461.0 608.2,461.8 611.6,463.3 615.0,465.3 618.4,468.0 621.9,471.4 625.3,475.6 628.7,480.8 632.1,487.3 635.5,495.7 638.9,506.9 642.4,523.3 645.8,553.4 649.2,606.9 652.6,539.9 656.0,518.1 659.5,505.1 662.9,496.1 666.3,489.5 669.7,484.4 673.1,480.5 676.5,477.5 680.0,475.2 683.4,473.6 686.8,472.6 690.2,472.1 693.6,472.0 697.1,472.5 700.5,473.5 703.9,475.0 707.3,477.0 710.7,479.6 714.1,482.8 717.6,486.8 721.0,491.7 724.4,497.8 727.8,505.6 731.2,515.8 734.7,530.2 738.1,554.4 741.5,647.5 744.9,561.7 748.3,534.8 751.7,520.0 755.2,509.9 758.6,502.5 762.0,496.9 765.4,492.4 768.8,488.9 772.2,486.2 775.7,484.2 779.1,482.7 782.5,481.7 785.9,481.3 789.3,481.2 792.8,481.7 796.2,482.5 799.6,483.9 803.0,485.7 806.4,488.1 809.8,491.1 813.3,494.7 816.7,499.2 820.1,504.8 823.5,511.7 826.9,520.6 830.4,532.8 833.8,551.4 837.2,590.9 840.6,595.4 844.0,553.6 847.4,535.0 850.9,523.1 854.3,514.6 857.7,508.1 861.1,503.1 864.5,499.1 868.0,495.9 871.4,493.4 874.8,491.5 878.2,490.2 881.6,489.3 885.0,488.8 888.5,488.8 891.9,489.3 895.3,490.1 898.7,491.4 902.1,493.2 905.6,495.5 909.0,498.4 912.4,501.9 915.8,506.2 919.2,511.5 922.6,518.1 926.1,526.5 929.5,537.9 932.9,554.8 936.3,587.0 939.7,622.8 943.1,566.5 946.6,545.5 950.0,532.7 953.4,523.5 956.8,516.7 960.2,511.3 963.7,507.0 967.1,503.6 970.5,500.9 973.9,498.8 977.3,497.2 980.7,496.1 984.2,495.4 987.6,495.2 991.0,495.4 994.4,496.0 997.8,497.0 1001.3,498.5 1004.7,500.4 1008.1,502.9 1011.5,505.9 1014.9,509.6 1018.3,514.2 1021.8,519.8 1025.2,526.9 1028.6,536.0 1032.0,548.5 1035.4,567.9 1038.9,611.8 1042.3,603.2 1045.7,565.6 1049.1,547.7 1052.5,536.1 1055.9,527.7 1059.4,521.2 1062.8,516.1 1066.2,512.0 1069.6,508.8 1073.0,506.1 1076.4,504.1 1079.9,502.6 1083.3,501.5 1086.7,500.9 1090.1,500.7 1093.5,500.9 1097.0,501.5 1100.4,502.5 1103.8,503.9 1107.2,505.8 1110.6,508.2 1114.0,511.2 1117.5,514.9 1120.9,519.4 1124.3,524.8 1127.7,531.7 1131.1,540.6 1134.6,552.6 1138.0,571.1 1141.4,610.2 1144.8,615.5 1148.2,573.3 1151.6,554.5 1155.1,542.4 1158.5,533.7 1161.9,527.1 1165.3,521.8 1168.7,517.6 1172.2,514.2 1175.6,511.5 1179.0,509.3 1182.4,507.7 1185.8,506.6 1189.2,505.8 1192.7,505.5 1196.1,505.6 1199.5,506.0 1202.9,506.9 1206.3,508.2 1209.8,509.9 1213.2,512.1 1216.6,514.9 1220.0,518.3 1223.4,522.4 1226.8,527.5 1230.3,533.8 1233.7,541.8"/>
</g>
<text x="676.0" y="746.0" fill="#374151" font-size="16" font-family="Inter, Arial, sans-serif" text-anchor="middle" font-weight="normal">normalized frequency / 0.08 cycles per sample</text>
<text x="36.0" y="403.5" fill="#374151" font-size="16" font-family="Inter, Arial, sans-serif" text-anchor="middle" transform="rotate(-90 36 403.5)">magnitude (dB)</text>
</svg>