<svg xmlns="http://www.w3.org/2000/svg" width="1280" height="780" viewBox="0 0 1280 780">
<defs>
<clipPath id="chart-plot-clip"><rect x="116.0" y="137.0" width="1120.0" height="533.0" rx="12"/></clipPath>
</defs>
<rect width="1280" height="780" fill="#fcfcfd"/>
<text x="640.0" y="42.0" fill="#222" font-size="28" font-family="Inter, Arial, sans-serif" text-anchor="middle" font-weight="700"><tspan x="640.0" dy="0.0" text-anchor="middle">Amplitude loss versus bin offset</tspan></text>
<line x1="243.6" y1="87.0" x2="267.6" y2="87.0" stroke="#1f77b4" stroke-width="4"/>
<text x="275.6" y="92.0" fill="#111827" font-size="15" font-family="Inter, Arial, sans-serif" text-anchor="start" font-weight="normal">rectangular</text>
<line x1="403.2" y1="87.0" x2="427.2" y2="87.0" stroke="#ff7f0e" stroke-width="4"/>
<text x="435.2" y="92.0" fill="#111827" font-size="15" font-family="Inter, Arial, sans-serif" text-anchor="start" font-weight="normal">hann</text>
<line x1="502.1" y1="87.0" x2="526.0" y2="87.0" stroke="#2ca02c" stroke-width="4"/>
<text x="534.0" y="92.0" fill="#111827" font-size="15" font-family="Inter, Arial, sans-serif" text-anchor="start" font-weight="normal">hamming</text>
<line x1="627.0" y1="87.0" x2="651.0" y2="87.0" stroke="#d62728" stroke-width="4"/>
<text x="659.0" y="92.0" fill="#111827" font-size="15" font-family="Inter, Arial, sans-serif" text-anchor="start" font-weight="normal">blackman</text>
<line x1="760.6" y1="87.0" x2="784.6" y2="87.0" stroke="#9467bd" stroke-width="4"/>
<text x="792.6" y="92.0" fill="#111827" font-size="15" font-family="Inter, Arial, sans-serif" text-anchor="start" font-weight="normal">kaiser-8.6</text>
<line x1="911.6" y1="87.0" x2="935.6" y2="87.0" stroke="#8b5cf6" stroke-width="4"/>
<text x="943.6" y="92.0" fill="#111827" font-size="15" font-family="Inter, Arial, sans-serif" text-anchor="start" font-weight="normal">flattop</text>
<rect x="116.0" y="137.0" width="1120.0" height="533.0" fill="#ffffff" stroke="#e5e7eb" rx="14"/>
<line x1="116.0" y1="137.0" x2="116.0" y2="670.0" stroke="#333" stroke-width="2"/>
<line x1="116.0" y1="670.0" x2="1236.0" y2="670.0" stroke="#333" stroke-width="2"/>
<line x1="116.0" y1="670.0" x2="1236.0" y2="670.0" stroke="#d9dde3" stroke-width="1" stroke-dasharray="4 6"/>
<text x="104.0" y="675.0" fill="#4b5563" font-size="13" font-family="Inter, Arial, sans-serif" text-anchor="end" font-weight="normal">-4.50</text>
<line x1="116.0" y1="563.4" x2="1236.0" y2="563.4" stroke="#d9dde3" stroke-width="1" stroke-dasharray="4 6"/>
<text x="104.0" y="568.4" fill="#4b5563" font-size="13" font-family="Inter, Arial, sans-serif" text-anchor="end" font-weight="normal">-3.58</text>
<line x1="116.0" y1="456.8" x2="1236.0" y2="456.8" stroke="#d9dde3" stroke-width="1" stroke-dasharray="4 6"/>
<text x="104.0" y="461.8" fill="#4b5563" font-size="13" font-family="Inter, Arial, sans-serif" text-anchor="end" font-weight="normal">-2.66</text>
<line x1="116.0" y1="350.2" x2="1236.0" y2="350.2" stroke="#d9dde3" stroke-width="1" stroke-dasharray="4 6"/>
<text x="104.0" y="355.2" fill="#4b5563" font-size="13" font-family="Inter, Arial, sans-serif" text-anchor="end" font-weight="normal">-1.74</text>
<line x1="116.0" y1="243.6" x2="1236.0" y2="243.6" stroke="#d9dde3" stroke-width="1" stroke-dasharray="4 6"/>
<text x="104.0" y="248.6" fill="#4b5563" font-size="13" font-family="Inter, Arial, sans-serif" text-anchor="end" font-weight="normal">-0.82</text>
<line x1="116.0" y1="137.0" x2="1236.0" y2="137.0" stroke="#d9dde3" stroke-width="1" stroke-dasharray="4 6"/>
<text x="104.0" y="142.0" fill="#4b5563" font-size="13" font-family="Inter, Arial, sans-serif" text-anchor="end" font-weight="normal">0.10</text>
<line x1="116.0" y1="137.0" x2="116.0" y2="670.0" stroke="#eef1f5" stroke-width="1" stroke-dasharray="4 6"/>
<text x="116.0" y="700.0" fill="#4b5563" font-size="13" font-family="Inter, Arial, sans-serif" text-anchor="middle" font-weight="normal">0.00</text>
<line x1="340.0" y1="137.0" x2="340.0" y2="670.0" stroke="#eef1f5" stroke-width="1" stroke-dasharray="4 6"/>
<text x="340.0" y="700.0" fill="#4b5563" font-size="13" font-family="Inter, Arial, sans-serif" text-anchor="middle" font-weight="normal">0.10</text>
<line x1="564.0" y1="137.0" x2="564.0" y2="670.0" stroke="#eef1f5" stroke-width="1" stroke-dasharray="4 6"/>
<text x="564.0" y="700.0" fill="#4b5563" font-size="13" font-family="Inter, Arial, sans-serif" text-anchor="middle" font-weight="normal">0.20</text>
<line x1="788.0" y1="137.0" x2="788.0" y2="670.0" stroke="#eef1f5" stroke-width="1" stroke-dasharray="4 6"/>
<text x="788.0" y="700.0" fill="#4b5563" font-size="13" font-family="Inter, Arial, sans-serif" text-anchor="middle" font-weight="normal">0.30</text>
<line x1="1012.0" y1="137.0" x2="1012.0" y2="670.0" stroke="#eef1f5" stroke-width="1" stroke-dasharray="4 6"/>
<text x="1012.0" y="700.0" fill="#4b5563" font-size="13" font-family="Inter, Arial, sans-serif" text-anchor="middle" font-weight="normal">0.40</text>
<line x1="1236.0" y1="137.0" x2="1236.0" y2="670.0" stroke="#eef1f5" stroke-width="1" stroke-dasharray="4 6"/>
<text x="1236.0" y="700.0" fill="#4b5563" font-size="13" font-family="Inter, Arial, sans-serif" text-anchor="middle" font-weight="normal">0.50</text>
<g clip-path="url(#chart-plot-clip)">
<polyline fill="none" stroke="#1f77b4" stroke-width="3" stroke-linejoin="round" stroke-linecap="round" points="116.0,148.6 121.6,148.6 127.2,148.6 132.8,148.7 138.4,148.8 144.0,148.8 149.6,149.0 155.2,149.1 160.8,149.2 166.4,149.4 172.0,149.6 177.6,149.8 183.2,150.1 188.8,150.3 194.4,150.6 200.0,150.9 205.6,151.2 211.2,151.6 216.8,151.9 222.4,152.3 228.0,152.7 233.6,153.2 239.2,153.6 244.8,154.1 250.4,154.6 256.0,155.1 261.6,155.6 267.2,156.1 272.8,156.7 278.4,157.3 284.0,157.9 289.6,158.5 295.2,159.2 300.8,159.9 306.4,160.6 312.0,161.3 317.6,162.0 323.2,162.8 328.8,163.6 334.4,164.4 340.0,165.2 345.6,166.0 351.2,166.9 356.8,167.8 362.4,168.7 368.0,169.6 373.6,170.6 379.2,171.5 384.8,172.5 390.4,173.6 396.0,174.6 401.6,175.6 407.2,176.7 412.8,177.8 418.4,178.9 424.0,180.1 429.6,181.2 435.2,182.4 440.8,183.6 446.4,184.9 452.0,186.1 457.6,187.4 463.2,188.7 468.8,190.0 474.4,191.3 480.0,192.7 485.6,194.1 491.2,195.5 496.8,196.9 502.4,198.3 508.0,199.8 513.6,201.3 519.2,202.8 524.8,204.3 530.4,205.9 536.0,207.5 541.6,209.1 547.2,210.7 552.8,212.3 558.4,214.0 564.0,215.7 569.6,217.4 575.2,219.1 580.8,220.9 586.4,222.7 592.0,224.5 597.6,226.3 603.2,228.2 608.8,230.0 614.4,231.9 620.0,233.8 625.6,235.8 631.2,237.7 636.8,239.7 642.4,241.7 648.0,243.8 653.6,245.8 659.2,247.9 664.8,250.0 670.4,252.1 676.0,254.3 681.6,256.4 687.2,258.6 692.8,260.9 698.4,263.1 704.0,265.4 709.6,267.6 715.2,270.0 720.8,272.3 726.4,274.7 732.0,277.0 737.6,279.5 743.2,281.9 748.8,284.4 754.4,286.8 760.0,289.3 765.6,291.9 771.2,294.4 776.8,297.0 782.4,299.6 788.0,302.3 793.6,304.9 799.2,307.6 804.8,310.3 810.4,313.0 816.0,315.8 821.6,318.6 827.2,321.4 832.8,324.2 838.4,327.1 844.0,330.0 849.6,332.9 855.2,335.8 860.8,338.8 866.4,341.8 872.0,344.8 877.6,347.8 883.2,350.9 888.8,354.0 894.4,357.1 900.0,360.2 905.6,363.4 911.2,366.6 916.8,369.8 922.4,373.1 928.0,376.4 933.6,379.7 939.2,383.0 944.8,386.4 950.4,389.8 956.0,393.2 961.6,396.7 967.2,400.1 972.8,403.6 978.4,407.2 984.0,410.7 989.6,414.3 995.2,417.9 1000.8,421.6 1006.4,425.3 1012.0,429.0 1017.6,432.7 1023.2,436.5 1028.8,440.3 1034.4,444.1 1040.0,448.0 1045.6,451.8 1051.2,455.8 1056.8,459.7 1062.4,463.7 1068.0,467.7 1073.6,471.7 1079.2,475.8 1084.8,479.9 1090.4,484.0 1096.0,488.2 1101.6,492.4 1107.2,496.6 1112.8,500.9 1118.4,505.2 1124.0,509.5 1129.6,513.8 1135.2,518.2 1140.8,522.6 1146.4,527.1 1152.0,531.6 1157.6,536.1 1163.2,540.7 1168.8,545.3 1174.4,549.9 1180.0,554.5 1185.6,559.2 1191.2,564.0 1196.8,568.7 1202.4,573.5 1208.0,578.3 1213.6,583.2 1219.2,588.1 1224.8,593.1 1230.4,598.0 1236.0,603.0"/>
<polyline fill="none" stroke="#ff7f0e" stroke-width="3" stroke-linejoin="round" stroke-linecap="round" points="116.0,148.6 121.6,148.6 127.2,148.6 132.8,148.6 138.4,148.7 144.0,148.7 149.6,148.7 155.2,148.8 160.8,148.8 166.4,148.9 172.0,149.0 177.6,149.1 183.2,149.2 188.8,149.3 194.4,149.4 200.0,149.5 205.6,149.6 211.2,149.7 216.8,149.9 222.4,150.0 228.0,150.2 233.6,150.3 239.2,150.5 244.8,150.7 250.4,150.9 256.0,151.1 261.6,151.3 267.2,151.5 272.8,151.7 278.4,151.9 284.0,152.2 289.6,152.4 295.2,152.7 300.8,152.9 306.4,153.2 312.0,153.5 317.6,153.8 323.2,154.1 328.8,154.4 334.4,154.7 340.0,155.0 345.6,155.3 351.2,155.6 356.8,156.0 362.4,156.3 368.0,156.7 373.6,157.0 379.2,157.4 384.8,157.8 390.4,158.2 396.0,158.6 401.6,159.0 407.2,159.4 412.8,159.8 418.4,160.2 424.0,160.7 429.6,161.1 435.2,161.6 440.8,162.0 446.4,162.5 452.0,163.0 457.6,163.5 463.2,164.0 468.8,164.5 474.4,165.0 480.0,165.5 485.6,166.0 491.2,166.5 496.8,167.1 502.4,167.6 508.0,168.2 513.6,168.8 519.2,169.3 524.8,169.9 530.4,170.5 536.0,171.1 541.6,171.7 547.2,172.3 552.8,172.9 558.4,173.6 564.0,174.2 569.6,174.9 575.2,175.5 580.8,176.2 586.4,176.8 592.0,177.5 597.6,178.2 603.2,178.9 608.8,179.6 614.4,180.3 620.0,181.0 625.6,181.8 631.2,182.5 636.8,183.3 642.4,184.0 648.0,184.8 653.6,185.5 659.2,186.3 664.8,187.1 670.4,187.9 676.0,188.7 681.6,189.5 687.2,190.3 692.8,191.1 698.4,192.0 704.0,192.8 709.6,193.7 715.2,194.5 720.8,195.4 726.4,196.3 732.0,197.1 737.6,198.0 743.2,198.9 748.8,199.8 754.4,200.8 760.0,201.7 765.6,202.6 771.2,203.6 776.8,204.5 782.4,205.5 788.0,206.4 793.6,207.4 799.2,208.4 804.8,209.4 810.4,210.4 816.0,211.4 821.6,212.4 827.2,213.4 832.8,214.5 838.4,215.5 844.0,216.5 849.6,217.6 855.2,218.7 860.8,219.7 866.4,220.8 872.0,221.9 877.6,223.0 883.2,224.1 888.8,225.2 894.4,226.4 900.0,227.5 905.6,228.6 911.2,229.8 916.8,230.9 922.4,232.1 928.0,233.3 933.6,234.5 939.2,235.6 944.8,236.8 950.4,238.0 956.0,239.3 961.6,240.5 967.2,241.7 972.8,243.0 978.4,244.2 984.0,245.5 989.6,246.7 995.2,248.0 1000.8,249.3 1006.4,250.6 1012.0,251.9 1017.6,253.2 1023.2,254.5 1028.8,255.8 1034.4,257.2 1040.0,258.5 1045.6,259.9 1051.2,261.2 1056.8,262.6 1062.4,264.0 1068.0,265.4 1073.6,266.8 1079.2,268.2 1084.8,269.6 1090.4,271.0 1096.0,272.4 1101.6,273.9 1107.2,275.3 1112.8,276.8 1118.4,278.2 1124.0,279.7 1129.6,281.2 1135.2,282.7 1140.8,284.2 1146.4,285.7 1152.0,287.2 1157.6,288.7 1163.2,290.2 1168.8,291.8 1174.4,293.3 1180.0,294.9 1185.6,296.5 1191.2,298.0 1196.8,299.6 1202.4,301.2 1208.0,302.8 1213.6,304.4 1219.2,306.0 1224.8,307.7 1230.4,309.3 1236.0,311.0"/>
<polyline fill="none" stroke="#2ca02c" stroke-width="3" stroke-linejoin="round" stroke-linecap="round" points="116.0,148.6 121.6,148.6 127.2,148.6 132.8,148.6 138.4,148.7 144.0,148.7 149.6,148.8 155.2,148.8 160.8,148.9 166.4,149.0 172.0,149.1 177.6,149.2 183.2,149.3 188.8,149.4 194.4,149.6 200.0,149.7 205.6,149.9 211.2,150.0 216.8,150.2 222.4,150.4 228.0,150.6 233.6,150.8 239.2,151.0 244.8,151.2 250.4,151.4 256.0,151.7 261.6,151.9 267.2,152.2 272.8,152.5 278.4,152.7 284.0,153.0 289.6,153.3 295.2,153.6 300.8,154.0 306.4,154.3 312.0,154.6 317.6,155.0 323.2,155.4 328.8,155.7 334.4,156.1 340.0,156.5 345.6,156.9 351.2,157.3 356.8,157.7 362.4,158.2 368.0,158.6 373.6,159.1 379.2,159.5 384.8,160.0 390.4,160.5 396.0,161.0 401.6,161.5 407.2,162.0 412.8,162.5 418.4,163.0 424.0,163.6 429.6,164.1 435.2,164.7 440.8,165.2 446.4,165.8 452.0,166.4 457.6,167.0 463.2,167.6 468.8,168.2 474.4,168.9 480.0,169.5 485.6,170.1 491.2,170.8 496.8,171.5 502.4,172.2 508.0,172.8 513.6,173.5 519.2,174.3 524.8,175.0 530.4,175.7 536.0,176.4 541.6,177.2 547.2,178.0 552.8,178.7 558.4,179.5 564.0,180.3 569.6,181.1 575.2,181.9 580.8,182.7 586.4,183.6 592.0,184.4 597.6,185.2 603.2,186.1 608.8,187.0 614.4,187.9 620.0,188.7 625.6,189.6 631.2,190.6 636.8,191.5 642.4,192.4 648.0,193.3 653.6,194.3 659.2,195.3 664.8,196.2 670.4,197.2 676.0,198.2 681.6,199.2 687.2,200.2 692.8,201.2 698.4,202.3 704.0,203.3 709.6,204.4 715.2,205.4 720.8,206.5 726.4,207.6 732.0,208.7 737.6,209.8 743.2,210.9 748.8,212.0 754.4,213.1 760.0,214.3 765.6,215.4 771.2,216.6 776.8,217.8 782.4,219.0 788.0,220.2 793.6,221.4 799.2,222.6 804.8,223.8 810.4,225.0 816.0,226.3 821.6,227.5 827.2,228.8 832.8,230.1 838.4,231.4 844.0,232.7 849.6,234.0 855.2,235.3 860.8,236.6 866.4,238.0 872.0,239.3 877.6,240.7 883.2,242.0 888.8,243.4 894.4,244.8 900.0,246.2 905.6,247.6 911.2,249.0 916.8,250.5 922.4,251.9 928.0,253.4 933.6,254.8 939.2,256.3 944.8,257.8 950.4,259.3 956.0,260.8 961.6,262.3 967.2,263.8 972.8,265.4 978.4,266.9 984.0,268.5 989.6,270.0 995.2,271.6 1000.8,273.2 1006.4,274.8 1012.0,276.4 1017.6,278.0 1023.2,279.7 1028.8,281.3 1034.4,282.9 1040.0,284.6 1045.6,286.3 1051.2,288.0 1056.8,289.7 1062.4,291.4 1068.0,293.1 1073.6,294.8 1079.2,296.5 1084.8,298.3 1090.4,300.0 1096.0,301.8 1101.6,303.6 1107.2,305.4 1112.8,307.2 1118.4,309.0 1124.0,310.8 1129.6,312.6 1135.2,314.5 1140.8,316.3 1146.4,318.2 1152.0,320.1 1157.6,322.0 1163.2,323.9 1168.8,325.8 1174.4,327.7 1180.0,329.6 1185.6,331.5 1191.2,333.5 1196.8,335.5 1202.4,337.4 1208.0,339.4 1213.6,341.4 1219.2,343.4 1224.8,345.4 1230.4,347.5 1236.0,349.5"/>
<polyline fill="none" stroke="#d62728" stroke-width="3" stroke-linejoin="round" stroke-linecap="round" points="116.0,148.6 121.6,148.6 127.2,148.6 132.8,148.6 138.4,148.6 144.0,148.7 149.6,148.7 155.2,148.7 160.8,148.8 166.4,148.8 172.0,148.9 177.6,149.0 183.2,149.0 188.8,149.1 194.4,149.2 200.0,149.3 205.6,149.4 211.2,149.5 216.8,149.6 222.4,149.7 228.0,149.8 233.6,150.0 239.2,150.1 244.8,150.2 250.4,150.4 256.0,150.5 261.6,150.7 267.2,150.9 272.8,151.0 278.4,151.2 284.0,151.4 289.6,151.6 295.2,151.8 300.8,152.0 306.4,152.2 312.0,152.4 317.6,152.6 323.2,152.8 328.8,153.1 334.4,153.3 340.0,153.6 345.6,153.8 351.2,154.1 356.8,154.3 362.4,154.6 368.0,154.9 373.6,155.2 379.2,155.5 384.8,155.8 390.4,156.1 396.0,156.4 401.6,156.7 407.2,157.0 412.8,157.3 418.4,157.7 424.0,158.0 429.6,158.3 435.2,158.7 440.8,159.1 446.4,159.4 452.0,159.8 457.6,160.2 463.2,160.5 468.8,160.9 474.4,161.3 480.0,161.7 485.6,162.1 491.2,162.6 496.8,163.0 502.4,163.4 508.0,163.8 513.6,164.3 519.2,164.7 524.8,165.2 530.4,165.6 536.0,166.1 541.6,166.6 547.2,167.0 552.8,167.5 558.4,168.0 564.0,168.5 569.6,169.0 575.2,169.5 580.8,170.0 586.4,170.6 592.0,171.1 597.6,171.6 603.2,172.2 608.8,172.7 614.4,173.3 620.0,173.8 625.6,174.4 631.2,174.9 636.8,175.5 642.4,176.1 648.0,176.7 653.6,177.3 659.2,177.9 664.8,178.5 670.4,179.1 676.0,179.7 681.6,180.4 687.2,181.0 692.8,181.6 698.4,182.3 704.0,182.9 709.6,183.6 715.2,184.3 720.8,184.9 726.4,185.6 732.0,186.3 737.6,187.0 743.2,187.7 748.8,188.4 754.4,189.1 760.0,189.8 765.6,190.5 771.2,191.3 776.8,192.0 782.4,192.7 788.0,193.5 793.6,194.2 799.2,195.0 804.8,195.8 810.4,196.5 816.0,197.3 821.6,198.1 827.2,198.9 832.8,199.7 838.4,200.5 844.0,201.3 849.6,202.1 855.2,202.9 860.8,203.8 866.4,204.6 872.0,205.5 877.6,206.3 883.2,207.2 888.8,208.0 894.4,208.9 900.0,209.8 905.6,210.6 911.2,211.5 916.8,212.4 922.4,213.3 928.0,214.2 933.6,215.1 939.2,216.1 944.8,217.0 950.4,217.9 956.0,218.9 961.6,219.8 967.2,220.7 972.8,221.7 978.4,222.7 984.0,223.6 989.6,224.6 995.2,225.6 1000.8,226.6 1006.4,227.6 1012.0,228.6 1017.6,229.6 1023.2,230.6 1028.8,231.6 1034.4,232.7 1040.0,233.7 1045.6,234.7 1051.2,235.8 1056.8,236.8 1062.4,237.9 1068.0,239.0 1073.6,240.0 1079.2,241.1 1084.8,242.2 1090.4,243.3 1096.0,244.4 1101.6,245.5 1107.2,246.6 1112.8,247.7 1118.4,248.8 1124.0,250.0 1129.6,251.1 1135.2,252.2 1140.8,253.4 1146.4,254.6 1152.0,255.7 1157.6,256.9 1163.2,258.1 1168.8,259.2 1174.4,260.4 1180.0,261.6 1185.6,262.8 1191.2,264.0 1196.8,265.2 1202.4,266.5 1208.0,267.7 1213.6,268.9 1219.2,270.2 1224.8,271.4 1230.4,272.7 1236.0,273.9"/>
<polyline fill="none" stroke="#9467bd" stroke-width="3" stroke-linejoin="round" stroke-linecap="round" points="116.0,148.6 121.6,148.6 127.2,148.6 132.8,148.6 138.4,148.6 144.0,148.7 149.6,148.7 155.2,148.7 160.8,148.8 166.4,148.8 172.0,148.9 177.6,149.0 183.2,149.0 188.8,149.1 194.4,149.2 200.0,149.3 205.6,149.4 211.2,149.5 216.8,149.6 222.4,149.7 228.0,149.8 233.6,150.0 239.2,150.1 244.8,150.2 250.4,150.4 256.0,150.6 261.6,150.7 267.2,150.9 272.8,151.0 278.4,151.2 284.0,151.4 289.6,151.6 295.2,151.8 300.8,152.0 306.4,152.2 312.0,152.4 317.6,152.7 323.2,152.9 328.8,153.1 334.4,153.4 340.0,153.6 345.6,153.9 351.2,154.1 356.8,154.4 362.4,154.7 368.0,154.9 373.6,155.2 379.2,155.5 384.8,155.8 390.4,156.1 396.0,156.4 401.6,156.8 407.2,157.1 412.8,157.4 418.4,157.8 424.0,158.1 429.6,158.4 435.2,158.8 440.8,159.2 446.4,159.5 452.0,159.9 457.6,160.3 463.2,160.7 468.8,161.1 474.4,161.5 480.0,161.9 485.6,162.3 491.2,162.7 496.8,163.1 502.4,163.6 508.0,164.0 513.6,164.4 519.2,164.9 524.8,165.3 530.4,165.8 536.0,166.3 541.6,166.7 547.2,167.2 552.8,167.7 558.4,168.2 564.0,168.7 569.6,169.2 575.2,169.7 580.8,170.3 586.4,170.8 592.0,171.3 597.6,171.8 603.2,172.4 608.8,172.9 614.4,173.5 620.0,174.1 625.6,174.6 631.2,175.2 636.8,175.8 642.4,176.4 648.0,177.0 653.6,177.6 659.2,178.2 664.8,178.8 670.4,179.4 676.0,180.1 681.6,180.7 687.2,181.3 692.8,182.0 698.4,182.6 704.0,183.3 709.6,184.0 715.2,184.6 720.8,185.3 726.4,186.0 732.0,186.7 737.6,187.4 743.2,188.1 748.8,188.8 754.4,189.5 760.0,190.2 765.6,191.0 771.2,191.7 776.8,192.4 782.4,193.2 788.0,193.9 793.6,194.7 799.2,195.5 804.8,196.2 810.4,197.0 816.0,197.8 821.6,198.6 827.2,199.4 832.8,200.2 838.4,201.0 844.0,201.8 849.6,202.7 855.2,203.5 860.8,204.3 866.4,205.2 872.0,206.0 877.6,206.9 883.2,207.7 888.8,208.6 894.4,209.5 900.0,210.4 905.6,211.3 911.2,212.2 916.8,213.1 922.4,214.0 928.0,214.9 933.6,215.8 939.2,216.7 944.8,217.7 950.4,218.6 956.0,219.5 961.6,220.5 967.2,221.5 972.8,222.4 978.4,223.4 984.0,224.4 989.6,225.4 995.2,226.4 1000.8,227.4 1006.4,228.4 1012.0,229.4 1017.6,230.4 1023.2,231.4 1028.8,232.4 1034.4,233.5 1040.0,234.5 1045.6,235.6 1051.2,236.6 1056.8,237.7 1062.4,238.8 1068.0,239.8 1073.6,240.9 1079.2,242.0 1084.8,243.1 1090.4,244.2 1096.0,245.3 1101.6,246.4 1107.2,247.5 1112.8,248.7 1118.4,249.8 1124.0,251.0 1129.6,252.1 1135.2,253.3 1140.8,254.4 1146.4,255.6 1152.0,256.8 1157.6,257.9 1163.2,259.1 1168.8,260.3 1174.4,261.5 1180.0,262.7 1185.6,263.9 1191.2,265.1 1196.8,266.4 1202.4,267.6 1208.0,268.8 1213.6,270.1 1219.2,271.3 1224.8,272.6 1230.4,273.9 1236.0,275.1"/>
<polyline fill="none" stroke="#8b5cf6" stroke-width="3" stroke-linejoin="round" stroke-linecap="round" points="116.0,148.6 121.6,148.6 127.2,148.6 132.8,148.6 138.4,148.6 144.0,148.6 149.6,148.6 155.2,148.6 160.8,148.6 166.4,148.6 172.0,148.6 177.6,148.6 183.2,148.6 188.8,148.6 194.4,148.6 200.0,148.6 205.6,148.6 211.2,148.6 216.8,148.6 222.4,148.6 228.0,148.6 233.6,148.6 239.2,148.6 244.8,148.6 250.4,148.6 256.0,148.6 261.6,148.6 267.2,148.6 272.8,148.6 278.4,148.6 284.0,148.5 289.6,148.5 295.2,148.5 300.8,148.5 306.4,148.5 312.0,148.5 317.6,148.5 323.2,148.5 328.8,148.5 334.4,148.5 340.0,148.5 345.6,148.5 351.2,148.5 356.8,148.5 362.4,148.5 368.0,148.5 373.6,148.5 379.2,148.5 384.8,148.5 390.4,148.5 396.0,148.5 401.6,148.5 407.2,148.5 412.8,148.5 418.4,148.5 424.0,148.5 429.6,148.5 435.2,148.5 440.8,148.5 446.4,148.5 452.0,148.4 457.6,148.4 463.2,148.4 468.8,148.4 474.4,148.4 480.0,148.4 485.6,148.4 491.2,148.4 496.8,148.4 502.4,148.4 508.0,148.4 513.6,148.4 519.2,148.4 524.8,148.4 530.4,148.4 536.0,148.4 541.6,148.4 547.2,148.4 552.8,148.4 558.4,148.4 564.0,148.4 569.6,148.4 575.2,148.4 580.8,148.4 586.4,148.4 592.0,148.4 597.6,148.4 603.2,148.4 608.8,148.3 614.4,148.3 620.0,148.3 625.6,148.3 631.2,148.3 636.8,148.3 642.4,148.3 648.0,148.3 653.6,148.3 659.2,148.3 664.8,148.3 670.4,148.3 676.0,148.3 681.6,148.3 687.2,148.3 692.8,148.3 698.4,148.3 704.0,148.3 709.6,148.3 715.2,148.3 720.8,148.3 726.4,148.3 732.0,148.3 737.6,148.3 743.2,148.3 748.8,148.3 754.4,148.3 760.0,148.3 765.6,148.3 771.2,148.3 776.8,148.3 782.4,148.3 788.0,148.3 793.6,148.3 799.2,148.3 804.8,148.3 810.4,148.3 816.0,148.3 821.6,148.3 827.2,148.3 832.8,148.3 838.4,148.3 844.0,148.3 849.6,148.4 855.2,148.4 860.8,148.4 866.4,148.4 872.0,148.4 877.6,148.4 883.2,148.4 888.8,148.4 894.4,148.4 900.0,148.4 905.6,148.4 911.2,148.4 916.8,148.4 922.4,148.4 928.0,148.4 933.6,148.5 939.2,148.5 944.8,148.5 950.4,148.5 956.0,148.5 961.6,148.5 967.2,148.5 972.8,148.5 978.4,148.5 984.0,148.6 989.6,148.6 995.2,148.6 1000.8,148.6 1006.4,148.6 1012.0,148.6 1017.6,148.6 1023.2,148.7 1028.8,148.7 1034.4,148.7 1040.0,148.7 1045.6,148.7 1051.2,148.7 1056.8,148.8 1062.4,148.8 1068.0,148.8 1073.6,148.8 1079.2,148.8 1084.8,148.9 1090.4,148.9 1096.0,148.9 1101.6,148.9 1107.2,148.9 1112.8,149.0 1118.4,149.0 1124.0,149.0 1129.6,149.0 1135.2,149.1 1140.8,149.1 1146.4,149.1 1152.0,149.2 1157.6,149.2 1163.2,149.2 1168.8,149.2 1174.4,149.3 1180.0,149.3 1185.6,149.3 1191.2,149.4 1196.8,149.4 1202.4,149.4 1208.0,149.5 1213.6,149.5 1219.2,149.5 1224.8,149.6 1230.4,149.6 1236.0,149.6"/>
</g>
<text x="676.0" y="746.0" fill="#374151" font-size="16" font-family="Inter, Arial, sans-serif" text-anchor="middle" font-weight="normal">fractional bin offset</text>
<text x="36.0" y="403.5" fill="#374151" font-size="16" font-family="Inter, Arial, sans-serif" text-anchor="middle" transform="rotate(-90 36 403.5)">coherent-gain-normalized response (dB)</text>
</svg>