<svg xmlns="http://www.w3.org/2000/svg" width="1100" height="680" viewBox="0 0 1100 680">
<rect width="1100" height="680" fill="#fcfcfd"/>
<text x="550.0" y="38.0" fill="#222" font-size="28" font-family="Inter, Arial, sans-serif" text-anchor="middle" font-weight="700">Window spectra near DC</text>
<line x1="90.0" y1="70.0" x2="90.0" y2="590.0" stroke="#333" stroke-width="2"/>
<line x1="90.0" y1="590.0" x2="1060.0" y2="590.0" stroke="#333" stroke-width="2"/>
<line x1="90.0" y1="590.0" x2="1060.0" y2="590.0" stroke="#d9dde3" stroke-width="1" stroke-dasharray="4 6"/>
<text x="78.0" y="595.0" fill="#4b5563" font-size="13" font-family="Inter, Arial, sans-serif" text-anchor="end" font-weight="normal">-120.00</text>
<line x1="90.0" y1="486.0" x2="1060.0" y2="486.0" stroke="#d9dde3" stroke-width="1" stroke-dasharray="4 6"/>
<text x="78.0" y="491.0" fill="#4b5563" font-size="13" font-family="Inter, Arial, sans-serif" text-anchor="end" font-weight="normal">-95.00</text>
<line x1="90.0" y1="382.0" x2="1060.0" y2="382.0" stroke="#d9dde3" stroke-width="1" stroke-dasharray="4 6"/>
<text x="78.0" y="387.0" fill="#4b5563" font-size="13" font-family="Inter, Arial, sans-serif" text-anchor="end" font-weight="normal">-70.00</text>
<line x1="90.0" y1="278.0" x2="1060.0" y2="278.0" stroke="#d9dde3" stroke-width="1" stroke-dasharray="4 6"/>
<text x="78.0" y="283.0" fill="#4b5563" font-size="13" font-family="Inter, Arial, sans-serif" text-anchor="end" font-weight="normal">-45.00</text>
<line x1="90.0" y1="174.0" x2="1060.0" y2="174.0" stroke="#d9dde3" stroke-width="1" stroke-dasharray="4 6"/>
<text x="78.0" y="179.0" fill="#4b5563" font-size="13" font-family="Inter, Arial, sans-serif" text-anchor="end" font-weight="normal">-20.00</text>
<line x1="90.0" y1="70.0" x2="1060.0" y2="70.0" stroke="#d9dde3" stroke-width="1" stroke-dasharray="4 6"/>
<text x="78.0" y="75.0" fill="#4b5563" font-size="13" font-family="Inter, Arial, sans-serif" text-anchor="end" font-weight="normal">5.00</text>
<line x1="90.0" y1="70.0" x2="90.0" y2="590.0" stroke="#eef1f5" stroke-width="1" stroke-dasharray="4 6"/>
<text x="90.0" y="618.0" fill="#4b5563" font-size="13" font-family="Inter, Arial, sans-serif" text-anchor="middle" font-weight="normal">0.00</text>
<line x1="284.0" y1="70.0" x2="284.0" y2="590.0" stroke="#eef1f5" stroke-width="1" stroke-dasharray="4 6"/>
<text x="284.0" y="618.0" fill="#4b5563" font-size="13" font-family="Inter, Arial, sans-serif" text-anchor="middle" font-weight="normal">0.20</text>
<line x1="478.0" y1="70.0" x2="478.0" y2="590.0" stroke="#eef1f5" stroke-width="1" stroke-dasharray="4 6"/>
<text x="478.0" y="618.0" fill="#4b5563" font-size="13" font-family="Inter, Arial, sans-serif" text-anchor="middle" font-weight="normal">0.40</text>
<line x1="672.0" y1="70.0" x2="672.0" y2="590.0" stroke="#eef1f5" stroke-width="1" stroke-dasharray="4 6"/>
<text x="672.0" y="618.0" fill="#4b5563" font-size="13" font-family="Inter, Arial, sans-serif" text-anchor="middle" font-weight="normal">0.60</text>
<line x1="866.0" y1="70.0" x2="866.0" y2="590.0" stroke="#eef1f5" stroke-width="1" stroke-dasharray="4 6"/>
<text x="866.0" y="618.0" fill="#4b5563" font-size="13" font-family="Inter, Arial, sans-serif" text-anchor="middle" font-weight="normal">0.80</text>
<line x1="1060.0" y1="70.0" x2="1060.0" y2="590.0" stroke="#eef1f5" stroke-width="1" stroke-dasharray="4 6"/>
<text x="1060.0" y="618.0" fill="#4b5563" font-size="13" font-family="Inter, Arial, sans-serif" text-anchor="middle" font-weight="normal">1.00</text>
<polyline fill="none" stroke="#1f77b4" stroke-width="3" points="90.0,90.8 93.0,90.9 95.9,91.0 98.9,91.3 101.8,91.7 104.8,92.3 107.8,92.9 110.7,93.7 113.7,94.7 116.6,95.7 119.6,96.9 122.6,98.2 125.5,99.7 128.5,101.4 131.4,103.2 134.4,105.2 137.4,107.4 140.3,109.8 143.3,112.5 146.2,115.4 149.2,118.6 152.2,122.1 155.1,126.0 158.1,130.3 161.0,135.2 164.0,140.8 167.0,147.3 169.9,154.9 172.9,164.3 175.8,176.3 178.8,193.6 181.8,225.2 184.7,266.4 187.7,209.2 190.6,189.2 193.6,177.3 196.6,169.1 199.5,163.0 202.5,158.4 205.4,154.8 208.4,151.9 211.4,149.8 214.3,148.2 217.3,147.0 220.2,146.3 223.2,146.0 226.2,146.0 229.1,146.4 232.1,147.1 235.1,148.2 238.0,149.6 241.0,151.3 243.9,153.5 246.9,156.0 249.9,159.1 252.8,162.6 255.8,166.8 258.7,171.8 261.7,177.7 264.7,184.9 267.6,194.1 270.6,206.5 273.5,225.3 276.5,265.3 279.5,266.4 282.4,227.2 285.4,209.5 288.3,198.2 291.3,190.1 294.3,184.0 297.2,179.2 300.2,175.4 303.1,172.4 306.1,170.0 309.1,168.1 312.0,166.7 315.0,165.7 317.9,165.2 320.9,165.0 323.9,165.1 326.8,165.6 329.8,166.4 332.7,167.6 335.7,169.2 338.7,171.2 341.6,173.6 344.6,176.5 347.5,180.0 350.5,184.1 353.5,189.0 356.4,195.1 359.4,202.5 362.3,212.1 365.3,225.5 368.3,246.8 371.2,304.6 374.2,266.4 377.1,236.1 380.1,220.4 383.1,209.9 386.0,202.2 389.0,196.3 391.9,191.6 394.9,187.9 397.9,184.9 400.8,182.4 403.8,180.6 406.7,179.1 409.7,178.1 412.7,177.5 415.6,177.2 418.6,177.3 421.5,177.8 424.5,178.6 427.5,179.8 430.4,181.3 433.4,183.3 436.3,185.7 439.3,188.6 442.3,192.1 445.2,196.3 448.2,201.4 451.1,207.6 454.1,215.4 457.1,225.7 460.0,240.3 463.0,265.3 465.9,441.4 468.9,266.4 471.9,241.7 474.8,227.5 477.8,217.8 480.7,210.6 483.7,204.9 486.7,200.4 489.6,196.7 492.6,193.8 495.5,191.4 498.5,189.6 501.5,188.2 504.4,187.2 507.4,186.6 510.3,186.4 513.3,186.5 516.3,186.9 519.2,187.8 522.2,189.0 525.2,190.5 528.1,192.5 531.1,195.0 534.0,198.0 537.0,201.6 540.0,205.9 542.9,211.2 545.9,217.7 548.8,225.9 551.8,237.0 554.8,253.2 557.7,283.6 560.7,325.4 563.6,266.4 566.6,245.5 569.6,232.7 572.5,223.6 575.5,216.8 578.4,211.4 581.4,207.0 584.4,203.5 587.3,200.7 590.3,198.4 593.2,196.6 596.2,195.3 599.2,194.3 602.1,193.8 605.1,193.6 608.0,193.8 611.0,194.3 614.0,195.1 616.9,196.4 619.9,198.0 622.8,200.1 625.8,202.6 628.8,205.7 631.7,209.4 634.7,213.9 637.6,219.4 640.6,226.3 643.6,235.0 646.5,247.0 649.5,265.3 652.4,304.5 655.4,306.4 658.4,266.4 661.3,248.3 664.3,236.6 667.2,228.1 670.2,221.7 673.2,216.5 676.1,212.4 679.1,209.0 682.0,206.3 685.0,204.1 688.0,202.4 690.9,201.1 693.9,200.2 696.8,199.7 699.8,199.6 702.8,199.8 705.7,200.4 708.7,201.3 711.6,202.6 714.6,204.3 717.6,206.5 720.5,209.1 723.5,212.3 726.4,216.2 729.4,220.9 732.4,226.7 735.3,233.9 738.3,243.2 741.2,256.3 744.2,277.3 747.2,334.0 750.1,297.1 753.1,266.4 756.0,250.4 759.0,239.7 762.0,231.8 764.9,225.6 767.9,220.7 770.8,216.8 773.8,213.6 776.8,211.0 779.7,208.9 782.7,207.3 785.6,206.1 788.6,205.3 791.6,204.8 794.5,204.7 797.5,205.0 800.4,205.7 803.4,206.7 806.4,208.0 809.3,209.8 812.3,212.1 815.3,214.8 818.2,218.2 821.2,222.2 824.1,227.1 827.1,233.2 830.1,240.8 833.0,250.9 836.0,265.3 838.9,290.0 841.9,441.2 844.9,291.4 847.8,266.4 850.8,252.1 853.7,242.2 856.7,234.8 859.7,229.0 862.6,224.3 865.6,220.5 868.5,217.5 871.5,215.0 874.5,213.0 877.4,211.5 880.4,210.3 883.3,209.6 886.3,209.3 889.3,209.2 892.2,209.6 895.2,210.3 898.1,211.4 901.1,212.8 904.1,214.7 907.0,217.1 910.0,219.9 912.9,223.4 915.9,227.6 918.9,232.8 921.8,239.2 924.8,247.3 927.7,258.2 930.7,274.2 933.7,304.4 936.6,347.6 939.6,287.5 942.5,266.4 945.5,253.5 948.5,244.3 951.4,237.3 954.4,231.8 957.3,227.4 960.3,223.8 963.3,220.8 966.2,218.5 969.2,216.6 972.1,215.2 975.1,214.1 978.1,213.5 981.0,213.2 984.0,213.3 986.9,213.7 989.9,214.5 992.9,215.6 995.8,217.2 998.8,219.1 1001.7,221.6 1004.7,224.6 1007.7,228.2 1010.6,232.7 1013.6,238.1 1016.5,244.8 1019.5,253.5 1022.5,265.3 1025.4,283.4 1028.4,322.2 1031.3,325.1 1034.3,284.7 1037.3,266.4 1040.2,254.6 1043.2,246.1 1046.1,239.5 1049.1,234.3 1052.1,230.1 1055.0,226.6 1058.0,223.8"/>
<polyline fill="none" stroke="#ff7f0e" stroke-width="3" points="90.0,90.8 93.0,90.8 95.9,90.9 98.9,91.0 101.8,91.2 104.8,91.4 107.8,91.6 110.7,91.9 113.7,92.3 116.6,92.7 119.6,93.1 122.6,93.6 125.5,94.1 128.5,94.7 131.4,95.3 134.4,96.0 137.4,96.7 140.3,97.5 143.3,98.3 146.2,99.2 149.2,100.1 152.2,101.1 155.1,102.2 158.1,103.3 161.0,104.4 164.0,105.6 167.0,106.9 169.9,108.2 172.9,109.6 175.8,111.1 178.8,112.6 181.8,114.2 184.7,115.8 187.7,117.6 190.6,119.4 193.6,121.3 196.6,123.2 199.5,125.3 202.5,127.4 205.4,129.6 208.4,132.0 211.4,134.4 214.3,136.9 217.3,139.6 220.2,142.3 223.2,145.3 226.2,148.3 229.1,151.5 232.1,154.9 235.1,158.4 238.0,162.2 241.0,166.2 243.9,170.5 246.9,175.0 249.9,179.9 252.8,185.2 255.8,191.1 258.7,197.5 261.7,204.8 264.7,213.1 267.6,222.9 270.6,235.2 273.5,251.7 276.5,278.7 279.5,590.0 282.4,282.9 285.4,260.0 288.3,247.6 291.3,239.5 294.3,233.9 297.2,229.8 300.2,226.8 303.1,224.6 306.1,223.2 309.1,222.2 312.0,221.8 315.0,221.7 317.9,222.1 320.9,222.8 323.9,223.8 326.8,225.2 329.8,226.9 332.7,228.9 335.7,231.3 338.7,234.0 341.6,237.1 344.6,240.6 347.5,244.6 350.5,249.2 353.5,254.5 356.4,260.6 359.4,267.9 362.3,276.7 365.3,288.0 368.3,303.6 371.2,329.7 374.2,590.0 377.1,332.1 380.1,308.5 383.1,295.3 386.0,286.5 389.0,280.1 391.9,275.3 394.9,271.7 397.9,268.9 400.8,266.7 403.8,265.2 406.7,264.2 409.7,263.6 412.7,263.4 415.6,263.5 418.6,264.0 421.5,264.9 424.5,266.1 427.5,267.6 430.4,269.5 433.4,271.8 436.3,274.4 439.3,277.5 442.3,281.1 445.2,285.3 448.2,290.2 451.1,295.9 454.1,302.8 457.1,311.2 460.0,322.1 463.0,337.4 465.9,363.1 468.9,590.0 471.9,364.9 474.8,340.9 477.8,327.4 480.7,318.3 483.7,311.6 486.7,306.5 489.6,302.6 492.6,299.5 495.5,297.1 498.5,295.3 501.5,293.9 504.4,293.1 507.4,292.6 510.3,292.5 513.3,292.8 516.3,293.4 519.2,294.3 522.2,295.6 525.2,297.3 528.1,299.3 531.1,301.7 534.0,304.6 537.0,308.0 540.0,312.0 542.9,316.6 545.9,322.1 548.8,328.8 551.8,337.0 554.8,347.7 557.7,362.8 560.7,388.4 563.6,590.0 566.6,389.8 569.6,365.6 572.5,351.9 575.5,342.6 578.4,335.8 581.4,330.5 584.4,326.4 587.3,323.1 590.3,320.5 593.2,318.6 596.2,317.1 599.2,316.1 602.1,315.4 605.1,315.2 608.0,315.3 611.0,315.7 614.0,316.5 616.9,317.7 619.9,319.2 622.8,321.1 625.8,323.4 628.8,326.1 631.7,329.4 634.7,333.2 637.6,337.7 640.6,343.1 643.6,349.6 646.5,357.8 649.5,368.3 652.4,383.3 655.4,408.7 658.4,590.0 661.3,409.9 664.3,385.6 667.2,371.8 670.2,362.4 673.2,355.4 676.1,350.0 679.1,345.8 682.0,342.4 685.0,339.7 688.0,337.6 690.9,336.1 693.9,334.9 696.8,334.2 699.8,333.8 702.8,333.8 705.7,334.2 708.7,334.9 711.6,336.0 714.6,337.4 717.6,339.2 720.5,341.4 723.5,344.0 726.4,347.1 729.4,350.9 732.4,355.3 735.3,360.6 738.3,367.0 741.2,375.1 744.2,385.6 747.2,400.4 750.1,425.8 753.1,590.0 756.0,426.8 759.0,402.4 762.0,388.5 764.9,379.0 767.9,372.0 770.8,366.5 773.8,362.2 776.8,358.7 779.7,356.0 782.7,353.8 785.6,352.2 788.6,350.9 791.6,350.1 794.5,349.7 797.5,349.6 800.4,349.9 803.4,350.6 806.4,351.5 809.3,352.9 812.3,354.6 815.3,356.7 818.2,359.3 821.2,362.4 824.1,366.1 827.1,370.4 830.1,375.6 833.0,382.0 836.0,390.0 838.9,400.4 841.9,415.2 844.9,440.5 847.8,590.0 850.8,441.4 853.7,416.9 856.7,403.0 859.7,393.4 862.6,386.3 865.6,380.8 868.5,376.4 871.5,372.9 874.5,370.1 877.4,367.9 880.4,366.2 883.3,364.9 886.3,364.0 889.3,363.5 892.2,363.4 895.2,363.6 898.1,364.2 901.1,365.1 904.1,366.4 907.0,368.1 910.0,370.2 912.9,372.7 915.9,375.7 918.9,379.3 921.8,383.7 924.8,388.8 927.7,395.2 930.7,403.1 933.7,413.4 936.6,428.2 939.6,453.4 942.5,590.0 945.5,454.2 948.5,429.7 951.4,415.7 954.4,406.1 957.3,399.0 960.3,393.4 963.3,389.0 966.2,385.4 969.2,382.6 972.1,380.3 975.1,378.5 978.1,377.2 981.0,376.3 984.0,375.8 986.9,375.6 989.9,375.8 992.9,376.3 995.8,377.2 998.8,378.5 1001.7,380.1 1004.7,382.1 1007.7,384.6 1010.6,387.6 1013.6,391.2 1016.5,395.4 1019.5,400.6 1022.5,406.9 1025.4,414.7 1028.4,425.1 1031.3,439.8 1034.3,465.0 1037.3,590.0 1040.2,465.7 1043.2,441.1 1046.1,427.1 1049.1,417.5 1052.1,410.3 1055.0,404.7 1058.0,400.2"/>
<polyline fill="none" stroke="#2ca02c" stroke-width="3" points="90.0,90.8 93.0,90.8 95.9,90.9 98.9,91.1 101.8,91.3 104.8,91.5 107.8,91.8 110.7,92.2 113.7,92.6 116.6,93.1 119.6,93.6 122.6,94.2 125.5,94.9 128.5,95.6 131.4,96.4 134.4,97.2 137.4,98.1 140.3,99.1 143.3,100.1 146.2,101.2 149.2,102.4 152.2,103.6 155.1,104.9 158.1,106.2 161.0,107.7 164.0,109.2 167.0,110.7 169.9,112.4 172.9,114.1 175.8,115.9 178.8,117.8 181.8,119.7 184.7,121.8 187.7,123.9 190.6,126.1 193.6,128.5 196.6,130.9 199.5,133.4 202.5,136.0 205.4,138.8 208.4,141.6 211.4,144.6 214.3,147.7 217.3,151.0 220.2,154.4 223.2,157.9 226.2,161.6 229.1,165.5 232.1,169.6 235.1,173.9 238.0,178.4 241.0,183.1 243.9,188.2 246.9,193.6 249.9,199.3 252.8,205.4 255.8,212.1 258.7,219.3 261.7,227.3 264.7,236.3 267.6,246.5 270.6,258.7 273.5,273.9 276.5,295.2 279.5,335.2 282.4,350.3 285.4,310.5 288.3,295.5 291.3,287.4 294.3,282.8 297.2,280.4 300.2,279.5 303.1,279.8 306.1,281.2 309.1,283.4 312.0,286.6 315.0,290.7 317.9,295.8 320.9,301.9 323.9,309.5 326.8,318.8 329.8,330.6 332.7,346.5 335.7,371.1 338.7,436.7 341.6,394.7 344.6,369.8 347.5,359.4 350.5,355.2 353.5,355.3 356.4,359.7 359.4,370.0 362.3,393.6 365.3,454.5 368.3,376.4 371.2,351.2 374.2,335.2 377.1,323.4 380.1,314.1 383.1,306.5 386.0,300.2 389.0,294.9 391.9,290.3 394.9,286.4 397.9,283.1 400.8,280.3 403.8,278.0 406.7,276.1 409.7,274.6 412.7,273.5 415.6,272.8 418.6,272.5 421.5,272.5 424.5,272.9 427.5,273.7 430.4,274.9 433.4,276.6 436.3,278.8 439.3,281.5 442.3,284.9 445.2,289.2 448.2,294.4 451.1,301.1 454.1,309.9 457.1,322.1 460.0,341.4 463.0,388.1 465.9,369.7 468.9,335.2 471.9,318.0 474.8,306.6 477.8,298.2 480.7,291.7 483.7,286.4 486.7,282.1 489.6,278.6 492.6,275.7 495.5,273.4 498.5,271.5 501.5,270.1 504.4,269.1 507.4,268.4 510.3,268.1 513.3,268.2 516.3,268.6 519.2,269.4 522.2,270.5 525.2,272.1 528.1,274.1 531.1,276.5 534.0,279.6 537.0,283.3 540.0,287.8 542.9,293.3 545.9,300.2 548.8,309.2 551.8,321.7 554.8,341.4 557.7,389.0 560.7,369.1 563.6,335.2 566.6,318.2 569.6,307.1 572.5,298.9 575.5,292.5 578.4,287.4 581.4,283.3 584.4,279.9 587.3,277.2 590.3,275.0 593.2,273.2 596.2,271.9 599.2,271.0 602.1,270.5 605.1,270.3 608.0,270.5 611.0,271.0 614.0,271.9 616.9,273.1 619.9,274.8 622.8,276.9 625.8,279.5 628.8,282.7 631.7,286.6 634.7,291.2 637.6,297.0 640.6,304.2 643.6,313.7 646.5,326.9 649.5,348.5 652.4,410.7 655.4,364.7 658.4,335.2 661.3,319.4 664.3,308.8 667.2,301.0 670.2,294.9 673.2,290.0 676.1,286.0 679.1,282.8 682.0,280.1 685.0,278.0 688.0,276.4 690.9,275.2 693.9,274.3 696.8,273.9 699.8,273.8 702.8,274.0 705.7,274.6 708.7,275.6 711.6,276.9 714.6,278.7 717.6,280.9 720.5,283.6 723.5,286.9 726.4,290.9 729.4,295.8 732.4,301.8 735.3,309.4 738.3,319.4 741.2,333.7 744.2,358.2 747.2,489.2 750.1,360.4 753.1,335.2 756.0,320.7 759.0,310.8 762.0,303.3 764.9,297.5 767.9,292.8 770.8,289.0 773.8,285.9 776.8,283.3 779.7,281.3 782.7,279.8 785.6,278.6 788.6,277.9 791.6,277.5 794.5,277.4 797.5,277.8 800.4,278.4 803.4,279.5 806.4,280.9 809.3,282.8 812.3,285.1 815.3,287.9 818.2,291.3 821.2,295.5 824.1,300.6 827.1,306.9 830.1,314.9 833.0,325.6 836.0,341.3 838.9,370.1 841.9,424.3 844.9,357.0 847.8,335.2 850.8,322.0 853.7,312.6 856.7,305.6 859.7,300.0 862.6,295.5 865.6,291.8 868.5,288.8 871.5,286.4 874.5,284.5 877.4,283.0 880.4,282.0 883.3,281.3 886.3,281.0 889.3,281.0 892.2,281.4 895.2,282.1 898.1,283.3 901.1,284.8 904.1,286.7 907.0,289.1 910.0,292.1 912.9,295.7 915.9,300.0 918.9,305.3 921.8,311.9 924.8,320.4 927.7,331.9 930.7,349.4 933.7,384.9 936.6,399.1 939.6,354.3 942.5,335.2 945.5,323.0 948.5,314.3 951.4,307.6 954.4,302.3 957.3,298.0 960.3,294.5 963.3,291.6 966.2,289.3 969.2,287.5 972.1,286.1 975.1,285.1 978.1,284.5 981.0,284.3 984.0,284.4 986.9,284.8 989.9,285.7 992.9,286.9 995.8,288.5 998.8,290.5 1001.7,293.0 1004.7,296.1 1007.7,299.8 1010.6,304.4 1013.6,309.9 1016.5,316.9 1019.5,325.9 1022.5,338.4 1025.4,358.1 1028.4,405.5 1031.3,386.1 1034.3,352.1 1037.3,335.2 1040.2,324.0 1043.2,315.8 1046.1,309.4 1049.1,304.4 1052.1,300.3 1055.0,296.9 1058.0,294.2"/>
<polyline fill="none" stroke="#d62728" stroke-width="3" points="90.0,90.8 93.0,90.8 95.9,90.9 98.9,91.0 101.8,91.1 104.8,91.2 107.8,91.4 110.7,91.7 113.7,91.9 116.6,92.2 119.6,92.6 122.6,93.0 125.5,93.4 128.5,93.8 131.4,94.3 134.4,94.8 137.4,95.4 140.3,96.0 143.3,96.6 146.2,97.3 149.2,98.0 152.2,98.7 155.1,99.5 158.1,100.3 161.0,101.2 164.0,102.1 167.0,103.0 169.9,104.0 172.9,105.0 175.8,106.1 178.8,107.2 181.8,108.4 184.7,109.5 187.7,110.8 190.6,112.1 193.6,113.4 196.6,114.7 199.5,116.2 202.5,117.6 205.4,119.1 208.4,120.7 211.4,122.3 214.3,123.9 217.3,125.6 220.2,127.4 223.2,129.2 226.2,131.1 229.1,133.0 232.1,135.0 235.1,137.0 238.0,139.1 241.0,141.3 243.9,143.5 246.9,145.8 249.9,148.1 252.8,150.5 255.8,153.0 258.7,155.6 261.7,158.2 264.7,160.9 267.6,163.7 270.6,166.6 273.5,169.6 276.5,172.6 279.5,175.8 282.4,179.0 285.4,182.4 288.3,185.8 291.3,189.4 294.3,193.1 297.2,196.9 300.2,200.9 303.1,205.0 306.1,209.2 309.1,213.7 312.0,218.3 315.0,223.0 317.9,228.0 320.9,233.2 323.9,238.7 326.8,244.4 329.8,250.4 332.7,256.8 335.7,263.5 338.7,270.7 341.6,278.3 344.6,286.5 347.5,295.4 350.5,305.1 353.5,315.8 356.4,327.7 359.4,341.4 362.3,357.3 365.3,376.8 368.3,402.2 371.2,440.7 374.2,590.0 377.1,492.1 380.1,511.5 383.1,439.9 386.0,410.7 389.0,392.0 391.9,378.5 394.9,368.2 397.9,360.0 400.8,353.4 403.8,348.1 406.7,343.8 409.7,340.4 412.7,337.7 415.6,335.6 418.6,334.1 421.5,333.1 424.5,332.6 427.5,332.6 430.4,333.1 433.4,334.0 436.3,335.5 439.3,337.5 442.3,340.0 445.2,343.2 448.2,347.1 451.1,352.0 454.1,358.1 457.1,365.7 460.0,375.9 463.0,390.5 465.9,415.6 468.9,590.0 471.9,416.2 474.8,391.6 477.8,377.6 480.7,368.0 483.7,360.8 486.7,355.2 489.6,350.8 492.6,347.3 495.5,344.5 498.5,342.3 501.5,340.6 504.4,339.4 507.4,338.6 510.3,338.1 513.3,338.1 516.3,338.4 519.2,339.0 522.2,340.0 525.2,341.4 528.1,343.2 531.1,345.3 534.0,348.0 537.0,351.1 540.0,354.8 542.9,359.2 545.9,364.5 548.8,371.0 551.8,379.0 554.8,389.5 557.7,404.4 560.7,429.8 563.6,590.0 566.6,430.8 569.6,406.4 572.5,392.6 575.5,383.1 578.4,376.1 581.4,370.7 584.4,366.4 587.3,363.0 590.3,360.3 593.2,358.2 596.2,356.5 599.2,355.4 602.1,354.6 605.1,354.2 608.0,354.2 611.0,354.6 614.0,355.2 616.9,356.3 619.9,357.7 622.8,359.5 625.8,361.6 628.8,364.3 631.7,367.4 634.7,371.1 637.6,375.6 640.6,380.8 643.6,387.3 646.5,395.3 649.5,405.8 652.4,420.6 655.4,446.0 658.4,590.0 661.3,447.0 664.3,422.6 667.2,408.7 670.2,399.2 673.2,392.2 676.1,386.7 679.1,382.4 682.0,379.0 685.0,376.2 688.0,374.1 690.9,372.4 693.9,371.2 696.8,370.4 699.8,370.0 702.8,370.0 705.7,370.2 708.7,370.9 711.6,371.9 714.6,373.2 717.6,375.0 720.5,377.1 723.5,379.7 726.4,382.8 729.4,386.5 732.4,390.8 735.3,396.1 738.3,402.5 741.2,410.5 744.2,420.9 747.2,435.7 750.1,461.0 753.1,590.0 756.0,461.9 759.0,437.5 762.0,423.5 764.9,414.0 767.9,406.9 770.8,401.4 773.8,397.0 776.8,393.6 779.7,390.8 782.7,388.6 785.6,386.9 788.6,385.6 791.6,384.8 794.5,384.3 797.5,384.2 800.4,384.4 803.4,385.0 806.4,386.0 809.3,387.3 812.3,389.0 815.3,391.1 818.2,393.6 821.2,396.7 824.1,400.3 827.1,404.6 830.1,409.8 833.0,416.2 836.0,424.1 838.9,434.5 841.9,449.2 844.9,474.5 847.8,590.0 850.8,475.3 853.7,450.8 856.7,436.9 859.7,427.3 862.6,420.1 865.6,414.6 868.5,410.2 871.5,406.7 874.5,403.8 877.4,401.6 880.4,399.8 883.3,398.5 886.3,397.7 889.3,397.1 892.2,397.0 895.2,397.2 898.1,397.8 901.1,398.7 904.1,399.9 907.0,401.6 910.0,403.6 912.9,406.1 915.9,409.1 918.9,412.7 921.8,417.0 924.8,422.2 927.7,428.5 930.7,436.4 933.7,446.7 936.6,461.4 939.6,486.7 942.5,590.0 945.5,487.4 948.5,462.9 951.4,448.9 954.4,439.2 957.3,432.1 960.3,426.5 963.3,422.0 966.2,418.5 969.2,415.6 972.1,413.3 975.1,411.5 978.1,410.2 981.0,409.3 984.0,408.7 986.9,408.6 989.9,408.7 992.9,409.2 995.8,410.1 998.8,411.3 1001.7,413.0 1004.7,415.0 1007.7,417.4 1010.6,420.4 1013.6,424.0 1016.5,428.2 1019.5,433.3 1022.5,439.6 1025.4,447.5 1028.4,457.8 1031.3,472.5 1034.3,497.7 1037.3,590.0 1040.2,498.3 1043.2,473.8 1046.1,459.8 1049.1,450.1 1052.1,442.9 1055.0,437.3 1058.0,432.8"/>
<line x1="880.0" y1="82.0" x2="904.0" y2="82.0" stroke="#1f77b4" stroke-width="4"/>
<text x="912.0" y="87.0" fill="#111827" font-size="15" font-family="Inter, Arial, sans-serif" text-anchor="start" font-weight="normal">rectangular</text>
<line x1="880.0" y1="108.0" x2="904.0" y2="108.0" stroke="#ff7f0e" stroke-width="4"/>
<text x="912.0" y="113.0" fill="#111827" font-size="15" font-family="Inter, Arial, sans-serif" text-anchor="start" font-weight="normal">hann</text>
<line x1="880.0" y1="134.0" x2="904.0" y2="134.0" stroke="#2ca02c" stroke-width="4"/>
<text x="912.0" y="139.0" fill="#111827" font-size="15" font-family="Inter, Arial, sans-serif" text-anchor="start" font-weight="normal">hamming</text>
<line x1="880.0" y1="160.0" x2="904.0" y2="160.0" stroke="#d62728" stroke-width="4"/>
<text x="912.0" y="165.0" fill="#111827" font-size="15" font-family="Inter, Arial, sans-serif" text-anchor="start" font-weight="normal">blackman</text>
<text x="575.0" y="652.0" fill="#374151" font-size="16" font-family="Inter, Arial, sans-serif" text-anchor="middle" font-weight="normal">normalized frequency / 0.08 cycles per sample</text>
<text x="28.0" y="330.0" fill="#374151" font-size="16" font-family="Inter, Arial, sans-serif" text-anchor="middle" font-weight="normal">magnitude (dB)</text>
</svg>