<svg xmlns="http://www.w3.org/2000/svg" width="1280" height="780" viewBox="0 0 1280 780">
<defs>
<clipPath id="chart-plot-clip"><rect x="116.0" y="137.0" width="1120.0" height="533.0" rx="12"/></clipPath>
</defs>
<rect width="1280" height="780" fill="#fcfcfd"/>
<text x="640.0" y="42.0" fill="#222" font-size="28" font-family="Inter, Arial, sans-serif" text-anchor="middle" font-weight="700"><tspan x="640.0" dy="0.0" text-anchor="middle">Half-bin tone leakage near the peak</tspan></text>
<line x1="243.6" y1="87.0" x2="267.6" y2="87.0" stroke="#1f77b4" stroke-width="4"/>
<text x="275.6" y="92.0" fill="#111827" font-size="15" font-family="Inter, Arial, sans-serif" text-anchor="start" font-weight="normal">rectangular</text>
<line x1="403.2" y1="87.0" x2="427.2" y2="87.0" stroke="#ff7f0e" stroke-width="4"/>
<text x="435.2" y="92.0" fill="#111827" font-size="15" font-family="Inter, Arial, sans-serif" text-anchor="start" font-weight="normal">hann</text>
<line x1="502.1" y1="87.0" x2="526.0" y2="87.0" stroke="#2ca02c" stroke-width="4"/>
<text x="534.0" y="92.0" fill="#111827" font-size="15" font-family="Inter, Arial, sans-serif" text-anchor="start" font-weight="normal">hamming</text>
<line x1="627.0" y1="87.0" x2="651.0" y2="87.0" stroke="#d62728" stroke-width="4"/>
<text x="659.0" y="92.0" fill="#111827" font-size="15" font-family="Inter, Arial, sans-serif" text-anchor="start" font-weight="normal">blackman</text>
<line x1="760.6" y1="87.0" x2="784.6" y2="87.0" stroke="#9467bd" stroke-width="4"/>
<text x="792.6" y="92.0" fill="#111827" font-size="15" font-family="Inter, Arial, sans-serif" text-anchor="start" font-weight="normal">kaiser-8.6</text>
<line x1="911.6" y1="87.0" x2="935.6" y2="87.0" stroke="#8b5cf6" stroke-width="4"/>
<text x="943.6" y="92.0" fill="#111827" font-size="15" font-family="Inter, Arial, sans-serif" text-anchor="start" font-weight="normal">flattop</text>
<rect x="116.0" y="137.0" width="1120.0" height="533.0" fill="#ffffff" stroke="#e5e7eb" rx="14"/>
<line x1="116.0" y1="137.0" x2="116.0" y2="670.0" stroke="#333" stroke-width="2"/>
<line x1="116.0" y1="670.0" x2="1236.0" y2="670.0" stroke="#333" stroke-width="2"/>
<line x1="116.0" y1="670.0" x2="1236.0" y2="670.0" stroke="#d9dde3" stroke-width="1" stroke-dasharray="4 6"/>
<text x="104.0" y="675.0" fill="#4b5563" font-size="13" font-family="Inter, Arial, sans-serif" text-anchor="end" font-weight="normal">-80.00</text>
<line x1="116.0" y1="563.4" x2="1236.0" y2="563.4" stroke="#d9dde3" stroke-width="1" stroke-dasharray="4 6"/>
<text x="104.0" y="568.4" fill="#4b5563" font-size="13" font-family="Inter, Arial, sans-serif" text-anchor="end" font-weight="normal">-63.60</text>
<line x1="116.0" y1="456.8" x2="1236.0" y2="456.8" stroke="#d9dde3" stroke-width="1" stroke-dasharray="4 6"/>
<text x="104.0" y="461.8" fill="#4b5563" font-size="13" font-family="Inter, Arial, sans-serif" text-anchor="end" font-weight="normal">-47.20</text>
<line x1="116.0" y1="350.2" x2="1236.0" y2="350.2" stroke="#d9dde3" stroke-width="1" stroke-dasharray="4 6"/>
<text x="104.0" y="355.2" fill="#4b5563" font-size="13" font-family="Inter, Arial, sans-serif" text-anchor="end" font-weight="normal">-30.80</text>
<line x1="116.0" y1="243.6" x2="1236.0" y2="243.6" stroke="#d9dde3" stroke-width="1" stroke-dasharray="4 6"/>
<text x="104.0" y="248.6" fill="#4b5563" font-size="13" font-family="Inter, Arial, sans-serif" text-anchor="end" font-weight="normal">-14.40</text>
<line x1="116.0" y1="137.0" x2="1236.0" y2="137.0" stroke="#d9dde3" stroke-width="1" stroke-dasharray="4 6"/>
<text x="104.0" y="142.0" fill="#4b5563" font-size="13" font-family="Inter, Arial, sans-serif" text-anchor="end" font-weight="normal">2.00</text>
<line x1="116.0" y1="137.0" x2="116.0" y2="670.0" stroke="#eef1f5" stroke-width="1" stroke-dasharray="4 6"/>
<text x="116.0" y="700.0" fill="#4b5563" font-size="13" font-family="Inter, Arial, sans-serif" text-anchor="middle" font-weight="normal">-4.00</text>
<line x1="340.0" y1="137.0" x2="340.0" y2="670.0" stroke="#eef1f5" stroke-width="1" stroke-dasharray="4 6"/>
<text x="340.0" y="700.0" fill="#4b5563" font-size="13" font-family="Inter, Arial, sans-serif" text-anchor="middle" font-weight="normal">-2.40</text>
<line x1="564.0" y1="137.0" x2="564.0" y2="670.0" stroke="#eef1f5" stroke-width="1" stroke-dasharray="4 6"/>
<text x="564.0" y="700.0" fill="#4b5563" font-size="13" font-family="Inter, Arial, sans-serif" text-anchor="middle" font-weight="normal">-0.80</text>
<line x1="788.0" y1="137.0" x2="788.0" y2="670.0" stroke="#eef1f5" stroke-width="1" stroke-dasharray="4 6"/>
<text x="788.0" y="700.0" fill="#4b5563" font-size="13" font-family="Inter, Arial, sans-serif" text-anchor="middle" font-weight="normal">0.80</text>
<line x1="1012.0" y1="137.0" x2="1012.0" y2="670.0" stroke="#eef1f5" stroke-width="1" stroke-dasharray="4 6"/>
<text x="1012.0" y="700.0" fill="#4b5563" font-size="13" font-family="Inter, Arial, sans-serif" text-anchor="middle" font-weight="normal">2.40</text>
<line x1="1236.0" y1="137.0" x2="1236.0" y2="670.0" stroke="#eef1f5" stroke-width="1" stroke-dasharray="4 6"/>
<text x="1236.0" y="700.0" fill="#4b5563" font-size="13" font-family="Inter, Arial, sans-serif" text-anchor="middle" font-weight="normal">4.00</text>
<g clip-path="url(#chart-plot-clip)">
<polyline fill="none" stroke="#1f77b4" stroke-width="3" stroke-linejoin="round" stroke-linecap="round" points="116.4,552.9 120.9,417.6 125.3,381.0 129.7,359.0 134.1,343.4 138.5,331.5 142.9,322.0 147.3,314.2 151.7,307.8 156.1,302.4 160.5,297.9 164.9,294.2 169.4,291.2 173.8,288.8 178.2,287.1 182.6,285.8 187.0,285.2 191.4,285.1 195.8,285.5 200.2,286.6 204.6,288.2 209.0,290.5 213.4,293.5 217.9,297.4 222.3,302.2 226.7,308.2 231.1,315.6 235.5,325.1 239.9,337.4 244.3,354.4 248.7,380.1 253.1,431.8 257.5,466.5 261.9,389.7 266.4,358.1 270.8,338.0 275.2,323.3 279.6,311.9 284.0,302.7 288.4,295.1 292.8,288.8 297.2,283.5 301.6,279.0 306.0,275.3 310.4,272.3 314.9,269.9 319.3,268.0 323.7,266.8 328.1,266.1 332.5,265.9 336.9,266.2 341.3,267.2 345.7,268.8 350.1,271.0 354.5,274.0 358.9,277.8 363.4,282.7 367.8,288.8 372.2,296.4 376.6,306.2 381.0,319.2 385.4,337.5 389.8,366.6 394.2,436.0 398.6,413.0 403.0,356.7 407.5,328.7 411.9,310.0 416.3,295.9 420.7,284.8 425.1,275.7 429.5,268.1 433.9,261.6 438.3,256.2 442.7,251.5 447.1,247.6 451.5,244.3 456.0,241.6 460.4,239.5 464.8,237.9 469.2,236.8 473.6,236.3 478.0,236.3 482.4,236.8 486.8,238.0 491.2,239.9 495.6,242.5 500.0,245.9 504.5,250.4 508.9,256.2 513.3,263.6 517.7,273.3 522.1,286.6 526.5,306.0 530.9,339.2 535.3,450.7 539.7,353.3 544.1,307.6 548.5,281.6 553.0,263.3 557.4,249.0 561.8,237.2 566.2,227.3 570.6,218.7 575.0,211.1 579.4,204.4 583.8,198.3 588.2,192.9 592.6,187.9 597.0,183.4 601.5,179.3 605.9,175.6 610.3,172.2 614.7,169.1 619.1,166.3 623.5,163.7 627.9,161.4 632.3,159.3 636.7,157.5 641.1,155.9 645.5,154.5 650.0,153.3 654.4,152.2 658.8,151.4 663.2,150.8 667.6,150.3 672.0,150.1 676.4,150.0 680.8,150.1 685.2,150.4 689.6,150.9 694.0,151.6 698.5,152.4 702.9,153.5 707.3,154.7 711.7,156.2 716.1,157.8 720.5,159.7 724.9,161.8 729.3,164.2 733.7,166.8 738.1,169.7 742.5,172.8 747.0,176.3 751.4,180.1 755.8,184.2 760.2,188.8 764.6,193.9 769.0,199.4 773.4,205.6 777.8,212.5 782.2,220.2 786.6,229.0 791.0,239.3 795.5,251.4 799.9,266.3 804.3,285.7 808.7,313.9 813.1,367.6 817.5,406.6 821.9,331.2 826.3,301.7 830.7,283.8 835.1,271.3 839.5,262.1 844.0,255.0 848.4,249.5 852.8,245.2 857.2,241.9 861.6,239.5 866.0,237.7 870.4,236.7 874.8,236.2 879.2,236.3 883.6,236.9 888.1,238.1 892.5,239.8 896.9,242.1 901.3,244.9 905.7,248.3 910.1,252.3 914.5,257.1 918.9,262.8 923.3,269.4 927.7,277.3 932.1,286.7 936.6,298.3 941.0,313.0 945.4,333.0 949.8,363.8 954.2,434.2 958.6,414.8 963.0,359.8 967.4,333.5 971.8,316.5 976.2,304.2 980.6,294.9 985.1,287.5 989.5,281.7 993.9,277.1 998.3,273.4 1002.7,270.5 1007.1,268.4 1011.5,267.0 1015.9,266.1 1020.3,265.9 1024.7,266.1 1029.1,267.0 1033.6,268.3 1038.0,270.3 1042.4,272.8 1046.8,276.0 1051.2,279.8 1055.6,284.4 1060.0,289.9 1064.4,296.4 1068.8,304.3 1073.2,313.9 1077.6,325.8 1082.1,341.2 1086.5,362.8 1090.9,398.1 1095.3,509.6 1099.7,417.8 1104.1,374.3 1108.5,350.7 1112.9,334.9 1117.3,323.2 1121.7,314.1 1126.1,307.0 1130.6,301.2 1135.0,296.6 1139.4,292.9 1143.8,290.0 1148.2,287.8 1152.6,286.3 1157.0,285.4 1161.4,285.1 1165.8,285.3 1170.2,286.0 1174.6,287.3 1179.1,289.2 1183.5,291.7 1187.9,294.8 1192.3,298.7 1196.7,303.3 1201.1,308.9 1205.5,315.6 1209.9,323.6 1214.3,333.5 1218.7,346.0 1223.1,362.5 1227.6,386.2 1232.0,428.1"/>
<polyline fill="none" stroke="#ff7f0e" stroke-width="3" stroke-linejoin="round" stroke-linecap="round" points="116.4,570.4 120.9,532.6 125.3,509.6 129.7,493.0 134.1,480.1 138.5,469.6 142.9,460.7 147.3,453.3 151.7,446.8 156.1,441.3 160.5,436.5 164.9,432.4 169.4,428.9 173.8,426.0 178.2,423.7 182.6,421.9 187.0,420.6 191.4,419.8 195.8,419.6 200.2,420.0 204.6,421.0 209.0,422.7 213.4,425.2 217.9,428.6 222.3,433.1 226.7,438.9 231.1,446.6 235.5,456.8 239.9,471.1 244.3,492.6 248.7,532.4 253.1,659.0 257.5,518.1 261.9,479.7 266.4,456.2 270.8,439.0 275.2,425.5 279.6,414.4 284.0,404.9 288.4,396.8 292.8,389.7 297.2,383.5 301.6,378.1 306.0,373.3 310.4,369.1 314.9,365.5 319.3,362.4 323.7,359.8 328.1,357.7 332.5,356.1 336.9,355.1 341.3,354.6 345.7,354.7 350.1,355.5 354.5,357.0 358.9,359.4 363.4,362.9 367.8,367.7 372.2,374.3 376.6,383.4 381.0,396.5 385.4,416.8 389.8,455.3 394.2,580.6 398.6,438.3 403.0,398.6 407.5,373.6 411.9,354.9 416.3,339.7 420.7,326.9 425.1,315.7 429.5,305.8 433.9,296.8 438.3,288.5 442.7,280.9 447.1,273.8 451.5,267.2 456.0,261.0 460.4,255.1 464.8,249.6 469.2,244.4 473.6,239.4 478.0,234.6 482.4,230.1 486.8,225.8 491.2,221.7 495.6,217.7 500.0,214.0 504.5,210.3 508.9,206.9 513.3,203.6 517.7,200.4 522.1,197.3 526.5,194.4 530.9,191.6 535.3,188.9 539.7,186.3 544.1,183.8 548.5,181.5 553.0,179.2 557.4,177.0 561.8,175.0 566.2,173.0 570.6,171.1 575.0,169.3 579.4,167.6 583.8,166.0 588.2,164.5 592.6,163.0 597.0,161.6 601.5,160.4 605.9,159.1 610.3,158.0 614.7,157.0 619.1,156.0 623.5,155.1 627.9,154.3 632.3,153.5 636.7,152.8 641.1,152.2 645.5,151.7 650.0,151.2 654.4,150.9 658.8,150.5 663.2,150.3 667.6,150.1 672.0,150.0 676.4,150.0 680.8,150.0 685.2,150.2 689.6,150.3 694.0,150.6 698.5,150.9 702.9,151.3 707.3,151.8 711.7,152.3 716.1,153.0 720.5,153.6 724.9,154.4 729.3,155.2 733.7,156.2 738.1,157.2 742.5,158.2 747.0,159.4 751.4,160.6 755.8,161.9 760.2,163.3 764.6,164.7 769.0,166.3 773.4,167.9 777.8,169.6 782.2,171.5 786.6,173.4 791.0,175.3 795.5,177.4 799.9,179.6 804.3,181.9 808.7,184.3 813.1,186.8 817.5,189.4 821.9,192.1 826.3,194.9 830.7,197.9 835.1,201.0 839.5,204.2 844.0,207.5 848.4,211.0 852.8,214.7 857.2,218.5 861.6,222.4 866.0,226.6 870.4,231.0 874.8,235.5 879.2,240.3 883.6,245.3 888.1,250.6 892.5,256.2 896.9,262.1 901.3,268.4 905.7,275.1 910.1,282.3 914.5,290.0 918.9,298.4 923.3,307.6 927.7,317.7 932.1,329.2 936.6,342.4 941.0,358.0 945.4,377.6 949.8,404.4 954.2,449.5 958.6,581.2 963.0,445.4 967.4,412.1 971.8,393.6 976.2,381.4 980.6,372.9 985.1,366.7 989.5,362.1 993.9,358.9 998.3,356.6 1002.7,355.3 1007.1,354.6 1011.5,354.6 1015.9,355.2 1020.3,356.4 1024.7,358.0 1029.1,360.2 1033.6,362.9 1038.0,366.1 1042.4,369.8 1046.8,374.1 1051.2,379.0 1055.6,384.6 1060.0,391.0 1064.4,398.2 1068.8,406.6 1073.2,416.3 1077.6,427.8 1082.1,441.9 1086.5,460.0 1090.9,485.3 1095.3,528.9 1099.7,659.4 1104.1,522.3 1108.5,487.7 1112.9,468.0 1117.3,454.7 1121.7,445.0 1126.1,437.7 1130.6,432.1 1135.0,427.9 1139.4,424.7 1143.8,422.3 1148.2,420.8 1152.6,419.9 1157.0,419.6 1161.4,419.9 1165.8,420.8 1170.2,422.2 1174.6,424.1 1179.1,426.5 1183.5,429.5 1187.9,433.1 1192.3,437.3 1196.7,442.3 1201.1,447.9 1205.5,454.6 1209.9,462.3 1214.3,471.4 1218.7,482.3 1223.1,495.8 1227.6,513.3 1232.0,538.1"/>
<polyline fill="none" stroke="#2ca02c" stroke-width="3" stroke-linejoin="round" stroke-linecap="round" points="116.4,594.9 120.9,602.0 125.3,538.0 129.7,509.2 134.1,490.8 138.5,477.5 142.9,467.3 147.3,459.3 151.7,452.8 156.1,447.6 160.5,443.4 164.9,440.0 169.4,437.5 173.8,435.7 178.2,434.5 182.6,433.9 187.0,433.9 191.4,434.5 195.8,435.7 200.2,437.4 204.6,439.8 209.0,442.8 213.4,446.5 217.9,450.9 222.3,456.2 226.7,462.3 231.1,469.6 235.5,478.1 239.9,488.1 244.3,500.2 248.7,514.9 253.1,533.8 257.5,559.7 261.9,601.5 266.4,777.8 270.8,617.9 275.2,584.2 279.6,569.2 284.0,563.1 288.4,563.5 292.8,570.7 297.2,588.2 301.6,631.4 306.0,669.9 310.4,583.4 314.9,546.9 319.3,522.8 323.7,504.8 328.1,490.5 332.5,478.9 336.9,469.4 341.3,461.7 345.7,455.4 350.1,450.6 354.5,447.2 358.9,445.2 363.4,444.9 367.8,446.5 372.2,450.6 376.6,458.1 381.0,471.4 385.4,496.5 389.8,569.0 394.2,522.8 398.6,465.6 403.0,433.6 407.5,410.4 411.9,391.7 416.3,375.9 420.7,362.1 425.1,349.7 429.5,338.5 433.9,328.2 438.3,318.6 442.7,309.7 447.1,301.4 451.5,293.6 456.0,286.1 460.4,279.1 464.8,272.5 469.2,266.1 473.6,260.1 478.0,254.3 482.4,248.8 486.8,243.5 491.2,238.5 495.6,233.6 500.0,229.0 504.5,224.6 508.9,220.3 513.3,216.2 517.7,212.3 522.1,208.5 526.5,204.9 530.9,201.4 535.3,198.1 539.7,194.9 544.1,191.9 548.5,188.9 553.0,186.1 557.4,183.5 561.8,180.9 566.2,178.5 570.6,176.1 575.0,173.9 579.4,171.8 583.8,169.8 588.2,167.9 592.6,166.1 597.0,164.4 601.5,162.8 605.9,161.3 610.3,159.9 614.7,158.6 619.1,157.4 623.5,156.3 627.9,155.3 632.3,154.3 636.7,153.5 641.1,152.8 645.5,152.1 650.0,151.5 654.4,151.1 658.8,150.7 663.2,150.4 667.6,150.2 672.0,150.0 676.4,150.0 680.8,150.1 685.2,150.2 689.6,150.4 694.0,150.7 698.5,151.1 702.9,151.6 707.3,152.2 711.7,152.9 716.1,153.7 720.5,154.5 724.9,155.5 729.3,156.5 733.7,157.6 738.1,158.8 742.5,160.2 747.0,161.6 751.4,163.1 755.8,164.7 760.2,166.4 764.6,168.2 769.0,170.2 773.4,172.2 777.8,174.3 782.2,176.5 786.6,178.9 791.0,181.4 795.5,183.9 799.9,186.6 804.3,189.5 808.7,192.4 813.1,195.5 817.5,198.7 821.9,202.1 826.3,205.6 830.7,209.2 835.1,213.0 839.5,217.0 844.0,221.1 848.4,225.4 852.8,229.9 857.2,234.5 861.6,239.4 866.0,244.5 870.4,249.8 874.8,255.4 879.2,261.2 883.6,267.3 888.1,273.7 892.5,280.4 896.9,287.5 901.3,295.0 905.7,302.9 910.1,311.4 914.5,320.4 918.9,330.0 923.3,340.5 927.7,351.9 932.1,364.5 936.6,378.7 941.0,395.0 945.4,414.3 949.8,438.7 954.2,473.3 958.6,542.3 963.0,544.9 967.4,490.3 971.8,468.3 976.2,456.4 980.6,449.6 985.1,446.0 989.5,444.8 993.9,445.5 998.3,447.7 1002.7,451.4 1007.1,456.5 1011.5,463.0 1015.9,471.1 1020.3,480.9 1024.7,492.9 1029.1,507.8 1033.6,526.7 1038.0,552.4 1042.4,593.0 1046.8,722.3 1051.2,619.2 1055.6,583.8 1060.0,568.7 1064.4,562.9 1068.8,563.7 1073.2,571.2 1077.6,588.5 1082.1,629.0 1086.5,689.6 1090.9,591.5 1095.3,554.1 1099.7,529.9 1104.1,511.9 1108.5,497.7 1112.9,486.1 1117.3,476.4 1121.7,468.1 1126.1,461.1 1130.6,455.1 1135.0,450.0 1139.4,445.8 1143.8,442.2 1148.2,439.3 1152.6,437.1 1157.0,435.4 1161.4,434.3 1165.8,433.9 1170.2,434.0 1174.6,434.6 1179.1,436.0 1183.5,437.9 1187.9,440.6 1192.3,444.1 1196.7,448.4 1201.1,453.9 1205.5,460.6 1209.9,469.0 1214.3,479.7 1218.7,493.8 1223.1,513.5 1227.6,545.5 1232.0,630.5"/>
<polyline fill="none" stroke="#d62728" stroke-width="3" stroke-linejoin="round" stroke-linecap="round" points="116.4,652.5 120.9,615.7 125.3,593.8 129.7,578.4 134.1,566.6 138.5,557.4 142.9,549.9 147.3,543.9 151.7,539.0 156.1,535.1 160.5,532.1 164.9,529.9 169.4,528.4 173.8,527.8 178.2,527.8 182.6,528.7 187.0,530.3 191.4,532.7 195.8,536.1 200.2,540.4 204.6,545.9 209.0,552.8 213.4,561.2 217.9,571.7 222.3,584.7 226.7,601.3 231.1,623.0 235.5,653.2 239.9,701.2 244.3,837.6 248.7,775.6 253.1,856.7 257.5,689.5 261.9,632.3 266.4,593.8 270.8,564.0 275.2,539.4 279.6,518.4 284.0,499.9 288.4,483.4 292.8,468.3 297.2,454.6 301.6,441.8 306.0,430.0 310.4,418.9 314.9,408.4 319.3,398.5 323.7,389.2 328.1,380.3 332.5,371.8 336.9,363.7 341.3,355.9 345.7,348.5 350.1,341.3 354.5,334.4 358.9,327.8 363.4,321.4 367.8,315.3 372.2,309.3 376.6,303.5 381.0,298.0 385.4,292.6 389.8,287.4 394.2,282.3 398.6,277.4 403.0,272.6 407.5,268.0 411.9,263.5 416.3,259.2 420.7,254.9 425.1,250.8 429.5,246.8 433.9,243.0 438.3,239.2 442.7,235.5 447.1,232.0 451.5,228.5 456.0,225.2 460.4,221.9 464.8,218.7 469.2,215.6 473.6,212.7 478.0,209.8 482.4,206.9 486.8,204.2 491.2,201.5 495.6,199.0 500.0,196.5 504.5,194.0 508.9,191.7 513.3,189.4 517.7,187.2 522.1,185.1 526.5,183.0 530.9,181.0 535.3,179.1 539.7,177.3 544.1,175.5 548.5,173.8 553.0,172.1 557.4,170.5 561.8,169.0 566.2,167.5 570.6,166.1 575.0,164.8 579.4,163.5 583.8,162.3 588.2,161.1 592.6,160.0 597.0,159.0 601.5,158.0 605.9,157.1 610.3,156.2 614.7,155.4 619.1,154.6 623.5,153.9 627.9,153.3 632.3,152.7 636.7,152.2 641.1,151.7 645.5,151.3 650.0,151.0 654.4,150.7 658.8,150.4 663.2,150.2 667.6,150.1 672.0,150.0 676.4,150.0 680.8,150.0 685.2,150.1 689.6,150.3 694.0,150.5 698.5,150.7 702.9,151.0 707.3,151.4 711.7,151.8 716.1,152.3 720.5,152.8 724.9,153.4 729.3,154.1 733.7,154.8 738.1,155.5 742.5,156.4 747.0,157.2 751.4,158.2 755.8,159.2 760.2,160.2 764.6,161.3 769.0,162.5 773.4,163.7 777.8,165.0 782.2,166.4 786.6,167.8 791.0,169.3 795.5,170.8 799.9,172.4 804.3,174.1 808.7,175.8 813.1,177.6 817.5,179.5 821.9,181.4 826.3,183.4 830.7,185.5 835.1,187.6 839.5,189.8 844.0,192.1 848.4,194.5 852.8,196.9 857.2,199.4 861.6,202.0 866.0,204.7 870.4,207.5 874.8,210.3 879.2,213.2 883.6,216.2 888.1,219.3 892.5,222.5 896.9,225.8 901.3,229.2 905.7,232.6 910.1,236.2 914.5,239.9 918.9,243.7 923.3,247.6 927.7,251.6 932.1,255.7 936.6,260.0 941.0,264.3 945.4,268.8 949.8,273.5 954.2,278.3 958.6,283.2 963.0,288.3 967.4,293.6 971.8,299.0 976.2,304.6 980.6,310.4 985.1,316.4 989.5,322.6 993.9,329.0 998.3,335.7 1002.7,342.6 1007.1,349.8 1011.5,357.3 1015.9,365.2 1020.3,373.3 1024.7,381.9 1029.1,390.9 1033.6,400.3 1038.0,410.3 1042.4,420.9 1046.8,432.1 1051.2,444.1 1055.6,457.1 1060.0,471.0 1064.4,486.3 1068.8,503.2 1073.2,522.1 1077.6,543.7 1082.1,569.0 1086.5,600.1 1090.9,641.0 1095.3,704.5 1099.7,863.3 1104.1,779.6 1108.5,786.5 1112.9,690.0 1117.3,646.6 1121.7,618.4 1126.1,597.8 1130.6,582.1 1135.0,569.6 1139.4,559.5 1143.8,551.4 1148.2,544.8 1152.6,539.5 1157.0,535.4 1161.4,532.2 1165.8,529.9 1170.2,528.4 1174.6,527.8 1179.1,527.8 1183.5,528.7 1187.9,530.2 1192.3,532.6 1196.7,535.7 1201.1,539.8 1205.5,544.9 1209.9,551.2 1214.3,558.9 1218.7,568.6 1223.1,580.9 1227.6,597.3 1232.0,621.0"/>
<polyline fill="none" stroke="#9467bd" stroke-width="3" stroke-linejoin="round" stroke-linecap="round" points="116.4,642.7 120.9,628.9 125.3,618.2 129.7,609.8 134.1,603.2 138.5,598.0 142.9,594.0 147.3,591.2 151.7,589.6 156.1,589.1 160.5,589.7 164.9,591.7 169.4,595.2 173.8,600.6 178.2,608.4 182.6,619.6 187.0,636.6 191.4,665.4 195.8,740.7 200.2,701.0 204.6,647.5 209.0,619.9 213.4,601.4 217.9,587.9 222.3,577.6 226.7,569.9 231.1,564.3 235.5,560.8 239.9,559.4 244.3,560.5 248.7,564.8 253.1,573.8 257.5,591.5 261.9,632.9 266.4,679.0 270.8,586.0 275.2,546.5 279.6,519.5 284.0,498.2 288.4,480.2 292.8,464.6 297.2,450.6 301.6,437.8 306.0,426.1 310.4,415.2 314.9,405.0 319.3,395.4 323.7,386.3 328.1,377.6 332.5,369.4 336.9,361.5 341.3,354.0 345.7,346.7 350.1,339.8 354.5,333.1 358.9,326.6 363.4,320.4 367.8,314.3 372.2,308.5 376.6,302.9 381.0,297.4 385.4,292.1 389.8,287.0 394.2,282.0 398.6,277.2 403.0,272.5 407.5,267.9 411.9,263.5 416.3,259.2 420.7,255.0 425.1,250.9 429.5,247.0 433.9,243.1 438.3,239.4 442.7,235.7 447.1,232.2 451.5,228.8 456.0,225.4 460.4,222.2 464.8,219.0 469.2,215.9 473.6,213.0 478.0,210.0 482.4,207.2 486.8,204.5 491.2,201.8 495.6,199.3 500.0,196.7 504.5,194.3 508.9,192.0 513.3,189.7 517.7,187.5 522.1,185.3 526.5,183.3 530.9,181.3 535.3,179.3 539.7,177.5 544.1,175.7 548.5,173.9 553.0,172.3 557.4,170.7 561.8,169.1 566.2,167.7 570.6,166.2 575.0,164.9 579.4,163.6 583.8,162.4 588.2,161.2 592.6,160.1 597.0,159.0 601.5,158.1 605.9,157.1 610.3,156.3 614.7,155.4 619.1,154.7 623.5,154.0 627.9,153.3 632.3,152.8 636.7,152.2 641.1,151.8 645.5,151.3 650.0,151.0 654.4,150.7 658.8,150.4 663.2,150.2 667.6,150.1 672.0,150.0 676.4,150.0 680.8,150.0 685.2,150.1 689.6,150.3 694.0,150.5 698.5,150.7 702.9,151.0 707.3,151.4 711.7,151.8 716.1,152.3 720.5,152.9 724.9,153.5 729.3,154.1 733.7,154.8 738.1,155.6 742.5,156.4 747.0,157.3 751.4,158.2 755.8,159.2 760.2,160.3 764.6,161.4 769.0,162.6 773.4,163.8 777.8,165.1 782.2,166.5 786.6,167.9 791.0,169.4 795.5,171.0 799.9,172.6 804.3,174.3 808.7,176.0 813.1,177.8 817.5,179.7 821.9,181.6 826.3,183.6 830.7,185.7 835.1,187.9 839.5,190.1 844.0,192.4 848.4,194.8 852.8,197.2 857.2,199.7 861.6,202.3 866.0,205.0 870.4,207.7 874.8,210.6 879.2,213.5 883.6,216.5 888.1,219.6 892.5,222.8 896.9,226.0 901.3,229.4 905.7,232.9 910.1,236.4 914.5,240.1 918.9,243.8 923.3,247.7 927.7,251.7 932.1,255.8 936.6,260.0 941.0,264.3 945.4,268.8 949.8,273.3 954.2,278.1 958.6,282.9 963.0,287.9 967.4,293.1 971.8,298.4 976.2,303.9 980.6,309.6 985.1,315.4 989.5,321.5 993.9,327.8 998.3,334.3 1002.7,341.0 1007.1,348.0 1011.5,355.3 1015.9,362.9 1020.3,370.9 1024.7,379.2 1029.1,387.9 1033.6,397.1 1038.0,406.8 1042.4,417.2 1046.8,428.2 1051.2,440.1 1055.6,453.1 1060.0,467.4 1064.4,483.4 1068.8,501.8 1073.2,524.0 1077.6,552.6 1082.1,596.1 1086.5,742.2 1090.9,621.3 1095.3,587.2 1099.7,571.7 1104.1,563.7 1108.5,560.1 1112.9,559.5 1117.3,561.3 1121.7,565.2 1126.1,571.2 1130.6,579.3 1135.0,590.1 1139.4,604.4 1143.8,624.2 1148.2,654.5 1152.6,720.0 1157.0,716.3 1161.4,658.5 1165.8,632.8 1170.2,617.2 1174.6,606.7 1179.1,599.4 1183.5,594.4 1187.9,591.3 1192.3,589.5 1196.7,589.1 1201.1,589.8 1205.5,591.7 1209.9,594.7 1214.3,598.8 1218.7,604.3 1223.1,611.2 1227.6,620.0 1232.0,631.1"/>
<polyline fill="none" stroke="#8b5cf6" stroke-width="3" stroke-linejoin="round" stroke-linecap="round" points="116.4,376.5 120.9,370.6 125.3,364.8 129.7,359.1 134.1,353.6 138.5,348.2 142.9,342.9 147.3,337.8 151.7,332.7 156.1,327.8 160.5,323.0 164.9,318.3 169.4,313.6 173.8,309.1 178.2,304.7 182.6,300.4 187.0,296.1 191.4,292.0 195.8,287.9 200.2,284.0 204.6,280.1 209.0,276.3 213.4,272.5 217.9,268.9 222.3,265.3 226.7,261.8 231.1,258.4 235.5,255.0 239.9,251.8 244.3,248.6 248.7,245.4 253.1,242.4 257.5,239.4 261.9,236.4 266.4,233.5 270.8,230.7 275.2,228.0 279.6,225.3 284.0,222.7 288.4,220.1 292.8,217.6 297.2,215.2 301.6,212.8 306.0,210.5 310.4,208.2 314.9,206.0 319.3,203.8 323.7,201.7 328.1,199.7 332.5,197.7 336.9,195.7 341.3,193.8 345.7,192.0 350.1,190.2 354.5,188.4 358.9,186.7 363.4,185.1 367.8,183.5 372.2,181.9 376.6,180.4 381.0,178.9 385.4,177.5 389.8,176.2 394.2,174.8 398.6,173.5 403.0,172.3 407.5,171.1 411.9,169.9 416.3,168.8 420.7,167.7 425.1,166.7 429.5,165.7 433.9,164.8 438.3,163.8 442.7,163.0 447.1,162.1 451.5,161.3 456.0,160.5 460.4,159.8 464.8,159.1 469.2,158.4 473.6,157.8 478.0,157.2 482.4,156.6 486.8,156.1 491.2,155.6 495.6,155.1 500.0,154.6 504.5,154.2 508.9,153.8 513.3,153.4 517.7,153.1 522.1,152.8 526.5,152.5 530.9,152.2 535.3,151.9 539.7,151.7 544.1,151.5 548.5,151.3 553.0,151.1 557.4,151.0 561.8,150.8 566.2,150.7 570.6,150.6 575.0,150.5 579.4,150.4 583.8,150.3 588.2,150.2 592.6,150.2 597.0,150.1 601.5,150.1 605.9,150.1 610.3,150.1 614.7,150.0 619.1,150.0 623.5,150.0 627.9,150.0 632.3,150.0 636.7,150.0 641.1,150.0 645.5,150.0 650.0,150.0 654.4,150.0 658.8,150.0 663.2,150.0 667.6,150.0 672.0,150.0 676.4,150.0 680.8,150.0 685.2,150.0 689.6,150.0 694.0,150.0 698.5,150.0 702.9,150.0 707.3,150.0 711.7,150.0 716.1,150.0 720.5,150.0 724.9,150.0 729.3,150.0 733.7,150.0 738.1,150.0 742.5,150.1 747.0,150.1 751.4,150.1 755.8,150.2 760.2,150.2 764.6,150.3 769.0,150.3 773.4,150.4 777.8,150.5 782.2,150.6 786.6,150.7 791.0,150.8 795.5,151.0 799.9,151.1 804.3,151.3 808.7,151.5 813.1,151.7 817.5,152.0 821.9,152.2 826.3,152.5 830.7,152.8 835.1,153.1 839.5,153.5 844.0,153.9 848.4,154.3 852.8,154.7 857.2,155.2 861.6,155.6 866.0,156.2 870.4,156.7 874.8,157.3 879.2,157.9 883.6,158.5 888.1,159.2 892.5,159.9 896.9,160.7 901.3,161.4 905.7,162.3 910.1,163.1 914.5,164.0 918.9,164.9 923.3,165.9 927.7,166.9 932.1,167.9 936.6,169.0 941.0,170.1 945.4,171.3 949.8,172.5 954.2,173.8 958.6,175.1 963.0,176.4 967.4,177.8 971.8,179.2 976.2,180.7 980.6,182.2 985.1,183.8 989.5,185.4 993.9,187.0 998.3,188.7 1002.7,190.5 1007.1,192.3 1011.5,194.2 1015.9,196.1 1020.3,198.0 1024.7,200.0 1029.1,202.1 1033.6,204.2 1038.0,206.4 1042.4,208.6 1046.8,210.9 1051.2,213.2 1055.6,215.6 1060.0,218.1 1064.4,220.6 1068.8,223.2 1073.2,225.8 1077.6,228.5 1082.1,231.3 1086.5,234.1 1090.9,237.0 1095.3,239.9 1099.7,242.9 1104.1,246.0 1108.5,249.2 1112.9,252.4 1117.3,255.7 1121.7,259.0 1126.1,262.5 1130.6,266.0 1135.0,269.6 1139.4,273.2 1143.8,277.0 1148.2,280.8 1152.6,284.7 1157.0,288.7 1161.4,292.8 1165.8,296.9 1170.2,301.2 1174.6,305.5 1179.1,310.0 1183.5,314.5 1187.9,319.1 1192.3,323.9 1196.7,328.7 1201.1,333.7 1205.5,338.7 1209.9,343.9 1214.3,349.2 1218.7,354.6 1223.1,360.2 1227.6,365.8 1232.0,371.7"/>
</g>
<text x="676.0" y="746.0" fill="#374151" font-size="16" font-family="Inter, Arial, sans-serif" text-anchor="middle" font-weight="normal">bins relative to the true tone</text>
<text x="36.0" y="403.5" fill="#374151" font-size="16" font-family="Inter, Arial, sans-serif" text-anchor="middle" transform="rotate(-90 36 403.5)">normalized magnitude (dB)</text>
</svg>