<svg xmlns="http://www.w3.org/2000/svg" width="1400" height="1180" viewBox="0 0 1400 1180">
<defs>
<clipPath id="stacked-panel-0"><rect x="116.0" y="213.0" width="1224.0" height="215.0" rx="10"/></clipPath>
<clipPath id="stacked-panel-1"><rect x="116.0" y="522.0" width="1224.0" height="215.0" rx="10"/></clipPath>
<clipPath id="stacked-panel-2"><rect x="116.0" y="831.0" width="1224.0" height="215.0" rx="10"/></clipPath>
</defs>
<rect width="1400" height="1180" fill="#fcfcfd"/>
<text x="700.0" y="40.0" fill="#222" font-size="28" font-family="Inter, Arial, sans-serif" text-anchor="middle" font-weight="700"><tspan x="700.0" dy="0.0" text-anchor="middle">Overlap-add flatness is a second window bill, not a footnote</tspan></text>
<text x="700.0" y="75.0" fill="#4b5563" font-size="16" font-family="Inter, Arial, sans-serif" text-anchor="middle" font-weight="normal"><tspan x="700.0" dy="0.0" text-anchor="middle">The same window can look fine in one-shot FFT plots and still demand a smaller STFT hop before its overlap sum becomes flat. This</tspan><tspan x="700.0" dy="20.0" text-anchor="middle">pass uses the repo&#x27;s symmetric window tables at frame length 128; each panel has its own y-scale so the flatter cases stay visible.</tspan></text>
<line x1="123.3" y1="123.0" x2="147.3" y2="123.0" stroke="#1f77b4" stroke-width="4"/>
<text x="155.3" y="128.0" fill="#111827" font-size="14" font-family="Inter, Arial, sans-serif" text-anchor="start" font-weight="normal">rectangular</text>
<line x1="276.6" y1="123.0" x2="300.6" y2="123.0" stroke="#ff7f0e" stroke-width="4"/>
<text x="308.6" y="128.0" fill="#111827" font-size="14" font-family="Inter, Arial, sans-serif" text-anchor="start" font-weight="normal">hann</text>
<line x1="373.1" y1="123.0" x2="397.1" y2="123.0" stroke="#2ca02c" stroke-width="4"/>
<text x="405.1" y="128.0" fill="#111827" font-size="14" font-family="Inter, Arial, sans-serif" text-anchor="start" font-weight="normal">hamming</text>
<line x1="493.9" y1="123.0" x2="517.9" y2="123.0" stroke="#d62728" stroke-width="4"/>
<text x="525.9" y="128.0" fill="#111827" font-size="14" font-family="Inter, Arial, sans-serif" text-anchor="start" font-weight="normal">blackman</text>
<line x1="622.9" y1="123.0" x2="646.9" y2="123.0" stroke="#9467bd" stroke-width="4"/>
<text x="654.9" y="128.0" fill="#111827" font-size="14" font-family="Inter, Arial, sans-serif" text-anchor="start" font-weight="normal">kaiser β=8.6</text>
<line x1="784.3" y1="123.0" x2="808.3" y2="123.0" stroke="#0f766e" stroke-width="4"/>
<text x="816.3" y="128.0" fill="#111827" font-size="14" font-family="Inter, Arial, sans-serif" text-anchor="start" font-weight="normal">Blackman-Harris</text>
<line x1="970.1" y1="123.0" x2="994.1" y2="123.0" stroke="#8b5cf6" stroke-width="4"/>
<text x="1002.1" y="128.0" fill="#111827" font-size="14" font-family="Inter, Arial, sans-serif" text-anchor="start" font-weight="normal">flat-top</text>
<line x1="1099.1" y1="123.0" x2="1123.1" y2="123.0" stroke="#111827" stroke-width="4" stroke-dasharray="7 7"/>
<text x="1131.1" y="128.0" fill="#111827" font-size="14" font-family="Inter, Arial, sans-serif" text-anchor="start" font-weight="normal">ideal flat sum</text>
<rect x="96.0" y="173.0" width="1260.0" height="271.0" fill="#ffffff" stroke="#e5e7eb" rx="14"/>
<text x="114.0" y="201.0" fill="#111827" font-size="17" font-family="Inter, Arial, sans-serif" text-anchor="start" font-weight="700"><tspan x="114.0" dy="0.0" text-anchor="start">Hop = 64 samples (50.0% overlap)</tspan></text>
<text x="1346.0" y="201.0" fill="#6b7280" font-size="13" font-family="Inter, Arial, sans-serif" text-anchor="end" font-weight="normal">normalized overlap sum</text>
<line x1="116.0" y1="428.0" x2="1340.0" y2="428.0" stroke="#e5e7eb" stroke-width="1" stroke-dasharray="4 6"/>
<text x="112.0" y="433.0" fill="#6b7280" font-size="12" font-family="Inter, Arial, sans-serif" text-anchor="end" font-weight="normal">-0.47</text>
<line x1="116.0" y1="374.2" x2="1340.0" y2="374.2" stroke="#e5e7eb" stroke-width="1" stroke-dasharray="4 6"/>
<text x="112.0" y="379.2" fill="#6b7280" font-size="12" font-family="Inter, Arial, sans-serif" text-anchor="end" font-weight="normal">0.29</text>
<line x1="116.0" y1="320.5" x2="1340.0" y2="320.5" stroke="#e5e7eb" stroke-width="1" stroke-dasharray="4 6"/>
<text x="112.0" y="325.5" fill="#6b7280" font-size="12" font-family="Inter, Arial, sans-serif" text-anchor="end" font-weight="normal">1.06</text>
<line x1="116.0" y1="266.8" x2="1340.0" y2="266.8" stroke="#e5e7eb" stroke-width="1" stroke-dasharray="4 6"/>
<text x="112.0" y="271.8" fill="#6b7280" font-size="12" font-family="Inter, Arial, sans-serif" text-anchor="end" font-weight="normal">1.83</text>
<line x1="116.0" y1="213.0" x2="1340.0" y2="213.0" stroke="#e5e7eb" stroke-width="1" stroke-dasharray="4 6"/>
<text x="112.0" y="218.0" fill="#6b7280" font-size="12" font-family="Inter, Arial, sans-serif" text-anchor="end" font-weight="normal">2.59</text>
<line x1="96.0" y1="213.0" x2="96.0" y2="428.0" stroke="#eef1f5" stroke-width="1" stroke-dasharray="4 6"/>
<text x="96.0" y="466.0" fill="#6b7280" font-size="12" font-family="Inter, Arial, sans-serif" text-anchor="middle" font-weight="normal">0.00</text>
<line x1="276.0" y1="213.0" x2="276.0" y2="428.0" stroke="#eef1f5" stroke-width="1" stroke-dasharray="4 6"/>
<text x="276.0" y="466.0" fill="#6b7280" font-size="12" font-family="Inter, Arial, sans-serif" text-anchor="middle" font-weight="normal">0.14</text>
<line x1="456.0" y1="213.0" x2="456.0" y2="428.0" stroke="#eef1f5" stroke-width="1" stroke-dasharray="4 6"/>
<text x="456.0" y="466.0" fill="#6b7280" font-size="12" font-family="Inter, Arial, sans-serif" text-anchor="middle" font-weight="normal">0.29</text>
<line x1="636.0" y1="213.0" x2="636.0" y2="428.0" stroke="#eef1f5" stroke-width="1" stroke-dasharray="4 6"/>
<text x="636.0" y="466.0" fill="#6b7280" font-size="12" font-family="Inter, Arial, sans-serif" text-anchor="middle" font-weight="normal">0.43</text>
<line x1="816.0" y1="213.0" x2="816.0" y2="428.0" stroke="#eef1f5" stroke-width="1" stroke-dasharray="4 6"/>
<text x="816.0" y="466.0" fill="#6b7280" font-size="12" font-family="Inter, Arial, sans-serif" text-anchor="middle" font-weight="normal">0.57</text>
<line x1="996.0" y1="213.0" x2="996.0" y2="428.0" stroke="#eef1f5" stroke-width="1" stroke-dasharray="4 6"/>
<text x="996.0" y="466.0" fill="#6b7280" font-size="12" font-family="Inter, Arial, sans-serif" text-anchor="middle" font-weight="normal">0.71</text>
<line x1="1176.0" y1="213.0" x2="1176.0" y2="428.0" stroke="#eef1f5" stroke-width="1" stroke-dasharray="4 6"/>
<text x="1176.0" y="466.0" fill="#6b7280" font-size="12" font-family="Inter, Arial, sans-serif" text-anchor="middle" font-weight="normal">0.86</text>
<line x1="1356.0" y1="213.0" x2="1356.0" y2="428.0" stroke="#eef1f5" stroke-width="1" stroke-dasharray="4 6"/>
<text x="1356.0" y="466.0" fill="#6b7280" font-size="12" font-family="Inter, Arial, sans-serif" text-anchor="middle" font-weight="normal">1.00</text>
<g clip-path="url(#stacked-panel-0)">
<line x1="116.0" y1="324.8" x2="1340.0" y2="324.8" stroke="#111827" stroke-width="2" stroke-dasharray="7 7"/>
<polyline fill="none" stroke="#1f77b4" stroke-width="3" stroke-linejoin="round" stroke-linecap="round" points="96.0,324.8 116.0,324.8 136.0,324.8 156.0,324.8 176.0,324.8 196.0,324.8 216.0,324.8 236.0,324.8 256.0,324.8 276.0,324.8 296.0,324.8 316.0,324.8 336.0,324.8 356.0,324.8 376.0,324.8 396.0,324.8 416.0,324.8 436.0,324.8 456.0,324.8 476.0,324.8 496.0,324.8 516.0,324.8 536.0,324.8 556.0,324.8 576.0,324.8 596.0,324.8 616.0,324.8 636.0,324.8 656.0,324.8 676.0,324.8 696.0,324.8 716.0,324.8 736.0,324.8 756.0,324.8 776.0,324.8 796.0,324.8 816.0,324.8 836.0,324.8 856.0,324.8 876.0,324.8 896.0,324.8 916.0,324.8 936.0,324.8 956.0,324.8 976.0,324.8 996.0,324.8 1016.0,324.8 1036.0,324.8 1056.0,324.8 1076.0,324.8 1096.0,324.8 1116.0,324.8 1136.0,324.8 1156.0,324.8 1176.0,324.8 1196.0,324.8 1216.0,324.8 1236.0,324.8 1256.0,324.8 1276.0,324.8 1296.0,324.8 1316.0,324.8 1336.0,324.8 1356.0,324.8"/>
<polyline fill="none" stroke="#ff7f0e" stroke-width="3" stroke-linejoin="round" stroke-linecap="round" points="96.0,324.3 116.0,324.3 136.0,324.4 156.0,324.4 176.0,324.4 196.0,324.5 216.0,324.5 236.0,324.6 256.0,324.6 276.0,324.7 296.0,324.7 316.0,324.7 336.0,324.8 356.0,324.8 376.0,324.8 396.0,324.9 416.0,324.9 436.0,324.9 456.0,325.0 476.0,325.0 496.0,325.0 516.0,325.0 536.0,325.0 556.0,325.1 576.0,325.1 596.0,325.1 616.0,325.1 636.0,325.1 656.0,325.1 676.0,325.1 696.0,325.1 716.0,325.1 736.0,325.1 756.0,325.1 776.0,325.1 796.0,325.1 816.0,325.1 836.0,325.1 856.0,325.1 876.0,325.1 896.0,325.1 916.0,325.0 936.0,325.0 956.0,325.0 976.0,325.0 996.0,325.0 1016.0,324.9 1036.0,324.9 1056.0,324.9 1076.0,324.8 1096.0,324.8 1116.0,324.8 1136.0,324.7 1156.0,324.7 1176.0,324.7 1196.0,324.6 1216.0,324.6 1236.0,324.5 1256.0,324.5 1276.0,324.4 1296.0,324.4 1316.0,324.4 1336.0,324.3 1356.0,324.3"/>
<polyline fill="none" stroke="#2ca02c" stroke-width="3" stroke-linejoin="round" stroke-linecap="round" points="96.0,324.4 116.0,324.4 136.0,324.4 156.0,324.5 176.0,324.5 196.0,324.5 216.0,324.6 236.0,324.6 256.0,324.6 276.0,324.7 296.0,324.7 316.0,324.7 336.0,324.8 356.0,324.8 376.0,324.8 396.0,324.9 416.0,324.9 436.0,324.9 456.0,324.9 476.0,325.0 496.0,325.0 516.0,325.0 536.0,325.0 556.0,325.0 576.0,325.0 596.0,325.1 616.0,325.1 636.0,325.1 656.0,325.1 676.0,325.1 696.0,325.1 716.0,325.1 736.0,325.1 756.0,325.1 776.0,325.1 796.0,325.1 816.0,325.1 836.0,325.1 856.0,325.1 876.0,325.0 896.0,325.0 916.0,325.0 936.0,325.0 956.0,325.0 976.0,325.0 996.0,324.9 1016.0,324.9 1036.0,324.9 1056.0,324.9 1076.0,324.8 1096.0,324.8 1116.0,324.8 1136.0,324.7 1156.0,324.7 1176.0,324.7 1196.0,324.6 1216.0,324.6 1236.0,324.6 1256.0,324.5 1276.0,324.5 1296.0,324.5 1316.0,324.4 1336.0,324.4 1356.0,324.4"/>
<polyline fill="none" stroke="#d62728" stroke-width="3" stroke-linejoin="round" stroke-linecap="round" points="96.0,310.8 116.0,311.0 136.0,311.3 156.0,311.7 176.0,312.2 196.0,312.9 216.0,313.6 236.0,314.5 256.0,315.5 276.0,316.5 296.0,317.7 316.0,318.9 336.0,320.1 356.0,321.4 376.0,322.8 396.0,324.1 416.0,325.5 436.0,326.9 456.0,328.2 476.0,329.5 496.0,330.8 516.0,332.0 536.0,333.1 556.0,334.2 576.0,335.2 596.0,336.0 616.0,336.8 636.0,337.4 656.0,337.9 676.0,338.3 696.0,338.6 716.0,338.7 736.0,338.7 756.0,338.6 776.0,338.3 796.0,337.9 816.0,337.4 836.0,336.8 856.0,336.0 876.0,335.2 896.0,334.2 916.0,333.1 936.0,332.0 956.0,330.8 976.0,329.5 996.0,328.2 1016.0,326.9 1036.0,325.5 1056.0,324.1 1076.0,322.8 1096.0,321.4 1116.0,320.1 1136.0,318.9 1156.0,317.7 1176.0,316.5 1196.0,315.5 1216.0,314.5 1236.0,313.6 1256.0,312.9 1276.0,312.2 1296.0,311.7 1316.0,311.3 1336.0,311.0 1356.0,310.8"/>
<polyline fill="none" stroke="#9467bd" stroke-width="3" stroke-linejoin="round" stroke-linecap="round" points="96.0,310.9 116.0,311.0 136.0,311.2 156.0,311.6 176.0,312.1 196.0,312.8 216.0,313.5 236.0,314.4 256.0,315.4 276.0,316.5 296.0,317.6 316.0,318.8 336.0,320.1 356.0,321.4 376.0,322.8 396.0,324.2 416.0,325.5 436.0,326.9 456.0,328.3 476.0,329.6 496.0,330.8 516.0,332.0 536.0,333.2 556.0,334.2 576.0,335.2 596.0,336.1 616.0,336.8 636.0,337.5 656.0,338.0 676.0,338.4 696.0,338.7 716.0,338.8 736.0,338.8 756.0,338.7 776.0,338.4 796.0,338.0 816.0,337.5 836.0,336.8 856.0,336.1 876.0,335.2 896.0,334.2 916.0,333.2 936.0,332.0 956.0,330.8 976.0,329.6 996.0,328.3 1016.0,326.9 1036.0,325.5 1056.0,324.2 1076.0,322.8 1096.0,321.4 1116.0,320.1 1136.0,318.8 1156.0,317.6 1176.0,316.5 1196.0,315.4 1216.0,314.4 1236.0,313.5 1256.0,312.8 1276.0,312.1 1296.0,311.6 1316.0,311.2 1336.0,311.0 1356.0,310.9"/>
<polyline fill="none" stroke="#0f766e" stroke-width="3" stroke-linejoin="round" stroke-linecap="round" points="96.0,296.5 116.0,296.7 136.0,297.3 156.0,298.1 176.0,299.2 196.0,300.5 216.0,302.0 236.0,303.8 256.0,305.8 276.0,307.9 296.0,310.2 316.0,312.7 336.0,315.3 356.0,317.9 376.0,320.7 396.0,323.4 416.0,326.2 436.0,329.0 456.0,331.7 476.0,334.4 496.0,337.0 516.0,339.4 536.0,341.7 556.0,343.9 576.0,345.8 596.0,347.6 616.0,349.2 636.0,350.5 656.0,351.5 676.0,352.3 696.0,352.9 716.0,353.2 736.0,353.2 756.0,352.9 776.0,352.3 796.0,351.5 816.0,350.5 836.0,349.2 856.0,347.6 876.0,345.8 896.0,343.9 916.0,341.7 936.0,339.4 956.0,337.0 976.0,334.4 996.0,331.7 1016.0,329.0 1036.0,326.2 1056.0,323.4 1076.0,320.7 1096.0,317.9 1116.0,315.3 1136.0,312.7 1156.0,310.2 1176.0,307.9 1196.0,305.8 1216.0,303.8 1236.0,302.0 1256.0,300.5 1276.0,299.2 1296.0,298.1 1316.0,297.3 1336.0,296.7 1356.0,296.5"/>
<polyline fill="none" stroke="#8b5cf6" stroke-width="3" stroke-linejoin="round" stroke-linecap="round" points="96.0,231.2 116.0,232.2 136.0,234.1 156.0,237.0 176.0,240.8 196.0,245.4 216.0,250.8 236.0,257.0 256.0,263.8 276.0,271.2 296.0,279.1 316.0,287.4 336.0,296.0 356.0,304.9 376.0,313.8 396.0,322.8 416.0,331.8 436.0,340.6 456.0,349.2 476.0,357.5 496.0,365.4 516.0,372.9 536.0,379.9 556.0,386.3 576.0,392.2 596.0,397.4 616.0,401.9 636.0,405.7 656.0,408.8 676.0,411.1 696.0,412.6 716.0,413.4 736.0,413.4 756.0,412.6 776.0,411.1 796.0,408.8 816.0,405.7 836.0,401.9 856.0,397.4 876.0,392.2 896.0,386.3 916.0,379.9 936.0,372.9 956.0,365.4 976.0,357.5 996.0,349.2 1016.0,340.6 1036.0,331.8 1056.0,322.8 1076.0,313.8 1096.0,304.9 1116.0,296.0 1136.0,287.4 1156.0,279.1 1176.0,271.2 1196.0,263.8 1216.0,257.0 1236.0,250.8 1256.0,245.4 1276.0,240.8 1296.0,237.0 1316.0,234.1 1336.0,232.2 1356.0,231.2"/>
</g>
<text x="1334.0" y="318.8" fill="#111827" font-size="12" font-family="Inter, Arial, sans-serif" text-anchor="end" font-weight="700">ideal flat sum</text>
<rect x="96.0" y="482.0" width="1260.0" height="271.0" fill="#ffffff" stroke="#e5e7eb" rx="14"/>
<text x="114.0" y="510.0" fill="#111827" font-size="17" font-family="Inter, Arial, sans-serif" text-anchor="start" font-weight="700"><tspan x="114.0" dy="0.0" text-anchor="start">Hop = 32 samples (75.0% overlap)</tspan></text>
<text x="1346.0" y="510.0" fill="#6b7280" font-size="13" font-family="Inter, Arial, sans-serif" text-anchor="end" font-weight="normal">normalized overlap sum</text>
<line x1="116.0" y1="737.0" x2="1340.0" y2="737.0" stroke="#e5e7eb" stroke-width="1" stroke-dasharray="4 6"/>
<text x="112.0" y="742.0" fill="#6b7280" font-size="12" font-family="Inter, Arial, sans-serif" text-anchor="end" font-weight="normal">0.96</text>
<line x1="116.0" y1="683.3" x2="1340.0" y2="683.3" stroke="#e5e7eb" stroke-width="1" stroke-dasharray="4 6"/>
<text x="112.0" y="688.3" fill="#6b7280" font-size="12" font-family="Inter, Arial, sans-serif" text-anchor="end" font-weight="normal">0.98</text>
<line x1="116.0" y1="629.5" x2="1340.0" y2="629.5" stroke="#e5e7eb" stroke-width="1" stroke-dasharray="4 6"/>
<text x="112.0" y="634.5" fill="#6b7280" font-size="12" font-family="Inter, Arial, sans-serif" text-anchor="end" font-weight="normal">1.00</text>
<line x1="116.0" y1="575.7" x2="1340.0" y2="575.7" stroke="#e5e7eb" stroke-width="1" stroke-dasharray="4 6"/>
<text x="112.0" y="580.7" fill="#6b7280" font-size="12" font-family="Inter, Arial, sans-serif" text-anchor="end" font-weight="normal">1.02</text>
<line x1="116.0" y1="522.0" x2="1340.0" y2="522.0" stroke="#e5e7eb" stroke-width="1" stroke-dasharray="4 6"/>
<text x="112.0" y="527.0" fill="#6b7280" font-size="12" font-family="Inter, Arial, sans-serif" text-anchor="end" font-weight="normal">1.04</text>
<line x1="96.0" y1="522.0" x2="96.0" y2="737.0" stroke="#eef1f5" stroke-width="1" stroke-dasharray="4 6"/>
<text x="96.0" y="775.0" fill="#6b7280" font-size="12" font-family="Inter, Arial, sans-serif" text-anchor="middle" font-weight="normal">0.00</text>
<line x1="276.0" y1="522.0" x2="276.0" y2="737.0" stroke="#eef1f5" stroke-width="1" stroke-dasharray="4 6"/>
<text x="276.0" y="775.0" fill="#6b7280" font-size="12" font-family="Inter, Arial, sans-serif" text-anchor="middle" font-weight="normal">0.14</text>
<line x1="456.0" y1="522.0" x2="456.0" y2="737.0" stroke="#eef1f5" stroke-width="1" stroke-dasharray="4 6"/>
<text x="456.0" y="775.0" fill="#6b7280" font-size="12" font-family="Inter, Arial, sans-serif" text-anchor="middle" font-weight="normal">0.29</text>
<line x1="636.0" y1="522.0" x2="636.0" y2="737.0" stroke="#eef1f5" stroke-width="1" stroke-dasharray="4 6"/>
<text x="636.0" y="775.0" fill="#6b7280" font-size="12" font-family="Inter, Arial, sans-serif" text-anchor="middle" font-weight="normal">0.43</text>
<line x1="816.0" y1="522.0" x2="816.0" y2="737.0" stroke="#eef1f5" stroke-width="1" stroke-dasharray="4 6"/>
<text x="816.0" y="775.0" fill="#6b7280" font-size="12" font-family="Inter, Arial, sans-serif" text-anchor="middle" font-weight="normal">0.57</text>
<line x1="996.0" y1="522.0" x2="996.0" y2="737.0" stroke="#eef1f5" stroke-width="1" stroke-dasharray="4 6"/>
<text x="996.0" y="775.0" fill="#6b7280" font-size="12" font-family="Inter, Arial, sans-serif" text-anchor="middle" font-weight="normal">0.71</text>
<line x1="1176.0" y1="522.0" x2="1176.0" y2="737.0" stroke="#eef1f5" stroke-width="1" stroke-dasharray="4 6"/>
<text x="1176.0" y="775.0" fill="#6b7280" font-size="12" font-family="Inter, Arial, sans-serif" text-anchor="middle" font-weight="normal">0.86</text>
<line x1="1356.0" y1="522.0" x2="1356.0" y2="737.0" stroke="#eef1f5" stroke-width="1" stroke-dasharray="4 6"/>
<text x="1356.0" y="775.0" fill="#6b7280" font-size="12" font-family="Inter, Arial, sans-serif" text-anchor="middle" font-weight="normal">1.00</text>
<g clip-path="url(#stacked-panel-1)">
<line x1="116.0" y1="631.2" x2="1340.0" y2="631.2" stroke="#111827" stroke-width="2" stroke-dasharray="7 7"/>
<polyline fill="none" stroke="#1f77b4" stroke-width="3" stroke-linejoin="round" stroke-linecap="round" points="96.0,631.2 136.6,631.2 177.3,631.2 217.9,631.2 258.6,631.2 299.2,631.2 339.9,631.2 380.5,631.2 421.2,631.2 461.8,631.2 502.5,631.2 543.1,631.2 583.7,631.2 624.4,631.2 665.0,631.2 705.7,631.2 746.3,631.2 787.0,631.2 827.6,631.2 868.3,631.2 908.9,631.2 949.5,631.2 990.2,631.2 1030.8,631.2 1071.5,631.2 1112.1,631.2 1152.8,631.2 1193.4,631.2 1234.1,631.2 1274.7,631.2 1315.4,631.2 1356.0,631.2"/>
<polyline fill="none" stroke="#ff7f0e" stroke-width="3" stroke-linejoin="round" stroke-linecap="round" points="96.0,627.2 136.6,627.9 177.3,628.6 217.9,629.3 258.6,629.9 299.2,630.5 339.9,631.0 380.5,631.5 421.2,631.9 461.8,632.3 502.5,632.6 543.1,632.9 583.7,633.1 624.4,633.3 665.0,633.4 705.7,633.4 746.3,633.4 787.0,633.4 827.6,633.3 868.3,633.1 908.9,632.9 949.5,632.6 990.2,632.3 1030.8,631.9 1071.5,631.5 1112.1,631.0 1152.8,630.5 1193.4,629.9 1234.1,629.3 1274.7,628.6 1315.4,627.9 1356.0,627.2"/>
<polyline fill="none" stroke="#2ca02c" stroke-width="3" stroke-linejoin="round" stroke-linecap="round" points="96.0,627.8 136.6,628.4 177.3,629.0 217.9,629.6 258.6,630.1 299.2,630.6 339.9,631.0 380.5,631.4 421.2,631.8 461.8,632.1 502.5,632.4 543.1,632.6 583.7,632.8 624.4,633.0 665.0,633.0 705.7,633.1 746.3,633.1 787.0,633.0 827.6,633.0 868.3,632.8 908.9,632.6 949.5,632.4 990.2,632.1 1030.8,631.8 1071.5,631.4 1112.1,631.0 1152.8,630.6 1193.4,630.1 1234.1,629.6 1274.7,629.0 1315.4,628.4 1356.0,627.8"/>
<polyline fill="none" stroke="#d62728" stroke-width="3" stroke-linejoin="round" stroke-linecap="round" points="96.0,630.0 136.6,630.3 177.3,630.6 217.9,630.8 258.6,631.0 299.2,631.1 339.9,631.2 380.5,631.3 421.2,631.4 461.8,631.5 502.5,631.5 543.1,631.6 583.7,631.6 624.4,631.6 665.0,631.6 705.7,631.6 746.3,631.6 787.0,631.6 827.6,631.6 868.3,631.6 908.9,631.6 949.5,631.5 990.2,631.5 1030.8,631.4 1071.5,631.3 1112.1,631.2 1152.8,631.1 1193.4,631.0 1234.1,630.8 1274.7,630.6 1315.4,630.3 1356.0,630.0"/>
<polyline fill="none" stroke="#9467bd" stroke-width="3" stroke-linejoin="round" stroke-linecap="round" points="96.0,631.7 136.6,631.0 177.3,630.5 217.9,630.3 258.6,630.2 299.2,630.2 339.9,630.4 380.5,630.6 421.2,630.9 461.8,631.2 502.5,631.5 543.1,631.7 583.7,632.0 624.4,632.1 665.0,632.3 705.7,632.3 746.3,632.3 787.0,632.3 827.6,632.1 868.3,632.0 908.9,631.7 949.5,631.5 990.2,631.2 1030.8,630.9 1071.5,630.6 1112.1,630.4 1152.8,630.2 1193.4,630.2 1234.1,630.3 1274.7,630.5 1315.4,631.0 1356.0,631.7"/>
<polyline fill="none" stroke="#0f766e" stroke-width="3" stroke-linejoin="round" stroke-linecap="round" points="96.0,631.0 136.6,631.1 177.3,631.1 217.9,631.1 258.6,631.2 299.2,631.2 339.9,631.2 380.5,631.2 421.2,631.2 461.8,631.2 502.5,631.2 543.1,631.2 583.7,631.2 624.4,631.2 665.0,631.2 705.7,631.2 746.3,631.2 787.0,631.2 827.6,631.2 868.3,631.2 908.9,631.2 949.5,631.2 990.2,631.2 1030.8,631.2 1071.5,631.2 1112.1,631.2 1152.8,631.2 1193.4,631.2 1234.1,631.1 1274.7,631.1 1315.4,631.1 1356.0,631.0"/>
<polyline fill="none" stroke="#8b5cf6" stroke-width="3" stroke-linejoin="round" stroke-linecap="round" points="96.0,540.2 136.6,543.6 177.3,550.4 217.9,560.3 258.6,573.0 299.2,587.9 339.9,604.5 380.5,622.1 421.2,640.1 461.8,657.7 502.5,674.4 543.1,689.3 583.7,702.0 624.4,712.0 665.0,718.9 705.7,722.4 746.3,722.4 787.0,718.9 827.6,712.0 868.3,702.0 908.9,689.3 949.5,674.4 990.2,657.7 1030.8,640.1 1071.5,622.1 1112.1,604.5 1152.8,587.9 1193.4,573.0 1234.1,560.3 1274.7,550.4 1315.4,543.6 1356.0,540.2"/>
</g>
<text x="1334.0" y="625.2" fill="#111827" font-size="12" font-family="Inter, Arial, sans-serif" text-anchor="end" font-weight="700">ideal flat sum</text>
<rect x="96.0" y="791.0" width="1260.0" height="271.0" fill="#ffffff" stroke="#e5e7eb" rx="14"/>
<text x="114.0" y="819.0" fill="#111827" font-size="17" font-family="Inter, Arial, sans-serif" text-anchor="start" font-weight="700"><tspan x="114.0" dy="0.0" text-anchor="start">Hop = 16 samples (87.5% overlap)</tspan></text>
<text x="1346.0" y="819.0" fill="#6b7280" font-size="13" font-family="Inter, Arial, sans-serif" text-anchor="end" font-weight="normal">normalized overlap sum</text>
<line x1="116.0" y1="1046.0" x2="1340.0" y2="1046.0" stroke="#e5e7eb" stroke-width="1" stroke-dasharray="4 6"/>
<text x="112.0" y="1051.0" fill="#6b7280" font-size="12" font-family="Inter, Arial, sans-serif" text-anchor="end" font-weight="normal">1.00</text>
<line x1="116.0" y1="992.2" x2="1340.0" y2="992.2" stroke="#e5e7eb" stroke-width="1" stroke-dasharray="4 6"/>
<text x="112.0" y="997.2" fill="#6b7280" font-size="12" font-family="Inter, Arial, sans-serif" text-anchor="end" font-weight="normal">1.00</text>
<line x1="116.0" y1="938.5" x2="1340.0" y2="938.5" stroke="#e5e7eb" stroke-width="1" stroke-dasharray="4 6"/>
<text x="112.0" y="943.5" fill="#6b7280" font-size="12" font-family="Inter, Arial, sans-serif" text-anchor="end" font-weight="normal">1.00</text>
<line x1="116.0" y1="884.8" x2="1340.0" y2="884.8" stroke="#e5e7eb" stroke-width="1" stroke-dasharray="4 6"/>
<text x="112.0" y="889.8" fill="#6b7280" font-size="12" font-family="Inter, Arial, sans-serif" text-anchor="end" font-weight="normal">1.00</text>
<line x1="116.0" y1="831.0" x2="1340.0" y2="831.0" stroke="#e5e7eb" stroke-width="1" stroke-dasharray="4 6"/>
<text x="112.0" y="836.0" fill="#6b7280" font-size="12" font-family="Inter, Arial, sans-serif" text-anchor="end" font-weight="normal">1.00</text>
<line x1="96.0" y1="831.0" x2="96.0" y2="1046.0" stroke="#eef1f5" stroke-width="1" stroke-dasharray="4 6"/>
<text x="96.0" y="1084.0" fill="#6b7280" font-size="12" font-family="Inter, Arial, sans-serif" text-anchor="middle" font-weight="normal">0.00</text>
<line x1="276.0" y1="831.0" x2="276.0" y2="1046.0" stroke="#eef1f5" stroke-width="1" stroke-dasharray="4 6"/>
<text x="276.0" y="1084.0" fill="#6b7280" font-size="12" font-family="Inter, Arial, sans-serif" text-anchor="middle" font-weight="normal">0.14</text>
<line x1="456.0" y1="831.0" x2="456.0" y2="1046.0" stroke="#eef1f5" stroke-width="1" stroke-dasharray="4 6"/>
<text x="456.0" y="1084.0" fill="#6b7280" font-size="12" font-family="Inter, Arial, sans-serif" text-anchor="middle" font-weight="normal">0.29</text>
<line x1="636.0" y1="831.0" x2="636.0" y2="1046.0" stroke="#eef1f5" stroke-width="1" stroke-dasharray="4 6"/>
<text x="636.0" y="1084.0" fill="#6b7280" font-size="12" font-family="Inter, Arial, sans-serif" text-anchor="middle" font-weight="normal">0.43</text>
<line x1="816.0" y1="831.0" x2="816.0" y2="1046.0" stroke="#eef1f5" stroke-width="1" stroke-dasharray="4 6"/>
<text x="816.0" y="1084.0" fill="#6b7280" font-size="12" font-family="Inter, Arial, sans-serif" text-anchor="middle" font-weight="normal">0.57</text>
<line x1="996.0" y1="831.0" x2="996.0" y2="1046.0" stroke="#eef1f5" stroke-width="1" stroke-dasharray="4 6"/>
<text x="996.0" y="1084.0" fill="#6b7280" font-size="12" font-family="Inter, Arial, sans-serif" text-anchor="middle" font-weight="normal">0.71</text>
<line x1="1176.0" y1="831.0" x2="1176.0" y2="1046.0" stroke="#eef1f5" stroke-width="1" stroke-dasharray="4 6"/>
<text x="1176.0" y="1084.0" fill="#6b7280" font-size="12" font-family="Inter, Arial, sans-serif" text-anchor="middle" font-weight="normal">0.86</text>
<line x1="1356.0" y1="831.0" x2="1356.0" y2="1046.0" stroke="#eef1f5" stroke-width="1" stroke-dasharray="4 6"/>
<text x="1356.0" y="1084.0" fill="#6b7280" font-size="12" font-family="Inter, Arial, sans-serif" text-anchor="middle" font-weight="normal">1.00</text>
<g clip-path="url(#stacked-panel-2)">
<line x1="116.0" y1="938.5" x2="1340.0" y2="938.5" stroke="#111827" stroke-width="2" stroke-dasharray="7 7"/>
<polyline fill="none" stroke="#1f77b4" stroke-width="3" stroke-linejoin="round" stroke-linecap="round" points="96.0,938.5 180.0,938.5 264.0,938.5 348.0,938.5 432.0,938.5 516.0,938.5 600.0,938.5 684.0,938.5 768.0,938.5 852.0,938.5 936.0,938.5 1020.0,938.5 1104.0,938.5 1188.0,938.5 1272.0,938.5 1356.0,938.5"/>
<polyline fill="none" stroke="#ff7f0e" stroke-width="3" stroke-linejoin="round" stroke-linecap="round" points="96.0,920.1 180.0,927.4 264.0,933.7 348.0,939.0 432.0,943.2 516.0,946.4 600.0,948.5 684.0,949.6 768.0,949.6 852.0,948.5 936.0,946.4 1020.0,943.2 1104.0,939.0 1188.0,933.7 1272.0,927.4 1356.0,920.1"/>
<polyline fill="none" stroke="#2ca02c" stroke-width="3" stroke-linejoin="round" stroke-linecap="round" points="96.0,922.9 180.0,929.1 264.0,934.4 348.0,938.9 432.0,942.5 516.0,945.2 600.0,947.0 684.0,947.9 768.0,947.9 852.0,947.0 936.0,945.2 1020.0,942.5 1104.0,938.9 1188.0,934.4 1272.0,929.1 1356.0,922.9"/>
<polyline fill="none" stroke="#d62728" stroke-width="3" stroke-linejoin="round" stroke-linecap="round" points="96.0,931.2 180.0,934.2 264.0,936.7 348.0,938.8 432.0,940.4 516.0,941.6 600.0,942.4 684.0,942.8 768.0,942.8 852.0,942.4 936.0,941.6 1020.0,940.4 1104.0,938.8 1188.0,936.7 1272.0,934.2 1356.0,931.2"/>
<polyline fill="none" stroke="#9467bd" stroke-width="3" stroke-linejoin="round" stroke-linecap="round" points="96.0,956.4 180.0,948.1 264.0,941.7 348.0,937.1 432.0,933.7 516.0,931.5 600.0,930.1 684.0,929.4 768.0,929.4 852.0,930.1 936.0,931.5 1020.0,933.7 1104.0,937.1 1188.0,941.7 1272.0,948.1 1356.0,956.4"/>
<polyline fill="none" stroke="#0f766e" stroke-width="3" stroke-linejoin="round" stroke-linecap="round" points="96.0,937.6 180.0,938.1 264.0,938.4 348.0,938.6 432.0,938.8 516.0,938.8 600.0,938.9 684.0,938.9 768.0,938.9 852.0,938.9 936.0,938.8 1020.0,938.8 1104.0,938.6 1188.0,938.4 1272.0,938.1 1356.0,937.6"/>
<polyline fill="none" stroke="#8b5cf6" stroke-width="3" stroke-linejoin="round" stroke-linecap="round" points="96.0,941.6 180.0,940.1 264.0,939.0 348.0,938.2 432.0,937.7 516.0,937.3 600.0,937.1 684.0,937.0 768.0,937.0 852.0,937.1 936.0,937.3 1020.0,937.7 1104.0,938.2 1188.0,939.0 1272.0,940.1 1356.0,941.6"/>
</g>
<text x="1334.0" y="932.5" fill="#111827" font-size="12" font-family="Inter, Arial, sans-serif" text-anchor="end" font-weight="700">ideal flat sum</text>
<text x="726.0" y="1148.0" fill="#374151" font-size="16" font-family="Inter, Arial, sans-serif" text-anchor="middle" font-weight="normal">phase inside one hop period</text>
</svg>