<svg xmlns="http://www.w3.org/2000/svg" width="1280" height="800" viewBox="0 0 1280 800">
<defs>
<clipPath id="chart-plot-clip"><rect x="116.0" y="172.0" width="1120.0" height="518.0" rx="12"/></clipPath>
</defs>
<rect width="1280" height="800" fill="#fcfcfd"/>
<text x="640.0" y="42.0" fill="#222" font-size="28" font-family="Inter, Arial, sans-serif" text-anchor="middle" font-weight="700"><tspan x="640.0" dy="0.0" text-anchor="middle">Blackman-Harris and Nuttall help between bins, but they do not become</tspan><tspan x="640.0" dy="35.0" text-anchor="middle">flat-top</tspan></text>
<line x1="275.6" y1="122.0" x2="299.6" y2="122.0" stroke="#d62728" stroke-width="4"/>
<text x="307.6" y="127.0" fill="#111827" font-size="15" font-family="Inter, Arial, sans-serif" text-anchor="start" font-weight="normal">blackman</text>
<line x1="409.1" y1="122.0" x2="433.1" y2="122.0" stroke="#9467bd" stroke-width="4"/>
<text x="441.1" y="127.0" fill="#111827" font-size="15" font-family="Inter, Arial, sans-serif" text-anchor="start" font-weight="normal">kaiser-8.6</text>
<line x1="560.1" y1="122.0" x2="584.1" y2="122.0" stroke="#0f766e" stroke-width="4"/>
<text x="592.1" y="127.0" fill="#111827" font-size="15" font-family="Inter, Arial, sans-serif" text-anchor="start" font-weight="normal">blackman-harris</text>
<line x1="754.6" y1="122.0" x2="778.6" y2="122.0" stroke="#b45309" stroke-width="4"/>
<text x="786.6" y="127.0" fill="#111827" font-size="15" font-family="Inter, Arial, sans-serif" text-anchor="start" font-weight="normal">nuttall</text>
<line x1="879.5" y1="122.0" x2="903.5" y2="122.0" stroke="#8b5cf6" stroke-width="4"/>
<text x="911.5" y="127.0" fill="#111827" font-size="15" font-family="Inter, Arial, sans-serif" text-anchor="start" font-weight="normal">flattop</text>
<rect x="116.0" y="172.0" width="1120.0" height="518.0" fill="#ffffff" stroke="#e5e7eb" rx="14"/>
<line x1="116.0" y1="172.0" x2="116.0" y2="690.0" stroke="#333" stroke-width="2"/>
<line x1="116.0" y1="690.0" x2="1236.0" y2="690.0" stroke="#333" stroke-width="2"/>
<line x1="116.0" y1="690.0" x2="1236.0" y2="690.0" stroke="#d9dde3" stroke-width="1" stroke-dasharray="4 6"/>
<text x="104.0" y="695.0" fill="#4b5563" font-size="13" font-family="Inter, Arial, sans-serif" text-anchor="end" font-weight="normal">-1.25</text>
<line x1="116.0" y1="586.4" x2="1236.0" y2="586.4" stroke="#d9dde3" stroke-width="1" stroke-dasharray="4 6"/>
<text x="104.0" y="591.4" fill="#4b5563" font-size="13" font-family="Inter, Arial, sans-serif" text-anchor="end" font-weight="normal">-0.99</text>
<line x1="116.0" y1="482.8" x2="1236.0" y2="482.8" stroke="#d9dde3" stroke-width="1" stroke-dasharray="4 6"/>
<text x="104.0" y="487.8" fill="#4b5563" font-size="13" font-family="Inter, Arial, sans-serif" text-anchor="end" font-weight="normal">-0.73</text>
<line x1="116.0" y1="379.2" x2="1236.0" y2="379.2" stroke="#d9dde3" stroke-width="1" stroke-dasharray="4 6"/>
<text x="104.0" y="384.2" fill="#4b5563" font-size="13" font-family="Inter, Arial, sans-serif" text-anchor="end" font-weight="normal">-0.47</text>
<line x1="116.0" y1="275.6" x2="1236.0" y2="275.6" stroke="#d9dde3" stroke-width="1" stroke-dasharray="4 6"/>
<text x="104.0" y="280.6" fill="#4b5563" font-size="13" font-family="Inter, Arial, sans-serif" text-anchor="end" font-weight="normal">-0.21</text>
<line x1="116.0" y1="172.0" x2="1236.0" y2="172.0" stroke="#d9dde3" stroke-width="1" stroke-dasharray="4 6"/>
<text x="104.0" y="177.0" fill="#4b5563" font-size="13" font-family="Inter, Arial, sans-serif" text-anchor="end" font-weight="normal">0.05</text>
<line x1="116.0" y1="172.0" x2="116.0" y2="690.0" stroke="#eef1f5" stroke-width="1" stroke-dasharray="4 6"/>
<text x="116.0" y="720.0" fill="#4b5563" font-size="13" font-family="Inter, Arial, sans-serif" text-anchor="middle" font-weight="normal">0.00</text>
<line x1="340.0" y1="172.0" x2="340.0" y2="690.0" stroke="#eef1f5" stroke-width="1" stroke-dasharray="4 6"/>
<text x="340.0" y="720.0" fill="#4b5563" font-size="13" font-family="Inter, Arial, sans-serif" text-anchor="middle" font-weight="normal">0.10</text>
<line x1="564.0" y1="172.0" x2="564.0" y2="690.0" stroke="#eef1f5" stroke-width="1" stroke-dasharray="4 6"/>
<text x="564.0" y="720.0" fill="#4b5563" font-size="13" font-family="Inter, Arial, sans-serif" text-anchor="middle" font-weight="normal">0.20</text>
<line x1="788.0" y1="172.0" x2="788.0" y2="690.0" stroke="#eef1f5" stroke-width="1" stroke-dasharray="4 6"/>
<text x="788.0" y="720.0" fill="#4b5563" font-size="13" font-family="Inter, Arial, sans-serif" text-anchor="middle" font-weight="normal">0.30</text>
<line x1="1012.0" y1="172.0" x2="1012.0" y2="690.0" stroke="#eef1f5" stroke-width="1" stroke-dasharray="4 6"/>
<text x="1012.0" y="720.0" fill="#4b5563" font-size="13" font-family="Inter, Arial, sans-serif" text-anchor="middle" font-weight="normal">0.40</text>
<line x1="1236.0" y1="172.0" x2="1236.0" y2="690.0" stroke="#eef1f5" stroke-width="1" stroke-dasharray="4 6"/>
<text x="1236.0" y="720.0" fill="#4b5563" font-size="13" font-family="Inter, Arial, sans-serif" text-anchor="middle" font-weight="normal">0.50</text>
<g clip-path="url(#chart-plot-clip)">
<polyline fill="none" stroke="#d62728" stroke-width="3" stroke-linejoin="round" stroke-linecap="round" points="116.0,191.9 121.6,191.9 127.2,192.0 132.8,192.0 138.4,192.1 144.0,192.2 149.6,192.3 155.2,192.4 160.8,192.6 166.4,192.8 172.0,193.0 177.6,193.2 183.2,193.5 188.8,193.7 194.4,194.0 200.0,194.3 205.6,194.7 211.2,195.0 216.8,195.4 222.4,195.8 228.0,196.2 233.6,196.6 239.2,197.1 244.8,197.6 250.4,198.1 256.0,198.6 261.6,199.2 267.2,199.7 272.8,200.3 278.4,200.9 284.0,201.5 289.6,202.2 295.2,202.9 300.8,203.6 306.4,204.3 312.0,205.0 317.6,205.8 323.2,206.6 328.8,207.4 334.4,208.2 340.0,209.0 345.6,209.9 351.2,210.8 356.8,211.7 362.4,212.6 368.0,213.6 373.6,214.6 379.2,215.6 384.8,216.6 390.4,217.6 396.0,218.7 401.6,219.7 407.2,220.9 412.8,222.0 418.4,223.1 424.0,224.3 429.6,225.5 435.2,226.7 440.8,227.9 446.4,229.2 452.0,230.4 457.6,231.7 463.2,233.1 468.8,234.4 474.4,235.8 480.0,237.1 485.6,238.5 491.2,240.0 496.8,241.4 502.4,242.9 508.0,244.4 513.6,245.9 519.2,247.4 524.8,249.0 530.4,250.5 536.0,252.1 541.6,253.8 547.2,255.4 552.8,257.1 558.4,258.7 564.0,260.4 569.6,262.2 575.2,263.9 580.8,265.7 586.4,267.5 592.0,269.3 597.6,271.1 603.2,273.0 608.8,274.9 614.4,276.7 620.0,278.7 625.6,280.6 631.2,282.6 636.8,284.6 642.4,286.6 648.0,288.6 653.6,290.6 659.2,292.7 664.8,294.8 670.4,296.9 676.0,299.1 681.6,301.2 687.2,303.4 692.8,305.6 698.4,307.8 704.0,310.1 709.6,312.3 715.2,314.6 720.8,316.9 726.4,319.3 732.0,321.6 737.6,324.0 743.2,326.4 748.8,328.8 754.4,331.2 760.0,333.7 765.6,336.2 771.2,338.7 776.8,341.2 782.4,343.8 788.0,346.3 793.6,348.9 799.2,351.5 804.8,354.2 810.4,356.8 816.0,359.5 821.6,362.2 827.2,364.9 832.8,367.7 838.4,370.4 844.0,373.2 849.6,376.0 855.2,378.9 860.8,381.7 866.4,384.6 872.0,387.5 877.6,390.4 883.2,393.3 888.8,396.3 894.4,399.3 900.0,402.3 905.6,405.3 911.2,408.4 916.8,411.4 922.4,414.5 928.0,417.7 933.6,420.8 939.2,423.9 944.8,427.1 950.4,430.3 956.0,433.6 961.6,436.8 967.2,440.1 972.8,443.4 978.4,446.7 984.0,450.0 989.6,453.4 995.2,456.7 1000.8,460.1 1006.4,463.6 1012.0,467.0 1017.6,470.5 1023.2,474.0 1028.8,477.5 1034.4,481.0 1040.0,484.6 1045.6,488.1 1051.2,491.7 1056.8,495.4 1062.4,499.0 1068.0,502.7 1073.6,506.4 1079.2,510.1 1084.8,513.8 1090.4,517.6 1096.0,521.3 1101.6,525.1 1107.2,529.0 1112.8,532.8 1118.4,536.7 1124.0,540.6 1129.6,544.5 1135.2,548.4 1140.8,552.3 1146.4,556.3 1152.0,560.3 1157.6,564.3 1163.2,568.4 1168.8,572.4 1174.4,576.5 1180.0,580.6 1185.6,584.8 1191.2,588.9 1196.8,593.1 1202.4,597.3 1208.0,601.5 1213.6,605.8 1219.2,610.0 1224.8,614.3 1230.4,618.6 1236.0,623.0"/>
<polyline fill="none" stroke="#9467bd" stroke-width="3" stroke-linejoin="round" stroke-linecap="round" points="116.0,191.9 121.6,191.9 127.2,192.0 132.8,192.0 138.4,192.1 144.0,192.2 149.6,192.3 155.2,192.5 160.8,192.6 166.4,192.8 172.0,193.0 177.6,193.2 183.2,193.5 188.8,193.7 194.4,194.0 200.0,194.4 205.6,194.7 211.2,195.0 216.8,195.4 222.4,195.8 228.0,196.2 233.6,196.7 239.2,197.2 244.8,197.6 250.4,198.1 256.0,198.7 261.6,199.2 267.2,199.8 272.8,200.4 278.4,201.0 284.0,201.6 289.6,202.3 295.2,203.0 300.8,203.7 306.4,204.4 312.0,205.2 317.6,205.9 323.2,206.7 328.8,207.5 334.4,208.4 340.0,209.2 345.6,210.1 351.2,211.0 356.8,211.9 362.4,212.8 368.0,213.8 373.6,214.8 379.2,215.8 384.8,216.8 390.4,217.9 396.0,218.9 401.6,220.0 407.2,221.1 412.8,222.3 418.4,223.4 424.0,224.6 429.6,225.8 435.2,227.0 440.8,228.3 446.4,229.5 452.0,230.8 457.6,232.1 463.2,233.5 468.8,234.8 474.4,236.2 480.0,237.6 485.6,239.0 491.2,240.5 496.8,241.9 502.4,243.4 508.0,244.9 513.6,246.4 519.2,248.0 524.8,249.5 530.4,251.1 536.0,252.7 541.6,254.4 547.2,256.0 552.8,257.7 558.4,259.4 564.0,261.1 569.6,262.9 575.2,264.6 580.8,266.4 586.4,268.2 592.0,270.1 597.6,271.9 603.2,273.8 608.8,275.7 614.4,277.6 620.0,279.5 625.6,281.5 631.2,283.5 636.8,285.5 642.4,287.5 648.0,289.6 653.6,291.6 659.2,293.7 664.8,295.8 670.4,298.0 676.0,300.1 681.6,302.3 687.2,304.5 692.8,306.7 698.4,309.0 704.0,311.2 709.6,313.5 715.2,315.8 720.8,318.2 726.4,320.5 732.0,322.9 737.6,325.3 743.2,327.7 748.8,330.2 754.4,332.6 760.0,335.1 765.6,337.6 771.2,340.1 776.8,342.7 782.4,345.3 788.0,347.9 793.6,350.5 799.2,353.1 804.8,355.8 810.4,358.5 816.0,361.2 821.6,363.9 827.2,366.6 832.8,369.4 838.4,372.2 844.0,375.0 849.6,377.9 855.2,380.7 860.8,383.6 866.4,386.5 872.0,389.4 877.6,392.4 883.2,395.3 888.8,398.3 894.4,401.3 900.0,404.4 905.6,407.4 911.2,410.5 916.8,413.6 922.4,416.7 928.0,419.9 933.6,423.1 939.2,426.2 944.8,429.5 950.4,432.7 956.0,435.9 961.6,439.2 967.2,442.5 972.8,445.8 978.4,449.2 984.0,452.6 989.6,455.9 995.2,459.4 1000.8,462.8 1006.4,466.2 1012.0,469.7 1017.6,473.2 1023.2,476.7 1028.8,480.3 1034.4,483.8 1040.0,487.4 1045.6,491.0 1051.2,494.7 1056.8,498.3 1062.4,502.0 1068.0,505.7 1073.6,509.4 1079.2,513.2 1084.8,516.9 1090.4,520.7 1096.0,524.5 1101.6,528.4 1107.2,532.2 1112.8,536.1 1118.4,540.0 1124.0,543.9 1129.6,547.9 1135.2,551.9 1140.8,555.8 1146.4,559.9 1152.0,563.9 1157.6,567.9 1163.2,572.0 1168.8,576.1 1174.4,580.3 1180.0,584.4 1185.6,588.6 1191.2,592.8 1196.8,597.0 1202.4,601.2 1208.0,605.5 1213.6,609.8 1219.2,614.1 1224.8,618.4 1230.4,622.7 1236.0,627.1"/>
<polyline fill="none" stroke="#0f766e" stroke-width="3" stroke-linejoin="round" stroke-linecap="round" points="116.0,191.9 121.6,191.9 127.2,192.0 132.8,192.0 138.4,192.1 144.0,192.1 149.6,192.2 155.2,192.3 160.8,192.4 166.4,192.6 172.0,192.7 177.6,192.9 183.2,193.1 188.8,193.3 194.4,193.5 200.0,193.7 205.6,194.0 211.2,194.3 216.8,194.5 222.4,194.8 228.0,195.1 233.6,195.5 239.2,195.8 244.8,196.2 250.4,196.6 256.0,197.0 261.6,197.4 267.2,197.8 272.8,198.2 278.4,198.7 284.0,199.2 289.6,199.7 295.2,200.2 300.8,200.7 306.4,201.2 312.0,201.8 317.6,202.4 323.2,203.0 328.8,203.6 334.4,204.2 340.0,204.8 345.6,205.5 351.2,206.2 356.8,206.8 362.4,207.5 368.0,208.3 373.6,209.0 379.2,209.7 384.8,210.5 390.4,211.3 396.0,212.1 401.6,212.9 407.2,213.7 412.8,214.6 418.4,215.4 424.0,216.3 429.6,217.2 435.2,218.1 440.8,219.1 446.4,220.0 452.0,221.0 457.6,221.9 463.2,222.9 468.8,223.9 474.4,225.0 480.0,226.0 485.6,227.1 491.2,228.1 496.8,229.2 502.4,230.3 508.0,231.5 513.6,232.6 519.2,233.8 524.8,234.9 530.4,236.1 536.0,237.3 541.6,238.5 547.2,239.8 552.8,241.0 558.4,242.3 564.0,243.6 569.6,244.9 575.2,246.2 580.8,247.5 586.4,248.9 592.0,250.2 597.6,251.6 603.2,253.0 608.8,254.4 614.4,255.9 620.0,257.3 625.6,258.8 631.2,260.2 636.8,261.7 642.4,263.2 648.0,264.8 653.6,266.3 659.2,267.9 664.8,269.5 670.4,271.0 676.0,272.7 681.6,274.3 687.2,275.9 692.8,277.6 698.4,279.2 704.0,280.9 709.6,282.6 715.2,284.4 720.8,286.1 726.4,287.9 732.0,289.6 737.6,291.4 743.2,293.2 748.8,295.0 754.4,296.9 760.0,298.7 765.6,300.6 771.2,302.5 776.8,304.4 782.4,306.3 788.0,308.2 793.6,310.2 799.2,312.1 804.8,314.1 810.4,316.1 816.0,318.1 821.6,320.2 827.2,322.2 832.8,324.3 838.4,326.4 844.0,328.4 849.6,330.6 855.2,332.7 860.8,334.8 866.4,337.0 872.0,339.2 877.6,341.4 883.2,343.6 888.8,345.8 894.4,348.0 900.0,350.3 905.6,352.6 911.2,354.9 916.8,357.2 922.4,359.5 928.0,361.8 933.6,364.2 939.2,366.6 944.8,369.0 950.4,371.4 956.0,373.8 961.6,376.2 967.2,378.7 972.8,381.1 978.4,383.6 984.0,386.1 989.6,388.7 995.2,391.2 1000.8,393.7 1006.4,396.3 1012.0,398.9 1017.6,401.5 1023.2,404.1 1028.8,406.8 1034.4,409.4 1040.0,412.1 1045.6,414.8 1051.2,417.5 1056.8,420.2 1062.4,422.9 1068.0,425.7 1073.6,428.4 1079.2,431.2 1084.8,434.0 1090.4,436.8 1096.0,439.7 1101.6,442.5 1107.2,445.4 1112.8,448.2 1118.4,451.1 1124.0,454.1 1129.6,457.0 1135.2,459.9 1140.8,462.9 1146.4,465.9 1152.0,468.9 1157.6,471.9 1163.2,474.9 1168.8,478.0 1174.4,481.0 1180.0,484.1 1185.6,487.2 1191.2,490.3 1196.8,493.4 1202.4,496.6 1208.0,499.7 1213.6,502.9 1219.2,506.1 1224.8,509.3 1230.4,512.5 1236.0,515.8"/>
<polyline fill="none" stroke="#b45309" stroke-width="3" stroke-linejoin="round" stroke-linecap="round" points="116.0,191.9 121.6,191.9 127.2,192.0 132.8,192.0 138.4,192.1 144.0,192.1 149.6,192.2 155.2,192.3 160.8,192.5 166.4,192.6 172.0,192.8 177.6,192.9 183.2,193.1 188.8,193.3 194.4,193.6 200.0,193.8 205.6,194.1 211.2,194.3 216.8,194.6 222.4,194.9 228.0,195.2 233.6,195.6 239.2,195.9 244.8,196.3 250.4,196.7 256.0,197.1 261.6,197.5 267.2,198.0 272.8,198.4 278.4,198.9 284.0,199.4 289.6,199.9 295.2,200.4 300.8,201.0 306.4,201.5 312.0,202.1 317.6,202.7 323.2,203.3 328.8,203.9 334.4,204.6 340.0,205.2 345.6,205.9 351.2,206.6 356.8,207.3 362.4,208.0 368.0,208.8 373.6,209.5 379.2,210.3 384.8,211.1 390.4,211.9 396.0,212.7 401.6,213.5 407.2,214.4 412.8,215.3 418.4,216.2 424.0,217.1 429.6,218.0 435.2,218.9 440.8,219.9 446.4,220.9 452.0,221.9 457.6,222.9 463.2,223.9 468.8,224.9 474.4,226.0 480.0,227.0 485.6,228.1 491.2,229.2 496.8,230.4 502.4,231.5 508.0,232.7 513.6,233.8 519.2,235.0 524.8,236.2 530.4,237.5 536.0,238.7 541.6,239.9 547.2,241.2 552.8,242.5 558.4,243.8 564.0,245.1 569.6,246.5 575.2,247.8 580.8,249.2 586.4,250.6 592.0,252.0 597.6,253.4 603.2,254.9 608.8,256.3 614.4,257.8 620.0,259.3 625.6,260.8 631.2,262.3 636.8,263.9 642.4,265.4 648.0,267.0 653.6,268.6 659.2,270.2 664.8,271.8 670.4,273.4 676.0,275.1 681.6,276.8 687.2,278.5 692.8,280.2 698.4,281.9 704.0,283.6 709.6,285.4 715.2,287.2 720.8,289.0 726.4,290.8 732.0,292.6 737.6,294.4 743.2,296.3 748.8,298.2 754.4,300.1 760.0,302.0 765.6,303.9 771.2,305.8 776.8,307.8 782.4,309.8 788.0,311.8 793.6,313.8 799.2,315.8 804.8,317.8 810.4,319.9 816.0,322.0 821.6,324.1 827.2,326.2 832.8,328.3 838.4,330.4 844.0,332.6 849.6,334.8 855.2,337.0 860.8,339.2 866.4,341.4 872.0,343.6 877.6,345.9 883.2,348.2 888.8,350.5 894.4,352.8 900.0,355.1 905.6,357.5 911.2,359.8 916.8,362.2 922.4,364.6 928.0,367.0 933.6,369.4 939.2,371.9 944.8,374.3 950.4,376.8 956.0,379.3 961.6,381.8 967.2,384.3 972.8,386.9 978.4,389.5 984.0,392.0 989.6,394.6 995.2,397.2 1000.8,399.9 1006.4,402.5 1012.0,405.2 1017.6,407.9 1023.2,410.6 1028.8,413.3 1034.4,416.0 1040.0,418.8 1045.6,421.5 1051.2,424.3 1056.8,427.1 1062.4,429.9 1068.0,432.8 1073.6,435.6 1079.2,438.5 1084.8,441.4 1090.4,444.3 1096.0,447.2 1101.6,450.1 1107.2,453.1 1112.8,456.0 1118.4,459.0 1124.0,462.0 1129.6,465.0 1135.2,468.1 1140.8,471.1 1146.4,474.2 1152.0,477.3 1157.6,480.4 1163.2,483.5 1168.8,486.6 1174.4,489.8 1180.0,493.0 1185.6,496.2 1191.2,499.4 1196.8,502.6 1202.4,505.8 1208.0,509.1 1213.6,512.3 1219.2,515.6 1224.8,518.9 1230.4,522.3 1236.0,525.6"/>
<polyline fill="none" stroke="#8b5cf6" stroke-width="3" stroke-linejoin="round" stroke-linecap="round" points="116.0,191.9 121.6,191.9 127.2,191.9 132.8,191.9 138.4,191.9 144.0,191.9 149.6,191.9 155.2,191.9 160.8,191.9 166.4,191.9 172.0,191.9 177.6,191.9 183.2,191.9 188.8,191.9 194.4,191.9 200.0,191.9 205.6,191.9 211.2,191.9 216.8,191.9 222.4,191.9 228.0,191.9 233.6,191.9 239.2,191.8 244.8,191.8 250.4,191.8 256.0,191.8 261.6,191.8 267.2,191.8 272.8,191.8 278.4,191.8 284.0,191.8 289.6,191.8 295.2,191.8 300.8,191.8 306.4,191.8 312.0,191.7 317.6,191.7 323.2,191.7 328.8,191.7 334.4,191.7 340.0,191.7 345.6,191.7 351.2,191.7 356.8,191.7 362.4,191.6 368.0,191.6 373.6,191.6 379.2,191.6 384.8,191.6 390.4,191.6 396.0,191.6 401.6,191.6 407.2,191.6 412.8,191.5 418.4,191.5 424.0,191.5 429.6,191.5 435.2,191.5 440.8,191.5 446.4,191.5 452.0,191.4 457.6,191.4 463.2,191.4 468.8,191.4 474.4,191.4 480.0,191.4 485.6,191.4 491.2,191.4 496.8,191.3 502.4,191.3 508.0,191.3 513.6,191.3 519.2,191.3 524.8,191.3 530.4,191.3 536.0,191.3 541.6,191.2 547.2,191.2 552.8,191.2 558.4,191.2 564.0,191.2 569.6,191.2 575.2,191.2 580.8,191.2 586.4,191.1 592.0,191.1 597.6,191.1 603.2,191.1 608.8,191.1 614.4,191.1 620.0,191.1 625.6,191.1 631.2,191.1 636.8,191.1 642.4,191.0 648.0,191.0 653.6,191.0 659.2,191.0 664.8,191.0 670.4,191.0 676.0,191.0 681.6,191.0 687.2,191.0 692.8,191.0 698.4,191.0 704.0,191.0 709.6,191.0 715.2,191.0 720.8,191.0 726.4,191.0 732.0,191.0 737.6,191.0 743.2,191.0 748.8,191.0 754.4,191.0 760.0,191.0 765.6,191.0 771.2,191.0 776.8,191.0 782.4,191.0 788.0,191.0 793.6,191.0 799.2,191.0 804.8,191.0 810.4,191.0 816.0,191.0 821.6,191.1 827.2,191.1 832.8,191.1 838.4,191.1 844.0,191.1 849.6,191.1 855.2,191.1 860.8,191.2 866.4,191.2 872.0,191.2 877.6,191.2 883.2,191.2 888.8,191.3 894.4,191.3 900.0,191.3 905.6,191.3 911.2,191.4 916.8,191.4 922.4,191.4 928.0,191.4 933.6,191.5 939.2,191.5 944.8,191.5 950.4,191.6 956.0,191.6 961.6,191.6 967.2,191.7 972.8,191.7 978.4,191.8 984.0,191.8 989.6,191.9 995.2,191.9 1000.8,191.9 1006.4,192.0 1012.0,192.0 1017.6,192.1 1023.2,192.2 1028.8,192.2 1034.4,192.3 1040.0,192.3 1045.6,192.4 1051.2,192.4 1056.8,192.5 1062.4,192.6 1068.0,192.6 1073.6,192.7 1079.2,192.8 1084.8,192.9 1090.4,192.9 1096.0,193.0 1101.6,193.1 1107.2,193.2 1112.8,193.2 1118.4,193.3 1124.0,193.4 1129.6,193.5 1135.2,193.6 1140.8,193.7 1146.4,193.8 1152.0,193.9 1157.6,194.0 1163.2,194.1 1168.8,194.2 1174.4,194.3 1180.0,194.4 1185.6,194.5 1191.2,194.6 1196.8,194.7 1202.4,194.8 1208.0,194.9 1213.6,195.1 1219.2,195.2 1224.8,195.3 1230.4,195.4 1236.0,195.6"/>
</g>
<text x="676.0" y="766.0" fill="#374151" font-size="16" font-family="Inter, Arial, sans-serif" text-anchor="middle" font-weight="normal">fractional bin offset</text>
<text x="36.0" y="431.0" fill="#374151" font-size="16" font-family="Inter, Arial, sans-serif" text-anchor="middle" transform="rotate(-90 36 431.0)">coherent-gain-normalized response (dB)</text>
</svg>