<svg xmlns="http://www.w3.org/2000/svg" width="1400" height="1180" viewBox="0 0 1400 1180">
<defs>
<clipPath id="stacked-panel-0"><rect x="116.0" y="213.0" width="1224.0" height="215.0" rx="10"/></clipPath>
<clipPath id="stacked-panel-1"><rect x="116.0" y="522.0" width="1224.0" height="215.0" rx="10"/></clipPath>
<clipPath id="stacked-panel-2"><rect x="116.0" y="831.0" width="1224.0" height="215.0" rx="10"/></clipPath>
</defs>
<rect width="1400" height="1180" fill="#fcfcfd"/>
<text x="700.0" y="40.0" fill="#222" font-size="28" font-family="Inter, Arial, sans-serif" text-anchor="middle" font-weight="700"><tspan x="700.0" dy="0.0" text-anchor="middle">Raw overlap flatness is not the same as the synthesis-normalization rule</tspan></text>
<text x="700.0" y="75.0" fill="#4b5563" font-size="16" font-family="Inter, Arial, sans-serif" text-anchor="middle" font-weight="normal"><tspan x="700.0" dy="0.0" text-anchor="middle">Quarter-hop framing is the revealing middle case: raw overlap can look calm while weighted overlap still forces phase-dependent</tspan><tspan x="700.0" dy="20.0" text-anchor="middle">reconstruction gain.</tspan></text>
<line x1="361.4" y1="123.0" x2="385.4" y2="123.0" stroke="#ff7f0e" stroke-width="4"/>
<text x="393.4" y="128.0" fill="#111827" font-size="14" font-family="Inter, Arial, sans-serif" text-anchor="start" font-weight="normal">Hann</text>
<line x1="457.8" y1="123.0" x2="481.8" y2="123.0" stroke="#d62728" stroke-width="4"/>
<text x="489.8" y="128.0" fill="#111827" font-size="14" font-family="Inter, Arial, sans-serif" text-anchor="start" font-weight="normal">Blackman</text>
<line x1="586.8" y1="123.0" x2="610.8" y2="123.0" stroke="#0f766e" stroke-width="4"/>
<text x="618.8" y="128.0" fill="#111827" font-size="14" font-family="Inter, Arial, sans-serif" text-anchor="start" font-weight="normal">Blackman-Harris</text>
<line x1="772.6" y1="123.0" x2="796.6" y2="123.0" stroke="#8b5cf6" stroke-width="4"/>
<text x="804.6" y="128.0" fill="#111827" font-size="14" font-family="Inter, Arial, sans-serif" text-anchor="start" font-weight="normal">Flat-top</text>
<line x1="901.6" y1="123.0" x2="925.6" y2="123.0" stroke="#6b7280" stroke-width="4" stroke-dasharray="7 7"/>
<text x="933.6" y="128.0" fill="#111827" font-size="14" font-family="Inter, Arial, sans-serif" text-anchor="start" font-weight="normal">ideal = 1</text>
<rect x="96.0" y="173.0" width="1260.0" height="271.0" fill="#ffffff" stroke="#e5e7eb" rx="14"/>
<text x="114.0" y="201.0" fill="#111827" font-size="17" font-family="Inter, Arial, sans-serif" text-anchor="start" font-weight="700"><tspan x="114.0" dy="0.0" text-anchor="start">Quarter-hop raw overlap sum (H = 32)</tspan></text>
<text x="1346.0" y="201.0" fill="#6b7280" font-size="13" font-family="Inter, Arial, sans-serif" text-anchor="end" font-weight="normal">normalized raw sum</text>
<line x1="116.0" y1="428.0" x2="1340.0" y2="428.0" stroke="#e5e7eb" stroke-width="1" stroke-dasharray="4 6"/>
<text x="112.0" y="433.0" fill="#6b7280" font-size="12" font-family="Inter, Arial, sans-serif" text-anchor="end" font-weight="normal">0.96</text>
<line x1="116.0" y1="374.3" x2="1340.0" y2="374.3" stroke="#e5e7eb" stroke-width="1" stroke-dasharray="4 6"/>
<text x="112.0" y="379.3" fill="#6b7280" font-size="12" font-family="Inter, Arial, sans-serif" text-anchor="end" font-weight="normal">0.98</text>
<line x1="116.0" y1="320.5" x2="1340.0" y2="320.5" stroke="#e5e7eb" stroke-width="1" stroke-dasharray="4 6"/>
<text x="112.0" y="325.5" fill="#6b7280" font-size="12" font-family="Inter, Arial, sans-serif" text-anchor="end" font-weight="normal">1.00</text>
<line x1="116.0" y1="266.7" x2="1340.0" y2="266.7" stroke="#e5e7eb" stroke-width="1" stroke-dasharray="4 6"/>
<text x="112.0" y="271.7" fill="#6b7280" font-size="12" font-family="Inter, Arial, sans-serif" text-anchor="end" font-weight="normal">1.02</text>
<line x1="116.0" y1="213.0" x2="1340.0" y2="213.0" stroke="#e5e7eb" stroke-width="1" stroke-dasharray="4 6"/>
<text x="112.0" y="218.0" fill="#6b7280" font-size="12" font-family="Inter, Arial, sans-serif" text-anchor="end" font-weight="normal">1.04</text>
<line x1="96.0" y1="213.0" x2="96.0" y2="428.0" stroke="#eef1f5" stroke-width="1" stroke-dasharray="4 6"/>
<text x="96.0" y="466.0" fill="#6b7280" font-size="12" font-family="Inter, Arial, sans-serif" text-anchor="middle" font-weight="normal">0.00</text>
<line x1="276.0" y1="213.0" x2="276.0" y2="428.0" stroke="#eef1f5" stroke-width="1" stroke-dasharray="4 6"/>
<text x="276.0" y="466.0" fill="#6b7280" font-size="12" font-family="Inter, Arial, sans-serif" text-anchor="middle" font-weight="normal">0.14</text>
<line x1="456.0" y1="213.0" x2="456.0" y2="428.0" stroke="#eef1f5" stroke-width="1" stroke-dasharray="4 6"/>
<text x="456.0" y="466.0" fill="#6b7280" font-size="12" font-family="Inter, Arial, sans-serif" text-anchor="middle" font-weight="normal">0.29</text>
<line x1="636.0" y1="213.0" x2="636.0" y2="428.0" stroke="#eef1f5" stroke-width="1" stroke-dasharray="4 6"/>
<text x="636.0" y="466.0" fill="#6b7280" font-size="12" font-family="Inter, Arial, sans-serif" text-anchor="middle" font-weight="normal">0.43</text>
<line x1="816.0" y1="213.0" x2="816.0" y2="428.0" stroke="#eef1f5" stroke-width="1" stroke-dasharray="4 6"/>
<text x="816.0" y="466.0" fill="#6b7280" font-size="12" font-family="Inter, Arial, sans-serif" text-anchor="middle" font-weight="normal">0.57</text>
<line x1="996.0" y1="213.0" x2="996.0" y2="428.0" stroke="#eef1f5" stroke-width="1" stroke-dasharray="4 6"/>
<text x="996.0" y="466.0" fill="#6b7280" font-size="12" font-family="Inter, Arial, sans-serif" text-anchor="middle" font-weight="normal">0.71</text>
<line x1="1176.0" y1="213.0" x2="1176.0" y2="428.0" stroke="#eef1f5" stroke-width="1" stroke-dasharray="4 6"/>
<text x="1176.0" y="466.0" fill="#6b7280" font-size="12" font-family="Inter, Arial, sans-serif" text-anchor="middle" font-weight="normal">0.86</text>
<line x1="1356.0" y1="213.0" x2="1356.0" y2="428.0" stroke="#eef1f5" stroke-width="1" stroke-dasharray="4 6"/>
<text x="1356.0" y="466.0" fill="#6b7280" font-size="12" font-family="Inter, Arial, sans-serif" text-anchor="middle" font-weight="normal">1.00</text>
<g clip-path="url(#stacked-panel-0)">
<line x1="116.0" y1="322.2" x2="1340.0" y2="322.2" stroke="#6b7280" stroke-width="2" stroke-dasharray="7 7"/>
<polyline fill="none" stroke="#ff7f0e" stroke-width="3" stroke-linejoin="round" stroke-linecap="round" points="96.0,318.2 136.6,318.9 177.3,319.6 217.9,320.3 258.6,320.9 299.2,321.5 339.9,322.0 380.5,322.5 421.2,322.9 461.8,323.3 502.5,323.6 543.1,323.9 583.7,324.1 624.4,324.3 665.0,324.4 705.7,324.4 746.3,324.4 787.0,324.4 827.6,324.3 868.3,324.1 908.9,323.9 949.5,323.6 990.2,323.3 1030.8,322.9 1071.5,322.5 1112.1,322.0 1152.8,321.5 1193.4,320.9 1234.1,320.3 1274.7,319.6 1315.4,318.9 1356.0,318.2"/>
<polyline fill="none" stroke="#d62728" stroke-width="3" stroke-linejoin="round" stroke-linecap="round" points="96.0,321.0 136.6,321.3 177.3,321.6 217.9,321.8 258.6,322.0 299.2,322.1 339.9,322.2 380.5,322.3 421.2,322.4 461.8,322.5 502.5,322.5 543.1,322.6 583.7,322.6 624.4,322.6 665.0,322.6 705.7,322.6 746.3,322.6 787.0,322.6 827.6,322.6 868.3,322.6 908.9,322.6 949.5,322.5 990.2,322.5 1030.8,322.4 1071.5,322.3 1112.1,322.2 1152.8,322.1 1193.4,322.0 1234.1,321.8 1274.7,321.6 1315.4,321.3 1356.0,321.0"/>
<polyline fill="none" stroke="#0f766e" stroke-width="3" stroke-linejoin="round" stroke-linecap="round" points="96.0,322.0 136.6,322.1 177.3,322.1 217.9,322.1 258.6,322.2 299.2,322.2 339.9,322.2 380.5,322.2 421.2,322.2 461.8,322.2 502.5,322.2 543.1,322.2 583.7,322.2 624.4,322.2 665.0,322.2 705.7,322.2 746.3,322.2 787.0,322.2 827.6,322.2 868.3,322.2 908.9,322.2 949.5,322.2 990.2,322.2 1030.8,322.2 1071.5,322.2 1112.1,322.2 1152.8,322.2 1193.4,322.2 1234.1,322.1 1274.7,322.1 1315.4,322.1 1356.0,322.0"/>
<polyline fill="none" stroke="#8b5cf6" stroke-width="3" stroke-linejoin="round" stroke-linecap="round" points="96.0,231.2 136.6,234.6 177.3,241.4 217.9,251.3 258.6,264.0 299.2,278.9 339.9,295.5 380.5,313.1 421.2,331.1 461.8,348.7 502.5,365.4 543.1,380.3 583.7,393.0 624.4,403.0 665.0,409.9 705.7,413.4 746.3,413.4 787.0,409.9 827.6,403.0 868.3,393.0 908.9,380.3 949.5,365.4 990.2,348.7 1030.8,331.1 1071.5,313.1 1112.1,295.5 1152.8,278.9 1193.4,264.0 1234.1,251.3 1274.7,241.4 1315.4,234.6 1356.0,231.2"/>
</g>
<text x="1334.0" y="316.2" fill="#6b7280" font-size="12" font-family="Inter, Arial, sans-serif" text-anchor="end" font-weight="700">ideal = 1</text>
<rect x="96.0" y="482.0" width="1260.0" height="271.0" fill="#ffffff" stroke="#e5e7eb" rx="14"/>
<text x="114.0" y="510.0" fill="#111827" font-size="17" font-family="Inter, Arial, sans-serif" text-anchor="start" font-weight="700"><tspan x="114.0" dy="0.0" text-anchor="start">Weighted overlap sum</tspan></text>
<text x="1346.0" y="510.0" fill="#6b7280" font-size="13" font-family="Inter, Arial, sans-serif" text-anchor="end" font-weight="normal">normalized squared sum</text>
<line x1="116.0" y1="737.0" x2="1340.0" y2="737.0" stroke="#e5e7eb" stroke-width="1" stroke-dasharray="4 6"/>
<text x="112.0" y="742.0" fill="#6b7280" font-size="12" font-family="Inter, Arial, sans-serif" text-anchor="end" font-weight="normal">0.47</text>
<line x1="116.0" y1="683.2" x2="1340.0" y2="683.2" stroke="#e5e7eb" stroke-width="1" stroke-dasharray="4 6"/>
<text x="112.0" y="688.2" fill="#6b7280" font-size="12" font-family="Inter, Arial, sans-serif" text-anchor="end" font-weight="normal">0.74</text>
<line x1="116.0" y1="629.5" x2="1340.0" y2="629.5" stroke="#e5e7eb" stroke-width="1" stroke-dasharray="4 6"/>
<text x="112.0" y="634.5" fill="#6b7280" font-size="12" font-family="Inter, Arial, sans-serif" text-anchor="end" font-weight="normal">1.01</text>
<line x1="116.0" y1="575.8" x2="1340.0" y2="575.8" stroke="#e5e7eb" stroke-width="1" stroke-dasharray="4 6"/>
<text x="112.0" y="580.8" fill="#6b7280" font-size="12" font-family="Inter, Arial, sans-serif" text-anchor="end" font-weight="normal">1.28</text>
<line x1="116.0" y1="522.0" x2="1340.0" y2="522.0" stroke="#e5e7eb" stroke-width="1" stroke-dasharray="4 6"/>
<text x="112.0" y="527.0" fill="#6b7280" font-size="12" font-family="Inter, Arial, sans-serif" text-anchor="end" font-weight="normal">1.55</text>
<line x1="96.0" y1="522.0" x2="96.0" y2="737.0" stroke="#eef1f5" stroke-width="1" stroke-dasharray="4 6"/>
<text x="96.0" y="775.0" fill="#6b7280" font-size="12" font-family="Inter, Arial, sans-serif" text-anchor="middle" font-weight="normal">0.00</text>
<line x1="276.0" y1="522.0" x2="276.0" y2="737.0" stroke="#eef1f5" stroke-width="1" stroke-dasharray="4 6"/>
<text x="276.0" y="775.0" fill="#6b7280" font-size="12" font-family="Inter, Arial, sans-serif" text-anchor="middle" font-weight="normal">0.14</text>
<line x1="456.0" y1="522.0" x2="456.0" y2="737.0" stroke="#eef1f5" stroke-width="1" stroke-dasharray="4 6"/>
<text x="456.0" y="775.0" fill="#6b7280" font-size="12" font-family="Inter, Arial, sans-serif" text-anchor="middle" font-weight="normal">0.29</text>
<line x1="636.0" y1="522.0" x2="636.0" y2="737.0" stroke="#eef1f5" stroke-width="1" stroke-dasharray="4 6"/>
<text x="636.0" y="775.0" fill="#6b7280" font-size="12" font-family="Inter, Arial, sans-serif" text-anchor="middle" font-weight="normal">0.43</text>
<line x1="816.0" y1="522.0" x2="816.0" y2="737.0" stroke="#eef1f5" stroke-width="1" stroke-dasharray="4 6"/>
<text x="816.0" y="775.0" fill="#6b7280" font-size="12" font-family="Inter, Arial, sans-serif" text-anchor="middle" font-weight="normal">0.57</text>
<line x1="996.0" y1="522.0" x2="996.0" y2="737.0" stroke="#eef1f5" stroke-width="1" stroke-dasharray="4 6"/>
<text x="996.0" y="775.0" fill="#6b7280" font-size="12" font-family="Inter, Arial, sans-serif" text-anchor="middle" font-weight="normal">0.71</text>
<line x1="1176.0" y1="522.0" x2="1176.0" y2="737.0" stroke="#eef1f5" stroke-width="1" stroke-dasharray="4 6"/>
<text x="1176.0" y="775.0" fill="#6b7280" font-size="12" font-family="Inter, Arial, sans-serif" text-anchor="middle" font-weight="normal">0.86</text>
<line x1="1356.0" y1="522.0" x2="1356.0" y2="737.0" stroke="#eef1f5" stroke-width="1" stroke-dasharray="4 6"/>
<text x="1356.0" y="775.0" fill="#6b7280" font-size="12" font-family="Inter, Arial, sans-serif" text-anchor="middle" font-weight="normal">1.00</text>
<g clip-path="url(#stacked-panel-1)">
<line x1="116.0" y1="631.3" x2="1340.0" y2="631.3" stroke="#6b7280" stroke-width="2" stroke-dasharray="7 7"/>
<polyline fill="none" stroke="#ff7f0e" stroke-width="3" stroke-linejoin="round" stroke-linecap="round" points="96.0,631.4 136.6,631.4 177.3,631.4 217.9,631.4 258.6,631.3 299.2,631.3 339.9,631.3 380.5,631.3 421.2,631.3 461.8,631.3 502.5,631.3 543.1,631.3 583.7,631.2 624.4,631.2 665.0,631.2 705.7,631.2 746.3,631.2 787.0,631.2 827.6,631.2 868.3,631.2 908.9,631.3 949.5,631.3 990.2,631.3 1030.8,631.3 1071.5,631.3 1112.1,631.3 1152.8,631.3 1193.4,631.3 1234.1,631.4 1274.7,631.4 1315.4,631.4 1356.0,631.4"/>
<polyline fill="none" stroke="#d62728" stroke-width="3" stroke-linejoin="round" stroke-linecap="round" points="96.0,629.0 136.6,629.1 177.3,629.3 217.9,629.5 258.6,629.8 299.2,630.2 339.9,630.6 380.5,631.1 421.2,631.5 461.8,632.0 502.5,632.4 543.1,632.8 583.7,633.1 624.4,633.3 665.0,633.5 705.7,633.6 746.3,633.6 787.0,633.5 827.6,633.3 868.3,633.1 908.9,632.8 949.5,632.4 990.2,632.0 1030.8,631.5 1071.5,631.1 1112.1,630.6 1152.8,630.2 1193.4,629.8 1234.1,629.5 1274.7,629.3 1315.4,629.1 1356.0,629.0"/>
<polyline fill="none" stroke="#0f766e" stroke-width="3" stroke-linejoin="round" stroke-linecap="round" points="96.0,618.6 136.6,619.1 177.3,620.0 217.9,621.4 258.6,623.2 299.2,625.3 339.9,627.6 380.5,630.0 421.2,632.5 461.8,635.0 502.5,637.3 543.1,639.4 583.7,641.2 624.4,642.6 665.0,643.5 705.7,644.0 746.3,644.0 787.0,643.5 827.6,642.6 868.3,641.2 908.9,639.4 949.5,637.3 990.2,635.0 1030.8,632.5 1071.5,630.0 1112.1,627.6 1152.8,625.3 1193.4,623.2 1234.1,621.4 1274.7,620.0 1315.4,619.1 1356.0,618.6"/>
<polyline fill="none" stroke="#8b5cf6" stroke-width="3" stroke-linejoin="round" stroke-linecap="round" points="96.0,543.1 136.6,546.5 177.3,553.2 217.9,562.8 258.6,575.1 299.2,589.6 339.9,605.6 380.5,622.7 421.2,640.0 461.8,657.0 502.5,673.1 543.1,687.5 583.7,699.7 624.4,709.4 665.0,716.0 705.7,719.4 746.3,719.4 787.0,716.0 827.6,709.4 868.3,699.7 908.9,687.5 949.5,673.1 990.2,657.0 1030.8,640.0 1071.5,622.7 1112.1,605.6 1152.8,589.6 1193.4,575.1 1234.1,562.8 1274.7,553.2 1315.4,546.5 1356.0,543.1"/>
</g>
<text x="1334.0" y="625.3" fill="#6b7280" font-size="12" font-family="Inter, Arial, sans-serif" text-anchor="end" font-weight="700">ideal = 1</text>
<rect x="96.0" y="791.0" width="1260.0" height="271.0" fill="#ffffff" stroke="#e5e7eb" rx="14"/>
<text x="114.0" y="819.0" fill="#111827" font-size="17" font-family="Inter, Arial, sans-serif" text-anchor="start" font-weight="700"><tspan x="114.0" dy="0.0" text-anchor="start">Implied synthesis gain swing</tspan></text>
<text x="1346.0" y="819.0" fill="#6b7280" font-size="13" font-family="Inter, Arial, sans-serif" text-anchor="end" font-weight="normal">relative synthesis gain</text>
<line x1="116.0" y1="1046.0" x2="1340.0" y2="1046.0" stroke="#e5e7eb" stroke-width="1" stroke-dasharray="4 6"/>
<text x="112.0" y="1051.0" fill="#6b7280" font-size="12" font-family="Inter, Arial, sans-serif" text-anchor="end" font-weight="normal">0.58</text>
<line x1="116.0" y1="992.2" x2="1340.0" y2="992.2" stroke="#e5e7eb" stroke-width="1" stroke-dasharray="4 6"/>
<text x="112.0" y="997.2" fill="#6b7280" font-size="12" font-family="Inter, Arial, sans-serif" text-anchor="end" font-weight="normal">0.92</text>
<line x1="116.0" y1="938.5" x2="1340.0" y2="938.5" stroke="#e5e7eb" stroke-width="1" stroke-dasharray="4 6"/>
<text x="112.0" y="943.5" fill="#6b7280" font-size="12" font-family="Inter, Arial, sans-serif" text-anchor="end" font-weight="normal">1.26</text>
<line x1="116.0" y1="884.8" x2="1340.0" y2="884.8" stroke="#e5e7eb" stroke-width="1" stroke-dasharray="4 6"/>
<text x="112.0" y="889.8" fill="#6b7280" font-size="12" font-family="Inter, Arial, sans-serif" text-anchor="end" font-weight="normal">1.60</text>
<line x1="116.0" y1="831.0" x2="1340.0" y2="831.0" stroke="#e5e7eb" stroke-width="1" stroke-dasharray="4 6"/>
<text x="112.0" y="836.0" fill="#6b7280" font-size="12" font-family="Inter, Arial, sans-serif" text-anchor="end" font-weight="normal">1.93</text>
<line x1="96.0" y1="831.0" x2="96.0" y2="1046.0" stroke="#eef1f5" stroke-width="1" stroke-dasharray="4 6"/>
<text x="96.0" y="1084.0" fill="#6b7280" font-size="12" font-family="Inter, Arial, sans-serif" text-anchor="middle" font-weight="normal">0.00</text>
<line x1="276.0" y1="831.0" x2="276.0" y2="1046.0" stroke="#eef1f5" stroke-width="1" stroke-dasharray="4 6"/>
<text x="276.0" y="1084.0" fill="#6b7280" font-size="12" font-family="Inter, Arial, sans-serif" text-anchor="middle" font-weight="normal">0.14</text>
<line x1="456.0" y1="831.0" x2="456.0" y2="1046.0" stroke="#eef1f5" stroke-width="1" stroke-dasharray="4 6"/>
<text x="456.0" y="1084.0" fill="#6b7280" font-size="12" font-family="Inter, Arial, sans-serif" text-anchor="middle" font-weight="normal">0.29</text>
<line x1="636.0" y1="831.0" x2="636.0" y2="1046.0" stroke="#eef1f5" stroke-width="1" stroke-dasharray="4 6"/>
<text x="636.0" y="1084.0" fill="#6b7280" font-size="12" font-family="Inter, Arial, sans-serif" text-anchor="middle" font-weight="normal">0.43</text>
<line x1="816.0" y1="831.0" x2="816.0" y2="1046.0" stroke="#eef1f5" stroke-width="1" stroke-dasharray="4 6"/>
<text x="816.0" y="1084.0" fill="#6b7280" font-size="12" font-family="Inter, Arial, sans-serif" text-anchor="middle" font-weight="normal">0.57</text>
<line x1="996.0" y1="831.0" x2="996.0" y2="1046.0" stroke="#eef1f5" stroke-width="1" stroke-dasharray="4 6"/>
<text x="996.0" y="1084.0" fill="#6b7280" font-size="12" font-family="Inter, Arial, sans-serif" text-anchor="middle" font-weight="normal">0.71</text>
<line x1="1176.0" y1="831.0" x2="1176.0" y2="1046.0" stroke="#eef1f5" stroke-width="1" stroke-dasharray="4 6"/>
<text x="1176.0" y="1084.0" fill="#6b7280" font-size="12" font-family="Inter, Arial, sans-serif" text-anchor="middle" font-weight="normal">0.86</text>
<line x1="1356.0" y1="831.0" x2="1356.0" y2="1046.0" stroke="#eef1f5" stroke-width="1" stroke-dasharray="4 6"/>
<text x="1356.0" y="1084.0" fill="#6b7280" font-size="12" font-family="Inter, Arial, sans-serif" text-anchor="middle" font-weight="normal">1.00</text>
<g clip-path="url(#stacked-panel-2)">
<line x1="116.0" y1="979.4" x2="1340.0" y2="979.4" stroke="#6b7280" stroke-width="2" stroke-dasharray="7 7"/>
<polyline fill="none" stroke="#ff7f0e" stroke-width="3" stroke-linejoin="round" stroke-linecap="round" points="96.0,979.4 136.6,979.4 177.3,979.4 217.9,979.4 258.6,979.4 299.2,979.4 339.9,979.4 380.5,979.4 421.2,979.4 461.8,979.5 502.5,979.5 543.1,979.5 583.7,979.5 624.4,979.5 665.0,979.5 705.7,979.5 746.3,979.5 787.0,979.5 827.6,979.5 868.3,979.5 908.9,979.5 949.5,979.5 990.2,979.5 1030.8,979.4 1071.5,979.4 1112.1,979.4 1152.8,979.4 1193.4,979.4 1234.1,979.4 1274.7,979.4 1315.4,979.4 1356.0,979.4"/>
<polyline fill="none" stroke="#d62728" stroke-width="3" stroke-linejoin="round" stroke-linecap="round" points="96.0,981.2 136.6,981.2 177.3,981.0 217.9,980.8 258.6,980.6 299.2,980.3 339.9,980.0 380.5,979.6 421.2,979.3 461.8,978.9 502.5,978.6 543.1,978.3 583.7,978.0 624.4,977.8 665.0,977.7 705.7,977.6 746.3,977.6 787.0,977.7 827.6,977.8 868.3,978.0 908.9,978.3 949.5,978.6 990.2,978.9 1030.8,979.3 1071.5,979.6 1112.1,980.0 1152.8,980.3 1193.4,980.6 1234.1,980.8 1274.7,981.0 1315.4,981.2 1356.0,981.2"/>
<polyline fill="none" stroke="#0f766e" stroke-width="3" stroke-linejoin="round" stroke-linecap="round" points="96.0,989.0 136.6,988.7 177.3,988.0 217.9,987.0 258.6,985.7 299.2,984.1 339.9,982.4 380.5,980.4 421.2,978.4 461.8,976.4 502.5,974.5 543.1,972.7 583.7,971.1 624.4,969.9 665.0,969.0 705.7,968.5 746.3,968.5 787.0,969.0 827.6,969.9 868.3,971.1 908.9,972.7 949.5,974.5 990.2,976.4 1030.8,978.4 1071.5,980.4 1112.1,982.4 1152.8,984.1 1193.4,985.7 1234.1,987.0 1274.7,988.0 1315.4,988.7 1356.0,989.0"/>
<polyline fill="none" stroke="#8b5cf6" stroke-width="3" stroke-linejoin="round" stroke-linecap="round" points="96.0,1028.4 136.6,1027.1 177.3,1024.4 217.9,1020.2 258.6,1014.5 299.2,1007.1 339.9,997.7 380.5,986.1 421.2,972.1 461.8,955.7 502.5,937.0 543.1,916.5 583.7,895.5 624.4,876.0 665.0,860.7 705.7,852.1 746.3,852.1 787.0,860.7 827.6,876.0 868.3,895.5 908.9,916.5 949.5,937.0 990.2,955.7 1030.8,972.1 1071.5,986.1 1112.1,997.7 1152.8,1007.1 1193.4,1014.5 1234.1,1020.2 1274.7,1024.4 1315.4,1027.1 1356.0,1028.4"/>
</g>
<text x="1334.0" y="973.4" fill="#6b7280" font-size="12" font-family="Inter, Arial, sans-serif" text-anchor="end" font-weight="700">ideal = 1</text>
<text x="726.0" y="1148.0" fill="#374151" font-size="16" font-family="Inter, Arial, sans-serif" text-anchor="middle" font-weight="normal">phase in one hop period</text>
</svg>