<svg xmlns="http://www.w3.org/2000/svg" width="1100" height="680" viewBox="0 0 1100 680">
<rect width="1100" height="680" fill="#fcfcfd"/>
<text x="550.0" y="38.0" fill="#222" font-size="28" font-family="Inter, Arial, sans-serif" text-anchor="middle" font-weight="700">Half-bin tone leakage near the peak</text>
<line x1="90.0" y1="70.0" x2="90.0" y2="590.0" stroke="#333" stroke-width="2"/>
<line x1="90.0" y1="590.0" x2="1060.0" y2="590.0" stroke="#333" stroke-width="2"/>
<line x1="90.0" y1="590.0" x2="1060.0" y2="590.0" stroke="#d9dde3" stroke-width="1" stroke-dasharray="4 6"/>
<text x="78.0" y="595.0" fill="#4b5563" font-size="13" font-family="Inter, Arial, sans-serif" text-anchor="end" font-weight="normal">-80.00</text>
<line x1="90.0" y1="486.0" x2="1060.0" y2="486.0" stroke="#d9dde3" stroke-width="1" stroke-dasharray="4 6"/>
<text x="78.0" y="491.0" fill="#4b5563" font-size="13" font-family="Inter, Arial, sans-serif" text-anchor="end" font-weight="normal">-63.60</text>
<line x1="90.0" y1="382.0" x2="1060.0" y2="382.0" stroke="#d9dde3" stroke-width="1" stroke-dasharray="4 6"/>
<text x="78.0" y="387.0" fill="#4b5563" font-size="13" font-family="Inter, Arial, sans-serif" text-anchor="end" font-weight="normal">-47.20</text>
<line x1="90.0" y1="278.0" x2="1060.0" y2="278.0" stroke="#d9dde3" stroke-width="1" stroke-dasharray="4 6"/>
<text x="78.0" y="283.0" fill="#4b5563" font-size="13" font-family="Inter, Arial, sans-serif" text-anchor="end" font-weight="normal">-30.80</text>
<line x1="90.0" y1="174.0" x2="1060.0" y2="174.0" stroke="#d9dde3" stroke-width="1" stroke-dasharray="4 6"/>
<text x="78.0" y="179.0" fill="#4b5563" font-size="13" font-family="Inter, Arial, sans-serif" text-anchor="end" font-weight="normal">-14.40</text>
<line x1="90.0" y1="70.0" x2="1060.0" y2="70.0" stroke="#d9dde3" stroke-width="1" stroke-dasharray="4 6"/>
<text x="78.0" y="75.0" fill="#4b5563" font-size="13" font-family="Inter, Arial, sans-serif" text-anchor="end" font-weight="normal">2.00</text>
<line x1="90.0" y1="70.0" x2="90.0" y2="590.0" stroke="#eef1f5" stroke-width="1" stroke-dasharray="4 6"/>
<text x="90.0" y="618.0" fill="#4b5563" font-size="13" font-family="Inter, Arial, sans-serif" text-anchor="middle" font-weight="normal">-4.00</text>
<line x1="284.0" y1="70.0" x2="284.0" y2="590.0" stroke="#eef1f5" stroke-width="1" stroke-dasharray="4 6"/>
<text x="284.0" y="618.0" fill="#4b5563" font-size="13" font-family="Inter, Arial, sans-serif" text-anchor="middle" font-weight="normal">-2.40</text>
<line x1="478.0" y1="70.0" x2="478.0" y2="590.0" stroke="#eef1f5" stroke-width="1" stroke-dasharray="4 6"/>
<text x="478.0" y="618.0" fill="#4b5563" font-size="13" font-family="Inter, Arial, sans-serif" text-anchor="middle" font-weight="normal">-0.80</text>
<line x1="672.0" y1="70.0" x2="672.0" y2="590.0" stroke="#eef1f5" stroke-width="1" stroke-dasharray="4 6"/>
<text x="672.0" y="618.0" fill="#4b5563" font-size="13" font-family="Inter, Arial, sans-serif" text-anchor="middle" font-weight="normal">0.80</text>
<line x1="866.0" y1="70.0" x2="866.0" y2="590.0" stroke="#eef1f5" stroke-width="1" stroke-dasharray="4 6"/>
<text x="866.0" y="618.0" fill="#4b5563" font-size="13" font-family="Inter, Arial, sans-serif" text-anchor="middle" font-weight="normal">2.40</text>
<line x1="1060.0" y1="70.0" x2="1060.0" y2="590.0" stroke="#eef1f5" stroke-width="1" stroke-dasharray="4 6"/>
<text x="1060.0" y="618.0" fill="#4b5563" font-size="13" font-family="Inter, Arial, sans-serif" text-anchor="middle" font-weight="normal">4.00</text>
<polyline fill="none" stroke="#1f77b4" stroke-width="3" points="90.4,475.8 94.2,343.8 98.0,308.0 101.8,286.6 105.7,271.4 109.5,259.8 113.3,250.5 117.1,242.9 120.9,236.6 124.8,231.4 128.6,227.0 132.4,223.4 136.2,220.4 140.0,218.1 143.8,216.4 147.7,215.2 151.5,214.6 155.3,214.5 159.1,214.9 162.9,215.9 166.8,217.5 170.6,219.7 174.4,222.7 178.2,226.4 182.0,231.1 185.9,237.0 189.7,244.3 193.5,253.5 197.3,265.6 201.1,282.1 204.9,307.2 208.8,357.7 212.6,391.4 216.4,316.5 220.2,285.7 224.0,266.1 227.9,251.8 231.7,240.7 235.5,231.7 239.3,224.3 243.1,218.1 247.0,212.9 250.8,208.6 254.6,204.9 258.4,202.0 262.2,199.6 266.0,197.9 269.9,196.6 273.7,195.9 277.5,195.7 281.3,196.1 285.1,197.0 289.0,198.6 292.8,200.7 296.6,203.7 300.4,207.4 304.2,212.1 308.0,218.1 311.9,225.5 315.7,235.1 319.5,247.8 323.3,265.6 327.1,294.0 331.0,361.7 334.8,339.2 338.6,284.4 342.4,257.1 346.2,238.8 350.1,225.1 353.9,214.2 357.7,205.3 361.5,197.9 365.3,191.6 369.1,186.3 373.0,181.7 376.8,177.9 380.6,174.7 384.4,172.0 388.2,170.0 392.1,168.4 395.9,167.4 399.7,166.8 403.5,166.8 407.3,167.4 411.2,168.6 415.0,170.4 418.8,172.9 422.6,176.2 426.4,180.6 430.2,186.3 434.1,193.5 437.9,203.0 441.7,216.0 445.5,234.9 449.3,267.3 453.2,376.1 457.0,281.0 460.8,236.4 464.6,211.1 468.4,193.2 472.3,179.2 476.1,167.8 479.9,158.1 483.7,149.7 487.5,142.3 491.3,135.7 495.2,129.8 499.0,124.5 502.8,119.7 506.6,115.3 510.4,111.3 514.3,107.7 518.1,104.3 521.9,101.3 525.7,98.6 529.5,96.1 533.3,93.8 537.2,91.8 541.0,90.0 544.8,88.4 548.6,87.0 552.4,85.9 556.3,84.9 560.1,84.1 563.9,83.4 567.7,83.0 571.5,82.8 575.4,82.7 579.2,82.8 583.0,83.1 586.8,83.5 590.6,84.2 594.4,85.0 598.3,86.1 602.1,87.3 605.9,88.7 609.7,90.3 613.5,92.2 617.4,94.2 621.2,96.5 625.0,99.1 628.8,101.9 632.6,104.9 636.5,108.3 640.3,112.0 644.1,116.1 647.9,120.6 651.7,125.5 655.5,130.9 659.4,136.9 663.2,143.6 667.0,151.2 670.8,159.8 674.6,169.8 678.5,181.6 682.3,196.2 686.1,215.1 689.9,242.6 693.7,295.0 697.6,333.0 701.4,259.4 705.2,230.7 709.0,213.2 712.8,201.0 716.6,192.0 720.5,185.1 724.3,179.7 728.1,175.6 731.9,172.3 735.7,170.0 739.6,168.3 743.4,167.3 747.2,166.8 751.0,166.9 754.8,167.5 758.7,168.6 762.5,170.3 766.3,172.5 770.1,175.2 773.9,178.5 777.7,182.5 781.6,187.2 785.4,192.7 789.2,199.2 793.0,206.9 796.8,216.1 800.7,227.4 804.5,241.7 808.3,261.2 812.1,291.3 815.9,360.0 819.7,341.0 823.6,287.4 827.4,261.7 831.2,245.1 835.0,233.1 838.8,224.0 842.7,216.8 846.5,211.2 850.3,206.6 854.1,203.1 857.9,200.3 861.8,198.2 865.6,196.8 869.4,196.0 873.2,195.7 877.0,196.0 880.8,196.8 884.7,198.1 888.5,200.0 892.3,202.5 896.1,205.6 899.9,209.3 903.8,213.8 907.6,219.2 911.4,225.6 915.2,233.2 919.0,242.6 922.9,254.2 926.7,269.2 930.5,290.3 934.3,324.8 938.1,433.5 941.9,343.9 945.8,301.5 949.6,278.5 953.4,263.0 957.2,251.6 961.0,242.8 964.9,235.8 968.7,230.2 972.5,225.7 976.3,222.1 980.1,219.3 984.0,217.2 987.8,215.7 991.6,214.8 995.4,214.4 999.2,214.7 1003.0,215.4 1006.9,216.7 1010.7,218.5 1014.5,220.9 1018.3,224.0 1022.1,227.7 1026.0,232.3 1029.8,237.7 1033.6,244.2 1037.4,252.1 1041.2,261.7 1045.1,273.9 1048.9,290.0 1052.7,313.1 1056.5,354.0"/>
<polyline fill="none" stroke="#ff7f0e" stroke-width="3" points="90.4,492.8 94.2,456.0 98.0,433.5 101.8,417.3 105.7,404.7 109.5,394.4 113.3,385.9 117.1,378.5 120.9,372.3 124.8,366.9 128.6,362.2 132.4,358.2 136.2,354.8 140.0,352.0 143.8,349.7 147.7,347.9 151.5,346.7 155.3,345.9 159.1,345.7 162.9,346.1 166.8,347.1 170.6,348.7 174.4,351.2 178.2,354.5 182.0,358.8 185.9,364.6 189.7,372.0 193.5,382.0 197.3,395.9 201.1,416.9 204.9,455.8 208.8,579.3 212.6,441.8 216.4,404.4 220.2,381.4 224.0,364.7 227.9,351.5 231.7,340.6 235.5,331.4 239.3,323.5 243.1,316.6 247.0,310.5 250.8,305.2 254.6,300.5 258.4,296.4 262.2,292.9 266.0,289.9 269.9,287.3 273.7,285.3 277.5,283.8 281.3,282.7 285.1,282.3 289.0,282.4 292.8,283.1 296.6,284.6 300.4,287.0 304.2,290.4 308.0,295.0 311.9,301.5 315.7,310.4 319.5,323.1 323.3,342.9 327.1,380.6 331.0,502.8 334.8,364.0 338.6,325.2 342.4,300.8 346.2,282.6 350.1,267.8 353.9,255.3 357.7,244.4 361.5,234.7 365.3,225.9 369.1,217.8 373.0,210.4 376.8,203.5 380.6,197.0 384.4,191.0 388.2,185.3 392.1,179.9 395.9,174.8 399.7,169.9 403.5,165.3 407.3,160.9 411.2,156.6 415.0,152.6 418.8,148.8 422.6,145.1 426.4,141.6 430.2,138.2 434.1,134.9 437.9,131.8 441.7,128.8 445.5,126.0 449.3,123.2 453.2,120.6 457.0,118.1 460.8,115.7 464.6,113.4 468.4,111.2 472.3,109.1 476.1,107.0 479.9,105.1 483.7,103.3 487.5,101.5 491.3,99.9 495.2,98.3 499.0,96.8 502.8,95.4 506.6,94.0 510.4,92.8 514.3,91.6 518.1,90.5 521.9,89.5 525.7,88.5 529.5,87.6 533.3,86.8 537.2,86.1 541.0,85.4 544.8,84.9 548.6,84.3 552.4,83.9 556.3,83.5 560.1,83.2 563.9,83.0 567.7,82.8 571.5,82.7 575.4,82.7 579.2,82.7 583.0,82.8 586.8,83.0 590.6,83.3 594.4,83.6 598.3,84.0 602.1,84.4 605.9,85.0 609.7,85.6 613.5,86.2 617.4,87.0 621.2,87.8 625.0,88.7 628.8,89.7 632.6,90.7 636.5,91.8 640.3,93.0 644.1,94.3 647.9,95.6 651.7,97.1 655.5,98.6 659.4,100.2 663.2,101.8 667.0,103.6 670.8,105.5 674.6,107.4 678.5,109.4 682.3,111.6 686.1,113.8 689.9,116.1 693.7,118.6 697.6,121.1 701.4,123.8 705.2,126.5 709.0,129.4 712.8,132.4 716.6,135.5 720.5,138.8 724.3,142.2 728.1,145.8 731.9,149.5 735.7,153.4 739.6,157.4 743.4,161.7 747.2,166.1 751.0,170.8 754.8,175.7 758.7,180.9 762.5,186.3 766.3,192.1 770.1,198.2 773.9,204.7 777.7,211.7 781.6,219.3 785.4,227.4 789.2,236.4 793.0,246.3 796.8,257.5 800.7,270.4 804.5,285.6 808.3,304.7 812.1,330.9 815.9,374.8 819.7,503.4 823.6,370.9 827.4,338.4 831.2,320.4 835.0,308.5 838.8,300.1 842.7,294.1 846.5,289.6 850.3,286.5 854.1,284.3 857.9,282.9 861.8,282.3 865.6,282.3 869.4,282.9 873.2,284.0 877.0,285.6 880.8,287.8 884.7,290.4 888.5,293.5 892.3,297.2 896.1,301.3 899.9,306.1 903.8,311.6 907.6,317.8 911.4,324.9 915.2,333.0 919.0,342.5 922.9,353.7 926.7,367.5 930.5,385.1 934.3,409.8 938.1,452.4 941.9,579.6 945.8,445.9 949.6,412.2 953.4,392.9 957.2,379.9 961.0,370.5 964.9,363.4 968.7,357.9 972.5,353.8 976.3,350.6 980.1,348.4 984.0,346.8 987.8,346.0 991.6,345.7 995.4,346.0 999.2,346.9 1003.0,348.2 1006.9,350.1 1010.7,352.5 1014.5,355.4 1018.3,358.9 1022.1,363.0 1026.0,367.8 1029.8,373.4 1033.6,379.8 1037.4,387.3 1041.2,396.2 1045.1,406.9 1048.9,420.0 1052.7,437.1 1056.5,461.3"/>
<polyline fill="none" stroke="#2ca02c" stroke-width="3" points="90.4,516.8 94.2,523.7 98.0,461.2 101.8,433.2 105.7,415.2 109.5,402.2 113.3,392.3 117.1,384.4 120.9,378.1 124.8,373.0 128.6,368.9 132.4,365.7 136.2,363.2 140.0,361.4 143.8,360.2 147.7,359.7 151.5,359.7 155.3,360.2 159.1,361.4 162.9,363.1 166.8,365.4 170.6,368.4 174.4,372.0 178.2,376.3 182.0,381.4 185.9,387.4 189.7,394.5 193.5,402.7 197.3,412.5 201.1,424.3 204.9,438.7 208.8,457.1 212.6,482.3 216.4,523.2 220.2,695.2 224.0,539.2 227.9,506.3 231.7,491.7 235.5,485.7 239.3,486.1 243.1,493.1 247.0,510.2 250.8,552.4 254.6,589.9 258.4,505.5 262.2,469.9 266.0,446.4 269.9,428.8 273.7,414.9 277.5,403.6 281.3,394.3 285.1,386.7 289.0,380.7 292.8,375.9 296.6,372.6 300.4,370.7 304.2,370.4 308.0,372.0 311.9,375.9 315.7,383.3 319.5,396.2 323.3,420.7 327.1,491.5 331.0,446.4 334.8,390.6 338.6,359.4 342.4,336.7 346.2,318.5 350.1,303.1 353.9,289.6 357.7,277.5 361.5,266.6 365.3,256.5 369.1,247.2 373.0,238.5 376.8,230.4 380.6,222.7 384.4,215.5 388.2,208.7 392.1,202.2 395.9,196.0 399.7,190.1 403.5,184.4 407.3,179.1 411.2,173.9 415.0,169.0 418.8,164.3 422.6,159.8 426.4,155.4 430.2,151.3 434.1,147.3 437.9,143.4 441.7,139.8 445.5,136.2 449.3,132.9 453.2,129.6 457.0,126.5 460.8,123.5 464.6,120.7 468.4,117.9 472.3,115.3 476.1,112.8 479.9,110.4 483.7,108.2 487.5,106.0 491.3,103.9 495.2,102.0 499.0,100.1 502.8,98.4 506.6,96.7 510.4,95.2 514.3,93.7 518.1,92.4 521.9,91.1 525.7,89.9 529.5,88.8 533.3,87.8 537.2,86.9 541.0,86.1 544.8,85.4 548.6,84.7 552.4,84.2 556.3,83.7 560.1,83.3 563.9,83.0 567.7,82.8 571.5,82.7 575.4,82.7 579.2,82.7 583.0,82.9 586.8,83.1 590.6,83.4 594.4,83.8 598.3,84.3 602.1,84.8 605.9,85.5 609.7,86.2 613.5,87.1 617.4,88.0 621.2,89.0 625.0,90.1 628.8,91.3 632.6,92.6 636.5,94.0 640.3,95.5 644.1,97.0 647.9,98.7 651.7,100.5 655.5,102.3 659.4,104.3 663.2,106.4 667.0,108.6 670.8,110.9 674.6,113.3 678.5,115.8 682.3,118.4 686.1,121.2 689.9,124.1 693.7,127.1 697.6,130.2 701.4,133.5 705.2,136.9 709.0,140.4 712.8,144.1 716.6,148.0 720.5,152.0 724.3,156.2 728.1,160.6 731.9,165.1 735.7,169.9 739.6,174.9 743.4,180.1 747.2,185.5 751.0,191.2 754.8,197.1 758.7,203.3 762.5,209.9 766.3,216.8 770.1,224.1 773.9,231.9 777.7,240.1 781.6,248.9 785.4,258.3 789.2,268.5 793.0,279.7 796.8,292.0 800.7,305.8 804.5,321.7 808.3,340.5 812.1,364.3 815.9,398.1 819.7,465.4 823.6,467.9 827.4,414.7 831.2,393.2 835.0,381.6 838.8,375.0 842.7,371.5 846.5,370.3 850.3,371.0 854.1,373.1 857.9,376.7 861.8,381.7 865.6,388.0 869.4,395.9 873.2,405.5 877.0,417.3 880.8,431.7 884.7,450.2 888.5,475.3 892.3,514.8 896.1,641.1 899.9,540.4 903.8,505.9 907.6,491.2 911.4,485.5 915.2,486.3 919.0,493.6 922.9,510.5 926.7,550.0 930.5,609.1 934.3,513.4 938.1,476.9 941.9,453.3 945.8,435.8 949.6,421.9 953.4,410.6 957.2,401.1 961.0,393.1 964.9,386.2 968.7,380.4 972.5,375.4 976.3,371.2 980.1,367.8 984.0,364.9 987.8,362.7 991.6,361.1 995.4,360.1 999.2,359.6 1003.0,359.7 1006.9,360.4 1010.7,361.7 1014.5,363.6 1018.3,366.2 1022.1,369.6 1026.0,373.8 1029.8,379.2 1033.6,385.7 1037.4,393.9 1041.2,404.4 1045.1,418.1 1048.9,437.4 1052.7,468.6 1056.5,551.4"/>
<polyline fill="none" stroke="#d62728" stroke-width="3" points="90.4,572.9 94.2,537.0 98.0,515.7 101.8,500.6 105.7,489.1 109.5,480.1 113.3,472.8 117.1,466.9 120.9,462.2 124.8,458.4 128.6,455.4 132.4,453.3 136.2,451.9 140.0,451.2 143.8,451.3 147.7,452.1 151.5,453.7 155.3,456.1 159.1,459.3 162.9,463.6 166.8,469.0 170.6,475.6 174.4,483.9 178.2,494.1 182.0,506.8 185.9,522.9 189.7,544.1 193.5,573.6 197.3,620.4 201.1,753.5 204.9,693.0 208.8,772.1 212.6,609.0 216.4,553.2 220.2,515.6 224.0,486.6 227.9,462.6 231.7,442.1 235.5,424.1 239.3,407.9 243.1,393.3 247.0,379.8 250.8,367.4 254.6,355.8 258.4,345.0 262.2,334.8 266.0,325.2 269.9,316.0 273.7,307.3 277.5,299.1 281.3,291.2 285.1,283.6 289.0,276.3 292.8,269.3 296.6,262.6 300.4,256.2 304.2,249.9 308.0,243.9 311.9,238.1 315.7,232.5 319.5,227.0 323.3,221.8 327.1,216.7 331.0,211.7 334.8,207.0 338.6,202.3 342.4,197.8 346.2,193.4 350.1,189.2 353.9,185.1 357.7,181.1 361.5,177.2 365.3,173.4 369.1,169.7 373.0,166.1 376.8,162.7 380.6,159.3 384.4,156.0 388.2,152.8 392.1,149.7 395.9,146.7 399.7,143.8 403.5,141.0 407.3,138.2 411.2,135.6 415.0,133.0 418.8,130.4 422.6,128.0 426.4,125.6 430.2,123.4 434.1,121.1 437.9,119.0 441.7,116.9 445.5,114.9 449.3,113.0 453.2,111.1 457.0,109.3 460.8,107.5 464.6,105.9 468.4,104.2 472.3,102.7 476.1,101.2 479.9,99.8 483.7,98.4 487.5,97.1 491.3,95.8 495.2,94.6 499.0,93.5 502.8,92.4 506.6,91.4 510.4,90.5 514.3,89.6 518.1,88.7 521.9,87.9 525.7,87.2 529.5,86.5 533.3,85.9 537.2,85.3 541.0,84.8 544.8,84.4 548.6,84.0 552.4,83.6 556.3,83.3 560.1,83.1 563.9,82.9 567.7,82.8 571.5,82.7 575.4,82.7 579.2,82.7 583.0,82.8 586.8,82.9 590.6,83.1 594.4,83.4 598.3,83.7 602.1,84.0 605.9,84.5 609.7,84.9 613.5,85.4 617.4,86.0 621.2,86.6 625.0,87.3 628.8,88.1 632.6,88.9 636.5,89.7 640.3,90.6 644.1,91.6 647.9,92.6 651.7,93.7 655.5,94.9 659.4,96.1 663.2,97.3 667.0,98.6 670.8,100.0 674.6,101.5 678.5,103.0 682.3,104.5 686.1,106.2 689.9,107.9 693.7,109.6 697.6,111.4 701.4,113.3 705.2,115.3 709.0,117.3 712.8,119.4 716.6,121.5 720.5,123.8 724.3,126.1 728.1,128.5 731.9,130.9 735.7,133.4 739.6,136.0 743.4,138.7 747.2,141.5 751.0,144.3 754.8,147.3 758.7,150.3 762.5,153.4 766.3,156.6 770.1,159.9 773.9,163.3 777.7,166.8 781.6,170.4 785.4,174.1 789.2,177.9 793.0,181.8 796.8,185.8 800.7,190.0 804.5,194.2 808.3,198.6 812.1,203.2 815.9,207.8 819.7,212.7 823.6,217.6 827.4,222.7 831.2,228.0 835.0,233.5 838.8,239.2 842.7,245.0 846.5,251.1 850.3,257.3 854.1,263.9 857.9,270.6 861.8,277.6 865.6,285.0 869.4,292.6 873.2,300.6 877.0,308.9 880.8,317.7 884.7,326.9 888.5,336.7 892.3,347.0 896.1,357.9 899.9,369.6 903.8,382.2 907.6,395.9 911.4,410.8 915.2,427.3 919.0,445.7 922.9,466.8 926.7,491.5 930.5,521.8 934.3,561.7 938.1,623.7 941.9,778.6 945.8,697.0 949.6,703.7 953.4,609.5 957.2,567.2 961.0,539.7 964.9,519.6 968.7,504.2 972.5,492.0 976.3,482.2 980.1,474.3 984.0,467.9 987.8,462.7 991.6,458.7 995.4,455.6 999.2,453.3 1003.0,451.9 1006.9,451.2 1010.7,451.3 1014.5,452.1 1018.3,453.6 1022.1,455.9 1026.0,459.0 1029.8,463.0 1033.6,467.9 1037.4,474.1 1041.2,481.6 1045.1,491.1 1048.9,503.1 1052.7,519.0 1056.5,542.2"/>
<polyline fill="none" stroke="#9467bd" stroke-width="3" points="90.4,563.3 94.2,549.9 98.0,539.5 101.8,531.3 105.7,524.8 109.5,519.7 113.3,515.9 117.1,513.2 120.9,511.6 124.8,511.0 128.6,511.7 132.4,513.6 136.2,517.0 140.0,522.3 143.8,529.9 147.7,540.9 151.5,557.4 155.3,585.5 159.1,658.9 162.9,620.2 166.8,568.1 170.6,541.2 174.4,523.1 178.2,509.9 182.0,499.9 185.9,492.3 189.7,486.9 193.5,483.5 197.3,482.1 201.1,483.2 204.9,487.4 208.8,496.2 212.6,513.4 216.4,553.8 220.2,598.7 224.0,508.0 227.9,469.6 231.7,443.1 235.5,422.3 239.3,404.9 243.1,389.6 247.0,375.9 250.8,363.5 254.6,352.1 258.4,341.4 262.2,331.5 266.0,322.1 269.9,313.2 273.7,304.7 277.5,296.7 281.3,289.0 285.1,281.7 289.0,274.6 292.8,267.8 296.6,261.3 300.4,255.0 304.2,248.9 308.0,243.0 311.9,237.3 315.7,231.8 319.5,226.5 323.3,221.3 327.1,216.3 331.0,211.5 334.8,206.7 338.6,202.2 342.4,197.7 346.2,193.4 350.1,189.2 353.9,185.1 357.7,181.1 361.5,177.3 365.3,173.5 369.1,169.9 373.0,166.3 376.8,162.9 380.6,159.5 384.4,156.3 388.2,153.1 392.1,150.0 395.9,147.0 399.7,144.1 403.5,141.3 407.3,138.5 411.2,135.8 415.0,133.3 418.8,130.7 422.6,128.3 426.4,125.9 430.2,123.6 434.1,121.4 437.9,119.2 441.7,117.2 445.5,115.1 449.3,113.2 453.2,111.3 457.0,109.5 460.8,107.7 464.6,106.0 468.4,104.4 472.3,102.9 476.1,101.4 479.9,99.9 483.7,98.5 487.5,97.2 491.3,96.0 495.2,94.8 499.0,93.6 502.8,92.5 506.6,91.5 510.4,90.5 514.3,89.6 518.1,88.8 521.9,88.0 525.7,87.2 529.5,86.6 533.3,85.9 537.2,85.4 541.0,84.9 544.8,84.4 548.6,84.0 552.4,83.6 556.3,83.3 560.1,83.1 563.9,82.9 567.7,82.8 571.5,82.7 575.4,82.7 579.2,82.7 583.0,82.8 586.8,82.9 590.6,83.1 594.4,83.4 598.3,83.7 602.1,84.1 605.9,84.5 609.7,84.9 613.5,85.5 617.4,86.1 621.2,86.7 625.0,87.4 628.8,88.1 632.6,88.9 636.5,89.8 640.3,90.7 644.1,91.7 647.9,92.7 651.7,93.8 655.5,95.0 659.4,96.2 663.2,97.5 667.0,98.8 670.8,100.2 674.6,101.6 678.5,103.1 682.3,104.7 686.1,106.4 689.9,108.1 693.7,109.8 697.6,111.7 701.4,113.5 705.2,115.5 709.0,117.5 712.8,119.6 716.6,121.8 720.5,124.0 724.3,126.4 728.1,128.7 731.9,131.2 735.7,133.7 739.6,136.3 743.4,139.0 747.2,141.8 751.0,144.6 754.8,147.6 758.7,150.6 762.5,153.7 766.3,156.9 770.1,160.2 773.9,163.5 777.7,167.0 781.6,170.6 785.4,174.2 789.2,178.0 793.0,181.9 796.8,185.9 800.7,190.0 804.5,194.2 808.3,198.5 812.1,203.0 815.9,207.6 819.7,212.4 823.6,217.2 827.4,222.3 831.2,227.5 835.0,232.8 838.8,238.4 842.7,244.1 846.5,250.0 850.3,256.1 854.1,262.5 857.9,269.1 861.8,275.9 865.6,283.0 869.4,290.4 873.2,298.2 877.0,306.3 880.8,314.8 884.7,323.8 888.5,333.3 892.3,343.3 896.1,354.1 899.9,365.7 903.8,378.4 907.6,392.3 911.4,407.9 915.2,425.9 919.0,447.5 922.9,475.5 926.7,517.9 930.5,660.5 934.3,542.5 938.1,509.2 941.9,494.1 945.8,486.3 949.6,482.8 953.4,482.2 957.2,483.9 961.0,487.8 964.9,493.6 968.7,501.5 972.5,512.1 976.3,526.0 980.1,545.3 984.0,574.8 987.8,638.7 991.6,635.2 995.4,578.8 999.2,553.7 1003.0,538.5 1006.9,528.2 1010.7,521.1 1014.5,516.3 1018.3,513.2 1022.1,511.5 1026.0,511.1 1029.8,511.8 1033.6,513.6 1037.4,516.5 1041.2,520.6 1045.1,525.9 1048.9,532.7 1052.7,541.2 1056.5,552.1"/>
<polyline fill="none" stroke="#8b5cf6" stroke-width="3" points="90.4,303.7 94.2,297.9 98.0,292.2 101.8,286.7 105.7,281.3 109.5,276.1 113.3,270.9 117.1,265.9 120.9,261.0 124.8,256.2 128.6,251.4 132.4,246.8 136.2,242.3 140.0,237.9 143.8,233.6 147.7,229.4 151.5,225.3 155.3,221.2 159.1,217.2 162.9,213.4 166.8,209.6 170.6,205.9 174.4,202.2 178.2,198.7 182.0,195.2 185.9,191.8 189.7,188.4 193.5,185.2 197.3,182.0 201.1,178.8 204.9,175.8 208.8,172.8 212.6,169.9 216.4,167.0 220.2,164.2 224.0,161.5 227.9,158.8 231.7,156.2 235.5,153.6 239.3,151.1 243.1,148.7 247.0,146.3 250.8,144.0 254.6,141.7 258.4,139.5 262.2,137.3 266.0,135.2 269.9,133.1 273.7,131.1 277.5,129.2 281.3,127.3 285.1,125.4 289.0,123.6 292.8,121.9 296.6,120.2 300.4,118.5 304.2,116.9 308.0,115.3 311.9,113.8 315.7,112.3 319.5,110.9 323.3,109.5 327.1,108.2 331.0,106.9 334.8,105.6 338.6,104.4 342.4,103.3 346.2,102.1 350.1,101.0 353.9,100.0 357.7,99.0 361.5,98.0 365.3,97.1 369.1,96.2 373.0,95.3 376.8,94.5 380.6,93.7 384.4,93.0 388.2,92.2 392.1,91.5 395.9,90.9 399.7,90.3 403.5,89.7 407.3,89.1 411.2,88.6 415.0,88.1 418.8,87.6 422.6,87.2 426.4,86.8 430.2,86.4 434.1,86.0 437.9,85.7 441.7,85.4 445.5,85.1 449.3,84.8 453.2,84.6 457.0,84.3 460.8,84.1 464.6,83.9 468.4,83.8 472.3,83.6 476.1,83.5 479.9,83.3 483.7,83.2 487.5,83.1 491.3,83.1 495.2,83.0 499.0,82.9 502.8,82.9 506.6,82.8 510.4,82.8 514.3,82.8 518.1,82.7 521.9,82.7 525.7,82.7 529.5,82.7 533.3,82.7 537.2,82.7 541.0,82.7 544.8,82.7 548.6,82.7 552.4,82.7 556.3,82.7 560.1,82.7 563.9,82.7 567.7,82.7 571.5,82.7 575.4,82.7 579.2,82.7 583.0,82.7 586.8,82.7 590.6,82.7 594.4,82.7 598.3,82.7 602.1,82.7 605.9,82.7 609.7,82.7 613.5,82.7 617.4,82.7 621.2,82.7 625.0,82.7 628.8,82.7 632.6,82.7 636.5,82.8 640.3,82.8 644.1,82.8 647.9,82.9 651.7,82.9 655.5,83.0 659.4,83.1 663.2,83.2 667.0,83.3 670.8,83.4 674.6,83.5 678.5,83.6 682.3,83.8 686.1,84.0 689.9,84.2 693.7,84.4 697.6,84.6 701.4,84.9 705.2,85.1 709.0,85.4 712.8,85.7 716.6,86.1 720.5,86.5 724.3,86.8 728.1,87.3 731.9,87.7 735.7,88.2 739.6,88.7 743.4,89.2 747.2,89.8 751.0,90.4 754.8,91.0 758.7,91.7 762.5,92.4 766.3,93.1 770.1,93.9 773.9,94.6 777.7,95.5 781.6,96.3 785.4,97.2 789.2,98.2 793.0,99.2 796.8,100.2 800.7,101.2 804.5,102.3 808.3,103.5 812.1,104.7 815.9,105.9 819.7,107.1 823.6,108.4 827.4,109.8 831.2,111.2 835.0,112.6 838.8,114.1 842.7,115.6 846.5,117.2 850.3,118.8 854.1,120.5 857.9,122.2 861.8,124.0 865.6,125.8 869.4,127.6 873.2,129.5 877.0,131.5 880.8,133.5 884.7,135.6 888.5,137.7 892.3,139.9 896.1,142.1 899.9,144.4 903.8,146.7 907.6,149.1 911.4,151.6 915.2,154.1 919.0,156.6 922.9,159.3 926.7,162.0 930.5,164.7 934.3,167.5 938.1,170.4 941.9,173.3 945.8,176.3 949.6,179.4 953.4,182.6 957.2,185.8 961.0,189.0 964.9,192.4 968.7,195.8 972.5,199.3 976.3,202.9 980.1,206.5 984.0,210.3 987.8,214.1 991.6,218.0 995.4,222.0 999.2,226.0 1003.0,230.2 1006.9,234.4 1010.7,238.7 1014.5,243.2 1018.3,247.7 1022.1,252.3 1026.0,257.0 1029.8,261.9 1033.6,266.8 1037.4,271.9 1041.2,277.0 1045.1,282.3 1048.9,287.7 1052.7,293.3 1056.5,298.9"/>
<line x1="880.0" y1="82.0" x2="904.0" y2="82.0" stroke="#1f77b4" stroke-width="4"/>
<text x="912.0" y="87.0" fill="#111827" font-size="15" font-family="Inter, Arial, sans-serif" text-anchor="start" font-weight="normal">rectangular</text>
<line x1="880.0" y1="108.0" x2="904.0" y2="108.0" stroke="#ff7f0e" stroke-width="4"/>
<text x="912.0" y="113.0" fill="#111827" font-size="15" font-family="Inter, Arial, sans-serif" text-anchor="start" font-weight="normal">hann</text>
<line x1="880.0" y1="134.0" x2="904.0" y2="134.0" stroke="#2ca02c" stroke-width="4"/>
<text x="912.0" y="139.0" fill="#111827" font-size="15" font-family="Inter, Arial, sans-serif" text-anchor="start" font-weight="normal">hamming</text>
<line x1="880.0" y1="160.0" x2="904.0" y2="160.0" stroke="#d62728" stroke-width="4"/>
<text x="912.0" y="165.0" fill="#111827" font-size="15" font-family="Inter, Arial, sans-serif" text-anchor="start" font-weight="normal">blackman</text>
<line x1="880.0" y1="186.0" x2="904.0" y2="186.0" stroke="#9467bd" stroke-width="4"/>
<text x="912.0" y="191.0" fill="#111827" font-size="15" font-family="Inter, Arial, sans-serif" text-anchor="start" font-weight="normal">kaiser-8.6</text>
<line x1="880.0" y1="212.0" x2="904.0" y2="212.0" stroke="#8b5cf6" stroke-width="4"/>
<text x="912.0" y="217.0" fill="#111827" font-size="15" font-family="Inter, Arial, sans-serif" text-anchor="start" font-weight="normal">flattop</text>
<text x="575.0" y="652.0" fill="#374151" font-size="16" font-family="Inter, Arial, sans-serif" text-anchor="middle" font-weight="normal">bins relative to the true tone</text>
<text x="28.0" y="330.0" fill="#374151" font-size="16" font-family="Inter, Arial, sans-serif" text-anchor="middle" font-weight="normal">normalized magnitude (dB)</text>
</svg>