<svg xmlns="http://www.w3.org/2000/svg" width="1280" height="780" viewBox="0 0 1280 780">
<defs>
<clipPath id="chart-plot-clip"><rect x="116.0" y="137.0" width="1120.0" height="533.0" rx="12"/></clipPath>
</defs>
<rect width="1280" height="780" fill="#fcfcfd"/>
<text x="640.0" y="42.0" fill="#222" font-size="28" font-family="Inter, Arial, sans-serif" text-anchor="middle" font-weight="700"><tspan x="640.0" dy="0.0" text-anchor="middle">Common windows in the time domain</tspan></text>
<line x1="243.6" y1="87.0" x2="267.6" y2="87.0" stroke="#1f77b4" stroke-width="4"/>
<text x="275.6" y="92.0" fill="#111827" font-size="15" font-family="Inter, Arial, sans-serif" text-anchor="start" font-weight="normal">rectangular</text>
<line x1="403.2" y1="87.0" x2="427.2" y2="87.0" stroke="#ff7f0e" stroke-width="4"/>
<text x="435.2" y="92.0" fill="#111827" font-size="15" font-family="Inter, Arial, sans-serif" text-anchor="start" font-weight="normal">hann</text>
<line x1="502.1" y1="87.0" x2="526.0" y2="87.0" stroke="#2ca02c" stroke-width="4"/>
<text x="534.0" y="92.0" fill="#111827" font-size="15" font-family="Inter, Arial, sans-serif" text-anchor="start" font-weight="normal">hamming</text>
<line x1="627.0" y1="87.0" x2="651.0" y2="87.0" stroke="#d62728" stroke-width="4"/>
<text x="659.0" y="92.0" fill="#111827" font-size="15" font-family="Inter, Arial, sans-serif" text-anchor="start" font-weight="normal">blackman</text>
<line x1="760.6" y1="87.0" x2="784.6" y2="87.0" stroke="#9467bd" stroke-width="4"/>
<text x="792.6" y="92.0" fill="#111827" font-size="15" font-family="Inter, Arial, sans-serif" text-anchor="start" font-weight="normal">kaiser-8.6</text>
<line x1="911.6" y1="87.0" x2="935.6" y2="87.0" stroke="#8b5cf6" stroke-width="4"/>
<text x="943.6" y="92.0" fill="#111827" font-size="15" font-family="Inter, Arial, sans-serif" text-anchor="start" font-weight="normal">flattop</text>
<rect x="116.0" y="137.0" width="1120.0" height="533.0" fill="#ffffff" stroke="#e5e7eb" rx="14"/>
<line x1="116.0" y1="137.0" x2="116.0" y2="670.0" stroke="#333" stroke-width="2"/>
<line x1="116.0" y1="670.0" x2="1236.0" y2="670.0" stroke="#333" stroke-width="2"/>
<line x1="116.0" y1="670.0" x2="1236.0" y2="670.0" stroke="#d9dde3" stroke-width="1" stroke-dasharray="4 6"/>
<text x="104.0" y="675.0" fill="#4b5563" font-size="13" font-family="Inter, Arial, sans-serif" text-anchor="end" font-weight="normal">0.00</text>
<line x1="116.0" y1="563.4" x2="1236.0" y2="563.4" stroke="#d9dde3" stroke-width="1" stroke-dasharray="4 6"/>
<text x="104.0" y="568.4" fill="#4b5563" font-size="13" font-family="Inter, Arial, sans-serif" text-anchor="end" font-weight="normal">0.21</text>
<line x1="116.0" y1="456.8" x2="1236.0" y2="456.8" stroke="#d9dde3" stroke-width="1" stroke-dasharray="4 6"/>
<text x="104.0" y="461.8" fill="#4b5563" font-size="13" font-family="Inter, Arial, sans-serif" text-anchor="end" font-weight="normal">0.42</text>
<line x1="116.0" y1="350.2" x2="1236.0" y2="350.2" stroke="#d9dde3" stroke-width="1" stroke-dasharray="4 6"/>
<text x="104.0" y="355.2" fill="#4b5563" font-size="13" font-family="Inter, Arial, sans-serif" text-anchor="end" font-weight="normal">0.63</text>
<line x1="116.0" y1="243.6" x2="1236.0" y2="243.6" stroke="#d9dde3" stroke-width="1" stroke-dasharray="4 6"/>
<text x="104.0" y="248.6" fill="#4b5563" font-size="13" font-family="Inter, Arial, sans-serif" text-anchor="end" font-weight="normal">0.84</text>
<line x1="116.0" y1="137.0" x2="1236.0" y2="137.0" stroke="#d9dde3" stroke-width="1" stroke-dasharray="4 6"/>
<text x="104.0" y="142.0" fill="#4b5563" font-size="13" font-family="Inter, Arial, sans-serif" text-anchor="end" font-weight="normal">1.05</text>
<line x1="116.0" y1="137.0" x2="116.0" y2="670.0" stroke="#eef1f5" stroke-width="1" stroke-dasharray="4 6"/>
<text x="116.0" y="700.0" fill="#4b5563" font-size="13" font-family="Inter, Arial, sans-serif" text-anchor="middle" font-weight="normal">0.00</text>
<line x1="340.0" y1="137.0" x2="340.0" y2="670.0" stroke="#eef1f5" stroke-width="1" stroke-dasharray="4 6"/>
<text x="340.0" y="700.0" fill="#4b5563" font-size="13" font-family="Inter, Arial, sans-serif" text-anchor="middle" font-weight="normal">0.20</text>
<line x1="564.0" y1="137.0" x2="564.0" y2="670.0" stroke="#eef1f5" stroke-width="1" stroke-dasharray="4 6"/>
<text x="564.0" y="700.0" fill="#4b5563" font-size="13" font-family="Inter, Arial, sans-serif" text-anchor="middle" font-weight="normal">0.40</text>
<line x1="788.0" y1="137.0" x2="788.0" y2="670.0" stroke="#eef1f5" stroke-width="1" stroke-dasharray="4 6"/>
<text x="788.0" y="700.0" fill="#4b5563" font-size="13" font-family="Inter, Arial, sans-serif" text-anchor="middle" font-weight="normal">0.60</text>
<line x1="1012.0" y1="137.0" x2="1012.0" y2="670.0" stroke="#eef1f5" stroke-width="1" stroke-dasharray="4 6"/>
<text x="1012.0" y="700.0" fill="#4b5563" font-size="13" font-family="Inter, Arial, sans-serif" text-anchor="middle" font-weight="normal">0.80</text>
<line x1="1236.0" y1="137.0" x2="1236.0" y2="670.0" stroke="#eef1f5" stroke-width="1" stroke-dasharray="4 6"/>
<text x="1236.0" y="700.0" fill="#4b5563" font-size="13" font-family="Inter, Arial, sans-serif" text-anchor="middle" font-weight="normal">1.00</text>
<g clip-path="url(#chart-plot-clip)">
<polyline fill="none" stroke="#1f77b4" stroke-width="3" stroke-linejoin="round" stroke-linecap="round" points="116.0,162.4 124.8,162.4 133.5,162.4 142.2,162.4 151.0,162.4 159.8,162.4 168.5,162.4 177.2,162.4 186.0,162.4 194.8,162.4 203.5,162.4 212.2,162.4 221.0,162.4 229.8,162.4 238.5,162.4 247.2,162.4 256.0,162.4 264.8,162.4 273.5,162.4 282.2,162.4 291.0,162.4 299.8,162.4 308.5,162.4 317.2,162.4 326.0,162.4 334.8,162.4 343.5,162.4 352.2,162.4 361.0,162.4 369.8,162.4 378.5,162.4 387.2,162.4 396.0,162.4 404.8,162.4 413.5,162.4 422.2,162.4 431.0,162.4 439.8,162.4 448.5,162.4 457.2,162.4 466.0,162.4 474.8,162.4 483.5,162.4 492.2,162.4 501.0,162.4 509.8,162.4 518.5,162.4 527.2,162.4 536.0,162.4 544.8,162.4 553.5,162.4 562.2,162.4 571.0,162.4 579.8,162.4 588.5,162.4 597.2,162.4 606.0,162.4 614.8,162.4 623.5,162.4 632.2,162.4 641.0,162.4 649.8,162.4 658.5,162.4 667.2,162.4 676.0,162.4 684.8,162.4 693.5,162.4 702.2,162.4 711.0,162.4 719.8,162.4 728.5,162.4 737.2,162.4 746.0,162.4 754.8,162.4 763.5,162.4 772.2,162.4 781.0,162.4 789.8,162.4 798.5,162.4 807.2,162.4 816.0,162.4 824.8,162.4 833.5,162.4 842.2,162.4 851.0,162.4 859.8,162.4 868.5,162.4 877.2,162.4 886.0,162.4 894.8,162.4 903.5,162.4 912.2,162.4 921.0,162.4 929.8,162.4 938.5,162.4 947.2,162.4 956.0,162.4 964.8,162.4 973.5,162.4 982.2,162.4 991.0,162.4 999.8,162.4 1008.5,162.4 1017.2,162.4 1026.0,162.4 1034.8,162.4 1043.5,162.4 1052.2,162.4 1061.0,162.4 1069.8,162.4 1078.5,162.4 1087.2,162.4 1096.0,162.4 1104.8,162.4 1113.5,162.4 1122.2,162.4 1131.0,162.4 1139.8,162.4 1148.5,162.4 1157.2,162.4 1166.0,162.4 1174.8,162.4 1183.5,162.4 1192.2,162.4 1201.0,162.4 1209.8,162.4 1218.5,162.4 1227.2,162.4 1236.0,162.4"/>
<polyline fill="none" stroke="#ff7f0e" stroke-width="3" stroke-linejoin="round" stroke-linecap="round" points="116.0,670.0 124.8,669.7 133.5,668.8 142.2,667.3 151.0,665.1 159.8,662.4 168.5,659.1 177.2,655.2 186.0,650.7 194.8,645.6 203.5,640.0 212.2,633.9 221.0,627.2 229.8,620.1 238.5,612.4 247.2,604.3 256.0,595.7 264.8,586.6 273.5,577.2 282.2,567.4 291.0,557.2 299.8,546.7 308.5,535.8 317.2,524.7 326.0,513.3 334.8,501.7 343.5,489.9 352.2,477.9 361.0,465.7 369.8,453.4 378.5,441.1 387.2,428.6 396.0,416.2 404.8,403.7 413.5,391.3 422.2,378.9 431.0,366.7 439.8,354.5 448.5,342.5 457.2,330.7 466.0,319.1 474.8,307.7 483.5,296.5 492.2,285.7 501.0,275.2 509.8,265.0 518.5,255.2 527.2,245.7 536.0,236.7 544.8,228.1 553.5,220.0 562.2,212.3 571.0,205.2 579.8,198.5 588.5,192.4 597.2,186.7 606.0,181.7 614.8,177.2 623.5,173.3 632.2,170.0 641.0,167.3 649.8,165.1 658.5,163.6 667.2,162.7 676.0,162.4 684.8,162.7 693.5,163.6 702.2,165.1 711.0,167.3 719.8,170.0 728.5,173.3 737.2,177.2 746.0,181.7 754.8,186.7 763.5,192.4 772.2,198.5 781.0,205.2 789.8,212.3 798.5,220.0 807.2,228.1 816.0,236.7 824.8,245.7 833.5,255.2 842.2,265.0 851.0,275.2 859.8,285.7 868.5,296.5 877.2,307.7 886.0,319.1 894.8,330.7 903.5,342.5 912.2,354.5 921.0,366.7 929.8,378.9 938.5,391.3 947.2,403.7 956.0,416.2 964.8,428.6 973.5,441.1 982.2,453.4 991.0,465.7 999.8,477.9 1008.5,489.9 1017.2,501.7 1026.0,513.3 1034.8,524.7 1043.5,535.8 1052.2,546.7 1061.0,557.2 1069.8,567.4 1078.5,577.2 1087.2,586.6 1096.0,595.7 1104.8,604.3 1113.5,612.4 1122.2,620.1 1131.0,627.2 1139.8,633.9 1148.5,640.0 1157.2,645.6 1166.0,650.7 1174.8,655.2 1183.5,659.1 1192.2,662.4 1201.0,665.1 1209.8,667.3 1218.5,668.8 1227.2,669.7 1236.0,670.0"/>
<polyline fill="none" stroke="#2ca02c" stroke-width="3" stroke-linejoin="round" stroke-linecap="round" points="116.0,629.4 124.8,629.1 133.5,628.3 142.2,626.9 151.0,624.9 159.8,622.4 168.5,619.3 177.2,615.7 186.0,611.6 194.8,607.0 203.5,601.8 212.2,596.2 221.0,590.0 229.8,583.4 238.5,576.4 247.2,568.9 256.0,561.0 264.8,552.7 273.5,544.0 282.2,535.0 291.0,525.6 299.8,515.9 308.5,506.0 317.2,495.7 326.0,485.2 334.8,474.6 343.5,463.7 352.2,452.6 361.0,441.4 369.8,430.1 378.5,418.8 387.2,407.3 396.0,395.9 404.8,384.4 413.5,373.0 422.2,361.6 431.0,350.3 439.8,339.1 448.5,328.1 457.2,317.2 466.0,306.5 474.8,296.0 483.5,285.8 492.2,275.8 501.0,266.2 509.8,256.8 518.5,247.8 527.2,239.1 536.0,230.8 544.8,222.9 553.5,215.4 562.2,208.3 571.0,201.7 579.8,195.6 588.5,190.0 597.2,184.8 606.0,180.2 614.8,176.0 623.5,172.4 632.2,169.4 641.0,166.9 649.8,164.9 658.5,163.5 667.2,162.7 676.0,162.4 684.8,162.7 693.5,163.5 702.2,164.9 711.0,166.9 719.8,169.4 728.5,172.4 737.2,176.0 746.0,180.2 754.8,184.8 763.5,190.0 772.2,195.6 781.0,201.7 789.8,208.3 798.5,215.4 807.2,222.9 816.0,230.8 824.8,239.1 833.5,247.8 842.2,256.8 851.0,266.2 859.8,275.8 868.5,285.8 877.2,296.0 886.0,306.5 894.8,317.2 903.5,328.1 912.2,339.1 921.0,350.3 929.8,361.6 938.5,373.0 947.2,384.4 956.0,395.9 964.8,407.3 973.5,418.8 982.2,430.1 991.0,441.4 999.8,452.6 1008.5,463.7 1017.2,474.6 1026.0,485.2 1034.8,495.7 1043.5,506.0 1052.2,515.9 1061.0,525.6 1069.8,535.0 1078.5,544.0 1087.2,552.7 1096.0,561.0 1104.8,568.9 1113.5,576.4 1122.2,583.4 1131.0,590.0 1139.8,596.2 1148.5,601.8 1157.2,607.0 1166.0,611.6 1174.8,615.7 1183.5,619.3 1192.2,622.4 1201.0,624.9 1209.8,626.9 1218.5,628.3 1227.2,629.1 1236.0,629.4"/>
<polyline fill="none" stroke="#d62728" stroke-width="3" stroke-linejoin="round" stroke-linecap="round" points="116.0,670.0 124.8,669.9 133.5,669.6 142.2,669.0 151.0,668.2 159.8,667.2 168.5,665.9 177.2,664.4 186.0,662.6 194.8,660.5 203.5,658.1 212.2,655.4 221.0,652.3 229.8,648.9 238.5,645.1 247.2,640.9 256.0,636.3 264.8,631.2 273.5,625.7 282.2,619.8 291.0,613.3 299.8,606.4 308.5,599.0 317.2,591.1 326.0,582.6 334.8,573.7 343.5,564.2 352.2,554.3 361.0,543.8 369.8,532.9 378.5,521.5 387.2,509.7 396.0,497.4 404.8,484.8 413.5,471.8 422.2,458.4 431.0,444.8 439.8,430.9 448.5,416.9 457.2,402.7 466.0,388.4 474.8,374.0 483.5,359.7 492.2,345.5 501.0,331.3 509.8,317.4 518.5,303.7 527.2,290.3 536.0,277.3 544.8,264.8 553.5,252.7 562.2,241.1 571.0,230.2 579.8,220.0 588.5,210.4 597.2,201.6 606.0,193.6 614.8,186.4 623.5,180.2 632.2,174.8 641.0,170.3 649.8,166.9 658.5,164.4 667.2,162.9 676.0,162.4 684.8,162.9 693.5,164.4 702.2,166.9 711.0,170.3 719.8,174.8 728.5,180.2 737.2,186.4 746.0,193.6 754.8,201.6 763.5,210.4 772.2,220.0 781.0,230.2 789.8,241.1 798.5,252.7 807.2,264.8 816.0,277.3 824.8,290.3 833.5,303.7 842.2,317.4 851.0,331.3 859.8,345.5 868.5,359.7 877.2,374.0 886.0,388.4 894.8,402.7 903.5,416.9 912.2,430.9 921.0,444.8 929.8,458.4 938.5,471.8 947.2,484.8 956.0,497.4 964.8,509.7 973.5,521.5 982.2,532.9 991.0,543.8 999.8,554.3 1008.5,564.2 1017.2,573.7 1026.0,582.6 1034.8,591.1 1043.5,599.0 1052.2,606.4 1061.0,613.3 1069.8,619.8 1078.5,625.7 1087.2,631.2 1096.0,636.3 1104.8,640.9 1113.5,645.1 1122.2,648.9 1131.0,652.3 1139.8,655.4 1148.5,658.1 1157.2,660.5 1166.0,662.6 1174.8,664.4 1183.5,665.9 1192.2,667.2 1201.0,668.2 1209.8,669.0 1218.5,669.6 1227.2,669.9 1236.0,670.0"/>
<polyline fill="none" stroke="#9467bd" stroke-width="3" stroke-linejoin="round" stroke-linecap="round" points="116.0,669.3 124.8,668.9 133.5,668.3 142.2,667.6 151.0,666.7 159.8,665.7 168.5,664.4 177.2,662.9 186.0,661.2 194.8,659.2 203.5,656.9 212.2,654.3 221.0,651.4 229.8,648.0 238.5,644.4 247.2,640.3 256.0,635.7 264.8,630.8 273.5,625.4 282.2,619.5 291.0,613.1 299.8,606.2 308.5,598.8 317.2,590.9 326.0,582.5 334.8,573.6 343.5,564.1 352.2,554.1 361.0,543.7 369.8,532.7 378.5,521.3 387.2,509.5 396.0,497.2 404.8,484.5 413.5,471.5 422.2,458.2 431.0,444.6 439.8,430.7 448.5,416.7 457.2,402.5 466.0,388.2 474.8,373.8 483.5,359.5 492.2,345.3 501.0,331.1 509.8,317.2 518.5,303.5 527.2,290.2 536.0,277.2 544.8,264.6 553.5,252.6 562.2,241.1 571.0,230.1 579.8,219.9 588.5,210.3 597.2,201.5 606.0,193.6 614.8,186.4 623.5,180.1 632.2,174.8 641.0,170.3 649.8,166.9 658.5,164.4 667.2,162.9 676.0,162.4 684.8,162.9 693.5,164.4 702.2,166.9 711.0,170.3 719.8,174.8 728.5,180.1 737.2,186.4 746.0,193.6 754.8,201.5 763.5,210.3 772.2,219.9 781.0,230.1 789.8,241.1 798.5,252.6 807.2,264.6 816.0,277.2 824.8,290.2 833.5,303.5 842.2,317.2 851.0,331.1 859.8,345.3 868.5,359.5 877.2,373.8 886.0,388.2 894.8,402.5 903.5,416.7 912.2,430.7 921.0,444.6 929.8,458.2 938.5,471.5 947.2,484.5 956.0,497.2 964.8,509.5 973.5,521.3 982.2,532.7 991.0,543.7 999.8,554.1 1008.5,564.1 1017.2,573.6 1026.0,582.5 1034.8,590.9 1043.5,598.8 1052.2,606.2 1061.0,613.1 1069.8,619.5 1078.5,625.4 1087.2,630.8 1096.0,635.7 1104.8,640.3 1113.5,644.4 1122.2,648.0 1131.0,651.4 1139.8,654.3 1148.5,656.9 1157.2,659.2 1166.0,661.2 1174.8,662.9 1183.5,664.4 1192.2,665.7 1201.0,666.7 1209.8,667.6 1218.5,668.3 1227.2,668.9 1236.0,669.3"/>
<polyline fill="none" stroke="#8b5cf6" stroke-width="3" stroke-linejoin="round" stroke-linecap="round" points="116.0,670.2 124.8,670.2 133.5,670.3 142.2,670.5 151.0,670.7 159.8,671.1 168.5,671.5 177.2,672.0 186.0,672.7 194.8,673.5 203.5,674.4 212.2,675.5 221.0,676.8 229.8,678.2 238.5,679.9 247.2,681.7 256.0,683.6 264.8,685.8 273.5,688.0 282.2,690.4 291.0,692.8 299.8,695.2 308.5,697.6 317.2,699.8 326.0,701.8 334.8,703.5 343.5,704.8 352.2,705.6 361.0,705.8 369.8,705.2 378.5,703.8 387.2,701.3 396.0,697.8 404.8,693.0 413.5,686.9 422.2,679.4 431.0,670.4 439.8,659.8 448.5,647.6 457.2,633.8 466.0,618.4 474.8,601.3 483.5,582.6 492.2,562.5 501.0,541.0 509.8,518.3 518.5,494.5 527.2,469.9 536.0,444.5 544.8,418.8 553.5,392.9 562.2,367.1 571.0,341.6 579.8,316.9 588.5,293.0 597.2,270.5 606.0,249.4 614.8,230.1 623.5,212.9 632.2,197.9 641.0,185.3 649.8,175.4 658.5,168.2 667.2,163.8 676.0,162.4 684.8,163.8 693.5,168.2 702.2,175.4 711.0,185.3 719.8,197.9 728.5,212.9 737.2,230.1 746.0,249.4 754.8,270.5 763.5,293.0 772.2,316.9 781.0,341.6 789.8,367.1 798.5,392.9 807.2,418.8 816.0,444.5 824.8,469.9 833.5,494.5 842.2,518.3 851.0,541.0 859.8,562.5 868.5,582.6 877.2,601.3 886.0,618.4 894.8,633.8 903.5,647.6 912.2,659.8 921.0,670.4 929.8,679.4 938.5,686.9 947.2,693.0 956.0,697.8 964.8,701.3 973.5,703.8 982.2,705.2 991.0,705.8 999.8,705.6 1008.5,704.8 1017.2,703.5 1026.0,701.8 1034.8,699.8 1043.5,697.6 1052.2,695.2 1061.0,692.8 1069.8,690.4 1078.5,688.0 1087.2,685.8 1096.0,683.6 1104.8,681.7 1113.5,679.9 1122.2,678.2 1131.0,676.8 1139.8,675.5 1148.5,674.4 1157.2,673.5 1166.0,672.7 1174.8,672.0 1183.5,671.5 1192.2,671.1 1201.0,670.7 1209.8,670.5 1218.5,670.3 1227.2,670.2 1236.0,670.2"/>
</g>
<text x="676.0" y="746.0" fill="#374151" font-size="16" font-family="Inter, Arial, sans-serif" text-anchor="middle" font-weight="normal">normalized sample index</text>
<text x="36.0" y="403.5" fill="#374151" font-size="16" font-family="Inter, Arial, sans-serif" text-anchor="middle" transform="rotate(-90 36 403.5)">amplitude</text>
</svg>